<?xml version="1.0" encoding="UTF-8" standalone="no"?>
<svg
   xmlns:dc="http://purl.org/dc/elements/1.1/"
   xmlns:cc="http://creativecommons.org/ns#"
   xmlns:rdf="http://www.w3.org/1999/02/22-rdf-syntax-ns#"
   xmlns:svg="http://www.w3.org/2000/svg"
   xmlns="http://www.w3.org/2000/svg"
   xmlns:sodipodi="http://sodipodi.sourceforge.net/DTD/sodipodi-0.dtd"
   xmlns:inkscape="http://www.inkscape.org/namespaces/inkscape"
   width="54.079918mm"
   height="52.753288mm"
   viewBox="0 0 54.079917 52.753289"
   version="1.1"
   id="svg8"
   inkscape:version="1.0.2 (e86c8708, 2021-01-15)"
   sodipodi:docname="cloud.svg">
  <defs
     id="defs2">
    <clipPath
       clipPathUnits="userSpaceOnUse"
       id="clipPath939">
      <path
         d="M -9,-9 H 851 V 605 H -9 Z"
         clip-rule="evenodd"
         id="path937" />
    </clipPath>
    <clipPath
       clipPathUnits="userSpaceOnUse"
       id="clipPath965">
      <path
         d="M -9,-9 H 851 V 605 H -9 Z"
         clip-rule="evenodd"
         id="path963" />
    </clipPath>
  </defs>
  <sodipodi:namedview
     id="base"
     pagecolor="#ffffff"
     bordercolor="#666666"
     borderopacity="1.0"
     inkscape:pageopacity="0.0"
     inkscape:pageshadow="2"
     inkscape:zoom="1.6727298"
     inkscape:cx="56.648255"
     inkscape:cy="67.349608"
     inkscape:document-units="mm"
     inkscape:current-layer="layer1"
     inkscape:document-rotation="0"
     showgrid="false"
     inkscape:window-width="1440"
     inkscape:window-height="855"
     inkscape:window-x="139"
     inkscape:window-y="23"
     inkscape:window-maximized="0" />
  <metadata
     id="metadata5">
    <rdf:RDF>
      <cc:Work
         rdf:about="">
        <dc:format>image/svg+xml</dc:format>
        <dc:type
           rdf:resource="http://purl.org/dc/dcmitype/StillImage" />
        <dc:title />
      </cc:Work>
    </rdf:RDF>
  </metadata>
  <g
     inkscape:label="Слой 1"
     inkscape:groupmode="layer"
     id="layer1"
     transform="translate(160.3045,-236.49803)">
    <path
       d="m -125.99855,279.047 c 0.10139,0.24239 1.1648,0.0959 1.48011,0.34491 0.1421,0.11229 3.0335,-0.1004 3.64039,2.5279 0.3188,1.3807 -0.20581,3.02768 -1.7997,1.7768 -0.56561,-0.44401 -0.36759,-0.55552 -0.36759,0.60737 0,1.1955 -1.10751,1.14071 -1.89939,0.45262 -0.1034,-0.0899 -0.8884,-0.61722 -0.8884,-0.5926 0,1.11309 -0.23982,2.28558 -1.56242,1.45468 -0.19438,-0.1222 -1.52749,-2.0477 -2.46299,-2.7571 -1.74332,-1.32189 -2.57482,-0.25799 -2.50239,-0.21879 0.93708,0.50539 1.18727,-0.0155 2.30018,1.48269 0.76581,1.03092 0.32261,3.62761 -1.3401,2.56282 -0.25188,-0.16132 -0.29968,-0.42841 -0.40608,-0.5716 0,0.82409 0.34509,2.2794 -1.28672,1.57289 -1.03301,-0.44721 -0.59189,-2.19699 -1.14131,0.6101 -0.11867,0.60621 -1.24809,0.5142 -1.7182,0.0919 -0.474,-0.4258 -0.57739,-0.13469 -1.06959,-1.04157 -0.31309,-0.57683 -1.81049,-2.53041 -2.4324,-2.81323 0.35161,-0.22338 3.44321,-0.61588 4.40619,-1.03978 0.57531,-0.25333 1.47962,-0.57792 2.15932,-0.86479 1.52171,-0.64231 2.60579,-1.07961 4.13829,-1.83022 0.14969,-0.0732 2.89211,-1.42218 2.7528,-1.75499"
       style="fill:#ef7c00;fill-opacity:1;fill-rule:evenodd;stroke:none;stroke-width:0.352778"
       id="path4357" />
    <path
       d="m -108.57895,248.61878 c 0.68809,0.5787 2.02209,3.96022 2.02209,5.20792 0,0.8678 0.35292,3.187 -0.1384,3.96159 -0.2831,0.4464 0.22511,3.8257 -2.941,5.39701 -1.1715,0.58141 -1.66709,1.17968 -3.23677,1.67008 -2.05602,0.6422 -0.54751,0.75502 -3.24203,0.42351 -0.63278,-0.0778 2.38852,-1.78439 0.1839,-3.53261 -0.74079,-0.58738 -0.79607,1.2096 -3.3752,1.2096 -1.72131,0 -2.65599,-0.21089 -4.16108,-1.13778 -2.28692,-1.40843 -3.36162,-5.86972 -3.36652,-5.87392 0.0245,-0.0153 0.0577,-1.38839 0.0577,-1.50739 0,-1.91879 0.47699,-1.371 -0.5847,-1.58771 -2.08449,-0.42548 -1.96702,-2.29358 -1.77151,-3.97478 0.139,-1.19532 0.16232,-0.8351 0.78599,-1.57282 0.42312,-0.50049 3.64261,0.19593 4.24081,0.36491 0.8127,0.2298 0.3125,0.1463 1.25071,0.18651 1.23719,0.0529 2.28,-2.08022 2.40548,-2.97621 0.83274,-0.0552 1.70752,0.592 3.17014,-0.23001 0.34808,-0.19558 0.28067,-0.18097 0.57668,-0.3859 0,-0.005 0.4385,-0.75509 1.00849,-0.52077 0.19212,0.079 3.2084,1.17228 3.22192,1.17457 0.89789,0.15801 3.13129,2.73092 3.7121,3.4924 0.0274,0.0359 0.15159,0.20492 0.18119,0.2118"
       style="fill:#f7ff00;fill-opacity:1;fill-rule:evenodd;stroke:none;stroke-width:0.352778"
       id="path4359" />
    <path
       d="m -137.23844,254.97467 c -0.0904,-0.77159 0.29161,-0.94226 0.34788,-1.21447 0.50662,0.0388 -0.99808,-0.5232 -2.30237,-1.6855 -1.15831,-1.03202 2.06477,-0.25929 1.853,-0.83541 -0.76641,-0.17681 -2.57302,-2.3307 -1.28683,-2.12478 2.2787,0.3647 2.173,-0.60752 2.83101,-2.13964 1.2254,-2.85337 0.2214,-4.15477 3.58101,-7.874 1.7641,-1.95297 6.6149,-3.16106 9.054,-1.83278 1.6643,0.90639 2.20927,0.62142 3.44678,2.45082 0.0682,0.10078 0.42422,0.4917 0.39773,0.5782 -0.2987,0.29609 -1.7471,0.50359 -1.7471,1.77997 -0.74182,0 -1.07813,-0.8884 -2.61881,-0.8884 -1.106,0 -0.9803,0.43621 -1.70071,0.64333 -1.2719,0.36579 -1.44141,3.75528 -0.44908,4.58488 0.0243,0.0203 0.83929,1.19471 0.007,0.7868 -1.33689,-0.65529 -2.45251,0.11821 -3.24902,1.15361 -0.58857,0.76529 -0.14538,2.51101 -0.41349,2.60079 0.26762,0.0283 0.49689,0.7614 0.88011,1.14459 0.4287,0.4288 1.1792,0.72742 1.7846,0.72742 0,1.5306 -0.2117,3.3074 0.25291,4.77379 0.24528,0.774 0.68629,1.60631 1.10818,2.3107 0.7699,1.28559 1.98652,1.88489 3.2289,2.52701 0.28042,0.14489 0.95021,0.52268 1.26139,0.49809 -0.25918,0.4493 0.58022,2.1505 0.61013,2.7904 0.0284,0.609 0.0671,3.46061 -0.0586,3.94931 -0.0967,0.37568 -0.0229,0.74998 -0.30638,1.08801 -0.0162,0.0194 -0.2419,0.66378 -0.27559,0.75018 0.0796,0.4856 -1.4181,4.01119 -2.11392,4.55669 -0.62618,0.49092 -0.88328,1.54802 -2.08051,2.39479 -0.52849,0.37381 -0.70837,1.03061 -1.92828,1.43983 -0.0312,0.0105 -1.56789,0.8635 -2.13572,1.08021 -1.43277,0.54649 -2.7529,1.26319 -4.13568,1.90627 -1.24499,0.57912 -2.4371,0.762 -3.70949,1.0372 -0.1959,0.0425 -0.1276,0.0841 -0.34753,0.0841 -1.12017,0.29281 -1.77419,0.4674 -3.04069,0.5794 -1.8886,0.16711 -3.2414,0.28223 -5.1695,-0.005 -0.68859,-0.1027 -3.4259,-0.4572 -3.8371,-0.75022 -0.26698,-0.19008 -1.5113,-0.0545 -2.19008,-0.69229 -0.29531,-0.2775 -3.08991,-1.53218 -3.40053,-1.98339 -0.026,-0.0378 -0.0183,-0.0321 -0.0691,-0.028 l -2.65849,-2.3937 -1.45161,-2.01521 -0.5968,-1.8748 -0.0395,-2.28459 0.53771,-1.19331 1.73559,-0.0774 -1.35541,-3.7938 -0.2939,-2.81789 c -0.35778,-1.28351 0.65843,-3.73831 2.31493,-3.37541 0.49629,0.10873 1.15419,0.5557 1.37598,1.1055 0.75949,1.88253 0.33891,1.0106 0.6713,-0.11998 0.1241,-0.4221 0.0998,-1.59981 0.3756,-2.29492 0.62382,-1.57308 0.8171,-3.28098 2.86911,-3.7961 1.53631,-0.38559 2.73579,1.46741 1.66218,2.86131 -1.78368,2.3157 -1.5101,5.1151 -1.82499,5.5965 -0.0378,0.0579 -0.21819,1.8646 0.41582,2.28981 1.09269,0.73268 0.782,0.45529 0.67659,-0.83499 -0.0481,-0.58882 -0.28522,-1.66363 0.5872,-1.61851 0.32791,0.017 1.56411,2.15999 1.40409,0.5007 -0.0628,-0.64989 -0.5412,-1.80132 0.2958,-2.5121 0.33112,-0.2812 1.24771,1.23638 2.84159,1.23638 0.86833,0 0.82773,-1.13429 1.64162,-1.75457 1.33911,-1.02063 0.93588,-3.71253 4.54448,-6.17333 0.2594,-0.17689 1.83,-0.82191 2.19262,-0.82191"
       style="fill:#ff0000;fill-opacity:1;fill-rule:evenodd;stroke:none;stroke-width:0.352778"
       id="path4361" />
    <path
       d="m -145.61716,263.72448 1.1453,-1.18928 c 0.78242,-0.029 1.63812,-0.12901 2.30741,0.30928 0.84342,0.55241 0.44951,2.62643 -0.10421,3.41012 -0.2418,0.3423 -0.38188,0.74348 -0.9628,0.90678 0,0.16761 1.9256,-0.0953 2.7161,0.64601 0.4565,0.4282 0.9264,0.11 0.77633,1.66659 -0.0258,0.2673 -1.67961,2.2406 -2.35211,2.03952 l 2.72859,1.2006 0.9071,0.80758 0.36622,1.50192 -1.22312,2.17911 -2.44778,0.10728 -4.41251,-0.73071 -2.43741,-0.68968 -2.1493,-1.7199 -1.46258,-2.03182 -0.79781,-2.8653 0.2341,-2.8744 2.42359,1.26891 -0.42898,-1.9891 0.25989,-1.25589 1.896,1.47119 -0.21339,-2.2067 0.17889,-1.1418 1.64299,0.92259 z"
       style="fill:#009ee3;fill-opacity:1;fill-rule:evenodd;stroke:none;stroke-width:0.352778"
       id="path4363" />
    <path
       d="m -142.45863,262.77389 -1.80552,-0.0715 c 0.77311,-0.63169 0.40619,-1.065 2.13981,-2.00558 1.3305,-0.72199 0.87189,-0.5279 2.31599,-0.45431 0.36329,0.0186 1.69989,0.99971 1.7969,1.61841 0.24631,1.5707 0.38732,2.4033 -0.57421,3.7532 -0.0412,0.058 1.91643,0.286 2.26702,0.53569 0.18369,0.13081 1.88648,0.21559 1.64909,1.81801 -3.5e-4,0.003 -0.34311,0.5824 -0.36498,0.58469 -0.15332,0.66432 -2.50702,2.18581 -2.66291,2.0121 0.49908,0.0316 2.451,0.64111 2.75738,1.07672 0.4033,0.5733 0.788,0.0517 0.7274,1.71026 -0.0259,0.70672 0.15652,1.20873 -0.4595,2.04562 -0.90649,1.23151 -1.99418,1.50051 -3.5537,1.60249 -0.76747,0.0503 -1.4266,0.24642 -0.72817,-0.32639 0.63059,-0.5172 1.1672,-2.8177 0.38858,-3.22978 -0.0157,-0.008 -0.7414,-0.88921 -1.12038,-1.04412 -0.40083,-0.1639 -2.5248,-0.84321 -2.40531,-0.88589 1.06708,-0.38111 0.63799,0.13321 1.48371,-0.82191 0.94887,-1.07159 1.24449,-2.361 -0.16373,-3.1019 -0.50789,-0.2673 -0.70269,-0.32921 -1.31469,-0.32921 l -1.21391,-0.10128 1.49871,-1.67111 0.1857,-1.65421 z"
       style="fill:#ffed00;fill-opacity:1;fill-rule:evenodd;stroke:none;stroke-width:0.352778"
       id="path4365" />
    <path
       d="m -125.09865,248.80247 c 0.88861,0.0513 0.7081,1.68932 -0.0165,1.89813 -0.8061,0.23219 -2.2582,0.0763 -2.2582,-1.08762 0,-0.4463 1.1074,-0.8504 1.45471,-0.8551 0.31009,-0.004 0.62781,0.0335 0.82,0.0446"
       style="fill:#ed4e4e;fill-opacity:1;fill-rule:evenodd;stroke:none;stroke-width:0.352778"
       id="path4367" />
    <g
       id="g4369"
       transform="matrix(0.35277777,0,0,-0.35277777,-173.57995,333.81779)">
      <g
         id="g4371">
        <path
           d="m 149.682,251.6822 c -0.638,-4.8741 -4.7715,-8.9234 -10.0082,-6.7022 -21.3157,9.0408 -17.0499,-18.8921 -6.7113,-16.2377 0.3917,0.1355 0.5992,0.563 0.4637,0.9547 -0.1355,0.3915 -0.5627,0.5993 -0.9544,0.4638 -7.4619,-1.9055 -12.2352,21.427 6.5934,13.4475 6.2977,-2.6688 11.336,2.05 12.1172,8.0739 0,0.4145 -0.3359,0.7504 -0.7503,0.7504 -0.4141,0 -0.7501,-0.3359 -0.7501,-0.7504"
           style="fill:#1a1a18;fill-opacity:1;fill-rule:evenodd;stroke:none"
           id="path4373" />
      </g>
      <g
         id="g4375">
        <path
           d="m 150.5693,251.3673 c 3.3729,-0.4104 10.2107,-1.8686 11.8341,3.9558 2.323,8.3364 -11.3925,15.1602 -14.1072,5.4524 -11.4463,9.5182 -22.8688,-8.6882 -10.5432,-16.0861 0.3858,-0.2315 0.6973,-0.2505 1.1299,-0.2701 0.4144,0 0.7503,0.3359 0.7503,0.7503 0,0.4142 -0.3359,0.7504 -0.7503,0.7504 -3.5833,0.1525 -7.4166,9.9833 -2.4225,14.0655 7.3894,6.04 12.5564,-3.9923 13.1148,-0.2971 1.2115,8.015 12.3931,3.8395 11.4616,-3.5711 -0.6557,-5.2186 -7.939,-3.5546 -10.3938,-3.2516 -0.4139,0.0204 -0.7659,-0.2985 -0.7863,-0.7123 -0.0202,-0.4139 0.2987,-0.766 0.7126,-0.7861"
           style="fill:#1a1a18;fill-opacity:1;fill-rule:evenodd;stroke:none"
           id="path4377" />
      </g>
      <g
         id="g4379">
        <path
           d="m 138.486,244.3663 c 8.4079,-2.1226 4.3288,12.5983 -1.1432,6.6957 -1.3376,-1.4428 -1.3745,-4.5476 0.6237,-5.872 -0.0525,-0.3588 0.1624,-0.7123 0.5195,-0.8237 z m 1.9418,1.302 c -0.1211,0.2517 -0.3784,0.4251 -0.6764,0.4251 -1.8592,0.169 -2.1549,2.1589 -1.565,3.5232 1.9347,4.4734 5.8947,-3.4514 2.2414,-3.9483"
           style="fill:#1a1a18;fill-opacity:1;fill-rule:evenodd;stroke:none"
           id="path4381" />
      </g>
      <g
         id="g4383">
        <path
           d="m 141.1506,245.6821 c 0.506,0.0998 0.9318,0.5945 1.1211,1.6872 0.006,0.0278 0.0116,0.0556 0.0148,0.0845 l 0.004,0.0204 c 1.1798,7.6802 -8.4597,1.6047 -3.9381,-1.3912 1.3838,-0.917 2.2819,-0.8873 2.7986,-0.4009"
           style="fill:#1a1a18;fill-opacity:1;fill-rule:evenodd;stroke:none"
           id="path4385" />
      </g>
      <g
         id="g4387">
        <path
           d="m 153.6216,252.8666 c -1.1539,0.0564 -2.2127,4.0334 0.1772,3.8128 0.6517,-0.3225 1.7303,-3.6921 0.1831,-3.8922 -0.108,0.0544 -0.231,0.0833 -0.3603,0.0794 z m -0.0859,-1.4894 c 0.1095,-0.0621 0.2356,-0.0975 0.3703,-0.0975 2.4638,0.152 2.6821,2.6243 2.0794,4.5624 -2.3949,7.7034 -8.7851,-3.9818 -2.4497,-4.4649"
           style="fill:#1a1a18;fill-opacity:1;fill-rule:evenodd;stroke:none"
           id="path4389" />
      </g>
      <g
         id="g4391">
        <path
           d="m 153.3424,256.667 0.019,-0.1423 c -3.1728,0.6925 1.2816,-7.8177 1.652,-3.0688 0.436,0.6369 0.578,1.5599 -0.0558,2.234 -0.0349,0.3835 -0.0805,0.7985 -0.1406,1.2549 -0.0765,0.4073 -0.4688,0.6752 -0.8762,0.5983 -0.4073,-0.0765 -0.6749,-0.4688 -0.5984,-0.8761"
           style="fill:#1a1a18;fill-opacity:1;fill-rule:evenodd;stroke:none"
           id="path4393" />
      </g>
      <g
         id="g4395">
        <path
           d="m 153.4555,257.5556 c -1.8323,-0.153 -2.7198,-2.8618 -0.621,-5.2537 0.305,-0.2804 0.7798,-0.2599 1.0598,0.0453 0.2804,0.3053 0.2597,0.7799 -0.0453,1.0602 -0.6775,0.8855 -1.4346,1.5335 -0.252,2.6671 0.3228,0.0743 0.5686,0.3575 0.5814,0.7041 0.015,0.4142 -0.3087,0.762 -0.7229,0.777"
           style="fill:#1a1a18;fill-opacity:1;fill-rule:evenodd;stroke:none"
           id="path4397" />
      </g>
      <g
         id="g4399">
        <path
           d="m 154.5109,257.898 c -2.9432,2.9532 -5.8485,-4.619 -2.7941,-5.7282 0.4005,-0.106 0.8112,0.1327 0.9172,0.5332 0.0964,0.3648 -0.0926,0.7379 -0.4297,0.8816 -0.3175,0.6709 -0.2653,3.8185 1.1943,3.3174 0.2585,-0.2382 0.6576,-0.2685 0.9515,-0.0525 0.334,0.2452 0.406,0.7146 0.1608,1.0485"
           style="fill:#1a1a18;fill-opacity:1;fill-rule:evenodd;stroke:none"
           id="path4401" />
      </g>
      <g
         id="g4403">
        <path
           d="m 162.2426,254.7961 c 11.9447,-1.6758 20.8659,-10.9967 25.5068,-21.6476 2.7629,-6.3414 2.1928,-21.6981 -2.3446,-27.8099 -6.0137,-8.1014 -12.8749,-9.3475 -21.4347,-10.1412 1.1304,4.0473 5.2245,7.7896 -3.2074,12.5767 -7.4223,4.2137 -15.0132,4.4232 -18.9454,15.7006 -0.9578,2.7467 -0.729,3.0532 -0.7299,5.8887 l 0.003,-0.021 c 0.0315,0.0836 0.072,0.2024 0.1199,0.2911 0.2517,0.2276 0.324,0.6058 0.1539,0.9165 -0.1989,0.3634 -0.655,0.4963 -1.0184,0.2973 -0.3172,-0.2248 -0.4207,-0.3827 -0.5715,-0.7461 -3.092,-7.4463 7.4565,-18.4096 14.7705,-21.3386 18.9765,-7.5997 4.5575,-13.2463 8.3948,-14.9791 5.9292,-2.6776 19.8502,5.5134 23.6707,10.6616 4.8586,6.5461 5.5012,22.4476 2.5115,29.3097 -4.8954,11.2377 -14.3189,20.8038 -26.8793,22.542 -0.4144,0 -0.7503,-0.3359 -0.7503,-0.7504 0,-0.4144 0.3359,-0.7503 0.7503,-0.7503"
           style="fill:#1a1a18;fill-opacity:1;fill-rule:evenodd;stroke:none"
           id="path4405" />
      </g>
      <g
         id="g4407">
        <path
           d="m 142.6484,233.7032 c -0.2089,-3.0141 -3.1266,-2.3975 -4.8965,-1.5534 -0.3892,0.1426 -0.8201,-0.0572 -0.9627,-0.4461 -0.1352,-0.3688 0.0372,-0.7748 0.3867,-0.938 2.4077,-2.1994 6.7456,-0.3161 6.9729,2.9375 0,0.4144 -0.3359,0.7503 -0.7503,0.7503 -0.4142,0 -0.7501,-0.3359 -0.7501,-0.7503"
           style="fill:#1a1a18;fill-opacity:1;fill-rule:evenodd;stroke:none"
           id="path4409" />
      </g>
      <g
         id="g4411">
        <path
           d="m 136.1041,240.9018 c 5.186,-0.2957 1.4476,-7.9072 -4.047,-3.5609 -1.9656,1.5545 0.6911,3.5085 3.526,3.6476 0.0496,0 0.0981,0.005 0.1451,0.0142 0.1103,-0.0643 0.2387,-0.1009 0.3759,-0.1009 z m -0.1451,1.4865 c -0.1106,0.0643 -0.239,0.1009 -0.3759,0.1009 -5.1089,-0.2526 -7.2122,-4.1545 -4.4592,-6.3232 7.674,-6.0461 12.937,5.7792 4.9802,6.2365 -0.0496,0 -0.0984,-0.005 -0.1451,-0.0142"
           style="fill:#1a1a18;fill-opacity:1;fill-rule:evenodd;stroke:none"
           id="path4413" />
      </g>
      <g
         id="g4415">
        <path
           d="m 132.2609,229.718 c -5.5052,-27.4159 23.6679,-36.176 30.8336,-25.4217 l 0.0839,0.1522 c 0.3007,0.2707 0.333,0.7339 0.0691,1.044 -0.2687,0.3155 -0.7424,0.3535 -1.0579,0.0848 -0.2287,-0.2489 -0.2282,-0.2222 -0.3546,-0.457 -15.5713,-11.5721 -31.788,5.933 -28.1418,24.1509 0.1233,0.3958 -0.0972,0.8164 -0.4929,0.9397 -0.3954,0.1233 -0.8161,-0.0972 -0.9394,-0.4929"
           style="fill:#1a1a18;fill-opacity:1;fill-rule:evenodd;stroke:none"
           id="path4417" />
      </g>
      <g
         id="g4419">
        <path
           d="m 154.4522,265.4994 c -14.133,17.1034 -36.9286,12.051 -44.5167,-7.8647 -2.8366,-7.4452 -2.3221,-8.1 -4.2423,-14.3524 -1.878,-6.1143 -13.9403,1.7598 -6.3238,-7.336 0.538,-0.6424 1.0326,-1.1982 1.6086,-1.6509 -1.5389,-0.1128 -1.8533,0.8229 -5.0499,-0.798 1.0687,-3.0611 6.9491,-7.2445 10.1925,-7.3562 0.4128,0.0352 0.7189,0.3989 0.6837,0.8116 -0.0354,0.4127 -0.3988,0.7186 -0.8115,0.6834 -2.039,0.0882 -6.4159,3.0745 -8.0513,5.2336 11.2887,-0.153 2.1583,2.5977 0.8397,6.5602 3.5586,-0.7676 7.0387,-0.8175 8.3301,3.3625 2.0056,6.4888 1.2841,6.5758 4.2404,14.3464 7.1047,18.6721 28.514,23.6452 41.8328,7.5578 0.2217,-0.3501 0.6852,-0.4541 1.0352,-0.2325 0.3501,0.2217 0.4544,0.6852 0.2325,1.0352"
           style="fill:#1a1a18;fill-opacity:1;fill-rule:evenodd;stroke:none"
           id="path4421" />
      </g>
      <g
         id="g4423">
        <path
           d="m 121.2508,211.1621 c 3.1833,5.8516 -3.9651,13.4155 -10.9369,13.5241 -14.2407,0.222 -18.3892,-5.8127 -24.6566,-17.1989 -9.6097,-17.4595 -12.4123,-1.0789 -15.5761,-4.9176 -1.2294,-1.4916 -0.6035,-6.1449 -0.229,-8.6916 -2.3587,2.4109 -6.393,7.7086 -5.9893,-1.7064 0.0595,-1.3876 0.1471,-2.2266 0.4855,-3.1587 -4.8075,2.9047 -7.6005,6.1504 -6.9531,-4.5915 1.3133,-21.788 22.9476,-26.3038 41.0701,-24.7853 15.7975,1.3232 30.0209,12.2508 31.0929,28.8692 0,0.4144 -0.3359,0.7503 -0.75,0.7503 -0.4144,0 -0.7503,-0.3359 -0.7503,-0.7503 -1.7397,-26.9612 -33.0356,-31.4578 -54.7189,-24.3933 -10.2036,3.3245 -16.5617,15.7881 -13.8714,26.104 0.1815,-0.093 0.3581,-0.1962 0.5253,-0.2937 12.8466,-7.503 2.3448,0.5743 5.7079,6.0143 10.7064,-10.0613 2.5191,0.5079 5.4759,5.5834 0.1517,-0.0584 0.3572,-0.2024 0.447,-0.2685 19.1866,-14.1409 8.9765,22.398 38.6901,21.9342 5.9772,-0.0935 12.1108,-6.7306 9.7254,-11.1384 -0.2443,-0.3345 -0.1715,-0.8039 0.1633,-1.0486 0.3345,-0.2443 0.8036,-0.1715 1.0482,0.1633"
           style="fill:#1a1a18;fill-opacity:1;fill-rule:evenodd;stroke:none"
           id="path4425" />
      </g>
      <g
         id="g4427">
        <path
           d="m 82.4871,200.4211 c 6.226,3.1308 12.1731,-3.5141 2.51,-11.1444 -1.0502,-0.8295 -0.4507,-1.0934 0.8774,-1.217 l -0.0051,-0.004 0.0051,0.004 c 4.0583,-0.3775 14.9315,0.5582 6.4289,-9.2973 -1.9658,-2.2788 -10.095,-0.9887 1.9834,-4.828 6.1257,-1.9471 8.3483,-8.8812 0.9709,-12.6785 -0.3886,-0.2001 -0.5216,-0.3784 -0.6786,-0.7685 -0.1355,-0.3914 0.0723,-0.8186 0.464,-0.9541 0.3682,-0.1276 0.7676,0.0485 0.9269,0.3957 2.187,0.9145 3.877,2.2255 4.8238,4.4663 3.3859,8.0147 -5.4091,10.4147 -9.8425,11.9911 0.9082,0.2177 1.743,0.5306 2.5177,1.4309 7.7196,8.9728 1.9676,11.1716 -6.1089,11.5149 9.0346,8.4155 1.9148,16.1694 -5.6699,12.3605 -0.3512,-0.22 -0.4575,-0.6832 -0.2375,-1.0341 0.22,-0.3512 0.6831,-0.4575 1.0344,-0.2375"
           style="fill:#1a1a18;fill-opacity:1;fill-rule:evenodd;stroke:none"
           id="path4429" />
      </g>
      <g
         id="g4431">
        <path
           d="m 85.6378,203.508 c 11.1767,12.6607 20.2493,-3.0574 12.7264,-9.6066 -0.0998,-0.0868 -0.0989,-0.0817 -0.1916,-0.1318 l 0.0031,-9e-4 c -1.2634,-0.6395 -0.9723,-0.9405 0.1151,-1.1483 l 0.015,-0.3467 c 0.2931,0.0695 0.5046,0.1344 0.6933,0.2356 4.4023,-0.5825 15.6005,-0.6806 8.4926,-8.4592 -4.5552,-4.9847 -10.1091,-4.4487 -5.8685,-5.5329 l -0.0216,-0.0167 0.0434,0.011 c 0.7892,-0.2012 1.9123,-0.4581 3.4384,-0.8155 7.403,-1.7342 7.0728,-10.1367 2.6334,-13.7546 -0.3421,-0.2338 -0.4297,-0.7007 -0.1959,-1.0428 0.2342,-0.3422 0.7011,-0.4297 1.0429,-0.1959 1.7606,1.4318 2.7082,2.9344 3.3268,5.1795 2.1254,7.7133 -2.3437,10.1636 -8.129,11.4364 2.4713,1.2339 4.913,3.4089 6.2184,5.4674 4.6032,7.2578 -4.1046,8.7888 -9.756,8.972 7.5243,9.657 -4.2055,23.7682 -15.7796,10.6599 -0.2512,-0.3294 -0.1877,-0.8005 0.1417,-1.0516 0.3297,-0.2512 0.8005,-0.1877 1.0517,0.1417"
           style="fill:#1a1a18;fill-opacity:1;fill-rule:evenodd;stroke:none"
           id="path4433" />
      </g>
      <g
         id="g4435">
        <path
           d="m 148.303,200.1166 c 6.8088,-17.1175 -4.5513,-41.5528 -20.9772,-49.3276 -26.3166,-12.456 -53.6585,-17.2897 -78.1382,2.1506 -6.2609,4.972 -12.0325,13.3441 -9.4266,21.7531 0.9051,2.9202 3.3392,2.4984 5.3464,1.2654 2.6377,-3.31 4.8867,-2.5302 3.1437,-0.6409 -0.6996,0.7579 -1.3765,1.3688 -2.0282,1.8507 -5.0264,7.8335 -9.6092,32.1236 3.4316,26.9348 1.1647,-1.0624 3.2868,-16.202 3.8321,-1.8762 0.2245,5.8966 5.0976,19.125 11.5682,17.2936 2.3916,-0.6772 1.8,-4.4513 1.5262,-6.3134 -5.2826,-2.8323 -6.0494,-19.0581 -5.1752,-23.7305 0.1355,-0.3917 0.563,-0.5992 0.9544,-0.4637 0.3918,0.1355 0.5993,0.5629 0.4638,0.9544 -0.9409,5.1225 0.1576,17.7613 4.0008,21.6108 3.4359,3.4418 1.5273,11.2155 -4.4422,9.17 -8.1295,-2.7856 -9.6276,-11.7983 -10.2322,-19.1661 -0.3787,1.6478 -0.8734,3.2337 -1.6486,3.7618 -7.7264,5.2651 -11.1963,-4.3333 -10.6674,-11.5307 0.5392,-7.3307 2.035,-12.2083 3.6579,-15.3238 -6.1271,1.2659 -8.4878,-10.734 -1.9613,-19.6972 14.6894,-20.1738 45.9955,-24.6157 68.2877,-16.5639 12.6241,4.5598 24.4678,8.1119 32.4578,19.4567 7.9762,11.3253 12.642,25.8372 7.3284,39.1779 -0.206,0.3597 -0.6644,0.4842 -1.0241,0.2781 -0.3594,-0.2058 -0.4839,-0.6644 -0.2778,-1.0239"
           style="fill:#1a1a18;fill-opacity:1;fill-rule:evenodd;stroke:none"
           id="path4437" />
      </g>
      <g
         id="g4439">
        <path
           d="m 116.1289,144.2492 c 9.828,-1.1177 9.4788,-13.7415 4.1712,-9.8839 -2.196,1.5962 -1.7073,3.3072 -3.5269,2.8038 -0.005,-0.0117 0.1358,-0.5125 0.3008,-1.2337 -0.0953,0.0227 -0.1922,0.0854 -0.3087,0.2104 0.1202,-0.165 0.2463,-0.3396 0.3778,-0.5196 0.5211,-2.3842 1.1158,-6.4985 -1.7192,-4.5788 -3.3735,2.2847 -4.4016,7.0563 -4.1694,0.0941 0.1411,-4.2256 -3.5116,-4.0774 -6.6674,0.1794 -3.1093,4.1936 -3.7066,6.1441 -8.2845,9.1463 -0.3748,0.1771 -0.8218,0.0167 -0.999,-0.358 -0.1769,-0.3748 -0.0167,-0.8218 0.358,-0.9987 5.4063,-3.5626 8.0754,-10.7767 11.1708,-12.1779 4.6298,-2.0962 5.6276,1.6948 5.6974,4.9748 4.1663,-4.5128 7.1586,-2.7556 6.5948,1.4624 0.47,-0.392 0.9779,-0.6987 1.523,-0.8444 8.1406,-2.1762 6.3272,12.0055 -4.5187,13.2241 -0.4144,0 -0.7503,-0.3359 -0.7503,-0.7503 0,-0.4141 0.3359,-0.75 0.7503,-0.75"
           style="fill:#1a1a18;fill-opacity:1;fill-rule:evenodd;stroke:none"
           id="path4441" />
      </g>
      <g
         id="g4443">
        <path
           d="m 135.4071,153.9751 c 6.1698,-0.0711 12.941,-1.2399 13.5042,-8.8954 0.341,-4.6363 -2.7482,-4.7747 -5.9559,-0.2571 -0.8753,1.2328 -2.3133,1.4752 -1.4941,-0.5105 -0.0139,0.0105 -0.0272,0.0215 -0.0405,0.0332 l 0.0564,-0.0712 c 0.1295,-0.307 0.3109,-0.6658 0.5564,-1.0817 0.6837,-1.1591 1.4074,-9.4992 -5.7186,-1.4298 -2.7638,3.1295 -0.7345,-3.759 -3.9025,-5.2889 -0.1476,-0.0714 -0.2494,-0.1332 -0.3251,-0.2177 -3.7037,3.193 -8.2043,10.097 -11.4897,11.393 -0.4084,0.0703 -0.7962,-0.2041 -0.8662,-0.6125 -0.0701,-0.4085 0.2041,-0.7963 0.6125,-0.8663 3.2579,-1.4386 11.2122,-14.5919 12.9096,-10.9423 2.4321,1.2495 2.5307,2.5566 2.6104,4.7115 4.4991,-5.455 8.5782,-3.2698 7.8778,1.6735 3.9631,-3.628 6.9667,-0.5507 6.6659,3.5782 -0.6259,8.5915 -7.9455,10.2019 -15.0006,10.2844 -0.4142,0 -0.7504,-0.3359 -0.7504,-0.7503 0,-0.4142 0.3362,-0.7501 0.7504,-0.7501"
           style="fill:#1a1a18;fill-opacity:1;fill-rule:evenodd;stroke:none"
           id="path4445" />
      </g>
      <g
         id="g4447">
        <path
           d="m 103.9893,227.6175 c -1.6132,-2.4006 -0.8805,-1.167 -2.2031,-3.6978 -0.1355,-0.3914 0.072,-0.8189 0.4637,-0.9544 0.3918,-0.1355 0.819,0.072 0.9544,0.4637 1.135,2.1294 0.5352,1.1058 1.7915,3.0759 0.3073,0.2781 0.3311,0.7523 0.0531,1.0596 -0.2781,0.3073 -0.7526,0.3311 -1.0596,0.053"
           style="fill:#1a1a18;fill-opacity:1;fill-rule:evenodd;stroke:none"
           id="path4449" />
      </g>
    </g>
    <path
       style="fill:#ffffff;fill-opacity:0.99000001;stroke:none;stroke-width:0.02267717;stroke-miterlimit:4;stroke-dasharray:none"
       d="m 139.45416,41.967765 c -0.19287,-0.0087 -0.44494,-0.03175 -0.56017,-0.05114 l -0.2095,-0.03524 0.38385,-0.256328 c 0.78232,-0.522415 1.37685,-1.415422 1.67138,-2.510469 0.11369,-0.422698 0.13753,-0.690234 0.13918,-1.56205 0.002,-0.911375 -0.02,-1.145738 -0.16242,-1.753321 -0.80858,-3.449049 -3.16311,-5.313156 -5.54017,-4.386214 -0.66892,0.260848 -1.31771,0.711773 -2.01009,1.397056 -0.51941,0.514089 -0.62408,0.657725 -0.90598,1.243264 -0.4781,0.99306 -0.55248,1.349568 -0.55253,2.648366 -2e-5,0.601559 -0.022,1.080185 -0.0488,1.063613 -0.0268,-0.01657 -0.27783,-0.376399 -0.55785,-0.799617 -1.13976,-1.722597 -1.90831,-3.749457 -2.30382,-6.075768 -0.19927,-1.172053 -0.20174,-3.235079 -0.005,-4.304984 0.41362,-2.25119 1.40791,-4.037271 2.97285,-5.340241 1.57512,-1.311456 3.34687,-2.202474 5.05794,-2.543658 0.8388,-0.167255 2.39044,-0.150427 3.26882,0.03545 1.7596,0.372357 3.11162,1.001893 5.61063,2.612447 1.62867,1.049643 2.21559,1.348191 2.65042,1.348191 0.38092,0 0.62987,-0.155505 0.76439,-0.477456 0.0462,-0.110559 0.15732,-0.563165 0.24694,-1.005791 0.48266,-2.383749 1.56384,-3.977056 3.2559,-4.798138 0.93592,-0.454159 1.47127,-0.566195 2.70968,-0.567071 0.93605,-6.61e-4 1.1289,0.01852 1.74985,0.174018 1.80455,0.4519 3.41813,1.367902 4.72536,2.6825 1.80742,1.817609 2.77112,4.073196 2.76793,6.478466 -0.004,3.150662 -1.43112,5.009781 -4.42948,5.770992 -0.51314,0.130275 -1.10665,0.217766 -2.11474,0.311738 l -0.32954,0.03072 0.15641,-0.34164 c 0.48595,-1.061457 0.45979,-2.708992 -0.0699,-4.401031 -0.3788,-1.210085 -0.93544,-2.21725 -1.52659,-2.762152 -0.35101,-0.323556 -0.87359,-0.583597 -1.17455,-0.584475 -0.11733,-3.19e-4 -0.37357,-0.0472 -0.56941,-0.104136 -0.94207,-0.273868 -1.98239,0.200568 -2.77991,1.267781 -1.29153,1.728264 -1.75372,4.377075 -1.03693,5.942735 l 0.15471,0.337933 -0.34583,0.02868 c -0.28107,0.02331 -0.38512,0.06676 -0.55565,0.232047 -0.27255,0.264157 -0.51097,0.892996 -0.64399,1.698516 -0.2332,1.412225 -0.56774,2.443642 -1.2201,3.761671 -0.26033,0.525997 -0.66544,1.228919 -0.90023,1.56205 -0.56257,0.798185 -1.86983,2.103378 -2.56864,2.564576 -1.62406,1.071836 -3.31319,1.552019 -5.16433,1.468107 z"
       id="path15863"
       transform="matrix(0.26458333,0,0,0.26458333,-160.3045,236.49803)" />
  </g>
</svg>
