<?xml version="1.0" encoding="UTF-8" standalone="no"?>
<svg
   xmlns:dc="http://purl.org/dc/elements/1.1/"
   xmlns:cc="http://creativecommons.org/ns#"
   xmlns:rdf="http://www.w3.org/1999/02/22-rdf-syntax-ns#"
   xmlns:svg="http://www.w3.org/2000/svg"
   xmlns="http://www.w3.org/2000/svg"
   xmlns:sodipodi="http://sodipodi.sourceforge.net/DTD/sodipodi-0.dtd"
   xmlns:inkscape="http://www.inkscape.org/namespaces/inkscape"
   width="150.79968mm"
   height="140.12036mm"
   viewBox="0 0 150.79968 140.12036"
   version="1.1"
   id="svg30246"
   inkscape:version="1.0.2 (e86c8708, 2021-01-15)"
   sodipodi:docname="cow.svg">
  <defs
     id="defs30240" />
  <sodipodi:namedview
     id="base"
     pagecolor="#ffffff"
     bordercolor="#666666"
     borderopacity="1.0"
     inkscape:pageopacity="0.0"
     inkscape:pageshadow="2"
     inkscape:zoom="2.4905138"
     inkscape:cx="436.96048"
     inkscape:cy="160.30331"
     inkscape:document-units="mm"
     inkscape:current-layer="layer1"
     inkscape:document-rotation="0"
     showgrid="false"
     inkscape:window-width="1440"
     inkscape:window-height="855"
     inkscape:window-x="0"
     inkscape:window-y="23"
     inkscape:window-maximized="0" />
  <metadata
     id="metadata30243">
    <rdf:RDF>
      <cc:Work
         rdf:about="">
        <dc:format>image/svg+xml</dc:format>
        <dc:type
           rdf:resource="http://purl.org/dc/dcmitype/StillImage" />
        <dc:title />
      </cc:Work>
    </rdf:RDF>
  </metadata>
  <g
     inkscape:label="Слой 1"
     inkscape:groupmode="layer"
     id="layer1"
     transform="translate(-23.911039,-22.193682)">
    <g
       id="g4004"
       transform="matrix(1.5056539,0,0,-1.5056539,-1037.1093,445.87978)">
      <path
         d="m 717.8165,196.8636 c -1.0466,-0.1551 -5.5517,-0.2098 -6.6782,-0.006 -0.5666,0.1023 -1.3444,-0.1687 -2.4106,0.2239 -0.1482,0.0547 -3.1399,0.9558 -3.1765,0.9527 0.0908,-1.0281 -0.5229,-1.3765 0.5814,-2.4664 2.7097,-2.6742 4.2047,-1.8303 7.4968,-1.9933 1.7382,-0.0862 1.8465,-0.1072 2.9234,1.1174 0.4521,0.5139 0.9456,1.5029 1.2053,2.1484 l 0.0584,0.0235 z"
         style="fill:#69441e;fill-opacity:1;fill-rule:evenodd;stroke:none"
         id="path4006" />
      <g
         id="g4008"
         transform="matrix(-0.48611,-0.04284,-0.04284,0.48611,0,0)">
        <path
           d="m -1546.3077,271.8201 c 0.9564,-0.2469 6.8303,-0.4002 8.8962,-0.7489 2.3726,-0.4002 10.3116,-0.9031 12.0167,0.2554 0.4138,0.2815 6.4978,1.5815 6.4834,0.9323 -0.039,-1.7569 -0.8224,-1.7745 -1.834,-3.5059 -3.674,-6.2844 -12.6131,-4.7653 -18.7909,-4.119 -0.9913,0.1035 -4.7021,1.7374 -5.2645,3.4739 -0.8479,2.6195 -1.0817,1.5154 -0.6259,2.198 z"
           style="fill:#69441e;fill-opacity:1;fill-rule:evenodd;stroke:#1a1a18;stroke-width:0.5669;stroke-linecap:butt;stroke-linejoin:miter;stroke-miterlimit:22.9256;stroke-dasharray:none;stroke-opacity:1"
           id="path4010" />
      </g>
      <g
         id="g4012"
         transform="matrix(-0.48611,-0.04284,-0.04284,0.48611,0,0)">
        <path
           d="m -1610.8957,256.4906 c 4.8546,-0.8603 5.8057,-0.9462 10.7558,-0.9212 4.2094,0.0224 8.1079,-0.8079 12.3942,-0.296 2.0404,0.2433 3.486,1.1906 5.7093,1.2909 0.8509,0.0389 0.8104,0.9077 -0.4213,-2.3592 -1.599,-4.2415 -3.1512,-3.9223 -7.175,-5.3374 -3.9087,-1.3742 -13.813,-0.7619 -17.6431,0.6236 -2.2666,0.8195 -3.4926,6.9772 -3.6199,6.9993 z"
           style="fill:#69441e;fill-opacity:1;fill-rule:evenodd;stroke:#1a1a18;stroke-width:0.5669;stroke-linecap:butt;stroke-linejoin:miter;stroke-miterlimit:22.9256;stroke-dasharray:none;stroke-opacity:1"
           id="path4014" />
      </g>
      <g
         id="g4016"
         transform="matrix(-0.48611,-0.04284,-0.04284,0.48611,0,0)">
        <path
           d="m -1648.2634,264.6034 c 1.6376,-1.6699 12.6133,-1.7844 15.4253,-2.414 0.9212,-0.2063 10.1696,-0.0649 10.1769,-0.3022 0.032,-1.0088 -4.6278,-4.6431 -5.9836,-5.0924 -2.2754,-0.7546 -1.4069,-0.8943 -4.3966,-0.9805 -5.3691,-0.1548 -6.6245,-0.0584 -11.6036,2.7337 -1.3147,0.7373 -1.8164,0.7796 -2.6251,2.6785 -0.011,0.0264 -0.6214,2.3272 -0.8125,2.9112 -0.095,0.2888 0.1486,0.1295 -0.1808,0.4657 z"
           style="fill:#69441e;fill-opacity:1;fill-rule:evenodd;stroke:#1a1a18;stroke-width:0.5669;stroke-linecap:butt;stroke-linejoin:miter;stroke-miterlimit:22.9256;stroke-dasharray:none;stroke-opacity:1"
           id="path4018" />
      </g>
      <g
         id="g4020"
         transform="matrix(-0.48611,-0.04284,-0.04284,0.48611,0,0)">
        <path
           d="m -1653.5228,413.409 c 0.199,2.4437 -4.3557,13.282 -4.3554,17.725 -3e-4,0.3813 -3.043,-0.1224 -4.5238,-4.4736 -1.8652,-5.4797 -3.8852,-4.8711 -3.7262,-11.4333 0.092,-3.8197 1.1713,-10.0933 5.8751,-10.0933 1.4298,0 4.8005,2.4219 3.6893,3.875 -3.7043,4.8441 3.0447,4.4418 3.041,4.4002 z"
           style="fill:#ffeab0;fill-opacity:1;fill-rule:evenodd;stroke:#1a1a18;stroke-width:0.5669;stroke-linecap:butt;stroke-linejoin:miter;stroke-miterlimit:22.9256;stroke-dasharray:none;stroke-opacity:1"
           id="path4022" />
      </g>
      <g
         id="g4024"
         transform="matrix(-0.48611,-0.04284,-0.04284,0.48611,0,0)">
        <path
           d="m -1542.9365,299.7743 c -1.2656,-1.0225 -0.096,-1.3952 0.2279,-2.7715 0.7841,-3.3369 5.677,-6.1356 5.6767,-6.9216 -3e-4,-2.147 -0.6069,-9.9374 2.7289,-9.7036 1.825,0.1276 1.2433,3.0685 3.3021,0.1146 1.0474,-1.5038 3.712,-2.7927 5.2566,-1.4216 4.0733,3.6159 0.4081,-2.012 5.7645,-0.3288 0.7934,0.2497 1.8847,1.7943 1.6197,2.8292 -0.031,-0.0144 -0.1332,-2.0999 2.48,-2.0001 1.7088,0.0649 1.7442,-0.1321 2.9058,1.6089 1.4942,2.2408 -2.1421,4.9584 0.9426,6.4747 3.1779,1.5621 1.1999,2.8732 -0.1086,5.5196 -1.2155,2.4579 -7.7485,7.2802 -10.641,7.2096 -3.8846,-0.0958 -7.1518,0.3685 -11.3292,-0.2971 -0.9868,-0.1567 -8.2477,0.1545 -8.826,-0.3123 z"
           style="fill:#ff969d;fill-opacity:1;fill-rule:evenodd;stroke:#1a1a18;stroke-width:0.5669;stroke-linecap:butt;stroke-linejoin:miter;stroke-miterlimit:22.9256;stroke-dasharray:none;stroke-opacity:1"
           id="path4026" />
      </g>
      <g
         id="g4028"
         transform="matrix(-0.48611,-0.04284,-0.04284,0.48611,0,0)">
        <path
           d="m -1639.0701,342.6599 10.0029,3.348 9.775,8.2962 -0.7642,-17.235 0.6698,-21.2505 2.4922,-21.0492 -5.7316,1.2475 -11.9347,7.8259 -6.7533,8.6695 0.2075,14.6384 z"
           style="fill:#ffeab0;fill-opacity:1;fill-rule:evenodd;stroke:#1a1a18;stroke-width:0.5669;stroke-linecap:butt;stroke-linejoin:miter;stroke-miterlimit:22.9256;stroke-dasharray:none;stroke-opacity:1"
           id="path4030" />
      </g>
      <g
         id="g4032"
         transform="matrix(-0.48611,-0.04284,-0.04284,0.48611,0,0)">
        <path
           d="m -1632.642,412.5036 c -1.843,0.4476 -2.5622,2.8635 -4.202,3.8381 -0.459,0.2721 -1.2901,1.7425 -2.8489,2.3644 -0.7783,0.3104 -2.9624,2.0883 -4.8265,2.728 -2.1112,0.7249 -4.1482,0.7524 -5.9287,-0.5159 -2.823,-2.0106 3.0668,-9.1729 -1.5463,-7.1555 -2.3714,1.0372 -9.2851,-0.1423 -4.5379,-5.0677 0.1927,-0.1999 5.587,-0.569 6.756,-0.8643 2.0764,-0.5241 1.4089,-1.4823 2.9733,1.832 0.8924,1.8921 6.45,3.8262 8.5283,3.7826 2.7508,-0.0584 2.7145,0.1516 5.0825,-1.1092 0.2557,-0.1367 0.1999,0.2528 0.5502,0.1675 z"
           style="fill:#ff9100;fill-opacity:1;fill-rule:evenodd;stroke:#1a1a18;stroke-width:0.5669;stroke-linecap:butt;stroke-linejoin:miter;stroke-miterlimit:22.9256;stroke-dasharray:none;stroke-opacity:1"
           id="path4034" />
      </g>
      <g
         id="g4036"
         transform="matrix(-0.48611,-0.04284,-0.04284,0.48611,0,0)">
        <path
           d="m -1495.417,432.5411 c 2.9021,-4.0005 3.4854,-4.3806 4.8704,-9.4382 0.7164,-2.6152 0.7555,-3.9203 -0.1556,-6.6251 -1.2333,-3.663 -5.6316,-5.9698 -9.3909,-5.9698 -0.5201,3e-4 -2.9945,4.1556 -2.9948,5.1463 0,3.7052 1.6458,7.2026 3.2502,10.4683 0.726,1.478 3.041,4.0822 4.4207,6.4185 z"
           style="fill:#ff9100;fill-opacity:1;fill-rule:evenodd;stroke:#1a1a18;stroke-width:0.5669;stroke-linecap:butt;stroke-linejoin:miter;stroke-miterlimit:22.9256;stroke-dasharray:none;stroke-opacity:1"
           id="path4038" />
      </g>
      <g
         id="g4040"
         transform="matrix(-0.48611,-0.04284,-0.04284,0.48611,0,0)">
        <path
           d="m -1591.8922,414.8864 c 1.148,-1.1826 -4.7906,-8.2043 -5.9446,-9.9836 -2.2722,-3.5031 -14.1046,-11.2558 -14.1247,-11.9469 -0.01,-0.2481 5.0768,-8.1998 6.6566,-7.418 2.3998,1.1877 8.316,7.427 8.9685,9.8036 0.6982,2.5458 5.6401,7.8718 5.5001,13.1148 -0.066,2.4602 1.0514,4.2596 -1.0559,6.4301 z"
           style="fill:#ff969d;fill-opacity:1;fill-rule:evenodd;stroke:#1a1a18;stroke-width:0.5669;stroke-linecap:butt;stroke-linejoin:miter;stroke-miterlimit:22.9256;stroke-dasharray:none;stroke-opacity:1"
           id="path4042" />
      </g>
      <g
         id="g4044"
         transform="matrix(-0.48611,-0.04284,-0.04284,0.48611,0,0)">
        <path
           d="m -1685.0642,416.1246 c 2.3729,-3.9152 2.5138,-7.1918 6.2586,-11.9186 2.4375,-3.0764 4.6474,-8.9379 9.7186,-10.5429 4.1377,-1.3096 -5.1778,-5.8014 -8.0824,-2.9789 -4.7118,4.5785 -7.6258,4.9433 -8.3038,12.7715 -0.3107,3.592 -5.0267,5.9312 -0.4465,12.1252 0.3022,0.4087 1.0349,0.2469 0.8555,0.5437 z"
           style="fill:#ff969d;fill-opacity:1;fill-rule:evenodd;stroke:#1a1a18;stroke-width:0.5669;stroke-linecap:butt;stroke-linejoin:miter;stroke-miterlimit:22.9256;stroke-dasharray:none;stroke-opacity:1"
           id="path4046" />
      </g>
      <g
         id="g4048"
         transform="matrix(-0.48611,-0.04284,-0.04284,0.48611,0,0)">
        <path
           d="m -1682.2726,379.6024 c -1.2254,0.267 -3.5762,0.826 -4.4385,1.5937 -1.0664,0.9493 -3.1553,3.9962 -1.9786,5.339 1.2308,1.4049 0.1208,0.8918 2.8695,1.5766 3.4985,0.8728 6.2535,-0.8954 9.3895,-1.9941 1.0332,-0.362 1.5749,1.0922 3.1912,1.9944 2.526,1.4111 4.4581,3.0612 7.5408,4.0788 5.5315,1.8255 20.2158,2.9744 24.8575,-0.4785 3.3404,-2.4848 2.3372,-1.7685 4.8802,-5.1412 0.1023,-0.1355 0.1624,-0.4544 0.3435,-0.517 2.3763,2.6186 10.2337,7.1464 12.7624,3.9557 1.9404,-2.448 -5.1417,-7.0319 -3.3247,-7.0322 3.4149,0 9.3489,-3.0807 11.6575,-5.032 3.4662,-2.9308 3.7326,-6.882 3.3857,-11.2502 -0.2566,-3.2218 -9.485,-14.7948 -11.9234,-15.8692 l 0.2203,-0.502 c -2.7239,-5.2135 -21.1604,-8.6802 -26.3832,-9.0862 -4.3994,-0.3424 -11.1053,-0.7922 -14.8927,1.1744 -2.2374,1.1622 -3.4262,0.4456 -4.4073,4.4399 -0.3101,1.2632 -3.0487,3.3702 -4.8574,3.714 -0.4474,0.0853 -5.3961,4.3364 -6.0174,5.2863 -1.7317,2.6442 -2.2411,0.7424 -3.625,6.1246 -0.9048,3.5175 -2.4843,7.9611 -0.9178,11.679 0.5298,1.2586 1.1678,4.7795 1.6679,5.9462 z"
           style="fill:#ffd8b0;fill-opacity:1;fill-rule:evenodd;stroke:#1a1a18;stroke-width:0.5669;stroke-linecap:butt;stroke-linejoin:miter;stroke-miterlimit:22.9256;stroke-dasharray:none;stroke-opacity:1"
           id="path4050" />
      </g>
      <g
         id="g4052"
         transform="matrix(-0.48611,-0.04284,-0.04284,0.48611,0,0)">
        <path
           d="m -1501.3928,383.8527 c -0.354,0.525 2.6238,9.5706 2.6244,12.1788 -3e-4,2.5628 3.5977,13.1091 1.5321,14.3107 -1.0769,0.6264 -3.8636,1.6038 -3.7826,-0.7711 0.1304,-3.8284 -3.4041,-13.6921 -4.9677,-17.4999 -1.4326,-3.4886 -5.7512,-10.2118 -8.9677,-12.0722 -5.5278,-3.1964 -7.9049,-4.8858 -14.4076,-5.8961 -0.021,-0.004 -2.5424,-0.926 -2.9461,-0.9972 l 0.2427,-0.1658 c -6.3647,-1.0415 -14.4564,-2.0951 -22.9504,-3.4645 -8.7784,-1.4157 -11.187,-0.2004 -23.2056,1.5522 -7.5489,1.101 -19.999,6.0041 -24.0004,10.6467 -1.343,1.5585 -9.6766,9.2415 -8.8248,10.9896 0.8104,1.6622 7.2567,6.6796 8.9895,8.1785 3.5082,3.0348 3.1167,3.6533 5.5318,6.289 3.7781,4.1227 5.6461,9.0439 5.8859,14.6571 0.088,2.0545 -4.4549,-0.7291 -5.093,-1.2283 -2.6232,-2.0565 -11.9123,-8.5612 -14.7821,-9.3965 -0.1228,-0.3549 -3.4124,-1.4582 -3.9354,-1.8752 -3.6524,-2.908 -12.1033,-3.9577 -11.6574,-5.9397 0.4549,-2.0245 -1.9551,-5.4813 -2.5643,-5.832 -2.044,-1.1761 -0.242,-0.5442 -3.1535,-1.6353 -4.193,-1.5709 -8.7338,-0.7977 -12.5643,1.5319 -5.2132,3.1705 -1.4423,-3.4382 -9.3433,-2.7389 -2.4403,0.2152 -4.8849,2.1107 -4.9067,2.1141 -0.2705,1.578 -2.0934,1.381 -1.1778,7.5753 -1.0182,0.0876 -9.4692,3.009 -10.3547,4.2352 -0.7039,0.9749 -10.8644,4.1503 -13.0428,7.9073 -1.5318,2.6416 -2.3828,-0.2137 0.4178,-3.7069 1.0248,-1.2784 0.9108,-8.0251 7.3749,-14.561 2.5334,-2.5616 4.5803,-5.9184 8.7719,-5.0646 3.647,0.7438 13.9274,1.6052 17.3429,0.386 0.8935,-0.3189 3.7239,-0.8212 5.7605,-1.5001 5.5721,-1.8564 6.9821,-5.8152 7.064,-5.864 2.478,-1.4669 4.9269,7.0399 12.7185,4.3427 3.5081,-1.2141 -0.097,-5.0264 -1.6467,-6.1571 -2.6813,-1.9565 1.4057,-1.6572 3.1142,-2.1858 3.1569,-0.9769 9.1567,-3.1369 10.0003,-6.7071 2.3034,-1.5812 1.4987,-7.9866 0.4983,-10.3584 -1.7053,-4.0396 -2.2005,-7.8508 -5.5111,-10.675 -2.3102,-1.9712 -2.082,-17.5827 -2.0817,-21.2932 0.067,-0.3082 -0.7518,-11.1087 -0.7512,-13.3631 -6e-4,-9.6163 -0.051,-10.264 2.2498,-19.3754 2.6578,-10.5273 -1.2115,-5.9204 -6.2608,-2.9285 -3.8631,2.2887 -7.5844,3.6981 -10.5605,7.5322 -0.5097,0.6566 -2.7156,2.5473 -3.3148,3.1465 -3.0311,3.0311 -0.4125,1.0355 -2.2391,-1.4505 -1.5475,-2.1056 -2.1493,-11.2104 -3.843,-15.7172 -0.4002,-1.0659 -1.1211,-10.1135 -1.7818,-10.8428 -3e-4,-2.8667 -2.8293,-15.4387 -0.8751,-16.0005 1.3371,-0.3844 15.3638,-2.7706 16.1428,-2.7496 3.4384,0.0896 6.9922,-1.5327 8.6499,1.8748 0.9159,1.882 0.6162,3.3222 2.571,6.9395 0.6761,1.2498 4.309,10.4077 5.0114,10.4352 0.2871,0.0114 3.1274,-6.4922 3.2502,-7.9891 0.1465,-1.7915 0.2245,-15.6192 1.2926,-16.1249 1.9607,-0.9289 25.9101,-1.7946 27.7075,-0.5534 2.6736,1.8457 1.6248,18.3045 1.6245,22.1678 -0.1057,1.1242 4.6075,11.9671 6.8644,12.5314 1.3255,0.332 5.6815,2.1118 6.8647,2.8863 1.6322,1.0686 18.1672,5.4969 18.9893,3.4996 3.1691,-7.6994 1.0332,-16.9775 1.7821,-24.2926 0.081,-0.7895 20.2675,-2.5844 23.364,-1.2818 4.483,1.8856 3.1065,0.0102 3.386,7.6569 0.042,1.1344 -2.2691,-3.4764 -5.0318,0.8861 -1.1582,1.8281 -0.1423,-5.0624 -6.5395,0.0179 -1.4037,1.1143 0.3523,1.5885 -4.3251,-1.3538 -1.0928,0.3636 -3.189,8.8191 -2.2606,11.0749 0.862,2.0948 -8.5865,9.0584 -4.2288,10.0216 3.4983,0.773 7.3375,1.6033 11.0427,1.6033 3.4489,3e-4 7.9401,0.5057 10.686,-1.7929 1.6093,-1.347 3.6604,-0.0672 5.9894,-4.0499 2.1897,-3.7454 2.7541,-3.0098 6.7609,-9.2503 1.0678,-1.6639 5.146,-7.8338 5.032,-9.2817 0.03,-0.5899 0.3461,-0.6639 0.3118,-2.2281 -0.096,-4.3404 11.7491,-1.531 14.2254,-0.9856 3.4399,0.758 6.8721,0.2693 10.1719,2.573 1.9814,1.3839 2.0483,1.2943 1.7495,4.5842 -0.2035,2.2445 -0.3699,2.8542 -1.021,5.057 -0.9927,5.9556 0.4504,6.9633 -2.0308,13.6996 -0.7682,2.0851 -1.2257,8.6598 -2.5432,10.146 -0.6248,0.7047 -4.5604,15.9129 -4.7282,17.8433 -0.01,0.1139 -3.0291,6.66 -3.5107,8.9892 -0.017,0.0816 -0.1831,0.3382 -0.2503,0.5108 -0.5108,0.6931 0.069,2.6487 -0.8439,4.7497 -1.1285,2.6022 -1.152,4.2546 -2.9602,7.7613 -1.764,3.4208 -2.018,7.2692 -4.7075,11.2394 -1.2923,1.9083 -6.2203,16.8743 -5.2393,18.6145 0.343,0.6075 2.1487,4.0119 2.1254,4.2605 z"
           style="fill:#cd8943;fill-opacity:1;fill-rule:evenodd;stroke:#1a1a18;stroke-width:0.5669;stroke-linecap:butt;stroke-linejoin:miter;stroke-miterlimit:22.9256;stroke-dasharray:none;stroke-opacity:1"
           id="path4054" />
      </g>
      <g
         id="g4056"
         transform="matrix(-0.48611,-0.04284,-0.04284,0.48611,0,0)">
        <path
           d="m -1534.8362,362.323 c -5.3155,-0.7027 -9.8867,-0.5434 -12.5167,-6.4928 -1.7886,-4.0464 -1.0269,-6.9533 1.304,-10.5003 6.0891,-9.2662 12.0637,-9.9871 22.2069,-13.7605 5.8878,-2.1909 12.3253,1.0723 13.2613,7.3644 1.22,8.2037 -3.0759,12.6637 -9.0113,17.5107 -4.1182,3.3633 -10.8389,6.4616 -15.2442,5.8785 z"
           style="fill:#ffeab0;fill-opacity:1;fill-rule:evenodd;stroke:#1a1a18;stroke-width:0.5669;stroke-linecap:butt;stroke-linejoin:miter;stroke-miterlimit:22.9256;stroke-dasharray:none;stroke-opacity:1"
           id="path4058" />
      </g>
      <g
         id="g4060"
         transform="matrix(-0.48611,-0.04284,-0.04284,0.48611,0,0)">
        <path
           d="m -1629.4708,375.711 c -0.3674,-1.904 -0.7192,-2.5322 1.0136,-4.1686 2.2496,-2.1243 6.8304,1.4119 1.26,3.5597 -0.7991,0.3079 -0.7803,0.0888 -1.7214,0.5573 -0.091,0.0451 -0.5321,0.1537 -0.5522,0.0516 z"
           style="fill:#ed4e4e;fill-opacity:1;fill-rule:evenodd;stroke:#1a1a18;stroke-width:0.5669;stroke-linecap:butt;stroke-linejoin:miter;stroke-miterlimit:22.9256;stroke-dasharray:none;stroke-opacity:1"
           id="path4062" />
      </g>
      <g
         id="g4064"
         transform="matrix(-0.48611,-0.04284,-0.04284,0.48611,0,0)">
        <path
           d="m -1548.1012,334.5012 c -3.5847,1.0423 -5.8243,-5.0797 -8.2086,-7.4636 -6.6741,-6.6747 0.9207,-10.7135 1.2892,-12.2615 2.3706,-0.724 0.582,-0.5429 3.5215,-0.8215 7.8219,-0.7404 5.758,-2.2127 13.5431,1.3428 3.3868,1.5477 6.1064,1.7336 5.125,7.658 -0.5513,3.3248 -5.9377,6.9778 -8.636,8.8319 -0.7815,0.5369 -5.7779,2.4648 -6.6342,2.7139 z"
           style="fill:#ffeab0;fill-opacity:1;fill-rule:evenodd;stroke:#1a1a18;stroke-width:0.5669;stroke-linecap:butt;stroke-linejoin:miter;stroke-miterlimit:22.9256;stroke-dasharray:none;stroke-opacity:1"
           id="path4066" />
      </g>
      <g
         id="g4068"
         transform="matrix(-0.48611,-0.04284,-0.04284,0.48611,0,0)">
        <path
           d="m -1619.7245,430.6779 c -2.2036,-3.111 -3.2624,-7.2541 -5.7282,-10.7019 -1.0301,-1.4406 -2.2978,-4.5496 -3.2746,-5.561 -0.1176,-0.1213 -1.8595,-2.0784 -1.8663,-2.0889 -0.8113,-0.0442 1.637,-1.6361 2.2932,-2.5432 2.0888,-2.8891 1.3952,-1.0446 2.0409,-4.218 0.169,-0.8297 2.7213,0.9681 4.3966,0.9431 0.7463,-0.0113 5.0079,0.838 5.0516,1.7198 0.086,1.7507 0,2.3519 0.3073,4.155 0.5153,2.9937 0.2571,16.314 -2.4537,18.1307 -0.2639,0.1766 -0.8512,0.0451 -0.7668,0.1644 z"
           style="fill:#ffeab0;fill-opacity:1;fill-rule:evenodd;stroke:#1a1a18;stroke-width:0.5669;stroke-linecap:butt;stroke-linejoin:miter;stroke-miterlimit:22.9256;stroke-dasharray:none;stroke-opacity:1"
           id="path4070" />
      </g>
      <g
         id="g4072"
         transform="matrix(-0.48611,-0.04284,-0.04284,0.48611,0,0)">
        <path
           d="m -1579.642,360.078 c -7.1416,-0.7002 -14.4357,-16.9209 -8.0428,-22.3532 5.3502,-4.5471 7.6513,-2.7167 11.6572,-4.4359 1.8315,-0.7864 12.7398,1.0822 14.6631,3.0863 4.3852,4.5697 5.2194,6.8307 3.2119,13.6097 -1.1004,3.7137 -10.7098,7.9815 -15.1537,8.3537 -0.9859,0.0822 -5.3257,1.8383 -6.3357,1.7394 z"
           style="fill:#ffeab0;fill-opacity:1;fill-rule:evenodd;stroke:#1a1a18;stroke-width:0.5669;stroke-linecap:butt;stroke-linejoin:miter;stroke-miterlimit:22.9256;stroke-dasharray:none;stroke-opacity:1"
           id="path4074" />
      </g>
    </g>
    <g
       id="g4076"
       transform="matrix(1.5056539,0,0,-1.5056539,-1037.1093,445.87978)">
      <g
         id="g4078">
        <path
           d="m 798.4346,259.6629 c -1.5811,5.324 -20.103,4.0065 -20.1838,-1.8113 0.046,-0.2872 0.3164,-0.4831 0.6038,-0.4369 0.2336,0.0377 0.4068,0.2234 0.4383,0.4462 2.2821,5.7325 17.1836,4.682 18.1074,1.5988 0.0561,-0.2858 0.3331,-0.4717 0.6188,-0.4156 0.2854,0.0561 0.4717,0.3331 0.4155,0.6188"
           style="fill:#1a1a18;fill-opacity:1;fill-rule:evenodd;stroke:none"
           id="path4080" />
      </g>
      <g
         id="g4082">
        <path
           d="m 779.1375,257.8243 c -5.4164,6.0634 -11.2238,0.4559 -4.7299,-2.1506 0.2395,-0.1655 0.5675,-0.1054 0.7331,0.1341 0.1652,0.2395 0.1051,0.5678 -0.1344,0.733 -5.6322,2.4959 -0.4068,4.6503 3.2196,0.7546 0.146,-0.2517 0.4686,-0.3373 0.7203,-0.1913 0.2517,0.1459 0.3373,0.4685 0.1913,0.7202"
           style="fill:#1a1a18;fill-opacity:1;fill-rule:evenodd;stroke:none"
           id="path4084" />
      </g>
      <g
         id="g4086">
        <path
           d="m 798.5894,259.0362 c 6.6813,4.1745 6.0934,-1.7405 3.0399,-1.9868 -0.29,-0.0256 -0.5043,-0.2815 -0.4788,-0.5712 0.0255,-0.29 0.2812,-0.5043 0.5712,-0.4788 4.6783,0.3818 4.6168,9.1168 -3.7256,3.9081 -0.2406,-0.1638 -0.3027,-0.4918 -0.1389,-0.7324 0.1639,-0.2404 0.4918,-0.3028 0.7322,-0.1389"
           style="fill:#1a1a18;fill-opacity:1;fill-rule:evenodd;stroke:none"
           id="path4088" />
      </g>
      <g
         id="g4090">
        <path
           d="m 801.0828,256.1238 c 9.4135,-19.1885 -26.8532,-20.493 -24.9999,-9.1941 0.1511,0.1389 0.2132,0.36 0.1397,0.5655 -0.0977,0.2741 -0.3994,0.4167 -0.6735,0.3189 -0.286,-0.1284 -0.4019,-0.2455 -0.4827,-0.5576 -3.3344,-12.8871 37.6237,-12.1249 26.8481,9.5148 -0.1789,0.2296 -0.51,0.271 -0.7396,0.0921 -0.2296,-0.1789 -0.271,-0.51 -0.0921,-0.7396"
           style="fill:#1a1a18;fill-opacity:1;fill-rule:evenodd;stroke:none"
           id="path4092" />
      </g>
      <g
         id="g4094">
        <path
           d="m 777.3338,249.6523 c -1.3552,-1.6449 -2.2101,-2.3354 -4.1156,-1.3033 l -0.057,0.0584 c -0.2038,0.2077 -0.5374,0.2112 -0.7455,0.007 -0.2078,-0.2038 -0.2112,-0.5374 -0.007,-0.7455 1.9937,-2.0335 4.3878,-0.3251 5.7646,1.3454 0.1763,0.2318 0.1309,0.5623 -0.1006,0.7384 -0.2319,0.1763 -0.5624,0.1312 -0.7385,-0.1007"
           style="fill:#1a1a18;fill-opacity:1;fill-rule:evenodd;stroke:none"
           id="path4096" />
      </g>
      <g
         id="g4098">
        <path
           d="m 775.747,251.8569 c 0.6746,-1.2453 -0.4816,-1.4732 -1.6478,-1.1186 0.1845,0.6457 1.0497,0.9799 1.6478,1.1186 z m -0.4453,0.9456 c -1.3604,-0.4646 -2.9787,-1.7394 -2.0943,-2.7658 2.4582,-2.8525 5.618,2.7213 2.4789,2.9498 -0.1545,-0.005 -0.2914,-0.0754 -0.3846,-0.184"
           style="fill:#1a1a18;fill-opacity:1;fill-rule:evenodd;stroke:none"
           id="path4100" />
      </g>
      <g
         id="g4102">
        <path
           d="m 774.4283,256.4892 c -14.3884,-2.8312 -6.8578,-16.7369 5.7237,-19.8351 3.7664,-0.9275 17.9011,-1.7447 17.2341,4.3668 -0.0258,0.2899 -0.2815,0.5042 -0.5715,0.4787 -0.2899,-0.0255 -0.5042,-0.2815 -0.4787,-0.5712 l 0.0181,-0.1669 0.0156,0.0289 c -1.7172,-5.1644 -10.533,-3.7284 -14.8368,-3.4554 l 0.4725,-0.1701 c -0.5621,0.18 -4.5825,1.4533 -4.5825,1.4533 -8.6252,3.2975 -15.402,14.3702 -2.9021,16.8211 0.29,0.0255 0.5043,0.2815 0.4788,0.5712 -0.0255,0.2899 -0.2812,0.5042 -0.5712,0.4787"
           style="fill:#1a1a18;fill-opacity:1;fill-rule:evenodd;stroke:none"
           id="path4104" />
      </g>
      <g
         id="g4106">
        <path
           d="m 784.0993,267.4069 c -0.0493,3.1799 7.4389,0.909 4.9513,-3.0507 -0.1004,-0.1599 -1.0469,-1.2107 -1.2017,-1.3388 -0.2556,-0.1392 -0.3503,-0.4589 -0.2111,-0.7149 0.1389,-0.2557 0.4589,-0.3501 0.7146,-0.2112 0.6879,0.5457 0.65,0.5154 1.146,1.2255 l -0.1355,-0.0454 c 0.3484,0.2086 0.5253,0.3512 0.6965,0.7396 2.6328,5.9785 -7.0804,8.0387 -7.0101,3.3035 0.0255,-0.29 0.2812,-0.5043 0.5712,-0.4788 0.29,0.0255 0.5043,0.2812 0.4788,0.5712"
           style="fill:#1a1a18;fill-opacity:1;fill-rule:evenodd;stroke:none"
           id="path4108" />
      </g>
      <g
         id="g4110">
        <path
           d="m 783.8569,267.1053 c 1.061,7.0112 -12.6187,5.7792 -10.785,-2.5419 0.7841,-3.5586 7.1587,-4.4078 10.2218,-0.729 0.0385,0.0459 0.0391,0.0419 0.0847,0.0697 0.2656,0.119 0.3847,0.4309 0.2656,0.6965 -0.1193,0.2656 -0.4311,0.3843 -0.6964,0.2653 -0.2498,-0.1522 -0.2832,-0.1443 -0.468,-0.3623 -2.4608,-2.8995 -7.3163,-2.4327 -8.2741,-0.0278 -2.5515,6.4058 9.4856,8.5456 8.6213,2.8542 -0.0618,-0.2846 0.1182,-0.5652 0.4028,-0.6273 0.2843,-0.062 0.5652,0.1182 0.6273,0.4026"
           style="fill:#1a1a18;fill-opacity:1;fill-rule:evenodd;stroke:none"
           id="path4112" />
      </g>
      <g
         id="g4114">
        <path
           d="m 782.8217,264.2122 c 0.6576,-0.9606 1.8731,-2.4616 3.1842,-2.5554 0.2897,0.0255 0.5042,0.2815 0.4787,0.5712 -0.0246,0.2789 -0.2622,0.4878 -0.5383,0.4807 -0.7687,0.2568 -1.6911,1.2728 -2.1384,1.8757 -0.1029,0.2721 -0.4071,0.4096 -0.6792,0.307 -0.2724,-0.1029 -0.4099,-0.4071 -0.307,-0.6792"
           style="fill:#1a1a18;fill-opacity:1;fill-rule:evenodd;stroke:none"
           id="path4116" />
      </g>
      <g
         id="g4118">
        <path
           d="m 778.5162,266.8289 c -0.4043,0.0606 -0.7399,0.0487 -1.135,-0.1381 -4.0726,-1.9236 3.647,-6.7541 1.7297,-0.2024 -0.0888,0.2481 -0.3439,0.3884 -0.5947,0.3405"
           style="fill:#1a1a18;fill-opacity:1;fill-rule:evenodd;stroke:none"
           id="path4120" />
      </g>
      <g
         id="g4122">
        <path
           d="m 778.4799,265.9499 c 0.2032,-0.3141 0.3175,-1.2212 0.1655,-1.5319 -0.22,-0.1494 -0.2962,-0.4436 -0.1684,-0.6837 0.137,-0.2568 0.4561,-0.354 0.7132,-0.2171 1.0035,0.6706 0.6974,3.3545 -0.6006,3.4727 -0.2909,-0.006 -0.5219,-0.2472 -0.5154,-0.5383 0.005,-0.2455 0.1775,-0.4479 0.4057,-0.5017"
           style="fill:#1a1a18;fill-opacity:1;fill-rule:evenodd;stroke:none"
           id="path4124" />
      </g>
      <g
         id="g4126">
        <path
           d="m 784.9962,265.3526 c -0.0737,-0.2747 -0.478,-0.7722 -0.7558,-0.9128 -0.0955,0.4179 0.3453,1.0732 0.6251,1.1662 0.0113,-0.0167 0.007,-0.0167 0.0431,-0.0966 0.0207,-0.0584 0.0507,-0.1112 0.0876,-0.1568 z m 0.82,0.6758 c -0.559,0.9839 -1.4811,0.7611 -2.1416,-0.097 -2.7286,-3.5464 3.8818,-2.8709 2.2182,0.0153 -0.023,0.0304 -0.0488,0.0576 -0.0766,0.0817"
           style="fill:#1a1a18;fill-opacity:1;fill-rule:evenodd;stroke:none"
           id="path4128" />
      </g>
      <g
         id="g4130">
        <path
           d="m 784.5809,265.8492 c -0.5278,-0.6171 -0.2914,-0.2951 -0.7132,-0.9629 -0.1355,-0.2577 -0.0363,-0.5763 0.2214,-0.7118 0.2576,-0.1352 0.5765,-0.036 0.7118,0.2217 0.305,0.4796 0.1403,0.256 0.4898,0.6738 0.2151,0.1961 0.2307,0.5295 0.0346,0.7446 -0.1959,0.2152 -0.5293,0.2308 -0.7444,0.0346"
           style="fill:#1a1a18;fill-opacity:1;fill-rule:evenodd;stroke:none"
           id="path4132" />
      </g>
      <g
         id="g4134">
        <path
           d="m 776.7133,270.3515 c 2.8316,5.4179 9.9856,7.2292 7.1447,1.7589 -1.5709,-3.0251 4.8391,1.9485 3.7018,-1.7541 -0.0658,-0.214 -0.1797,-0.309 -0.3923,-0.3435 -0.29,-0.0256 -0.5043,-0.2812 -0.4788,-0.5712 0.0255,-0.29 0.2815,-0.5043 0.5715,-0.4788 0.8249,0.1355 1.2829,0.6262 1.3895,1.4613 0.415,3.2621 -2.107,2.5149 -3.5849,1.9213 2.3499,6.6747 -6.1283,4.5473 -9.3359,-1.6172 -0.1041,-0.2718 0.032,-0.5765 0.3038,-0.6806 0.2719,-0.104 0.5766,0.0321 0.6806,0.3039"
           style="fill:#1a1a18;fill-opacity:1;fill-rule:evenodd;stroke:none"
           id="path4136" />
      </g>
      <g
         id="g4138">
        <path
           d="m 773.1592,267.0642 c -11.3694,0.737 -19.2818,12.6878 -18.1029,4.3917 0.6265,-4.4105 8.0099,-10.3933 11.0214,-11.4276 -0.6613,-4.9207 -9.4855,-9.9063 -12.9566,-11.2065 l -6.3714,-1.7212 c -0.29,-0.0255 -0.5043,-0.2812 -0.4788,-0.5712 0.0255,-0.29 0.2815,-0.5043 0.5712,-0.4788 5.7149,1.5356 7.7471,1.6328 12.7885,4.7716 1.7651,1.099 10.3105,10.0137 6.9205,10.1466 l 0.0448,0.004 c -1.3433,0.3475 -6.6192,4.8373 -7.312,5.4403 -1.4689,1.2787 -4.5722,5.4946 -3.0809,7.0543 0.6077,-0.1472 -0.222,0.0481 1.5601,-1.1569 5.0766,-3.4324 9.3609,-5.9099 15.4886,-6.2963 0.2899,0.0258 0.5042,0.2815 0.4787,0.5715 -0.0255,0.29 -0.2812,0.5043 -0.5712,0.4788"
           style="fill:#1a1a18;fill-opacity:1;fill-rule:evenodd;stroke:none"
           id="path4140" />
      </g>
      <g
         id="g4142">
        <path
           d="m 746.9634,247.1207 c -6.6089,-0.3288 -22.8325,-1.4048 -27.7344,3.9195 -3.2596,3.5405 -6.2983,7.8715 -6.7652,12.7344 -0.0255,0.2899 -0.2812,0.5042 -0.5712,0.4787 -0.29,-0.0255 -0.5043,-0.2815 -0.4787,-0.5714 0.4906,-5.0928 3.6158,-9.6407 7.0338,-13.3492 5.1585,-5.5968 21.3872,-4.7158 28.3561,-4.254 0.2878,-0.0439 0.5568,0.1536 0.6007,0.4414 0.0439,0.2877 -0.1534,0.5567 -0.4411,0.6006"
           style="fill:#1a1a18;fill-opacity:1;fill-rule:evenodd;stroke:none"
           id="path4144" />
      </g>
      <g
         id="g4146">
        <path
           d="m 754.7896,273.5507 c 0.1361,-6.7295 1.3229,-10.4219 6.1594,-15.9769 0.8578,-0.9851 1.5789,-1.7136 2.7814,-2.2286 0.2823,-0.0712 0.5686,0.1 0.6397,0.3824 0.0712,0.2823 -0.1,0.5689 -0.3824,0.6397 l 0.0137,0.006 c -0.9746,0.4748 -1.5325,1.0593 -2.2516,1.8862 -4.7486,5.4598 -5.7827,8.8599 -5.91,15.3839 -0.0258,0.29 -0.2814,0.5043 -0.5714,0.4788 -0.29,-0.0256 -0.5043,-0.2815 -0.4788,-0.5712"
           style="fill:#1a1a18;fill-opacity:1;fill-rule:evenodd;stroke:none"
           id="path4148" />
      </g>
      <g
         id="g4150">
        <path
           d="m 775.6172,270.6429 c -2.9209,0.47 -7.5634,15.641 -8.3591,4.8098 -0.1463,-1.9876 0.4941,-5.5074 0.7704,-7.594 0.0255,-0.2897 0.2815,-0.5043 0.5712,-0.4788 0.29,0.0258 0.5043,0.2815 0.4788,0.5715 -0.2599,1.9687 -1.4729,8.5533 -0.1908,10.2268 1.3606,-0.9836 3.0467,-8.0098 6.664,-8.5875 0.2903,-0.0182 0.5406,0.2029 0.5587,0.4932 0.0181,0.2906 -0.2027,0.5409 -0.4932,0.559"
           style="fill:#1a1a18;fill-opacity:1;fill-rule:evenodd;stroke:none"
           id="path4152" />
      </g>
      <g
         id="g4154">
        <path
           d="m 793.2594,261.8379 c 6.8429,1.1775 11.8279,19.4355 6.3987,12.8257 -2.4772,-3.0158 -6.2666,-4.6282 -9.6404,-6.4199 -0.29,-0.0256 -0.5043,-0.2815 -0.4787,-0.5712 0.0255,-0.29 0.2812,-0.5043 0.5711,-0.4788 l 4.2427,2.162 c 5.2078,2.9982 5.2903,4.1207 6.3408,5.1656 -0.5735,-4.2832 -3.7554,-10.9744 -7.4926,-11.6312 -0.2905,-0.0161 -0.5133,-0.2647 -0.4972,-0.5553 0.0162,-0.2905 0.2648,-0.5133 0.5556,-0.4969"
           style="fill:#1a1a18;fill-opacity:1;fill-rule:evenodd;stroke:none"
           id="path4156" />
      </g>
      <g
         id="g4158">
        <path
           d="m 801.2463,274.5485 c 2.075,-2.4888 0.1015,-11.888 -4.2757,-12.8299 -0.2912,-0.003 -0.525,-0.2404 -0.5225,-0.5315 0.002,-0.2911 0.2404,-0.525 0.5315,-0.5227 6.0954,1.0205 7.407,12.9571 4.775,14.807 -0.2591,0.133 -0.5766,0.0304 -0.7095,-0.2284 -0.1279,-0.2498 -0.0374,-0.5539 0.2012,-0.6945"
           style="fill:#1a1a18;fill-opacity:1;fill-rule:evenodd;stroke:none"
           id="path4160" />
      </g>
      <g
         id="g4162">
        <path
           d="m 791.6845,268.4594 c 2.9812,8.2596 -4.752,15.3935 -4.8146,12.128 -0.0817,-4.254 -0.1605,-3.6709 -1.1444,-7.6388 -0.163,-0.1338 -0.2234,-0.3881 -0.2055,-0.6701 0.0255,-0.29 0.2815,-0.5043 0.5715,-0.4788 0.2401,0.0213 0.4283,0.2004 0.4714,0.4263 1.0797,1.1529 1.3172,6.1895 1.3535,7.8914 2.9736,-2.0236 4.1516,-7.501 2.8077,-11.2238 -0.1199,-0.265 -0.002,-0.5774 0.2628,-0.6973 0.2653,-0.1199 0.5777,-0.002 0.6976,0.2631 z m -5.506,4.5725 c 0.0215,-0.003 0.0436,-0.009 0.0658,-0.0153 -0.0227,0.006 -0.0446,0.0111 -0.0658,0.0153"
           style="fill:#1a1a18;fill-opacity:1;fill-rule:evenodd;stroke:none"
           id="path4164" />
      </g>
      <g
         id="g4166">
        <path
           d="m 754.1711,241.3967 c 2.5926,-2.2909 5.3793,-6.1682 2.2351,-9.4549 -3.4537,-3.6111 -19.6435,-2.0152 -12.3245,5.9164 1.5786,1.711 7.3457,5.6815 9.8944,4.0422 l 0.006,-0.0187 c -0.0255,-0.1774 0.04,-0.3637 0.1894,-0.485 z m 0.8365,0.6639 c -0.2458,3.1615 -8.8084,-0.3495 -11.7167,-3.5053 -8.3234,-9.0321 9.4164,-12.0603 13.875,-7.3446 3.5892,3.7967 0.9054,8.0745 -2.1583,10.8499"
           style="fill:#1a1a18;fill-opacity:1;fill-rule:evenodd;stroke:none"
           id="path4168" />
      </g>
      <g
         id="g4170">
        <path
           d="m 733.822,240.9236 c 2.3392,-0.0224 5.6237,-5.0224 0.3263,-9.377 -2.6663,-2.1917 -11.346,-8.327 -13.7172,-2.3451 -1.9814,4.9983 5.688,12.9339 12.8594,12.0413 0.0868,-0.2049 0.2979,-0.3399 0.5315,-0.3192 z m 0.3685,1.0111 c -3.6816,3.2823 -17.7593,-5.5111 -14.7407,-13.1181 2.7522,-6.9356 11.9554,-0.8929 15.3388,1.8927 5.7592,4.742 2.8035,10.6942 -0.5981,11.2254"
           style="fill:#1a1a18;fill-opacity:1;fill-rule:evenodd;stroke:none"
           id="path4172" />
      </g>
      <g
         id="g4174">
        <path
           d="m 738.7707,228.4639 c 3.7523,-2.3865 7.7369,-5.9884 1.5322,-8.6666 -10.2708,-4.4337 -10.8326,6.6844 -1.5322,8.6666 z m 0.7572,0.7671 c -0.0791,0.2197 -0.2985,0.3676 -0.542,0.3464 l -0.0865,-0.0165 c -0.1009,0.009 -0.2026,-0.0102 -0.2931,-0.0572 -1.6755,-0.3371 -2.5486,-0.7047 -4.1408,-1.931 -9.6854,-7.461 2.5024,-13.5776 8.8668,-7.0565 3.5274,3.6141 -0.8907,6.866 -3.8044,8.7148"
           style="fill:#1a1a18;fill-opacity:1;fill-rule:evenodd;stroke:none"
           id="path4176" />
      </g>
      <g
         id="g4178">
        <path
           d="m 709.3562,263.3323 c 1.2359,-5.8498 0.1729,-4.4708 3.1501,-10.9887 l 1.8448,-3.7599 c -0.0346,0.0584 -0.0176,0.0434 -0.0354,0.0589 0.1403,-0.3781 0.3353,-0.4756 0.7007,-0.5901 0.2826,-0.0706 0.5686,0.1009 0.6395,0.3835 0.07,0.2803 -0.0986,0.5647 -0.3779,0.6378 v 0 c -4.2658,8.8214 -3.1773,6.5554 -4.9436,14.6509 -0.1083,0.2701 -0.415,0.4013 -0.6851,0.2928 -0.2702,-0.1083 -0.4014,-0.415 -0.2931,-0.6852"
           style="fill:#1a1a18;fill-opacity:1;fill-rule:evenodd;stroke:none"
           id="path4180" />
      </g>
      <g
         id="g4182">
        <path
           d="m 714.7528,248.2645 c -3.5827,-10.4462 -11.6688,-41.9065 -9.7801,-52.3644 0.6287,-3.4824 11.5293,-4.7546 12.9642,-0.6727 1.0764,3.062 4.6517,14.0945 8.316,15.3051 6.5571,2.1666 15.4032,0.2109 22.1012,-1.1622 6.8984,-1.4142 6.7881,-3.901 7.5971,-10.853 0.0256,-0.29 0.2812,-0.5043 0.5712,-0.4787 0.29,0.0255 0.5043,0.2811 0.4788,0.5711 -0.8668,7.4248 -1.0077,10.2685 -8.466,11.799 -6.8921,1.4144 -15.8717,3.3508 -22.6184,1.1228 -4.3067,-1.4219 -7.7437,-12.4393 -8.9754,-15.9574 -1.0582,-3.0231 -10.51,-1.8516 -10.9349,0.5312 -1.8298,10.2586 6.2147,41.5296 9.7361,51.7969 0.1001,0.2736 -0.0405,0.576 -0.3137,0.6761 -0.2733,0.1001 -0.576,-0.0405 -0.6761,-0.3138"
           style="fill:#1a1a18;fill-opacity:1;fill-rule:evenodd;stroke:none"
           id="path4184" />
      </g>
      <g
         id="g4186">
        <path
           d="m 755.9943,198.3986 c 1.2586,-9.9703 2.9928,-11.2014 12.8226,-9.3317 5.7614,1.0962 3.2079,6.8031 3.2734,11.016 0.0459,2.9565 1.4153,8.733 2.0713,11.7522 5.8382,3.1079 6.9661,3.9506 10.6614,9.6465 0.1304,0.2603 0.0255,0.5769 -0.2347,0.7073 -0.2603,0.1307 -0.5769,0.0255 -0.7076,-0.2347 -3.8438,-5.9225 -4.4614,-5.8955 -10.3958,-9.288 -1.0423,-0.5959 -2.4267,-11.6895 -2.44,-12.7171 -0.0502,-3.8772 2.3454,-8.9416 -2.4177,-9.8453 -9.0521,-1.7172 -10.423,-0.8121 -11.5829,8.3872 -0.0255,0.2899 -0.2812,0.5042 -0.5712,0.4787 -0.29,-0.0255 -0.5043,-0.2812 -0.4788,-0.5711"
           style="fill:#1a1a18;fill-opacity:1;fill-rule:evenodd;stroke:none"
           id="path4188" />
      </g>
      <g
         id="g4190">
        <path
           d="m 772.0458,194.2183 c -6.0361,-1.6988 -7.7536,-1.6912 -14,-1.002 -0.2883,0.0399 -0.5545,-0.1611 -0.5947,-0.4493 -0.04,-0.2886 0.161,-0.5548 0.4492,-0.595 6.1526,-0.6738 8.2412,-0.7566 14.2379,0.9963 0.29,0.0256 0.5043,0.2815 0.4788,0.5712 -0.0255,0.29 -0.2815,0.5043 -0.5712,0.4788"
           style="fill:#1a1a18;fill-opacity:1;fill-rule:evenodd;stroke:none"
           id="path4192" />
      </g>
      <g
         id="g4194">
        <path
           d="m 737.049,211.6332 c -4.047,-8.4773 -3.3256,-1.5293 -2.1186,-7.2482 0.1848,-0.8753 -0.8244,-4.4968 -1.9713,-0.1088 -0.0396,0.1528 -0.064,0.1508 -0.1794,0.2942 l -0.6942,-0.0139 c 0,0 -0.0289,-0.2707 -0.0924,-0.6619 -0.032,0.0372 6e-4,9e-4 -0.0553,0.1214 l 0.0417,-0.2041 c -0.2217,-1.3201 -0.8135,-3.8024 -1.9848,-2.3585 -0.2738,0.3382 -0.3578,1.4038 -0.4743,1.9066 l -0.8197,0.1506 c -0.036,-0.063 -1.2062,-4.6888 -1.6685,-1.7037 -0.008,0.0505 -0.0714,0.5145 -0.1035,0.9012 0.0465,0.3962 -0.0561,0.7528 -0.371,0.9898 -0.8127,-0.1783 -1.0299,-0.7656 -0.8992,-1.4264 -0.2265,-0.4099 -0.5825,-0.7718 -0.8818,-1.074 -2.7083,0.6219 1.3926,2.6461 -2.0588,4.0405 -0.3538,0.1429 -0.6024,0.2914 -0.9227,0.4178 -0.2707,0.1066 -0.5769,-0.0264 -0.6837,-0.2971 -0.1066,-0.2707 0.0263,-0.5768 0.297,-0.6837 l 0.1259,-0.0496 -0.0933,0.0485 c 0.5539,-0.2571 1.2719,-0.506 1.7632,-0.741 -0.2982,-0.4379 -0.5343,-0.6769 -0.4519,-1.3867 0.3705,-3.1844 2.293,-2.6277 3.3996,-1.3793 0.8017,-1.1642 2.3066,-1.9559 3.0246,-0.3493 0.9692,-1.0941 2.8477,-0.7628 3.5467,0.9669 0.2633,-0.3631 0.6123,-0.6142 1.0817,-0.6227 3.2655,-0.0573 1.8743,3.9223 1.2918,5.5513 1.7407,1.9304 1.7206,1.9888 2.9032,4.466 0.1256,0.2628 0.0142,0.5774 -0.2483,0.7027 -0.2628,0.1256 -0.5774,0.0142 -0.7027,-0.2486 z m -15.5146,-7.0078 6e-4,-3e-4 h 2e-4"
           style="fill:#1a1a18;fill-opacity:1;fill-rule:evenodd;stroke:none"
           id="path4196" />
      </g>
      <g
         id="g4198">
        <path
           d="m 739.1344,211.4972 c -1.7325,-11.3307 4.5751,-16.3163 -6.1203,-17.1009 -5.0771,-0.3725 -5.2818,1.1444 -6.1001,6.5225 -0.0255,0.2897 -0.2815,0.5043 -0.5715,0.4785 -0.2897,-0.0255 -0.5043,-0.2812 -0.4785,-0.5712 0.872,-5.7469 1.3882,-7.9112 7.2207,-7.4814 11.7355,0.8642 5.493,7.0716 7.0146,17.7281 0.1174,0.2665 -0.004,0.5774 -0.2701,0.6945 -0.2667,0.1174 -0.5777,-0.004 -0.6948,-0.2701"
           style="fill:#1a1a18;fill-opacity:1;fill-rule:evenodd;stroke:none"
           id="path4200" />
      </g>
      <g
         id="g4202">
        <path
           d="m 739.2251,198.9145 c -2.4179,-0.8802 -9.8376,-1.8553 -11.8219,-0.8249 -0.1672,0.1255 -0.3035,0.1462 -0.5142,0.1088 -0.2868,-0.0484 -0.4804,-0.32 -0.4322,-0.6072 0.0394,-0.2341 0.2276,-0.4059 0.4512,-0.4354 2.42,-1.4811 10.7791,0.0879 12.9082,0.8859 0.2412,0.1632 0.3041,0.4909 0.1408,0.7319 -0.163,0.2409 -0.4906,0.3038 -0.7319,0.1409"
           style="fill:#1a1a18;fill-opacity:1;fill-rule:evenodd;stroke:none"
           id="path4204" />
      </g>
      <g
         id="g4206">
        <path
           d="m 717.4576,197.3557 c -2.3856,-0.0746 -9.0232,-0.3827 -11.4117,1.1956 -0.1432,0.2013 -0.4127,0.2804 -0.6463,0.1749 -0.2653,-0.1199 -0.3835,-0.432 -0.2636,-0.6973 1.366,-2.2365 11.3181,-1.728 12.6439,-1.6767 0.2772,0.089 0.4297,0.3858 0.3407,0.663 -0.089,0.277 -0.3858,0.4295 -0.663,0.3405"
           style="fill:#1a1a18;fill-opacity:1;fill-rule:evenodd;stroke:none"
           id="path4208" />
      </g>
      <g
         id="g4210">
        <path
           d="m 784.8159,221.5414 c 0.9623,3.2043 -1.6747,13.9853 -2.9143,15.5467 -0.2047,0.2069 -0.5383,0.2089 -0.7453,0.004 -0.1822,-0.18 -0.2055,-0.4606 -0.0686,-0.6664 0.0998,-1.1988 3.8662,-10.7736 2.7332,-14.5358 -0.0961,-0.2747 0.0485,-0.5754 0.3232,-0.6718 0.2746,-0.0961 0.5754,0.0485 0.6718,0.3231"
           style="fill:#1a1a18;fill-opacity:1;fill-rule:evenodd;stroke:none"
           id="path4212" />
      </g>
      <g
         id="g4214">
        <path
           d="m 783.5017,220.9263 c 0.9729,-3.6238 6.7006,-21.7967 5.2688,-23.6769 -1.6345,-2.1458 -9.8161,-4.2568 -11.505,0.8263 -0.322,0.9692 -3.9135,7.7465 -4.0739,8.0583 -0.1426,0.2537 -0.4641,0.3439 -0.7178,0.2016 -0.2537,-0.1426 -0.3438,-0.4641 -0.2015,-0.7178 0.0465,-0.0901 3.6615,-6.8768 3.9467,-7.6677 2.4604,-6.8238 12.2122,-3.6915 13.6749,-0.8813 1.25,2.4024 -4.3328,20.2547 -5.3813,24.1574 -0.0828,0.2792 -0.3762,0.4383 -0.6554,0.3555 -0.2789,-0.0828 -0.4382,-0.3762 -0.3555,-0.6554"
           style="fill:#1a1a18;fill-opacity:1;fill-rule:evenodd;stroke:none"
           id="path4216" />
      </g>
      <g
         id="g4218">
        <path
           d="m 789.0089,199.7855 c -1.9398,-2.2544 -8.4903,-2.3553 -10.9599,-2.249 -0.2823,0.0706 -0.5686,-0.1009 -0.6392,-0.3832 -0.0709,-0.2823 0.1009,-0.5686 0.3832,-0.6392 3.1343,-0.1542 9.7447,-0.0955 12.1167,2.7238 0.1511,0.2489 0.072,0.5729 -0.1768,0.7242 -0.2489,0.1511 -0.5729,0.072 -0.724,-0.1766"
           style="fill:#1a1a18;fill-opacity:1;fill-rule:evenodd;stroke:none"
           id="path4220" />
      </g>
      <g
         id="g4222">
        <path
           d="m 773.8206,211.7631 c 1.1094,11.7459 0.2554,18.8336 -1.9001,30.1708 -0.0255,0.2897 -0.2815,0.5043 -0.5712,0.4788 -0.29,-0.0258 -0.5043,-0.2815 -0.4787,-0.5715 l 0.5057,-2.6864 c 2.4114,-11.3349 1.6426,-16.6932 1.4694,-27.7926 0.1106,-0.2693 0.4187,-0.3977 0.6877,-0.2871 0.2693,0.1108 0.3977,0.4187 0.2872,0.688"
           style="fill:#1a1a18;fill-opacity:1;fill-rule:evenodd;stroke:none"
           id="path4224" />
      </g>
      <g
         id="g4226">
        <path
           d="m 710.1065,263.111 0.021,0.008 0.0502,-0.011 c 0.2092,-0.0343 0.4096,0.0589 0.5215,0.223 3.7239,1.4392 3.915,2.8095 0.4513,8.1953 l -2.5846,3.4687 c -0.2656,-0.2293 -0.5136,-0.4864 -0.743,-0.7662 1.1838,-1.5746 3.7341,-4.7545 4.3229,-6.5607 0.9708,-2.9778 -0.3263,-2.9226 -2.0693,-3.4603 -4.5051,1.0792 -2.8242,6.1104 -1.8374,9.288 l -0.4275,0.7197 c -2.6348,-3.2306 -2.7632,-9.4671 1.6563,-10.9227 0.14,-0.1996 0.4053,-0.2812 0.6386,-0.1814 z m -2.2836,11.1174 -0.0113,-0.0133 -0.0816,0.1378 z"
           style="fill:#1a1a18;fill-opacity:1;fill-rule:evenodd;stroke:none"
           id="path4228" />
      </g>
    </g>
    <path
       style="fill:#ffffff;fill-opacity:0.99;stroke-width:0.00910542"
       d="m 411.56701,106.91252 c -5.19582,-0.94394 -10.42677,-3.58112 -13.05316,-6.58072 -4.15786,-4.7487 -5.81257,-13.526443 -3.76282,-19.960642 3.24976,-10.201034 15.03654,-17.921742 28.55765,-18.706149 5.31803,-0.308519 9.11295,0.308547 12.81833,2.084299 3.30565,1.584192 5.88204,4.00444 7.25306,6.813484 0.84263,1.726451 0.99587,2.677916 1.09414,6.793762 0.12293,5.148822 0.41486,5.941576 2.36857,6.431925 1.12538,0.282452 3.32822,-0.629141 4.41069,-1.825256 0.41317,-0.456542 0.83212,-1.789211 0.99395,-3.161724 0.38724,-3.284235 1.51992,-4.94332 4.30811,-6.310252 7.57644,-3.714411 20.93884,1.775298 24.90177,10.230456 0.89223,1.903638 1.07375,2.844794 1.06233,5.508126 -0.0181,4.214501 -1.41218,7.284072 -5.32472,11.724155 -3.3504,3.802136 -5.16261,4.736256 -10.84441,5.589806 -3.63299,0.54576 -3.87833,0.53498 -5.45478,-0.23977 -1.72126,-0.84592 -5.01079,-3.44681 -4.66211,-3.68612 0.11042,-0.0758 1.28488,-0.69376 2.6099,-1.37327 5.45984,-2.799956 6.47922,-7.730104 2.74713,-13.286258 -2.42431,-3.609198 -5.94377,-4.316679 -9.43571,-1.896765 -1.71043,1.185328 -5.41136,6.05831 -5.81126,7.651634 -0.12539,0.499609 -0.61656,1.030278 -1.09149,1.179266 -0.47494,0.148988 -2.309,1.663452 -4.0757,3.365475 -4.98666,4.804098 -8.44096,6.866308 -14.53216,8.675718 -3.87944,1.15239 -11.4254,1.64228 -15.07731,0.97882 z m 11.54091,-4.43971 c 3.35185,-2.29564 4.1722,-4.114639 4.19837,-9.309255 0.0379,-7.521661 -3.54632,-12.223726 -8.436,-11.067025 -4.64643,1.099159 -6.04711,1.607467 -7.86078,2.852684 -4.84765,3.328265 -5.68035,8.054907 -2.29315,13.016506 1.65631,2.42617 5.46452,5.16979 7.69177,5.54152 0.81399,0.13586 1.66066,0.30788 1.8815,0.38229 0.92678,0.31222 3.32225,-0.39212 4.81829,-1.41672 z"
       id="path951"
       transform="matrix(0.26458333,0,0,0.26458333,23.911039,22.193682)" />
    <path
       style="fill:#ffffff;fill-opacity:0.99;stroke-width:0.00910542"
       d="m 411.56701,106.91252 c -5.19582,-0.94394 -10.42677,-3.58112 -13.05316,-6.58072 -4.15786,-4.7487 -5.81257,-13.526443 -3.76282,-19.960642 3.24976,-10.201034 15.03654,-17.921742 28.55765,-18.706149 5.31803,-0.308519 9.11295,0.308547 12.81833,2.084299 3.31025,1.586394 5.88718,4.009425 7.24625,6.813484 0.82246,1.696922 0.99795,2.753286 1.13395,6.825901 0.17211,5.153756 0.45455,5.927681 2.33557,6.399786 1.10417,0.27713 3.32277,-0.623121 4.3599,-1.769136 0.36488,-0.403184 0.8196,-1.838002 1.01049,-3.188484 0.46951,-3.321678 1.57814,-4.988056 4.1416,-6.225279 2.96152,-1.42934 5.55852,-1.662555 9.56997,-0.859398 6.66628,1.3347 12.50157,5.295489 15.23878,10.343547 1.25607,2.316482 1.36928,2.809954 1.36257,5.939338 -0.006,2.975134 -0.16767,3.753383 -1.25742,6.06675 -0.71385,1.515392 -2.46138,4.028385 -4.07376,5.858167 -3.3504,3.802136 -5.16261,4.736256 -10.84441,5.589806 -3.62201,0.54411 -3.8831,0.5331 -5.45478,-0.22993 -1.74348,-0.84644 -4.66211,-3.08861 -4.66211,-3.58156 0,-0.1604 0.59366,-0.5063 1.31924,-0.76867 3.42497,-1.238492 6.30971,-4.69845 6.30971,-7.567888 0,-2.509926 -1.18468,-5.289023 -3.17933,-7.458294 -1.93782,-2.107468 -1.97236,-2.124378 -4.34001,-2.124378 -1.99429,0 -2.67048,0.196696 -4.11313,1.196452 -1.77093,1.227255 -5.47887,6.079947 -5.88642,7.703719 -0.12539,0.499609 -0.61656,1.030278 -1.09149,1.179266 -0.47494,0.148988 -2.309,1.663452 -4.0757,3.365475 -4.98666,4.804098 -8.44096,6.866308 -14.53216,8.675718 -3.87944,1.15239 -11.4254,1.64228 -15.07731,0.97882 z m 10.63206,-3.88219 c 3.92178,-2.0039 5.3088,-4.954848 5.05512,-10.755034 -0.13563,-3.10114 -0.35464,-4.087012 -1.35103,-6.081668 -0.73949,-1.480387 -1.72055,-2.736535 -2.59448,-3.321962 -1.22985,-0.82385 -1.71365,-0.910713 -3.87444,-0.695625 -3.47818,0.346224 -5.92364,1.163214 -8.39661,2.805172 -5.42876,3.604496 -5.79541,9.681139 -0.88382,14.648201 3.92354,3.967856 8.44004,5.243066 12.04526,3.400916 z"
       id="path953"
       transform="matrix(0.26458333,0,0,0.26458333,23.911039,22.193682)" />
    <path
       style="fill:#ffffff;fill-opacity:0.99;stroke-width:0.00910542"
       d="m 411.29055,106.89034 c -11.53912,-2.42658 -17.4181,-9.34627 -17.38909,-20.467367 0.0246,-9.440133 6.46451,-17.681827 17.23512,-22.057323 6.07313,-2.467171 13.56595,-3.422057 19.27854,-2.456856 5.79456,0.979053 10.90316,4.389977 12.97691,8.66447 0.80458,1.658435 1.00531,2.821141 1.18353,6.85569 0.13646,3.089005 0.40342,5.085452 0.733,5.481554 0.8275,0.994536 2.39045,1.189689 3.8773,0.484131 2.04849,-0.972071 2.6472,-1.874648 3.02731,-4.56378 0.46951,-3.321678 1.57814,-4.988056 4.1416,-6.225279 2.96152,-1.42934 5.55852,-1.662555 9.56997,-0.859398 6.66628,1.3347 12.50157,5.295489 15.23878,10.343547 1.25551,2.315453 1.36982,2.813208 1.36915,5.961656 -8.1e-4,3.160588 -0.12017,3.674274 -1.49438,6.424377 -2.01452,4.031517 -6.02404,8.405988 -8.79877,9.599638 -1.15501,0.49687 -3.88133,1.16784 -6.05848,1.49104 l -3.95846,0.58764 -1.75469,-1.02832 c -2.02827,-1.18865 -4.23428,-2.97357 -4.23428,-3.42604 0,-0.1712 0.80287,-0.61789 1.78416,-0.99265 2.3745,-0.90683 4.91686,-3.495649 5.47745,-5.577556 0.76146,-2.827821 -0.21816,-6.151792 -2.67273,-9.06887 -2.10411,-2.500599 -4.609,-3.068918 -7.35403,-1.66851 -2.01701,1.029002 -5.36933,4.738095 -6.53881,7.234705 -0.51419,1.097704 -1.25572,2.106054 -1.64785,2.240778 -0.39213,0.134725 -2.48925,1.90265 -4.66027,3.928722 -6.80726,6.352781 -13.3892,9.078121 -22.53266,9.329941 -2.76047,0.076 -5.81972,-0.0301 -6.79832,-0.23594 z m 11.4739,-4.23715 c 3.57557,-2.05526 4.81898,-5.097589 4.47958,-10.960471 -0.22766,-3.932705 -1.73824,-7.30811 -3.94269,-8.810006 -1.22897,-0.837291 -1.69653,-0.922734 -3.8671,-0.706672 -3.47818,0.346224 -5.92364,1.163214 -8.39661,2.805172 -5.63761,3.743162 -5.75363,10.03842 -0.27938,15.158937 2.30338,2.15455 3.91778,3.06644 6.25711,3.53435 2.16588,0.43321 3.68953,0.16254 5.74909,-1.02131 z"
       id="path955"
       transform="matrix(0.26458333,0,0,0.26458333,23.911039,22.193682)" />
    <path
       style="fill:#ffffff;fill-opacity:0.99;stroke-width:0.00910542"
       d="m 411.29055,106.86519 c -11.38635,-2.23353 -17.44252,-9.350667 -17.39485,-20.442217 0.027,-6.279093 2.37159,-11.230578 7.60511,-16.060943 10.93362,-10.091374 30.84982,-11.858403 39.22781,-3.480416 2.81803,2.81803 3.57965,4.894887 3.84882,10.495271 0.12768,2.65655 0.38084,5.067093 0.56259,5.356762 0.706,1.125233 2.25045,1.322013 4.0675,0.518246 2.02802,-0.897086 2.65117,-1.868366 3.05077,-4.755101 0.42101,-3.041322 1.59267,-4.679275 4.29723,-6.007398 1.9806,-0.97261 2.7465,-1.120199 5.70093,-1.098576 7.87665,0.05765 15.75325,4.612345 19.13334,11.063983 0.98326,1.876758 1.13308,2.613406 1.13797,5.595091 0.005,3.165555 -0.11109,3.667376 -1.48874,6.424377 -2.01528,4.033044 -6.02428,8.407261 -8.79951,9.601131 -1.15501,0.49687 -3.88133,1.16784 -6.05848,1.49104 l -3.95846,0.58764 -1.75469,-1.02832 c -2.06969,-1.21292 -4.23428,-2.9763 -4.23428,-3.44944 0,-0.18409 0.61717,-0.53838 1.37149,-0.78733 3.63429,-1.199424 6.62887,-5.55776 6.09833,-8.875568 -0.69069,-4.319325 -4.27866,-8.416385 -7.3495,-8.392296 -2.95109,0.02315 -7.41098,3.843079 -9.41491,8.063927 -0.51506,1.084861 -1.26349,2.076269 -1.66319,2.203128 -0.3997,0.126859 -2.42808,1.829525 -4.50753,3.783703 -5.37613,5.052276 -10.53567,7.740346 -17.39456,9.062396 -3.21108,0.61894 -9.26112,0.68449 -12.08319,0.13091 z m 11.50262,-4.23809 c 3.48402,-1.98424 4.7917,-5.151871 4.42203,-10.711602 -0.32232,-4.847554 -2.10399,-8.428493 -4.73594,-9.518682 -1.05036,-0.435076 -1.82863,-0.438506 -4.34082,-0.01913 -12.62784,2.108045 -15.30467,12.600956 -5.01013,19.639234 1.61314,1.10289 5.20915,2.04953 6.76742,1.7815 0.66251,-0.11395 1.96636,-0.64105 2.89744,-1.17132 z"
       id="path957"
       transform="matrix(0.26458333,0,0,0.26458333,23.911039,22.193682)" />
  </g>
</svg>
