<?xml version="1.0" encoding="UTF-8" standalone="no"?>
<svg
   xmlns:dc="http://purl.org/dc/elements/1.1/"
   xmlns:cc="http://creativecommons.org/ns#"
   xmlns:rdf="http://www.w3.org/1999/02/22-rdf-syntax-ns#"
   xmlns:svg="http://www.w3.org/2000/svg"
   xmlns="http://www.w3.org/2000/svg"
   xmlns:sodipodi="http://sodipodi.sourceforge.net/DTD/sodipodi-0.dtd"
   xmlns:inkscape="http://www.inkscape.org/namespaces/inkscape"
   width="125.36166mm"
   height="144.25659mm"
   viewBox="0 0 125.36166 144.25659"
   version="1.1"
   id="svg29605"
   inkscape:version="1.0.2 (e86c8708, 2021-01-15)"
   sodipodi:docname="dino.svg">
  <defs
     id="defs29599" />
  <sodipodi:namedview
     id="base"
     pagecolor="#ffffff"
     bordercolor="#666666"
     borderopacity="1.0"
     inkscape:pageopacity="0.0"
     inkscape:pageshadow="2"
     inkscape:zoom="0.35"
     inkscape:cx="239.03253"
     inkscape:cy="101.8325"
     inkscape:document-units="mm"
     inkscape:current-layer="layer1"
     inkscape:document-rotation="0"
     showgrid="false"
     inkscape:window-width="1440"
     inkscape:window-height="855"
     inkscape:window-x="0"
     inkscape:window-y="23"
     inkscape:window-maximized="0" />
  <metadata
     id="metadata29602">
    <rdf:RDF>
      <cc:Work
         rdf:about="">
        <dc:format>image/svg+xml</dc:format>
        <dc:type
           rdf:resource="http://purl.org/dc/dcmitype/StillImage" />
        <dc:title></dc:title>
      </cc:Work>
    </rdf:RDF>
  </metadata>
  <g
     inkscape:label="Слой 1"
     inkscape:groupmode="layer"
     id="layer1"
     transform="translate(-42.589309,-121.22348)">
    <g
       id="g4364"
       transform="matrix(0.92437104,0,0,-0.92437104,-471.98085,379.00736)">
      <path
         d="m 632.9305,204.9866 c 2.9562,2.9415 8.9132,18.5737 14.4748,22.2111 8.6998,5.6897 10.9267,11.7703 21.9319,4.8776 8.7939,-5.508 8.1896,-5.0514 15.1949,-13.6712 6.0732,-7.473 4.4022,-10.5483 6.5571,-17.1423 1.7413,-5.3274 -1.3635,-22.0583 -2.7508,-15.3467 -1.7044,8.2448 -14.5905,8.7837 -18.1723,2.1415 0,0.0661 -5.7161,11.8222 -10.6591,11.8222 -2.5144,0 -4.8425,-5.3283 -7.0124,0.6055 -0.7282,1.9913 -4.9785,10.292 -11.2025,4.0963 -2.7624,-2.7496 -2.471,-1.1401 -7.3117,-0.3483 -0.3759,0.0615 -0.7327,1.0697 -1.0499,0.7543"
         style="fill:#8cbe20;fill-opacity:1;fill-rule:evenodd;stroke:none"
         id="path4366" />
      <path
         d="m 644.9902,166.614 c 0.001,0.004 0.0139,-4.2387 -2.287,-6.2822 -2.3253,-2.0653 0.091,-2.5554 1.6673,-4.0788 1.372,-1.3257 10.446,-4.9254 12.873,-4.8628 4.5385,0.1174 6.7714,-2.0441 12.6111,0.015 3.5333,1.2459 4.7965,1.1529 6.7473,4.4484 0.3248,0.5491 1.9465,1.4607 -1.3454,0.9533 -4.0093,-0.6179 -3.9098,-1.7291 -8.8616,-0.7211 -1.4287,0.2908 -8.0603,3.4736 -10.6515,4.3257 -1.6923,0.5567 -10.5055,6.8527 -10.7532,6.2025"
         style="fill:#f7ff00;fill-opacity:1;fill-rule:evenodd;stroke:none"
         id="path4368" />
      <path
         d="m 627.7215,227.1691 -1.7257,6.4015 c -2.0149,-3.4552 0.0116,-9.8031 -10.6926,-11.1198 -11.5968,-1.4267 -29.0806,-9.0714 -40.0147,-9.0714 -3.0231,0 -10.7926,0.6743 -8.9413,5.3022 0.2273,0.5683 -4.4473,3.2445 -4.1338,4.6729 -3.2116,3.0778 -5.0972,10.2852 -5.0972,14.4881 0,4.4125 2.5245,1.1107 2.1373,6.9889 -0.1656,2.5137 1.3462,1.7781 2.9934,4.2176 0.7582,1.1228 5.4482,0.2954 5.2265,0.2688 l 1.2126,1.1259 20.4685,9.5714 -2.4316,5.0131 -0.498,3.6768 c 0.1493,0.9323 2.2217,5.427 3.5518,5.9338 2.9358,1.1185 7.065,3.4997 9.3336,-0.2894 1.2804,-2.1385 1.0749,0.9674 4.5507,2.0443 3.5082,1.0868 7.5116,2.4738 10.5067,-0.5816 1.4921,-1.5228 2.0948,-5.6577 2.9854,-5.7813 1.0854,-0.1508 7.0257,-0.6968 7.4985,-1.478 3.2644,-1.5477 6.7476,-0.4929 9.5159,-5.3518 0.2319,-0.4068 1.7266,-1.5321 2.4239,-2.8684 0.3504,-0.6712 2.4602,-3.3349 3.0728,-4.6576 2.2314,-4.8186 1.9921,-5.364 2.6285,-10.5369 0.005,-0.0394 0.0729,-0.1763 0.0947,-0.2619 0.1219,-1.4434 -1.7527,-10.7802 -2.5934,-12.7511 -1.9029,-4.4609 -3.0892,-7.9353 -5.654,-12.3015 -0.006,-0.01 -0.5743,-1.1518 -0.5766,-1.1583 l -3.795,-8.7057 0.0995,-4.0669 9.1423,-2.7054 6.6382,-4.2026 6.4377,-7.2964 4.6585,-11.0327 1.6427,-5.0755 3.5076,-6.3176 4.7012,-4.5039 4.0853,-1.8822 10.9086,0.3245 -3.2474,-5.2599 -4.9337,-1.7966 -7.545,-0.4893 -20.8737,10.9588 c -0.5627,-1.0755 -0.7087,-3.3429 -1.7725,-5.3646 -1.2164,-2.3117 -5.1421,-7.621 -3.6919,-9.6976 1.1183,-1.6013 7.5402,-3.1915 8.9116,-6.7125 0.7189,-1.8464 0.7214,-8.0855 0.7214,-10.222 0.1726,-0.6831 -0.4564,-8.7366 -2.8681,-8.7366 -3.3267,0 -5.2985,0.0663 -8.6074,-0.1823 -2.1016,-0.1579 -6.1722,-0.0394 -8.0427,0.6613 -1.279,0.4796 -17.8988,-0.5972 -19.9075,-1.0684 -5.6052,-1.315 -5.2188,-2.9644 -7.0812,3.8325 -0.1293,0.4725 0.2475,2.2541 -0.3849,2.1078 -7.776,-1.8005 -11.4693,-2.0965 -13.5054,-0.8257 -0.7053,0.4405 -0.9063,1.7787 -1.1764,2.3953 -0.4791,1.0947 -1.5043,1.9717 -0.3181,3.5093 1.8652,2.4176 14.1611,4.509 18.1718,7.1589 3.1884,2.1067 -4.1164,8.3959 -3.0339,10.2225 0.3484,0.5879 -3.7094,3.4793 -2.3482,3.4869 3.3148,0.019 13.5782,-3.8077 14.8961,-3.3752 1.7963,0.5899 4.3134,-3.5362 8.0447,-6.9709 1.9587,-1.8032 2.1132,-5.1931 2.1529,-6.5274 0.051,-1.7025 -1.1035,-2.9038 -0.1494,-2.9387 2.5209,-0.0929 4.947,0.2331 7.9294,2.1583 4.4844,2.8945 -5.9619,7.0509 -7.4486,9.5381 -0.8822,1.4757 -3.1791,0.7517 -4.2812,5.0374 -4.7024,7.7088 8.8296,18.6001 -1.311,20.2252 -2.0699,0.3317 -6.2992,5.4794 -6.4653,6.1158 -0.4198,-0.8079 -1.7382,-0.9876 -2.4573,-3.5896 -0.4646,-1.6798 -0.9689,-2.8527 1.2041,-3.4358 3.4529,-0.9264 -0.7982,-3.2976 -2.1353,-3.8294 -0.8603,-0.3421 -2.8029,-0.7168 -3.5249,-0.0547 -1.7904,1.6424 -1.23,2.0211 -1.9981,4.0074 -0.3731,0.9646 0.4081,3.3451 0.8112,4.1913 0.8388,1.7597 1.0018,2.8576 2.1444,4.8764 0.1395,0.2466 1.0531,1.9987 1.2379,2.0719 l 2.6059,4.117 -22.7696,-14.0995 c -1.1508,-0.2404 -2.7102,1.5792 -4.6054,1.8683 -0.3878,0.059 -1.7909,3.1983 -1.7909,3.6694 0,3.1697 0.0306,5.0029 2.1007,7.6371 l 0.0397,0.0837 5.9156,4.8345 20.3091,3.7247 2.4965,7.3227 8.0206,10.8595 4.7061,6.8777 z"
         style="fill:#3f9a2e;fill-opacity:1;fill-rule:evenodd;stroke:none"
         id="path4370" />
      <path
         d="m 590.4879,193.4141 3.9923,9.5108 c 0.2483,-0.0422 0.4096,-0.0178 0.5284,0.2098 1.5335,2.9412 7.1419,9.6973 10.6514,10.2869 2.1042,0.3538 4.1783,6.0075 4.1363,7.746 -0.013,0.5417 7.0555,2.2169 7.9433,2.294 8.0025,0.6937 6.8301,6.5741 8.4642,8.9666 3.3344,-3.7553 0.2291,-8.9768 -1.5655,-12.8305 -2.0492,-4.3999 -2.9798,-4.1394 -5.8218,-7.8967 -1.4704,-1.944 -2.4682,-3.5411 -3.7131,-5.7779 -0.667,-1.199 -2.8103,-3.0472 -3.2976,-3.9467 0.0219,-0.2245 -2.1844,-5.3047 -2.1844,-8.7295 0,-5.0879 4.0661,-2.6791 -1.0261,-8.6644 -0.7393,-0.8691 -3.2794,-6.0333 -3.5169,-7.3313 -0.1321,-0.1661 -1.7734,-6.1818 0.1397,-7.1642 2.9818,-1.5313 4.0921,-0.7436 6.937,0.4518 0.9396,0.3949 2.5319,2.4052 0.1097,2.5262 -2.8389,0.1418 -1.7039,5.2232 1.5505,6.8372 1.0726,0.5321 0.7452,-2.4565 3.2899,-4.0938 2.9146,-1.8757 2.9387,-2.0679 6.2107,-3.5597 1.5398,-0.7022 -3.1714,-9.3294 -3.0353,-12.0045 0.1074,-2.1169 -0.9162,-2.8505 0.3792,-5.1845 0.542,-0.976 -2.1787,-0.5454 -3.3499,-0.7064 -3.0946,-0.4255 -8.881,-0.1307 -11.67,1.1211 -1.5851,0.7112 -2.7133,0.8535 -4.5879,1.9219 -2.0222,1.1522 -2.2198,0.8084 -3.4798,2.8406 -0.4799,0.7741 -3.6014,3.3134 -4.5207,5.5615 -1.2271,3.0005 -3.1581,7.0438 -3.3426,10.2371 -0.0822,1.4235 -0.7937,3.4324 -0.7937,5.6865 0,3.0209 0.4771,6.7576 1.258,9.6177 0.0479,0.1755 0.3235,1.8828 0.3147,2.0744"
         style="fill:#f7ff00;fill-opacity:1;fill-rule:evenodd;stroke:none"
         id="path4372" />
      <path
         d="m 571.506,220.7871 c 0.123,1.8395 0.4294,3.8382 0.007,5.6662 -0.1754,0.7589 -0.0572,2.3298 0.0873,3.0878 0.216,1.1307 1.7266,-0.648 2.0206,-1.4014 0.3316,-0.8493 1.1404,-1.4871 1.3504,-2.3766 0.4839,-2.0455 4.2018,-3.0183 -0.6948,-4.4059 -0.8937,-0.2531 -2.7853,-0.79 -2.7705,-0.5701"
         style="fill:#ffffff;fill-opacity:1;fill-rule:evenodd;stroke:none"
         id="path4374" />
      <path
         d="m 611.854,249.478 c -1.8266,0.0593 -2.6929,0.0627 -4.4257,-0.7631 -1.0984,-0.5238 -2.3341,-2.0707 -0.6324,-2.7122 2.1639,-0.8161 4.0569,-0.9649 5.9108,0.5715 0.7038,0.5837 0.5196,2.5387 -0.6877,2.8035 -0.1049,0.0229 -0.1596,0.1 -0.165,0.1003"
         style="fill:#ff969d;fill-opacity:1;fill-rule:evenodd;stroke:none"
         id="path4376" />
      <path
         d="m 599.5069,269.0595 c -3e-4,-9e-4 0.5113,3.5917 4.6596,3.9911 2.6203,0.2523 5.4155,-0.2194 7.2592,-2.2654 1.6739,-1.8578 2.6459,-2.2586 2.6459,-5.2846 0,-1.228 -2.0926,-4.7214 -3.4396,-4.9437 -0.7937,-0.1306 -1.8125,-0.8932 -3.6235,-1.1072 -2.3766,-0.2809 -3.0694,-0.8597 -5.2234,1.2133 -2.376,2.287 -1.4431,4.2556 -2.8384,2.1157 -1.3827,-2.1217 -5.5255,-2.3981 -7.1878,-0.2222 -0.4864,0.6364 -1.9122,1.2036 -2.0593,2.6084 -0.1083,1.0327 -0.3972,1.6748 -0.3972,3.153 0,2.8111 1.9823,2.9787 4.1389,3.7281 1.743,0.6052 4.1295,-0.1091 5.3371,-1.4266 0.1389,-0.1517 1.0323,-1.3709 0.7795,-1.6796 z"
         style="fill:#ffffff;fill-opacity:1;fill-rule:evenodd;stroke:none"
         id="path4378" />
    </g>
    <g
       id="g4380"
       transform="matrix(0.92437104,0,0,-0.92437104,-471.98085,379.00736)">
      <g
         id="g4382">
        <path
           d="m 598.8399,268.2473 c 1.7178,12.3132 22.7826,2.2746 13.5011,-7.156 -3.6607,-3.7199 -11.5809,-4.6103 -13.2341,3.5104 -0.049,0.4139 0.2466,0.7894 0.6605,0.8385 0.4138,0.049 0.7894,-0.2466 0.8385,-0.6605 1.1457,-5.5942 5.8033,-6.0707 9.7307,-3.4013 9.6214,6.5387 -8.1918,17.1145 -9.9878,6.9197 0.0141,-0.4167 -0.3124,-0.7657 -0.7291,-0.7798 -0.4167,-0.0139 -0.7657,0.3126 -0.7798,0.729"
           style="fill:#1a1a18;fill-opacity:1;fill-rule:evenodd;stroke:none"
           id="path4384" />
      </g>
      <g
         id="g4386">
        <path
           d="m 598.7599,268.9492 c -1.159,4.9099 -12.812,3.456 -7.736,-5.1253 2.4803,-4.1933 7.5898,-1.3745 7.8171,-0.2747 -0.0275,0.4119 0.2815,0.7699 0.6942,0.8022 0.4159,0.0326 0.779,-0.2778 0.8113,-0.6936 -0.007,-2.6521 -7.2989,-6.2099 -10.6245,-0.5981 -6.2159,10.4884 8.7995,13.5133 10.5315,6.1103 0.061,-0.4124 -0.2239,-0.7962 -0.6364,-0.8572 -0.4124,-0.0609 -0.7959,0.224 -0.8572,0.6364"
           style="fill:#1a1a18;fill-opacity:1;fill-rule:evenodd;stroke:none"
           id="path4388" />
      </g>
      <g
         id="g4390">
        <path
           d="m 597.386,263.5761 c 0.1029,0.9513 -0.6367,1.933 -1.076,1.9599 -0.6937,-0.5596 -0.7498,-1.8275 0.8115,-1.9125 0.0933,0 0.1823,-0.0168 0.2645,-0.0474 z m -0.5284,-1.4428 c -0.8776,0.0833 -1.785,0.3676 -2.1977,1.2348 -2.7218,5.7208 7.7224,3.5404 3.4948,-1.6254 -0.284,-0.305 -0.7616,-0.3223 -1.0669,-0.0383 -0.127,0.1185 -0.2038,0.2699 -0.2302,0.4289"
           style="fill:#1a1a18;fill-opacity:1;fill-rule:evenodd;stroke:none"
           id="path4392" />
      </g>
      <g
         id="g4394">
        <path
           d="m 596.5381,265.5238 c 0.8289,-0.9867 0.402,-0.4368 1.2578,-1.6662 0.0944,-0.4062 -0.1582,-0.8118 -0.5641,-0.9065 -0.4062,-0.0944 -0.8121,0.1579 -0.9065,0.5641 -0.6118,0.587 -0.26,0.2234 -1.0143,1.1293 -0.2429,0.3387 -0.1647,0.8104 0.1741,1.0534 0.3387,0.2429 0.8101,0.1647 1.053,-0.1741"
           style="fill:#1a1a18;fill-opacity:1;fill-rule:evenodd;stroke:none"
           id="path4396" />
      </g>
      <g
         id="g4398">
        <path
           d="m 607.4634,259.5223 c -7.8797,1.2039 0.6285,11.3411 2.619,3.668 0.441,-1.6996 0.0697,-3.8378 -2.0135,-3.9722 -0.2477,0 -0.4677,0.1199 -0.6055,0.3042 z m 0.8238,1.2563 c 0.3452,0.1528 0.4167,0.612 0.4391,1.0063 0.3393,5.9426 -6.3825,-0.1613 -0.963,-0.7948 0.2033,0 0.3881,-0.0805 0.5239,-0.2115"
           style="fill:#1a1a18;fill-opacity:1;fill-rule:evenodd;stroke:none"
           id="path4400" />
      </g>
      <g
         id="g4402">
        <path
           d="m 607.2228,264.1572 c 0.765,0.7963 1.7464,1.0052 2.1002,-1.0318 0.934,-5.379 -6.8318,-0.3909 -2.8449,1.1906 0.2679,0.0881 0.5496,0.0184 0.7447,-0.1588"
           style="fill:#1a1a18;fill-opacity:1;fill-rule:evenodd;stroke:none"
           id="path4404" />
      </g>
      <g
         id="g4406">
        <path
           d="m 606.0866,262.8006 c 0.275,-0.3745 0.6154,-0.6426 0.991,-0.917 0.4037,-0.1038 0.6469,-0.5154 0.5429,-0.919 -0.1038,-0.404 -0.5154,-0.6469 -0.919,-0.5432 -0.9703,0.5032 -1.6932,1.0183 -2.0863,2.0535 -0.0661,0.4116 0.2143,0.7988 0.6259,0.8648 0.3821,0.0612 0.7429,-0.1754 0.8455,-0.5391"
           style="fill:#1a1a18;fill-opacity:1;fill-rule:evenodd;stroke:none"
           id="path4408" />
      </g>
      <g
         id="g4410">
        <path
           d="m 599.0165,273.7236 c 7.1535,8.9935 18.1309,5.7688 19.1279,-6.2342 l 0.0723,-1.8823 c 0,-0.4166 -0.3382,-0.7548 -0.7549,-0.7548 -0.417,0 -0.7549,0.3382 -0.7549,0.7548 l -0.0666,1.7536 c -0.8821,10.6353 -10.1633,13.3276 -16.38,5.5071 -0.2361,-0.3435 -0.7061,-0.4303 -1.0497,-0.1939 -0.3435,0.2361 -0.4303,0.7061 -0.1941,1.0497"
           style="fill:#1a1a18;fill-opacity:1;fill-rule:evenodd;stroke:none"
           id="path4412" />
      </g>
      <g
         id="g4414">
        <path
           d="m 598.8243,273.005 c -3.0019,7.5453 -17.8387,-2.0013 -9.3135,-11.611 l 0.2517,-0.2358 c 0.3413,-0.2396 0.4238,-0.7101 0.1845,-1.0514 -0.2392,-0.3416 -0.7101,-0.4241 -1.0513,-0.1845 -0.5318,0.4881 -0.5463,0.4402 -0.94,1.0443 -9.0196,13.8381 9.0184,20.7575 12.3225,12.4455 0.1122,-0.4014 -0.1222,-0.8181 -0.5236,-0.9304 -0.4014,-0.1125 -0.8181,0.1219 -0.9303,0.5233"
           style="fill:#1a1a18;fill-opacity:1;fill-rule:evenodd;stroke:none"
           id="path4416" />
      </g>
      <g
         id="g4418">
        <path
           d="m 560.3661,241.0892 c -4.8824,0.6517 -0.1817,12.1841 7.088,9.1573 3.5552,-1.4803 4.585,-7.6065 2.5617,-8.2656 -0.4062,-0.0938 -0.8116,0.1596 -0.9054,0.5656 -0.0729,0.3163 0.0646,0.6318 0.3203,0.8002 0.0244,0.11 0.0337,0.2489 0.0374,0.3345 0.4459,11.2889 -13.4781,1.8425 -8.9631,-1.0897 0.3909,-0.049 0.682,-0.394 0.6587,-0.7931 -0.0243,-0.4161 -0.3818,-0.7336 -0.7976,-0.7092"
           style="fill:#1a1a18;fill-opacity:1;fill-rule:evenodd;stroke:none"
           id="path4420" />
      </g>
      <g
         id="g4422">
        <path
           d="m 564.8944,244.3343 c -2.4276,-1.6779 2.2357,-1.9503 0.7538,0.14 -0.1086,0.0663 -0.3943,0.0128 -0.6214,-0.0431 -0.0397,-0.0363 -0.0839,-0.0689 -0.1324,-0.0969 z m -1.042,1.0995 c 0.0899,0.167 0.2427,0.2999 0.4374,0.3614 0.868,0.2251 1.8411,0.4465 2.5129,-0.3478 4.3784,-5.1777 -8.5314,-4.2244 -2.9503,-0.0136"
           style="fill:#1a1a18;fill-opacity:1;fill-rule:evenodd;stroke:none"
           id="path4424" />
      </g>
      <g
         id="g4426">
        <path
           d="m 567.1511,250.7927 c 2.0718,0.87 19.5752,7.8534 21.3298,9.563 0.1679,0.3331 0.5605,0.4986 0.9222,0.3722 0.3937,-0.1372 0.6015,-0.5675 0.464,-0.9613 -1.3805,-2.4213 -20.7661,-9.7698 -22.3937,-10.4487 -0.4074,-0.089 -0.8096,0.1689 -0.8986,0.5762 -0.089,0.4074 0.1689,0.8096 0.5763,0.8986"
           style="fill:#1a1a18;fill-opacity:1;fill-rule:evenodd;stroke:none"
           id="path4428" />
      </g>
      <g
         id="g4430">
        <path
           d="m 559.6515,241.3278 c -4.108,-5.4425 0.9476,-17.3984 7.2513,-21.5467 0.3611,-0.208 0.4853,-0.6695 0.2772,-1.0309 -0.2081,-0.3612 -0.6698,-0.485 -1.031,-0.277 -7.0166,4.6313 -12.5121,17.3988 -7.6013,23.885 0.2846,0.3048 0.7622,0.3212 1.0669,0.0366 0.3047,-0.2846 0.3212,-0.7622 0.0369,-1.067"
           style="fill:#1a1a18;fill-opacity:1;fill-rule:evenodd;stroke:none"
           id="path4432" />
      </g>
      <g
         id="g4434">
        <path
           d="m 570.7511,220.7871 c -0.8425,14.3584 0.6817,12.3259 7.319,1.8275 0.1409,-0.3923 -0.0632,-0.8246 -0.4555,-0.9654 -0.3923,-0.1409 -0.8246,0.0632 -0.9655,0.4555 -0.9116,1.3773 -3.6615,5.959 -4.6082,7.0744 -0.3158,-1.6367 0.1567,-7.306 0.2199,-8.392 0,-0.4166 -0.3382,-0.7548 -0.7548,-0.7548 -0.417,0 -0.7549,0.3382 -0.7549,0.7548"
           style="fill:#1a1a18;fill-opacity:1;fill-rule:evenodd;stroke:none"
           id="path4436" />
      </g>
      <g
         id="g4438">
        <path
           d="m 605.8182,242.0929 c 0.9337,-1.4561 9.5774,-3.3415 10.19,2.2839 0,0.4167 0.3379,0.7549 0.7549,0.7549 0.4166,0 0.7545,-0.3382 0.7545,-0.7549 -0.8161,-7.3789 -11.2388,-5.836 -13.0501,-2.9582 -0.1862,0.373 -0.0349,0.8263 0.3382,1.0125 0.373,0.1862 0.8263,0.0349 1.0125,-0.3382"
           style="fill:#1a1a18;fill-opacity:1;fill-rule:evenodd;stroke:none"
           id="path4440" />
      </g>
      <g
         id="g4442">
        <path
           d="m 613.8893,240.105 c 8.9269,-11.4404 -15.3635,-12.9501 -21.403,-14.673 -1.4321,-0.4085 -25.9722,-6.3672 -25.2249,-8.3911 2.8111,-7.6133 27.1913,1.5171 30.5963,2.3581 8.3939,2.0724 25.3295,1.8369 26.7845,12.0773 0.2537,1.7861 -0.5899,3.7752 -2.2127,4.551 -0.3444,0.0454 -0.6228,0.3257 -0.6525,0.686 -0.0343,0.4156 0.2744,0.7804 0.6899,0.8144 2.0778,-0.0578 3.6706,-3.4325 3.7367,-5.0995 0.386,-9.7767 -11.7686,-11.2524 -18.561,-12.4795 -10.1872,-1.84 -19.1189,-5.4349 -28.3995,-7.1536 -4.0252,-0.7452 -15.7354,0.4244 -13.3886,5.573 0.8822,1.9357 24.5883,8.0509 26.2165,8.5155 5.5035,1.5696 27.9491,2.935 20.7508,12.1538 -0.2948,0.2949 -0.2948,0.7728 0,1.0676 0.2948,0.2948 0.7727,0.2948 1.0675,0"
           style="fill:#1a1a18;fill-opacity:1;fill-rule:evenodd;stroke:none"
           id="path4444" />
      </g>
      <g
         id="g4446">
        <path
           d="m 606.3157,247.2341 c 0.5335,-1.5466 6.7283,-0.7033 6.4848,1.262 -2.0784,1.5075 -5.9669,-1.0171 -6.2691,-1.0953 0.1009,0.0212 0.1548,0.0496 0.2361,0.1128 -0.157,-0.1372 -0.0552,-0.0558 -0.3189,-0.2262 -0.0433,-0.0224 -0.0876,-0.04 -0.1329,-0.0533 z m -0.5902,1.3782 0.0184,0.0102 c 0.0961,0.087 0.1738,0.1418 0.2583,0.1809 1.4241,1.5185 5.3711,1.7487 7.0049,1.2291 6.8641,-2.1821 -9.7755,-9.2393 -8.1479,-1.9361 0.116,0.3716 0.493,0.5896 0.8663,0.5159"
           style="fill:#1a1a18;fill-opacity:1;fill-rule:evenodd;stroke:none"
           id="path4448" />
      </g>
      <g
         id="g4450">
        <path
           d="m 624.4877,236.5832 c 13.2376,-15.5999 -10.86,-22.682 -13.5646,-41.9944 -0.3401,-2.4293 0.007,-3.5626 1.0242,-5.694 -1.764,-3.9288 -12.1153,-14.2718 -3.9595,-19.1939 0.3856,-0.0346 1.082,0.2015 1.2479,0.5734 0.1366,0.3938 0.5666,0.6021 0.9603,0.4655 0.394,-0.1367 0.6024,-0.5667 0.4658,-0.9604 -0.5035,-1.1361 -1.9749,-1.8499 -3.0895,-1.5341 -9.2877,2.6308 -0.76,16.2972 2.4846,19.9446 l 0.5989,-0.0771 c -3.9869,8.3613 2.1317,17.2006 7.0424,23.6219 7.0824,9.2605 13.4943,14.6191 5.669,23.8365 -0.2795,0.3093 -0.2551,0.7867 0.0544,1.0662 0.3093,0.2797 0.7867,0.2554 1.0661,-0.0542"
           style="fill:#1a1a18;fill-opacity:1;fill-rule:evenodd;stroke:none"
           id="path4452" />
      </g>
      <g
         id="g4454">
        <path
           d="m 608.5157,172.8955 c 0.3577,-1.6682 3.4732,-3.755 4.2908,-0.5995 -5.567,-0.3889 -3.7812,6.137 1.699,9.6208 3.9569,2.5152 13.5094,9.5284 7.3327,14.7455 -0.3393,0.1211 -0.5528,0.4717 -0.4895,0.8391 0.0708,0.4107 0.4612,0.6863 0.8722,0.6157 0.3603,-0.1168 0.4283,-0.1429 0.7027,-0.4011 9.2089,-8.6706 -9.7526,-17.6046 -11.2374,-20.3281 -2.6921,-4.9385 1.6943,-3.4013 2.1903,-3.5258 3.911,-0.983 -5.0765,-9.5195 -6.8635,-1.112 -0.0402,0.4147 0.2636,0.7838 0.6786,0.824 0.4147,0.04 0.7838,-0.2639 0.8241,-0.6786"
           style="fill:#1a1a18;fill-opacity:1;fill-rule:evenodd;stroke:none"
           id="path4456" />
      </g>
      <g
         id="g4458">
        <path
           d="m 609.8805,219.9453 c -2.6934,-10.6027 -2.1529,-2.7034 -10.4839,-12.3058 -10.741,-12.3803 -13.7475,-32.1588 -2.6906,-45.4456 5.7906,-6.9579 15.4065,-8.5493 23.8929,-7.0135 0.3892,0.1494 0.826,-0.0451 0.9754,-0.434 0.1494,-0.3892 -0.0448,-0.826 -0.434,-0.9754 -9.1576,-1.7002 -19.3309,-0.0706 -25.5912,7.4529 -11.5225,13.8481 -8.522,34.4656 2.7034,47.4006 8.9147,10.2725 7.598,1.5565 10.1914,11.7839 0.1279,0.3969 0.5531,0.6149 0.9499,0.4867 0.3969,-0.1278 0.6149,-0.553 0.4867,-0.9498"
           style="fill:#1a1a18;fill-opacity:1;fill-rule:evenodd;stroke:none"
           id="path4460" />
      </g>
      <g
         id="g4462">
        <path
           d="m 614.982,180.2228 c 1.5152,-8.159 11.5427,-3.9682 9.2637,-10.2784 -2.9943,-8.2899 -7.3001,-14.4689 2.8717,-21.8795 3.7421,-2.7261 12.5632,-5.8278 3.1978,-11.1311 -4.1709,-2.3618 -16.5461,4.8682 -26.155,-4.2795 -1.2798,-1.2186 -1.4629,-1.722 -0.9334,-2.9914 0.2029,-0.0312 0.3203,-0.0989 0.5768,-0.2381 0.3507,-0.2251 0.4527,-0.6919 0.2276,-1.0428 -0.225,-0.351 -0.6919,-0.453 -1.0428,-0.228 l -0.0369,0.021 c -1.9332,0.057 -2.1027,3.3965 0.1874,5.5911 9.8283,9.4187 23.358,2.7513 26.3679,4.4427 7.6396,4.2934 0.4589,5.9049 -3.3222,8.6689 -11.8625,8.6715 -5.5888,16.0093 -3.0107,24.7969 -3.5892,2.2026 -8.5947,2.49 -9.6968,8.4266 -0.0337,0.4158 0.2761,0.7798 0.6917,0.8133 0.4158,0.0337 0.7798,-0.2759 0.8132,-0.6917"
           style="fill:#1a1a18;fill-opacity:1;fill-rule:evenodd;stroke:none"
           id="path4464" />
      </g>
      <g
         id="g4466">
        <path
           d="m 611.2295,131.8929 c -7.3272,-1.9043 -12.1487,-9.6749 -0.1026,-5.8487 8.4056,2.6697 34.6782,-1.1256 35.6644,1.1098 1.7623,3.9954 3.5668,16.2527 0.3583,19.366 -5.2557,5.0992 -13.6516,1.8031 -5.1097,14.2914 4.8965,7.1586 -2.4126,10.5925 13.3628,0.7645 7.2445,-4.5136 19.9511,-9.1261 25.067,0.5301 0.1293,0.2435 0.1678,0.2931 0.2914,0.466 -0.0385,0.523 -0.009,0.0939 -0.0127,1.3397 0,0.4167 0.3382,0.7549 0.7548,0.7549 0.417,0 0.7549,-0.3382 0.7549,-0.7549 0.006,-2.2249 -0.7452,-3.86 -2.4276,-5.5344 -11.4707,-11.4171 -32.7909,7.8129 -34.4001,7.6193 -0.5562,-0.7694 0.5219,-1.999 -2.1915,-6.1025 -7.416,-11.2175 -0.9365,-6.5488 4.9493,-12.2785 3.8447,-3.7426 1.9344,-16.5983 -5e-4,-21.0348 -1.9092,-4.3781 -26.7863,1.1327 -36.4468,-1.9159 -14.0834,-4.4445 -10.794,6.1112 -0.8016,8.7094 0.409,0.0805 0.8056,-0.1862 0.8858,-0.5955 0.0805,-0.4091 -0.1862,-0.8056 -0.5956,-0.8859"
           style="fill:#1a1a18;fill-opacity:1;fill-rule:evenodd;stroke:none"
           id="path4468" />
      </g>
      <g
         id="g4470">
        <path
           d="m 602.0918,130.4824 c -0.6599,-0.2783 -1.9378,-1.4133 -2.5098,-2.2419 0.9071,0.1726 2.6045,0.5051 2.7958,0.5375 0.4036,0.104 0.8152,-0.1392 0.9193,-0.5429 0.104,-0.4039 -0.1392,-0.8152 -0.5429,-0.9193 -10.6421,-1.8309 -1.4312,4.5114 -0.7625,4.6732 0.4161,0.0275 0.7759,-0.2874 0.8034,-0.7032 0.0275,-0.4162 -0.2875,-0.7759 -0.7033,-0.8034"
           style="fill:#1a1a18;fill-opacity:1;fill-rule:evenodd;stroke:none"
           id="path4472" />
      </g>
      <g
         id="g4474">
        <path
           d="m 603.5981,126.9397 c -0.644,-0.3895 -2.5415,-1.4993 -3.2366,-2.2402 1.4352,-0.4615 2.8568,-0.396 4.3311,-0.1591 0.4033,0.1044 0.8152,-0.1386 0.9195,-0.5422 0.1041,-0.4037 -0.1389,-0.8153 -0.5422,-0.9196 -6.0276,-0.9745 -9.531,0.7668 -2.3134,5.1146 0.3461,0.2324 0.8152,0.1403 1.0477,-0.2058 0.2324,-0.3464 0.1403,-0.8153 -0.2061,-1.0477"
           style="fill:#1a1a18;fill-opacity:1;fill-rule:evenodd;stroke:none"
           id="path4476" />
      </g>
      <g
         id="g4478">
        <path
           d="m 616.8359,153.521 c 1.7453,-2.4579 10.7938,-5.0196 8.8095,-15.8485 -0.1363,-0.3937 -0.5663,-0.6026 -0.9604,-0.4663 -0.3937,0.1364 -0.6026,0.5664 -0.4663,0.9601 0.2169,1.2129 0.296,1.1815 0.1336,2.5033 -1.224,9.9561 -6.0852,8.2474 -8.7977,12.0526 -0.2205,0.3538 -0.1125,0.8195 0.2413,1.04 0.3537,0.2206 0.8195,0.1129 1.04,-0.2412"
           style="fill:#1a1a18;fill-opacity:1;fill-rule:evenodd;stroke:none"
           id="path4480" />
      </g>
      <g
         id="g4482">
        <path
           d="m 600.3499,157.9918 c 0.7892,-6.0075 14.4845,-13.8957 0.6344,-17.1575 -1.9803,-0.4666 -14.9536,-2.4313 -13.2608,-6.8616 0.1503,-0.157 0.3382,-0.2667 0.5451,-0.3308 l -0.003,3e-4 0.003,-3e-4 c 0.4065,-0.0119 0.7325,-0.345 0.7325,-0.7546 0,-0.4167 -0.3382,-0.7545 -0.7549,-0.7545 -0.523,0.0603 -0.8507,0.1822 -1.2801,0.5003 -5.8022,4.2998 9.2106,8.7049 10.1948,8.9492 17.644,4.3858 3.0314,5.7331 1.6795,16.4543 0.0125,0.4167 0.3603,0.7444 0.777,0.7322 0.4167,-0.0125 0.7444,-0.3603 0.7322,-0.777"
           style="fill:#1a1a18;fill-opacity:1;fill-rule:evenodd;stroke:none"
           id="path4484" />
      </g>
      <g
         id="g4486">
        <path
           d="m 596.2754,135.2426 c -4.1006,-0.4138 -16.1079,-5.8725 1.6959,-3.8378 l 3.6579,0.2801 c 0.4169,0 0.7548,-0.3379 0.7548,-0.7549 0,-0.417 -0.3379,-0.7549 -0.7548,-0.7549 l -3.4526,-0.2658 c -19.4704,-2.2303 -9.2421,6.1058 -1.9012,6.8431 0.4167,0 0.7548,-0.3382 0.7548,-0.7549 0,-0.417 -0.3381,-0.7549 -0.7548,-0.7549"
           style="fill:#1a1a18;fill-opacity:1;fill-rule:evenodd;stroke:none"
           id="path4488" />
      </g>
      <g
         id="g4490">
        <path
           d="m 588.2176,131.468 c -0.4175,-0.248 -1.542,-0.8648 -2.1161,-1.3274 1.253,-0.2957 3.4042,0.3447 4.4947,0.4521 0.4169,0 0.7548,-0.3379 0.7548,-0.7549 0,-0.4167 -0.3379,-0.7548 -0.7548,-0.7548 -5.3059,-0.8022 -9.4672,0.0289 -3.3001,3.5807 0.3302,0.2548 0.8042,0.1933 1.0587,-0.1369 0.2546,-0.3303 0.1933,-0.8042 -0.1372,-1.0588"
           style="fill:#1a1a18;fill-opacity:1;fill-rule:evenodd;stroke:none"
           id="path4492" />
      </g>
      <g
         id="g4494">
        <path
           d="m 586.478,133.3797 c -0.5063,-0.2554 -1.4454,-0.7242 -2.0084,-1.18 0.3167,-0.1409 0.5772,-0.2291 1.0387,-0.2554 0.4152,0.0354 0.7809,-0.2725 0.8163,-0.6877 0.0355,-0.4153 -0.2724,-0.781 -0.6877,-0.8167 -4.4461,0.2245 -3.471,2.4698 0.2535,4.3308 0.3841,0.1621 0.8268,-0.0176 0.9893,-0.4017 0.1621,-0.3841 -0.0176,-0.8269 -0.4017,-0.9893"
           style="fill:#1a1a18;fill-opacity:1;fill-rule:evenodd;stroke:none"
           id="path4496" />
      </g>
      <g
         id="g4498">
        <path
           d="m 642.2513,158.4706 c 9.5417,-7.1201 22.813,-10.3779 33.2388,-3.115 0.938,0.6534 1.3748,1.1117 1.8921,2.1192 0.1364,0.394 0.5664,0.6029 0.9601,0.4663 0.394,-0.1367 0.6027,-0.5664 0.4663,-0.9604 -0.716,-1.4179 -1.1664,-1.9664 -2.4913,-2.8885 -10.8953,-7.5821 -24.8862,-4.3651 -34.8934,3.1155 -0.3487,0.2285 -0.4462,0.6965 -0.2177,1.0452 0.2285,0.3486 0.6962,0.4462 1.0451,0.2177"
           style="fill:#1a1a18;fill-opacity:1;fill-rule:evenodd;stroke:none"
           id="path4500" />
      </g>
      <g
         id="g4502">
        <path
           d="m 646.4999,156.2533 c 2.916,-0.5164 5.3461,2.7082 4.1718,5.9548 -0.1704,0.3804 0,0.8271 0.3804,0.9975 0.3804,0.1703 0.8271,0 0.9975,-0.3804 1.6095,-4.4555 -1.637,-8.7968 -5.963,-8.0243 -0.4008,0.1142 -0.6335,0.5317 -0.5193,0.9328 0.114,0.4011 0.5318,0.6336 0.9326,0.5196"
           style="fill:#1a1a18;fill-opacity:1;fill-rule:evenodd;stroke:none"
           id="path4504" />
      </g>
      <g
         id="g4506">
        <path
           d="m 658.2314,159.4655 c 2.3468,-0.3248 1.4462,-5.8013 -1.0557,-7.8071 -0.6499,-0.521 -0.6961,-0.6988 -1.5205,-1.0154 -0.4039,-0.1038 -0.8152,0.1392 -0.9192,0.5431 -0.1041,0.4037 0.1389,0.8153 0.5428,0.9193 0.2529,0.108 0.1162,0.0499 0.4453,0.1891 1.2904,1.4116 3.1728,3.5957 2.1923,5.7092 -0.3092,0.1128 -0.5193,0.4207 -0.4938,0.7654 0.0309,0.4155 0.3932,0.7273 0.8088,0.6964"
           style="fill:#1a1a18;fill-opacity:1;fill-rule:evenodd;stroke:none"
           id="path4508" />
      </g>
      <g
         id="g4510">
        <path
           d="m 666.5907,155.8585 c 0.4618,-2.2315 0.29,-4.703 -2.0531,-5.7221 -0.394,-0.136 -0.8237,0.0729 -0.9598,0.4672 -0.1364,0.394 0.0728,0.8237 0.4669,0.9598 1.4371,0.625 1.3558,2.611 1.0922,3.8886 -0.1123,0.4014 0.1224,0.8178 0.5238,0.93 0.4014,0.1123 0.8178,-0.1222 0.93,-0.5235"
           style="fill:#1a1a18;fill-opacity:1;fill-rule:evenodd;stroke:none"
           id="path4512" />
      </g>
      <g
         id="g4514">
        <path
           d="m 681.59,163.201 c -10.4837,-1.457 -15.8689,-2.618 -22.0788,8.4172 -6.4834,11.5226 -3.564,19.1189 -16.9344,29.0594 -3.845,2.8587 -12.7321,3.3851 -13.4238,4.9728 -0.1338,0.3949 0.0777,0.8235 0.4725,0.9573 0.3416,0.1159 0.7081,-0.0267 0.8876,-0.3226 2.7062,-1.2611 9.1233,-1.542 12.9713,-4.4011 13.8005,-10.2532 10.7634,-17.8299 17.3188,-29.484 5.749,-10.2214 10.2873,-9.1168 20.7868,-7.6892 0.417,0 0.7549,-0.3379 0.7549,-0.7549 0,-0.4167 -0.3379,-0.7549 -0.7549,-0.7549"
           style="fill:#1a1a18;fill-opacity:1;fill-rule:evenodd;stroke:none"
           id="path4516" />
      </g>
      <g
         id="g4518">
        <path
           d="m 629.2276,205.1439 c -4.8782,9.9734 26.1578,34.6986 4.7868,57.255 -5.0136,5.292 -9.606,6.4928 -16.5526,7.0424 -0.417,0 -0.7549,0.3379 -0.7549,0.7549 0,0.4167 0.3379,0.7548 0.7549,0.7548 7.4001,-0.5862 12.3097,-1.8793 17.6499,-7.5149 21.8492,-23.0587 -8.5864,-49.3095 -4.6034,-57.4931 0.2208,-0.3535 0.1131,-0.8193 -0.2407,-1.0401 -0.3538,-0.2205 -0.8192,-0.1128 -1.04,0.241"
           style="fill:#1a1a18;fill-opacity:1;fill-rule:evenodd;stroke:none"
           id="path4520" />
      </g>
      <g
         id="g4522">
        <path
           d="m 607.009,154.5211 c 1.1696,10.544 5.783,13.5037 14.5435,18.9904 0.4033,0.1054 0.8158,-0.1364 0.9209,-0.5397 0.1052,-0.4034 -0.1363,-0.8161 -0.5397,-0.9213 -7.9356,-5.0944 -12.3491,-7.882 -13.4149,-17.5294 0,-0.417 -0.3379,-0.7549 -0.7549,-0.7549 -0.4167,0 -0.7549,0.3379 -0.7549,0.7549"
           style="fill:#1a1a18;fill-opacity:1;fill-rule:evenodd;stroke:none"
           id="path4524" />
      </g>
      <g
         id="g4526">
        <path
           d="m 592.1101,167.0851 c 1.6889,3.1623 8.0592,5.9879 11.0189,7.0495 -0.0664,-0.0145 -0.0825,-0.0128 -0.1384,-0.0434 0.0465,0.0334 0.2203,0.1709 0.2413,0.1868 0.3441,0.2353 0.8138,0.1465 1.0491,-0.1976 0.2353,-0.3441 0.1465,-0.8138 -0.1976,-1.0491 -1.2929,-1.0227 -8.7792,-3.4645 -10.5457,-6.4366 -0.1355,-0.3943 -0.5647,-0.6041 -0.959,-0.4686 -0.3943,0.1355 -0.6041,0.565 -0.4686,0.959"
           style="fill:#1a1a18;fill-opacity:1;fill-rule:evenodd;stroke:none"
           id="path4528" />
      </g>
      <g
         id="g4530">
        <path
           d="m 589.3716,187.4497 c 9.362,3.9209 12.2213,5.0658 21.473,1.4602 0.4153,0.0357 0.7812,-0.2722 0.8167,-0.6874 0.0357,-0.4153 -0.2722,-0.781 -0.6874,-0.8167 -9.8334,3.2057 -10.7397,2.9582 -20.988,-1.3354 -0.381,-0.1695 -0.8272,0.002 -0.997,0.3827 -0.1695,0.3809 0.002,0.8271 0.3827,0.9966"
           style="fill:#1a1a18;fill-opacity:1;fill-rule:evenodd;stroke:none"
           id="path4532" />
      </g>
      <g
         id="g4534">
        <path
           d="m 594.4799,202.9243 c 5.4468,2.6422 12.7709,2.0135 17.3356,-1.9984 0.1031,-0.4039 -0.1406,-0.8152 -0.5446,-0.9184 -0.4039,-0.1032 -0.8152,0.1406 -0.9184,0.5448 l -0.5916,0.1891 c -4.5666,2.1776 -9.4425,3.3066 -14.3989,0.9578 -0.3384,-0.2435 -0.8101,-0.1669 -1.0536,0.1715 -0.2435,0.3385 -0.167,0.8102 0.1715,1.0536"
           style="fill:#1a1a18;fill-opacity:1;fill-rule:evenodd;stroke:none"
           id="path4536" />
      </g>
      <g
         id="g4538">
        <path
           d="m 607.0277,215.0892 c 6.9455,-0.8521 4.2274,0.6483 11.0458,-2.4996 0.417,0 0.7549,-0.3379 0.7549,-0.7548 0,-0.4167 -0.3379,-0.7549 -0.7549,-0.7549 -7.9838,2.8089 -2.9616,1.446 -11.4953,2.5679 -0.3983,0.1245 -0.62,0.5477 -0.4958,0.9456 0.1242,0.398 0.5474,0.62 0.9453,0.4958"
           style="fill:#1a1a18;fill-opacity:1;fill-rule:evenodd;stroke:none"
           id="path4540" />
      </g>
      <g
         id="g4542">
        <path
           d="m 590.6075,192.1524 c -5.4298,-3.0668 -9.2974,-6.7901 -6.9681,-13.9255 0.2321,-0.7106 0.5077,-1.1069 1.0049,-1.6239 0.1388,-0.0221 0.3673,-0.0102 0.4909,-0.008 0.417,0 0.7549,-0.3379 0.7549,-0.7549 0,-0.417 -0.3379,-0.7549 -0.7549,-0.7549 -1.6795,-0.0246 -2.4103,1.0837 -2.9219,2.6473 -2.5932,7.9251 1.6061,12.3216 7.5843,15.6943 0.3518,0.2237 0.8181,0.1199 1.0421,-0.2322 0.2236,-0.3517 0.1196,-0.818 -0.2322,-1.0417"
           style="fill:#1a1a18;fill-opacity:1;fill-rule:evenodd;stroke:none"
           id="path4544" />
      </g>
      <g
         id="g4546">
        <path
           d="m 586.1514,179.9104 c -0.1505,-2.7839 -0.6071,-4.3727 1.9321,-4.4594 0.0882,0.2857 0.3427,0.5028 0.6588,0.5292 0.4153,0.0349 0.7801,-0.2741 0.8147,-0.6897 -0.0309,-0.5227 -0.1659,-1.11 -0.7331,-1.3002 -4.1244,-1.3836 -4.3146,3.4962 -4.1805,5.991 0.0196,0.4167 0.373,0.7384 0.7895,0.7186 0.4164,-0.0196 0.7381,-0.3731 0.7185,-0.7895"
           style="fill:#1a1a18;fill-opacity:1;fill-rule:evenodd;stroke:none"
           id="path4548" />
      </g>
      <g
         id="g4550">
        <path
           d="m 632.9752,205.6671 c 13.1117,23.8635 24.5501,43.0334 47.452,19.0106 9.5142,-9.9797 14.8592,-25.6754 10.0845,-39.0555 -2.6022,-7.2921 -2.2773,10.0761 -14.8833,5.8357 -1.6001,-0.538 -3.139,-1.9808 -4.822,-3.0719 -2.6781,-6.2708 -3.473,15.6166 -14.4621,8.8013 -6.3226,-3.9214 -2.7215,11.3352 -12.2794,8.5575 -1.2081,-0.3515 -3.0682,-1.8283 -3.5807,-2.8638 l 6e-4,0.004 c -0.07,-0.4108 -0.4598,-0.6874 -0.8708,-0.6174 -0.411,0.0697 -0.6874,0.4598 -0.6177,0.8708 0.5199,1.9057 3.6275,4.0215 5.6979,4.2678 9.9051,1.1787 7.1252,-11.2685 10.806,-8.9671 9.705,6.0687 12.1453,-5.3152 14.2523,-9.1094 1.3822,1.5162 4.9623,3.579 6.5608,3.8741 10.5245,1.9429 11.2175,-4.9255 12.6916,-7.2913 0.0308,0.0712 0.0595,0.146 0.089,0.2291 6.4754,18.2026 -5.7532,37.3901 -21.1201,46.5828 -15.0478,9.002 -28.4443,-18.2627 -33.6994,-27.8254 -0.2121,-0.3589 -0.675,-0.4777 -1.0338,-0.2656 -0.3589,0.2123 -0.4777,0.6752 -0.2654,1.034"
           style="fill:#1a1a18;fill-opacity:1;fill-rule:evenodd;stroke:none"
           id="path4552" />
      </g>
      <g
         id="g4554">
        <path
           d="m 653.6633,197.2451 c 0.7226,4.8215 3.9663,24.1025 0.0743,28.7958 -0.3093,0.2795 -0.3333,0.7568 -0.0539,1.0661 0.2798,0.3093 0.7569,0.3333 1.0662,0.0539 4.6114,-5.4698 1.2991,-24.1719 0.4232,-29.9158 0,-0.4169 -0.3379,-0.7548 -0.7549,-0.7548 -0.4167,0 -0.7549,0.3379 -0.7549,0.7548"
           style="fill:#1a1a18;fill-opacity:1;fill-rule:evenodd;stroke:none"
           id="path4556" />
      </g>
      <g
         id="g4558">
        <path
           d="m 669.7757,187.5779 c 0.5477,13.7846 3.4841,25.4556 -6.7314,38.2884 -0.5842,0.7339 -1.0482,1.1888 -1.8839,1.5939 -0.3937,0.1363 -0.6024,0.5666 -0.4657,0.9604 0.1363,0.394 0.5666,0.6026 0.9604,0.466 1.1897,-0.5703 1.7237,-1.0177 2.5596,-2.067 10.1892,-12.7883 7.9073,-24.7147 6.9979,-38.7786 0.1282,-0.3968 -0.0898,-0.822 -0.4867,-0.9501 -0.3968,-0.1279 -0.822,0.0901 -0.9502,0.487"
           style="fill:#1a1a18;fill-opacity:1;fill-rule:evenodd;stroke:none"
           id="path4560" />
      </g>
    </g>
  </g>
</svg>
