<?xml version="1.0" encoding="UTF-8" standalone="no"?>
<svg
   xmlns:dc="http://purl.org/dc/elements/1.1/"
   xmlns:cc="http://creativecommons.org/ns#"
   xmlns:rdf="http://www.w3.org/1999/02/22-rdf-syntax-ns#"
   xmlns:svg="http://www.w3.org/2000/svg"
   xmlns="http://www.w3.org/2000/svg"
   xmlns:sodipodi="http://sodipodi.sourceforge.net/DTD/sodipodi-0.dtd"
   xmlns:inkscape="http://www.inkscape.org/namespaces/inkscape"
   width="133.32857mm"
   height="155.79564mm"
   viewBox="0 0 133.32857 155.79564"
   version="1.1"
   id="svg31737"
   inkscape:version="1.0.2 (e86c8708, 2021-01-15)"
   sodipodi:docname="dog.svg">
  <defs
     id="defs31731" />
  <sodipodi:namedview
     id="base"
     pagecolor="#ffffff"
     bordercolor="#666666"
     borderopacity="1.0"
     inkscape:pageopacity="0.0"
     inkscape:pageshadow="2"
     inkscape:zoom="1.0851542"
     inkscape:cx="344.60427"
     inkscape:cy="148.52365"
     inkscape:document-units="mm"
     inkscape:current-layer="layer1"
     inkscape:document-rotation="0"
     showgrid="false"
     inkscape:window-width="1440"
     inkscape:window-height="855"
     inkscape:window-x="0"
     inkscape:window-y="23"
     inkscape:window-maximized="0" />
  <metadata
     id="metadata31734">
    <rdf:RDF>
      <cc:Work
         rdf:about="">
        <dc:format>image/svg+xml</dc:format>
        <dc:type
           rdf:resource="http://purl.org/dc/dcmitype/StillImage" />
        <dc:title />
      </cc:Work>
    </rdf:RDF>
  </metadata>
  <g
     inkscape:label="Слой 1"
     inkscape:groupmode="layer"
     id="layer1"
     transform="translate(-24.389505,-100.88492)">
    <g
       id="g690"
       transform="matrix(2.8975363,0,0,-2.8975363,-973.90675,1544.3929)">
      <path
         d="m 373.8861,490.5227 c -0.2537,0.4016 -0.1162,1.7356 -0.0955,2.2626 0.0408,1.0389 1.197,2.1705 2.2949,2.016 0.7747,-0.1091 1.3161,-0.904 1.6132,-1.5633 0.2608,-0.5783 -0.8113,-0.0457 -1.3538,-0.3847 -0.7076,-0.4422 -1.0715,-0.1998 -1.1373,-1.19 -0.0295,-0.4396 -0.0893,-0.8583 -0.0683,-1.3116 0.0195,-0.4147 -0.722,0.1602 -1.1251,0.15 -0.0581,-0.002 -0.1338,0.0298 -0.1281,0.021"
         style="fill:#ff969d;fill-opacity:1;fill-rule:evenodd;stroke:none"
         id="path692" />
      <path
         d="m 363.1269,488.6623 c -0.2704,0.2492 0.0964,0.8311 0.3997,1.0369 0.5423,0.3679 0.5921,0.3532 1.2761,0.3532 1.7587,0 2.0965,-1.9077 1.8726,-3.2876 -0.2775,-1.711 -0.1774,-0.9953 -0.9363,-1.4321 -0.0558,-0.0323 -0.7135,-0.3656 -0.7789,-0.3345 -0.2583,0.1225 -0.042,0.7541 -0.0445,1.0934 -0.008,1.1797 -0.2067,1.116 -0.432,2.0661 -0.1313,0.5531 -1.3828,0.5284 -1.3567,0.5046"
         style="fill:#ff969d;fill-opacity:1;fill-rule:evenodd;stroke:none"
         id="path694" />
      <path
         d="m 388.0712,481.7489 c -0.8742,-0.6744 -2.4162,0.3365 -2.9132,1.1174 -0.8484,1.334 -0.9351,1.4423 0.3827,2.5594 0.4785,0.4056 4.6157,1.2328 4.6157,-0.6557 0,-1.5604 -0.1758,-1.7172 -1.3748,-2.6682 -0.1769,-0.1406 -0.7013,-0.3458 -0.7104,-0.3529"
         style="fill:#2b2a29;fill-opacity:1;fill-rule:evenodd;stroke:none"
         id="path696" />
      <path
         d="m 372.9872,469.4091 c -0.1528,0.0493 -0.4765,-1.8422 -0.5692,-2.2093 -0.4079,-1.6109 -0.2387,-6.1574 0.3532,-7.725 0.591,-1.5656 0.885,-2.3751 1.0984,-4.1105 0.0153,-0.125 0.9882,-2.8069 1.5432,-2.3604 1.0568,0.8504 1.3853,0.7203 2.0367,2.0335 0.6789,1.3689 1.1135,2.8619 0.7858,4.47 -0.3039,1.4913 -1.5072,1.8462 0.8713,1.3615 1.0183,-0.2075 1.8536,0.3022 0.5758,1.3924 -0.4173,0.356 -2.0886,2.2493 -2.0415,2.2373 0.6063,-0.1533 3.3808,-0.1136 1.7285,0.8122 -0.8733,0.4895 -2.9903,3.124 -2.9903,4.1028 -1.0031,0 -1.9729,-0.619 -2.9001,0.0406 -0.0346,0.0244 -0.5524,-0.0255 -0.4918,-0.0451"
         style="fill:#ffeab0;fill-opacity:1;fill-rule:evenodd;stroke:none"
         id="path698" />
      <path
         d="m 359.2806,490.4331 c 0.0476,0.6593 1.0012,2.0018 1.3906,2.5486 0.6812,0.9562 3.4952,1.5755 4.6157,1.1818 1.7413,-0.612 1.0604,-0.042 2.3074,-1.654 0.7013,-0.9068 1.0227,-1.3224 1.1047,-2.4939 10e-4,-0.0165 0.2103,-0.864 0.2471,-1.0409 1.1673,1.1089 1.6053,1.622 3.3495,1.622 0,1.635 -0.6319,3.0228 0.0402,4.2616 0.4414,0.8132 1.3805,2.4823 2.1923,2.7632 0.7135,0.2469 0.0522,0.0564 0.8215,0.2131 2.2365,0.4559 3.0285,-1.2333 4.1791,-2.8411 2.6609,-3.7177 5.2039,0.229 5.3459,-3.0898 0.0119,-0.2783 -0.847,-2.1895 -1.4749,-2.2824 -0.784,-0.1163 -1.4462,-0.8663 -2.8411,-0.0732 -2.8724,1.6333 -2.9818,7.7463 -6.3213,4.2256 -0.6542,-0.6894 -1.1387,-3.4293 0.5632,-3.4991 0.021,-8e-4 2.2023,-1.2333 1.2382,-1.9417 -0.8407,-0.6182 0.415,-1.6169 -0.9068,-0.8759 -3.0413,1.7045 -6.6946,-3.6624 -3.1632,-5.5638 1.5523,-0.836 4.6228,0.3302 4.9057,2.0009 0.0462,0.2722 0.2063,0.1285 0.3387,1.4018 0.4082,0.1564 2.0392,-1.3989 3.4685,-1.3428 0.5661,0.0224 2.1588,-0.5547 3.0682,0.3129 0.7707,0.7354 0.7758,-1.6775 2.2405,-2.3915 2.74,-1.3354 3.2125,2.3178 2.7008,-1.842 -0.14,-1.1395 -1.197,-4.8883 -2.455,-5.1639 -0.2104,-0.0462 -0.9536,-1.1466 -2.922,-1.3756 -0.3977,-0.0462 -2.9021,-0.6616 -3.6173,-0.8073 -0.3319,-0.0678 -0.6029,-0.2226 -1.0301,-0.2226 0.6219,-0.909 -0.7018,-2.5508 -2.0336,-2.7181 -1.3878,-0.1743 -0.9924,-0.3858 -3.0308,-0.3858 -1.1211,0 -1.1775,0.2526 -1.366,-1.7022 -0.0924,-0.9587 -0.0499,-5.2058 -0.0499,-6.48 0,-1.4726 0.2251,-1.5916 1.0347,-2.7632 0.2834,-1.4752 0.7245,-2.8627 1.2387,-4.2477 0.2152,-0.5803 0.3526,-1.6798 1.1979,-1.1342 2.7703,1.7887 0.6044,1.463 2.7227,-1.4298 0.5366,-0.7327 4.6364,0.0185 4.2662,-2.9902 -0.0457,-0.3708 -1.3805,-1.0248 -1.738,-1.0985 -0.9204,-2.6591 -4.1692,-0.1196 -4.5289,-1.6789 -0.0995,-0.43 -3.0937,-1.4942 -4.3208,-1.1574 -2.4996,0.686 -8.3781,0.1329 -11.0449,-0.1542 -1.6334,-0.176 -2.7667,0.1681 -4.1837,0.1681 -1.7688,-0.3813 -3.8497,0.8904 -5.5545,1.4298 -0.7679,0.2432 -2.0075,1.3532 -2.4505,2.001 -0.9085,1.3277 -0.8966,0.7072 -1.8655,2.6231 -0.3765,0.7444 -4.4218,6.9591 -0.9661,5.7629 0.2554,-0.0885 0.5763,-0.2792 0.8711,-0.3813 0.0233,1.1404 -0.8733,1.5052 -0.8166,2.9407 0.0513,1.3036 -0.1925,0.7631 0.1133,2.6093 0.2588,1.5602 -0.0294,1.8388 0.7393,3.6484 2.524,5.9434 1.5951,-2.6949 2.4333,-0.9212 1.173,2.4826 1.8601,3.0328 4.2973,4.4515 0.3172,0.1845 2.8922,1.0837 1.1577,-0.1494 -0.703,-0.4997 -3.8795,-6.5979 -3.8401,-7.8369 0.0592,-1.855 -0.5899,-1.802 0.2863,-4.411 0.0295,-0.0882 0.2038,-0.7478 0.2038,-0.8215 0.828,-1.8853 1.1732,-3.7814 2.7275,-4.915 2.5656,-1.8711 1.991,-0.6026 1.7971,1.8111 -0.2392,2.9741 -0.9748,3.8874 0.5585,6.9749 0.8183,1.6481 1.6106,5.4842 2.8675,7.0342 0.009,0.011 1.9624,2.8774 2.0146,2.9809 0.5655,0.5244 3.1609,3.0495 3.0495,3.0495 -2.6308,0 -2.5909,0.6727 -3.8571,2.6637 -0.392,0.6166 -0.4615,4.03 0.1043,4.8059 0.811,1.112 1.0205,2.2368 2.3913,3.3809 0.7872,0.6567 2.1711,2.1373 3.2128,2.2141 0.1896,0.0139 1.3071,2.8582 -0.5185,4.1562 -3.2802,2.3332 -4.1351,-4.9159 -4.1692,-5.0726 -0.1269,-0.5851 -1.2911,-2.7862 -2.5687,-3.7622 -1.6413,-1.2537 -5.5403,-0.6369 -5.5403,2.8675 0,0.9896 2.3533,0.9684 3.8259,2.5376 1.063,1.1333 1.7178,2.5107 1.9463,4.07"
         style="fill:#ff7700;fill-opacity:1;fill-rule:evenodd;stroke:none"
         id="path700" />
      <path
         d="m 369.0227,477.4354 c -0.6976,0.1845 -1.0469,-0.2486 -1.1129,-0.8915 -0.1057,-1.0307 2.7743,-2.0296 3.3398,-0.6783 0.3217,0.7687 -0.6696,1.3606 -1.3079,1.4884 -0.3269,0.0658 -0.4746,0.1177 -0.8204,0.1474 -0.049,0.004 -0.0652,-0.0751 -0.0986,-0.066"
         style="fill:#ff969d;fill-opacity:1;fill-rule:evenodd;stroke:none"
         id="path702" />
    </g>
    <g
       id="g704"
       transform="matrix(2.8975363,0,0,-2.8975363,-973.90675,1544.3929)">
      <g
         id="g706">
        <path
           d="m 387.8816,481.3563 c -0.2549,-3.3582 -1.014,-5.2574 -3.6995,-7.2899 -2.0568,-1.557 -9.0184,-3.0381 -10.8338,-0.9025 -0.0734,0.1071 -0.0462,0.2537 0.0613,0.3271 0.1071,0.0731 0.2534,0.0459 0.3268,-0.0615 1.5783,-1.8544 8.3378,-0.3691 10.1594,1.0102 2.5758,1.9503 3.2697,3.6922 3.5152,6.9166 0,0.1298 0.1052,0.235 0.2353,0.235 0.1298,0 0.2353,-0.1052 0.2353,-0.235"
           style="fill:#1a1a18;fill-opacity:1;fill-rule:evenodd;stroke:none"
           id="path708" />
      </g>
      <g
         id="g710">
        <path
           d="m 374.097,475.2173 c 0.0561,-1.1645 -0.055,-2.7045 -1.6572,-2.8412 -0.6213,-0.053 -1.0462,0.146 -1.5876,0.4082 -0.1106,0.0683 -0.1449,0.2132 -0.0769,0.3237 0.0684,0.1106 0.2132,0.1452 0.3238,0.0769 0.3707,-0.1789 0.4166,-0.2268 0.8421,-0.3141 1.645,-0.3376 1.7371,1.2705 1.6852,2.3465 0,0.1298 0.1055,0.2353 0.2353,0.2353 0.1301,0 0.2353,-0.1055 0.2353,-0.2353"
           style="fill:#1a1a18;fill-opacity:1;fill-rule:evenodd;stroke:none"
           id="path712" />
      </g>
      <g
         id="g714">
        <path
           d="m 368.5158,477.2004 c -1.8822,-0.6281 2.0557,-3.1473 2.5838,-1.0414 0.2662,1.0598 -1.8847,1.0451 -2.5838,1.0414 z m -0.2588,0.4011 c 0.0426,0.0425 0.1015,0.0692 0.1664,0.0692 l 0.0426,-3e-4 c 0.0102,6e-4 0.0206,3e-4 0.0309,-6e-4 1.2483,-0.0201 4.3829,-0.5468 2.7085,-2.2291 -1.9282,-1.9375 -4.8924,1.3184 -2.9484,2.1608"
           style="fill:#1a1a18;fill-opacity:1;fill-rule:evenodd;stroke:none"
           id="path716" />
      </g>
      <g
         id="g718">
        <path
           d="m 387.4963,481.2942 c -2.0417,-0.4286 -6.4522,4.4541 0.3099,5.0236 4.9773,0.4195 2.0905,-4.942 -0.18,-4.9782 -0.0133,10e-4 -0.0261,0.003 -0.0386,0.006 -0.0255,-0.0233 -0.0561,-0.0414 -0.0913,-0.0519 z m -0.009,0.453 c 0.0467,0.0431 0.1108,0.0669 0.1788,0.0612 1.4953,0.0465 4.5256,4.4096 0.169,4.0399 -6.1316,-0.5204 -1.7413,-4.367 -0.4745,-4.1037 0.0428,0.0131 0.0864,0.0131 0.1267,0.003"
           style="fill:#1a1a18;fill-opacity:1;fill-rule:evenodd;stroke:none"
           id="path720" />
      </g>
      <g
         id="g722">
        <path
           d="m 379.1143,472.371 c -0.4312,-3.4713 -5.6514,-4.691 -8.3727,-1.722 -0.0791,0.1034 -0.0592,0.2508 0.0442,0.3296 0.1032,0.0791 0.2509,0.0593 0.3297,-0.0439 2.4372,-2.6595 7.1629,-1.5007 7.5282,1.4363 0,0.1299 0.1052,0.2353 0.2353,0.2353 0.1299,0 0.2353,-0.1054 0.2353,-0.2353"
           style="fill:#1a1a18;fill-opacity:1;fill-rule:evenodd;stroke:none"
           id="path724" />
      </g>
      <g
         id="g726">
        <path
           d="m 389.1339,482.0097 c -0.1491,-3.8532 -2.0625,-8.4413 -6.3442,-8.7846 -0.1298,0.005 -0.2307,0.1151 -0.2251,0.2449 0.005,0.1298 0.1148,0.2308 0.2449,0.2251 3.9496,0.3163 5.717,4.7707 5.8539,8.3146 0,0.1298 0.1054,0.2352 0.2352,0.2352 0.1299,0 0.2353,-0.1054 0.2353,-0.2352"
           style="fill:#1a1a18;fill-opacity:1;fill-rule:evenodd;stroke:none"
           id="path728" />
      </g>
      <g
         id="g730">
        <path
           d="m 384.3944,484.181 c -3.5983,-0.9794 -4.4184,-0.9796 -7.312,1.1393 -0.1264,0.0297 -0.2049,0.1564 -0.1752,0.2828 0.0298,0.1265 0.1565,0.205 0.2829,0.1752 2.9852,-2.0066 3.3064,-2.1719 7.0643,-1.148 0.1241,0.0386 0.2559,-0.0306 0.2945,-0.1545 0.0388,-0.1241 -0.0303,-0.256 -0.1545,-0.2948"
           style="fill:#1a1a18;fill-opacity:1;fill-rule:evenodd;stroke:none"
           id="path732" />
      </g>
      <g
         id="g734">
        <path
           d="m 375.9599,486.5564 c -3.9368,3.4827 -7.107,-3.1345 -3.5232,-4.4104 2.1665,-0.7713 4.733,0.9581 4.4173,3.3446 -0.0324,0.1259 0.0433,0.2543 0.1692,0.2866 0.1258,0.0323 0.2542,-0.0434 0.2866,-0.1692 0.3951,-2.8746 -2.8959,-5.0261 -5.2234,-3.82 -4.0865,2.118 -0.0443,8.86 4.2114,5.0958 0.0904,-0.0935 0.0882,-0.2423 -0.005,-0.3327 -0.0936,-0.0905 -0.2424,-0.0882 -0.3328,0.005"
           style="fill:#1a1a18;fill-opacity:1;fill-rule:evenodd;stroke:none"
           id="path736" />
      </g>
      <g
         id="g738">
        <path
           d="m 375.4851,487.2373 c 0.2959,3.4328 5.7688,1.2606 4.4376,-1.8144 -0.0938,-0.2166 -0.4606,-0.7651 -0.7982,-0.9284 -0.0765,-0.0964 -0.1471,-0.1341 -0.2911,-0.1326 -0.1296,0.01 -0.2265,0.1233 -0.2163,0.2528 0.008,0.0998 0.0768,0.18 0.1672,0.2072 0.044,0.0576 0.082,0.0825 0.1497,0.0893 2.7646,1.9477 -2.6864,5.7305 -2.9783,2.3261 0,-0.1298 -0.1055,-0.2353 -0.2353,-0.2353 -0.1298,0 -0.2353,0.1055 -0.2353,0.2353 z m 3.4631,-2.325 c 0.0173,9e-4 0.0366,9e-4 0.0584,3e-4 -0.0247,10e-4 -0.04,0.003 -0.0584,-3e-4"
           style="fill:#1a1a18;fill-opacity:1;fill-rule:evenodd;stroke:none"
           id="path740" />
      </g>
      <g
         id="g742">
        <path
           d="m 373.6511,481.5839 c -0.0822,0.0111 -0.1599,0.0252 -0.2339,0.042 -0.0476,-0.006 -0.0966,-0.0111 -0.1474,-0.0148 -0.0918,0 -0.1715,0.0527 -0.2103,0.1298 -1.8394,0.7937 -0.1247,3.7976 1.2487,2.3114 0.7151,-0.7738 0.6797,-1.9448 -0.4405,-2.3255 -0.036,-0.0839 -0.1194,-0.1429 -0.2166,-0.1429 z m -0.2188,0.5139 c 0.6899,0.0896 1.0556,0.4227 0.7755,1.2087 -0.6783,1.9035 -2.5089,-0.7512 -0.7755,-1.2087"
           style="fill:#1a1a18;fill-opacity:1;fill-rule:evenodd;stroke:none"
           id="path744" />
      </g>
      <g
         id="g746">
        <path
           d="m 373.7092,481.9966 c -0.1077,-0.0586 -0.2356,-0.0547 -0.3798,0.0417 -0.6874,0.1899 -1.2793,0.966 -0.311,1.7821 0.9014,0.7597 1.355,0.0607 1.3807,-0.6658 0.0366,-0.1568 0.0406,-0.3402 -8e-4,-0.5516 -0.0791,-0.404 -0.364,-0.5851 -0.6891,-0.6064 z m -0.0476,0.6072 -0.009,-0.0147 0.006,5e-4 0.004,0.0142 z"
           style="fill:#1a1a18;fill-opacity:1;fill-rule:evenodd;stroke:none"
           id="path748" />
      </g>
      <g
         id="g750">
        <path
           d="m 376.9226,485.4577 c -0.4981,2.547 2.5982,0.6735 1.3257,-0.3866 -0.1264,-0.1049 -0.2355,-0.1253 -0.3914,-0.1383 -0.1299,0 -0.2353,0.1054 -0.2353,0.2352 0,0.1299 0.1054,0.2353 0.2353,0.2353 0.6754,0.0576 -0.821,1.9094 -0.4817,0.1828 0.0355,-0.125 -0.0371,-0.2548 -0.1621,-0.2902 -0.125,-0.0357 -0.2551,0.0368 -0.2905,0.1618"
           style="fill:#1a1a18;fill-opacity:1;fill-rule:evenodd;stroke:none"
           id="path752" />
      </g>
      <g
         id="g754">
        <path
           d="m 378.1766,485.0371 c 0.3438,0.2939 0.2871,1.1664 -0.4958,1.2299 -0.1298,0 -0.2353,0.1052 -0.2353,0.2353 0,0.1298 0.1055,0.2353 0.2353,0.2353 1.2393,-0.1021 1.4987,-1.4633 0.7569,-2.092 -0.1083,-0.072 -0.2543,-0.0428 -0.3263,0.0652 -0.072,0.1083 -0.0428,0.2543 0.0652,0.3263"
           style="fill:#1a1a18;fill-opacity:1;fill-rule:evenodd;stroke:none"
           id="path756" />
      </g>
      <g
         id="g758">
        <path
           d="m 377.7426,485.4696 c -0.1423,0.008 -0.2523,0.1168 -0.3866,0.3195 -0.0355,0.0349 -0.0717,0.0712 -0.1094,0.1106 -0.0669,0.0907 -0.0593,0.2134 0.0121,0.2945 -0.004,0.087 0.0295,0.1649 0.1282,0.2199 0.9428,0.5256 1.3904,-1.6117 0.3557,-0.9445"
           style="fill:#1a1a18;fill-opacity:1;fill-rule:evenodd;stroke:none"
           id="path760" />
      </g>
      <g
         id="g762">
        <path
           d="m 377.5178,485.877 c 0.3617,-0.2087 0.1718,-0.1049 0.5712,-0.3096 0.1151,-0.0601 0.1599,-0.2021 0.1001,-0.3174 -0.0601,-0.1151 -0.2021,-0.1599 -0.3175,-0.1001 -0.4195,0.2154 -0.2106,0.1009 -0.6267,0.3438 -0.1058,0.0754 -0.1304,0.2223 -0.0553,0.328 0.0754,0.106 0.2222,0.1307 0.3282,0.0553"
           style="fill:#1a1a18;fill-opacity:1;fill-rule:evenodd;stroke:none"
           id="path764" />
      </g>
      <g
         id="g766">
        <path
           d="m 376.2057,488.6586 c -1.194,2.5146 -5.571,1.9624 -6.9333,0.3816 -0.072,-0.1083 -0.2183,-0.1375 -0.3263,-0.0652 -0.108,0.072 -0.1372,0.2179 -0.0652,0.3262 1.6342,1.9058 6.3837,2.4276 7.7698,-0.4901 0.0422,-0.1227 -0.0232,-0.2565 -0.1463,-0.2988 -0.1227,-0.0422 -0.2565,0.0233 -0.2987,0.1463"
           style="fill:#1a1a18;fill-opacity:1;fill-rule:evenodd;stroke:none"
           id="path768" />
      </g>
      <g
         id="g770">
        <path
           d="m 372.0943,490.5938 c -0.474,2.6652 -0.6823,3.9416 1.4717,6.2969 1.3547,1.4817 3.3257,1.8493 4.6168,0.2622 1.1228,-1.3805 2.2343,-4.0195 4.2237,-3.5966 6.4635,1.374 0.4314,-8.5737 -3.784,-2.6373 -0.7342,1.034 -1.872,5.1667 -4.1193,2.8321 -0.7359,-0.7645 -0.5196,-1.9639 -0.4683,-2.9396 0,-0.1298 -0.1052,-0.2352 -0.2353,-0.2352 -0.1298,0 -0.2353,0.1054 -0.2353,0.2352 l -0.0377,0.7025 c -0.136,3.5966 2.9764,5.04 4.9034,0.7579 3.2179,-7.1509 9.832,2.0495 4.1077,0.8326 -2.3703,-0.5037 -3.42,2.1523 -4.7188,3.7499 -1.1138,1.3703 -2.7533,0.9805 -3.9147,-0.2905 -2.0976,-2.2967 -1.7677,-3.4084 -1.3396,-5.9701 0,-0.1301 -0.1052,-0.2352 -0.235,-0.2352 -0.1301,0 -0.2353,0.1051 -0.2353,0.2352"
           style="fill:#1a1a18;fill-opacity:1;fill-rule:evenodd;stroke:none"
           id="path772" />
      </g>
      <g
         id="g774">
        <path
           d="m 374.9406,490.0493 c -0.0647,1.1908 -0.6041,2.56 1.669,3.1309 0.5275,0.1323 1.3448,0.151 1.5695,-0.4601 0.0355,-0.125 -0.0368,-0.2551 -0.1618,-0.2906 -0.125,-0.0357 -0.2551,0.0369 -0.2906,0.1619 -0.0748,0.203 -0.536,0.1987 -0.6828,0.1865 -2.0251,-0.1698 -1.7042,-1.4247 -1.6331,-2.7436 -0.004,-0.1299 -0.1128,-0.2319 -0.2426,-0.2277 -0.1301,0.004 -0.2319,0.1129 -0.2276,0.2427"
           style="fill:#1a1a18;fill-opacity:1;fill-rule:evenodd;stroke:none"
           id="path776" />
      </g>
      <g
         id="g778">
        <path
           d="m 368.6505,489.007 c -0.1576,2.2198 -1.6518,5.1528 -4.2001,5.1188 -6.3995,-0.0856 -3.2848,-7.5192 -8.8214,-9.4215 l -1.5236,-0.3821 c -2.1901,-2.3369 4.8118,-7.6176 7.586,1.5624 0.3753,1.2425 1.0681,5.1682 3.6193,4.4218 2.0761,-0.6075 1.7637,-3.3565 1.347,-4.9158 -0.0425,-0.1228 -0.1766,-0.188 -0.2993,-0.1455 -0.1227,0.0426 -0.1877,0.1766 -0.1454,0.2994 0.3345,1.2518 0.7171,3.7973 -1.0338,4.3101 -3.3299,0.9754 -2.1473,-7.3035 -6.7278,-9.2537 -2.1234,-0.9043 -4.9277,0.2525 -5.1446,2.0457 -0.2934,2.4222 0.8561,2.0529 2.1804,2.5064 5.0074,1.7147 2.2658,8.4484 8.0847,9.3668 3.3251,0.5247 5.332,-2.4593 5.5491,-5.5128 0,-0.1298 -0.1051,-0.235 -0.2352,-0.235 -0.1299,0 -0.2353,0.1052 -0.2353,0.235"
           style="fill:#1a1a18;fill-opacity:1;fill-rule:evenodd;stroke:none"
           id="path780" />
      </g>
      <g
         id="g782">
        <path
           d="m 366.3731,485.1235 c -3.7927,-0.2364 -8.4656,-7.5055 -4.1726,-11.7493 0.7467,-0.7384 1.6745,-0.6086 2.6555,-0.6318 0.1301,0 0.2353,-0.1052 0.2353,-0.2353 0,-0.1298 -0.1052,-0.235 -0.2353,-0.235 -1.1616,0.0278 -2.1115,-0.0958 -2.9883,0.7693 -4.553,4.4924 0.2115,12.2885 4.521,12.5524 0.1299,-0.004 0.2316,-0.1131 0.2274,-0.2429 -0.004,-0.1299 -0.1129,-0.2316 -0.243,-0.2274"
           style="fill:#1a1a18;fill-opacity:1;fill-rule:evenodd;stroke:none"
           id="path784" />
      </g>
      <g
         id="g786">
        <path
           d="m 362.8154,488.7272 c 2.6302,1.8085 2.4449,-3.0061 2.1302,-3.8673 -0.009,-0.0635 -0.03,-0.0876 -0.0646,-0.1383 -0.0754,-0.106 -0.2223,-0.1307 -0.328,-0.0553 -0.1003,0.0711 -0.1278,0.2066 -0.0663,0.311 0.1165,0.9297 0.5717,4.7245 -1.3836,3.3777 -0.1029,-0.0793 -0.2506,-0.0606 -0.33,0.0423 -0.0796,0.1029 -0.0606,0.2505 0.0423,0.3299"
           style="fill:#1a1a18;fill-opacity:1;fill-rule:evenodd;stroke:none"
           id="path788" />
      </g>
      <g
         id="g790">
        <path
           d="m 364.608,472.1499 c -4.5624,-3.7375 -6.9605,-9.1088 -8.5975,-14.6999 -1.1078,-3.7831 2.5659,-9.9388 -1.2367,-7.3205 -3.2409,2.2318 -5.2994,9.131 -3.5204,12.7523 0.4646,0.9459 2.3553,5.055 3.6904,6.2254 -1.6426,-0.1834 -4.7851,-3.1566 -5.4711,-4.9618 -0.3884,-1.0216 -0.7107,-0.002 -0.7761,0.6721 -0.0375,0.3875 -0.1075,2.0095 -0.3203,2.3976 -1.6422,-1.3261 -2.7488,-6.747 -2.0489,-9.2458 0.7333,-2.6172 1.366,-2.2232 -1.0109,-1.4085 -1.4479,0.4963 2.0515,-9.5638 8.447,-11.2343 3.3568,-0.877 10.6041,-0.0762 14.7501,-0.193 0.8127,-0.023 7.9469,-0.5103 7.9239,1.2795 -0.0464,3.6579 -3.4279,2.994 -6.2339,2.4347 -0.3042,-0.0606 -0.5187,-0.1709 -0.7495,-0.2134 l -0.2248,0.3486 c 1.3298,1.4962 2.0699,0.4252 3.3979,3.4277 1.2804,2.8953 1.4689,6.8468 -2.2002,7.598 -3.2752,0.6704 -4.2268,0.1403 -7.1408,-1.8482 -1.6537,-1.1285 -2.397,-2.0795 -3.2805,-3.7752 -0.0539,-0.1185 -0.1934,-0.1706 -0.3116,-0.1168 -0.1182,0.0539 -0.1706,0.1933 -0.1167,0.3115 0.9277,1.7796 1.7056,2.7831 3.4452,3.9702 2.2572,1.5407 3.5918,2.4407 6.228,2.1068 3.5748,-0.4527 4.8177,-1.6388 4.6077,-5.412 -0.1562,-2.808 -1.224,-4.426 -3.1363,-5.8127 1.9698,0.3935 4.9017,0.8748 5.8054,-1.1015 2.1903,-4.7906 -5.1894,-3.7471 -8.0323,-3.6672 -4.2261,0.1188 -9.6584,-0.5596 -13.4807,-0.0632 -5.4229,0.7044 -8.6774,5.4221 -10.1902,10.3374 -0.919,2.9866 0.5383,2.0321 1.5661,1.5984 -1.2056,2.9466 -1.0123,5.343 0.2203,8.3809 2.3363,5.76 2.4321,1.2045 2.5874,-0.3489 0.4419,0.8226 0.3827,1.1455 1.2875,2.1197 3.6695,3.9524 6.1407,2.6816 5.1469,2.2794 -1.2535,-0.5071 -3.2936,-4.9419 -3.9555,-6.2907 -1.7008,-3.4645 0.5533,-11.5747 4.3495,-12.5776 -0.6851,4.5006 -1.3504,5.1089 0.2713,9.5069 2.0806,5.6432 3.2692,9.0209 8.0436,12.9316 0.1071,0.0737 0.2534,0.0468 0.3271,-0.0604 0.0737,-0.1068 0.0467,-0.2534 -0.0604,-0.3271"
           style="fill:#1a1a18;fill-opacity:1;fill-rule:evenodd;stroke:none"
           id="path792" />
      </g>
      <g
         id="g794">
        <path
           d="m 367.3239,463.3586 c 0.3724,-1.7315 0.1117,-0.8692 0.7999,-2.5813 0.0482,-0.1207 -0.0108,-0.2574 -0.1315,-0.3056 -0.1208,-0.0479 -0.2574,0.0111 -0.3056,0.1319 -0.714,1.7773 -0.4343,0.8594 -0.8334,2.755 0,0.1301 0.1052,0.2352 0.2353,0.2352 0.1298,0 0.2353,-0.1051 0.2353,-0.2352"
           style="fill:#1a1a18;fill-opacity:1;fill-rule:evenodd;stroke:none"
           id="path796" />
      </g>
      <g
         id="g798">
        <path
           d="m 372.9872,469.4091 c -0.5108,-2.7402 -0.9833,-7.9441 0.2112,-10.5211 0.0666,-0.0734 0.0819,-0.1839 0.03,-0.2746 -0.0646,-0.1129 -0.2083,-0.152 -0.3208,-0.0876 -1.5472,1.2515 -0.7413,9.0669 -0.3909,10.8714 -0.003,0.1301 0.0995,0.2378 0.2293,0.2412 0.1298,0.003 0.2378,-0.0995 0.2412,-0.2293"
           style="fill:#1a1a18;fill-opacity:1;fill-rule:evenodd;stroke:none"
           id="path800" />
      </g>
      <g
         id="g802">
        <path
           d="m 374.0219,455.9528 c 0.3104,-0.9633 1.9604,-5.4247 2.8896,-6.1501 3.1201,1.5035 6.679,-3.6541 1.8709,-3.6692 -0.0769,-2e-4 -1.8791,0.0511 -2.0007,0.0545 -0.1301,0 -0.2353,0.1051 -0.2353,0.2352 0,0.1299 0.1052,0.2353 0.2353,0.2353 0.8127,-0.0229 1.8927,-0.0992 2.6844,-0.0326 2.7428,0.2316 0.2506,3.7984 -2.3043,2.7831 -1.3768,-0.5471 -3.4175,5.9133 -3.6105,6.5438 0,0.1298 0.1055,0.2352 0.2353,0.2352 0.1298,0 0.2353,-0.1054 0.2353,-0.2352 z m 2.8403,-6.1742 c -0.0136,-0.005 -0.0267,-0.0116 -0.0397,-0.0193 0.0133,0.007 0.0264,0.0128 0.0397,0.0193"
           style="fill:#1a1a18;fill-opacity:1;fill-rule:evenodd;stroke:none"
           id="path804" />
      </g>
      <g
         id="g806">
        <path
           d="m 376.628,469.1259 c -0.1749,-1.4765 3.8367,-3.9628 3.8033,-4.3316 -0.0681,-0.7506 -1.7073,-0.6511 -2.5864,-0.6307 1.0565,-0.8427 3.7279,-3.0991 2.2907,-3.4503 -0.5233,-0.1279 -1.434,-0.1256 -2.1302,-0.0244 0.921,-1.8987 0.4895,-5.4539 -1.2971,-7.0929 -0.5412,-0.4963 -0.749,-0.985 -1.5061,-1.0369 -0.1298,0 -0.235,0.1055 -0.235,0.2353 0,0.1298 0.1052,0.2353 0.235,0.2353 0.4966,0.0337 0.8427,0.5938 1.2356,0.9516 1.6832,1.5318 1.9409,4.8702 1.0831,6.6189 -0.7372,1.5029 1.8383,-0.0967 2.5926,0.6125 -0.0992,0.1602 -2.101,2.2782 -2.2019,2.3602 -2.5575,2.0743 1.2778,0.3356 2.0284,1.2463 l -0.007,0.003 c -1.1562,0.6092 -3.9705,2.8942 -3.7607,4.4224 0.0329,0.1258 0.1616,0.201 0.2871,0.1681 0.1256,-0.0329 0.201,-0.1616 0.1681,-0.2872"
           style="fill:#1a1a18;fill-opacity:1;fill-rule:evenodd;stroke:none"
           id="path808" />
      </g>
      <g
         id="g810">
        <path
           d="m 377.5612,454.4824 c 0.8011,-5.8609 3.1275,-0.9589 5.0539,-4.4569 1.0205,-1.8527 -0.328,-2.287 -1.5548,-2.6779 -0.1211,-0.0473 -0.2574,0.0122 -0.3047,0.1333 -0.0474,0.121 0.0124,0.2573 0.1332,0.305 0.83,0.2633 1.9397,0.3376 1.4533,1.7061 -1.254,3.5286 -4.3894,-1.423 -5.2512,4.9904 0,0.1301 0.1052,0.2353 0.2353,0.2353 0.1298,0 0.235,-0.1052 0.235,-0.2353"
           style="fill:#1a1a18;fill-opacity:1;fill-rule:evenodd;stroke:none"
           id="path812" />
      </g>
    </g>
    <path
       style="fill:#ffffff;fill-opacity:0.99;stroke-width:0.0208976"
       d="m 300.77526,172.59927 c -1.55156,-0.94615 -4.30166,-3.45009 -6.11135,-5.5643 -11.09287,-12.95953 -4.16852,-38.45262 12.79878,-47.12071 3.68921,-1.8847 5.73326,-2.25811 12.26033,-2.23972 6.79388,0.0191 8.50534,0.37129 12.90139,2.6546 2.78762,1.44789 6.61698,3.85211 8.50968,5.3427 3.84974,3.03186 7.39678,3.17322 7.94185,0.3165 0.21542,-1.12899 -0.58017,-2.53755 -2.13229,-3.77517 -2.13711,-1.70407 -2.39228,-2.42006 -1.86472,-5.23221 2.76125,-14.71871 19.6484,-15.27703 32.62492,-1.07864 7.27085,7.95547 8.83936,15.919 4.54596,23.08032 -1.4386,2.39955 -5.31618,5.8549 -6.57035,5.8549 -0.17688,0 -0.16861,-2.38445 0.0184,-5.29878 0.57182,-8.9118 -4.532,-14.2506 -13.78755,-14.42231 -6.84764,-0.12705 -7.53379,1.0905 -8.14484,14.45259 -0.40147,8.77895 -0.95531,12.23859 -2.5148,15.70896 -2.93588,6.5333 -7.24424,11.5072 -13.43122,15.50604 -6.18278,3.99612 -8.58766,4.59472 -7.07052,1.75992 1.45257,-2.71415 1.10545,-8.3925 -0.76468,-12.50911 -4.19334,-9.23052 -13.1805,-12.51891 -20.03798,-7.33186 -5.09702,3.85544 -8.05461,13.04338 -6.04984,18.79426 1.14679,3.28968 0.71582,3.44185 -3.12117,1.10202 z"
       id="path900"
       transform="matrix(0.26458333,0,0,0.26458333,24.389505,100.88492)" />
    <path
       style="fill:#ffffff;fill-opacity:0.99;stroke-width:0.0208976"
       d="m 300.77526,172.59927 c -4.34782,-2.65134 -9.27861,-8.96872 -10.5531,-13.52076 -1.90267,-6.79568 -0.78301,-16.82619 2.65858,-23.81706 9.60639,-19.51334 30.4527,-23.70335 48.15897,-9.67973 5.88892,4.66412 11.19334,1.85815 5.85131,-3.09526 -2.05587,-1.90631 -2.33068,-2.74118 -1.81213,-5.50528 2.76129,-14.71893 19.64834,-15.27736 32.62496,-1.07886 7.27085,7.95547 8.83936,15.919 4.54596,23.08032 -1.4386,2.39955 -5.31618,5.8549 -6.57035,5.8549 -0.17688,0 -0.16861,-2.38445 0.0184,-5.29878 0.57182,-8.9118 -4.532,-14.2506 -13.78755,-14.42231 -6.80916,-0.12633 -7.47904,1.06249 -8.13153,14.4307 -0.42486,8.70441 -1.00472,12.29662 -2.53931,15.73085 -2.9138,6.5207 -7.22494,11.50197 -13.42002,15.50604 -6.18278,3.99612 -8.58766,4.59472 -7.07052,1.75992 2.50588,-4.68227 -0.0612,-13.89888 -5.21953,-18.73967 -3.76049,-3.52901 -7.4117,-4.42452 -11.86724,-2.91063 -7.65441,2.6008 -12.56441,13.34543 -9.62793,21.06897 1.06958,2.81319 0.49449,2.92553 -3.25897,0.63664 z"
       id="path902"
       transform="matrix(0.26458333,0,0,0.26458333,24.389505,100.88492)" />
    <path
       style="fill:#ffffff;fill-opacity:0.99;stroke-width:0.0208976"
       d="m 300.77526,172.59927 c -4.34782,-2.65134 -9.27861,-8.96872 -10.5531,-13.52076 -3.19799,-11.42209 1.23496,-25.78641 10.59904,-34.34465 10.9686,-10.02469 23.88145,-10.17398 38.42054,-0.4442 3.38611,2.26604 6.9062,3.97571 7.82241,3.79926 2.59876,-0.50048 2.49412,-3.12924 -0.22492,-5.65048 -2.0688,-1.9183 -2.37936,-2.80216 -1.89162,-5.38359 1.48678,-7.86894 7.56497,-12.56388 14.81395,-11.44266 13.92296,2.15351 27.10166,17.35493 24.55768,28.32691 -1.14077,4.92008 -5.86469,10.89844 -8.61162,10.89844 -0.19237,0 -0.19677,-2.38445 -0.01,-5.29878 0.57242,-8.92089 -4.29331,-14.03709 -13.65368,-14.35655 -6.95591,-0.2374 -7.61078,0.90251 -8.2526,14.36494 -0.44805,9.39794 -0.92734,12.1261 -2.87219,16.34873 -3.10671,6.74522 -6.5489,10.65402 -13.12533,14.90458 -6.15931,3.98095 -8.5606,4.57521 -7.04512,1.7435 1.45257,-2.71415 1.10545,-8.3925 -0.76468,-12.50911 -5.63872,-12.41214 -19.04599,-13.02669 -24.5862,-1.12697 -2.39283,5.13951 -2.81969,9.22551 -1.36382,13.05475 1.06958,2.81319 0.49449,2.92553 -3.25897,0.63664 z"
       id="path904"
       transform="matrix(0.26458333,0,0,0.26458333,24.389505,100.88492)" />
  </g>
</svg>
