<?xml version="1.0" encoding="UTF-8" standalone="no"?>
<svg
   xmlns:dc="http://purl.org/dc/elements/1.1/"
   xmlns:cc="http://creativecommons.org/ns#"
   xmlns:rdf="http://www.w3.org/1999/02/22-rdf-syntax-ns#"
   xmlns:svg="http://www.w3.org/2000/svg"
   xmlns="http://www.w3.org/2000/svg"
   xmlns:sodipodi="http://sodipodi.sourceforge.net/DTD/sodipodi-0.dtd"
   xmlns:inkscape="http://www.inkscape.org/namespaces/inkscape"
   width="165.57758mm"
   height="144.97087mm"
   viewBox="0 0 165.57758 144.97087"
   version="1.1"
   id="svg30819"
   inkscape:version="1.0.2 (e86c8708, 2021-01-15)"
   sodipodi:docname="donkey.svg">
  <defs
     id="defs30813" />
  <sodipodi:namedview
     id="base"
     pagecolor="#ffffff"
     bordercolor="#666666"
     borderopacity="1.0"
     inkscape:pageopacity="0.0"
     inkscape:pageshadow="2"
     inkscape:zoom="0.35"
     inkscape:cx="330.99642"
     inkscape:cy="343.6761"
     inkscape:document-units="mm"
     inkscape:current-layer="layer1"
     inkscape:document-rotation="0"
     showgrid="false"
     inkscape:window-width="1440"
     inkscape:window-height="855"
     inkscape:window-x="0"
     inkscape:window-y="23"
     inkscape:window-maximized="0" />
  <metadata
     id="metadata30816">
    <rdf:RDF>
      <cc:Work
         rdf:about="">
        <dc:format>image/svg+xml</dc:format>
        <dc:type
           rdf:resource="http://purl.org/dc/dcmitype/StillImage" />
        <dc:title></dc:title>
      </cc:Work>
    </rdf:RDF>
  </metadata>
  <g
     inkscape:label="Слой 1"
     inkscape:groupmode="layer"
     id="layer1"
     transform="translate(-18.257196,-57.235697)">
    <g
       id="g160"
       transform="matrix(1.2577265,0,0,-1.2577265,-40.759197,602.89775)">
      <path
         d="m 75.6357,404.4183 c 1.0545,0.855 -1.389,3.3849 -2.1617,3.9484 -1.8366,1.3394 -4.4504,3.5804 -6.5171,4.345 -2.6385,0.9756 -4.0881,1.2855 -6.7025,2.4998 -1.4712,0.6832 -5.9894,2.1113 -6.9792,3.5538 -0.69,1.0055 -2.7785,2.5535 -2.9826,4.3022 -0.0224,0.1907 -2.2726,5.1808 -2.3585,5.3033 -0.4141,0.5919 -0.7432,-1.5593 -0.6706,-2.2235 0.4291,-3.9257 0.2585,-4.8487 0.9612,-6.5713 0.4717,-1.1571 0.5054,-1.762 0.9343,-3.2553 0.5114,-1.7804 1.6679,-4.1023 2.7768,-5.5071 2.9469,-3.733 2.5183,-2.9415 6.6705,-5.2688 3.1802,-1.7824 8.6689,-3.1428 12.316,-2.9494 1.2926,0.0686 3.7675,1.0559 4.7134,1.8229 z"
         style="fill:#ff969d;fill-opacity:1;fill-rule:evenodd;stroke:#1a1a18;stroke-width:0.5669;stroke-linecap:butt;stroke-linejoin:miter;stroke-miterlimit:22.9256;stroke-dasharray:none;stroke-opacity:1"
         id="path162" />
      <path
         d="m 97.1033,403.5444 -1.4354,-4.212 c 0.335,1.3428 -3.6652,6.2501 -5.5452,6.5492 -0.6936,0.1105 -5.9269,2.8037 -6.4009,3.42 -1.4686,1.9088 -5.6177,3.7477 -6.8541,6.9627 -0.4009,1.0429 -2.503,3.0983 -2.9458,4.8198 -0.0306,0.119 -0.0859,0.1366 -0.1162,0.2905 -1.4145,3.9135 -2.0461,4.9723 -2.0041,9.2852 0.0175,1.8028 0.9632,4.1593 1.707,0.2554 0.8824,-4.6318 6.7995,-8.0932 10.7921,-9.6676 3.3006,-1.3019 5.7364,-3.2261 8.5266,-5.3821 2.2447,-1.7345 3.6785,-4.5077 4.1814,-7.3077 0.03,-0.167 0.1026,-4.9627 0.0946,-5.0134 z"
         style="fill:#ff969d;fill-opacity:1;fill-rule:evenodd;stroke:#1a1a18;stroke-width:0.5669;stroke-linecap:butt;stroke-linejoin:miter;stroke-miterlimit:22.9256;stroke-dasharray:none;stroke-opacity:1"
         id="path164" />
      <path
         d="m 88.1626,327.8157 c -2.2178,-0.0921 -3.6165,0.271 -5.6075,1.2722 -1.3493,0.6781 -1.7294,0.8663 -3.0169,1.8164 -0.4091,0.3022 -1.1617,0.7067 -1.3646,1.1277 -0.3453,0.0547 -0.5902,-0.8963 -0.9471,-1.0273 -0.028,-0.0105 -1.0479,-2.0662 -0.686,-2.7422 1.6886,-3.1527 6.0432,-5.3575 9.4505,-3.8844 0.4929,0.2132 2.3456,3.445 2.1716,3.4376 z"
         style="fill:#2b2a29;fill-opacity:1;fill-rule:evenodd;stroke:#1a1a18;stroke-width:0.5669;stroke-linecap:butt;stroke-linejoin:miter;stroke-miterlimit:22.9256;stroke-dasharray:none;stroke-opacity:1"
         id="path166" />
      <path
         d="m 94.6312,325.5009 c 0.4544,-0.0572 1.2691,-0.5037 2.1742,-0.6709 2.3463,-0.4337 2.9719,-0.8799 5.6237,-0.7081 0.4478,0.0289 3.0115,0.3543 3.115,-0.0403 0.0833,-0.3174 -0.3019,-2.3383 -0.4601,-2.6172 -1.3085,-2.3031 -2.3374,-2.6045 -4.8438,-2.5971 -1.4667,0.005 -4.2716,0.777 -5.4837,1.6736 -2.8763,2.1282 0.2214,4.9164 -0.1253,4.96 z"
         style="fill:#2b2a29;fill-opacity:1;fill-rule:evenodd;stroke:#1a1a18;stroke-width:0.5669;stroke-linecap:butt;stroke-linejoin:miter;stroke-miterlimit:22.9256;stroke-dasharray:none;stroke-opacity:1"
         id="path168" />
      <path
         d="m 131.7912,330.315 c 0.1292,0.0233 2.963,-1.3711 4.9209,-0.9652 0.6322,0.1313 5.0043,0.7036 5.0882,-0.0779 0.1902,-1.7751 0.4456,-3.2083 -1.5738,-4.104 -2.0251,-0.898 -9.4221,-1.0058 -9.0164,3.0662 10e-4,0.0105 0.5289,2.0713 0.5811,2.0809 z"
         style="fill:#2b2a29;fill-opacity:1;fill-rule:evenodd;stroke:#1a1a18;stroke-width:0.5669;stroke-linecap:butt;stroke-linejoin:miter;stroke-miterlimit:22.9256;stroke-dasharray:none;stroke-opacity:1"
         id="path170" />
      <path
         d="m 158.4431,327.6916 c -1.3893,-0.381 -2.1433,-1.175 -3.7386,-1.0622 -1.5934,0.1126 -2.2947,-0.2273 -4.5,0.1225 -0.6185,0.0978 -2.6759,0.839 -2.6949,0.7203 -0.1015,-0.6412 -0.495,-1.643 -0.682,-2.8233 -0.3153,-1.9869 0.407,-1.4882 2.2286,-2.2445 1.5015,-0.6234 9.6414,-0.169 9.9898,2.0273 0.1057,0.6667 -0.2228,3.3642 -0.6029,3.2599 z"
         style="fill:#2b2a29;fill-opacity:1;fill-rule:evenodd;stroke:#1a1a18;stroke-width:0.5669;stroke-linecap:butt;stroke-linejoin:miter;stroke-miterlimit:22.9256;stroke-dasharray:none;stroke-opacity:1"
         id="path172" />
      <path
         d="m 168.0021,364.3211 c -0.0641,0.1228 1.4788,-1.4394 1.9397,-1.6761 0.2498,-0.1284 0.4269,-0.356 0.3745,0.5462 -0.0961,1.6589 -0.7725,2.0362 2.0545,1.2354 1.1948,-0.3385 3.0612,-1.7822 3.6352,-2.9441 0.6171,-1.2486 2.3196,-4.8889 2.0248,-6.2413 -0.0995,-0.4558 0.005,-0.4731 -0.836,-0.3223 -0.0311,0.006 -1.2631,0.3662 -1.4916,0.4224 -2.3298,0.5734 -5.047,0.754 -6.9361,2.3643 -1.6299,1.3899 -1.0153,3.6839 -1.182,5.5747 -0.0329,0.3713 0.4533,0.9717 0.417,1.0408 z"
         style="fill:#2b2a29;fill-opacity:1;fill-rule:evenodd;stroke:#1a1a18;stroke-width:0.5669;stroke-linecap:butt;stroke-linejoin:miter;stroke-miterlimit:22.9256;stroke-dasharray:none;stroke-opacity:1"
         id="path174" />
      <path
         d="m 70.541,393.1421 c 1.08,1.1364 1.6475,-2.3947 5.544,-0.2874 3.0005,1.6225 1.7067,-2.4939 5.6327,-3.4144 2.3341,-0.547 3.5856,-0.7279 5.7776,0.6568 2.211,1.3972 3.0169,4.5737 3.3256,7.0506 0.1823,1.4647 -2.927,4.1982 -4.5779,4.5315 -2.8936,0.5845 -2.3466,0.9272 -5.37,-0.5907 -1.1636,-0.5842 -0.6262,-0.7889 -2.0446,1.2186 -0.4819,0.682 -3.2273,2.0438 -3.2105,1.4896 0.1904,3.0158 -1.1175,2.8845 -2.9994,5.214 -2.1807,2.6989 -9.9881,5.3989 -13.3815,6.3729 -0.3356,0.0964 -5.0065,2.5438 -5.034,3.1331 -1.8128,0.6852 -4.4949,3.7831 -4.5247,5.5449 -0.021,1.2566 -2.6107,5.3844 1.8658,1.0341 0.3846,-0.3737 3.0234,-1.8295 3.0866,-2.2114 1.7257,-0.962 1.0301,-1.1925 4.0039,-2.2362 3.6905,-1.2952 5.298,-0.8804 7.6397,-1.5528 4.3424,-1.247 8.5799,-5.6523 10.3878,-9.6605 1.8145,-4.0226 2.5005,1.804 7.6009,-0.2571 0.0484,-1.0431 6.8448,-3.0971 8.8922,-5.6109 0.4567,-0.5604 3.0036,-1.635 2.8242,-3.3792 -0.0689,-0.6695 2.1609,5.9258 0.3059,9.3481 -1.3026,2.4027 -1.8134,5.8306 -5.2027,7.8336 -0.8567,0.5059 -2.9061,2.5985 -5.3615,3.2862 -0.0269,0.007 -4.9567,2.9128 -6.1764,3.0089 -2.4857,0.1953 -7.6898,9.688 -4.788,7.1578 2.9857,-2.6033 1.1387,-1.7082 4.8518,-3.7979 2.2821,-1.2843 11.7116,-4.3622 12.8653,-5.7617 0.5445,-0.6607 2.3204,-1.6338 3.5906,-3.236 2.2428,-2.8292 3.1051,-4.1749 3.7778,-7.7814 0.6743,-3.6147 0.7991,-2.4018 1.0125,-6.6095 0.1809,-3.5754 -0.6454,-6.747 -3.2519,-9.4762 l 4.686,-7.4319 4.8081,-5.2948 c 1.1531,-0.1758 3.2907,-1.469 6.4474,-1.9696 10.0689,-1.5964 10.0148,1.3221 17.3367,1.2479 3.2017,-0.0326 2.0616,1.5389 9.2199,0.4039 3.155,-0.5 6.5997,-0.7401 9.4204,-1.9627 l 2.7749,5.2778 c 0.2738,0.7778 4.8498,5.3935 5.5355,5.6908 3.4667,1.5041 5.3149,1.7374 9.0368,0.8252 1.0763,-0.2639 3.9875,-2.4848 4.2333,-3.9594 0.002,-0.0133 0.9419,-1.5735 1.0352,-2.4404 0.2265,-2.1109 0.3985,-1.1188 0.0442,-3.3539 -0.5964,-3.7613 -1.6478,-6.2799 -1.9154,-10.2002 -0.1698,-2.4874 -0.5017,-3.2559 0.0981,-5.8782 0.0887,-0.3875 1.0029,-3.3942 -0.1151,-2.3318 -2.1177,2.0123 -2.3782,1.6931 -2.8142,5.3558 -0.1888,1.5885 0.991,12.2689 1.3459,14.1599 0.4773,2.5447 -0.9854,5.112 -3.1984,6.0814 -1.9448,0.8524 -4.9147,-0.1267 -6.5797,-1.1007 -3.862,-2.2592 -4.6446,-4.2355 -7.2545,-7.5849 -1.1783,-1.5117 0.7623,-2.5055 1.6478,-3.4673 1.4908,-1.6189 2.5418,-1.7748 3.5124,-4.4059 0.2705,-0.7336 1.7533,-5.5812 1.7688,-5.6104 -0.0481,-0.117 0.15,-0.549 0.1673,-0.7302 0.4677,-4.1017 0.5834,-3.0937 0.2106,-7.4783 -0.4258,-5.01 -0.8206,-5.0057 -2.3661,-9.1324 -1.2169,-3.2496 -2.0262,-9.3447 -0.805,-12.5357 0.3132,-0.8183 3.5039,-9.3931 2.2819,-9.1454 -0.978,0.1982 -2.3037,-0.879 -4.07,-0.5272 -1.2852,0.256 -8.6805,-2.4846 -6.6532,3.7618 -0.4295,0.5656 0.0247,2.6354 0.0516,4.0213 0.1,5.1823 1.36,13.3432 -6.1747,13.013 -0.2455,-0.0105 -0.9876,-0.2483 -1.2079,-0.2875 l -0.7996,-3.7576 0.2302,-4.7968 1.8731,-8.7057 -3.3789,-0.6772 -4.4252,0.5111 -1.4374,0.894 0.6145,5.2243 -0.3815,5.2849 -1.3981,3.115 -5.9836,-2.1456 -5.8246,-1.0182 -10.552,-0.7103 -1.7238,-2.2162 -0.8753,-4.9926 -0.1406,-9.008 -4.5918,-0.1411 -6.3528,1.5449 3.3262,7.0219 1.3496,3.6403 -0.436,3.7403 -4.0839,3.219 c -2.2371,-0.2897 -3.0622,-5.0728 -3.8656,-6.5123 -1.0338,-1.8521 -1.6336,-6.7388 -2.7212,-8.4997 -0.5825,-0.9439 -4.7951,0.1823 -5.7274,0.6299 -0.6231,0.2991 -3.2244,1.5806 -3.5054,2.0852 -0.5108,0.9184 -1.9573,1.2104 0.0737,3.2329 1.7167,1.709 3.3084,3.1028 5.0383,4.9113 1.2005,1.2549 2.2748,2.7309 2.6414,4.4572 0.1417,0.667 1.1463,2.0194 1.4774,4.1091 -0.5406,0.913 0.6321,0.8532 -0.7926,2.7337 -0.3197,0.4221 -1.2464,4.3722 -1.1092,5.2379 0.1695,1.0683 -0.4521,1.2563 0.1871,2.7224 0.2531,0.5808 0.2466,2.042 0.9666,3.5385 0.8396,1.7458 0.6741,6.3062 -0.8251,7.5478 -0.0749,0.062 -0.0882,0.2245 -0.2486,0.3761 -1.1739,0.0887 -1.0401,-0.1281 -2.6759,0.1313 -0.2552,-1.6084 -2.9705,-7.5022 -5.408,-7.1158 -2.1268,0.3373 -1.6197,0.5649 -3.3914,1.9063 -0.5258,0.3982 -6.9338,-4.6698 -7.6524,-5.3731 -1.25,-2.3043 -4.8152,-5.3822 -7.4837,-3.0053 -1.8612,1.6577 -1.1106,0.2373 -2.9047,3.1272 -0.6752,1.0879 -2.3476,2.1033 -2.6266,4.6876 -0.0028,0.0264 -1.2588,5.4709 -1.436,6.4724 -0.1556,0.8793 -0.394,8.0444 0.817,8.1754 3.7321,0.4028 1.2594,1.4723 4.6462,3.3568 1.1651,0.6485 9.2585,7.0511 9.6874,7.8542 0.5159,0.966 1.0542,0.3773 2.2598,3.1592"
         style="fill:#737373;fill-opacity:1;fill-rule:evenodd;stroke:none"
         id="path176" />
      <path
         d="m 86.6826,385.9245 c -0.928,-0.3739 -1.0224,0.8141 -3.0399,-0.5037 -0.8138,-0.5318 -0.0643,-2.0656 0.9706,-2.5843 1.7986,-0.9014 2.8092,-0.7433 4.6437,0.0459 1.2127,0.5216 0.1239,2.1648 -0.7667,2.3318 -0.7651,0.1434 -1.6226,0.7846 -1.8077,0.7103 z"
         style="fill:#ff969d;fill-opacity:1;fill-rule:evenodd;stroke:#1a1a18;stroke-width:0.5669;stroke-linecap:butt;stroke-linejoin:miter;stroke-miterlimit:22.9256;stroke-dasharray:none;stroke-opacity:1"
         id="path178" />
    </g>
    <g
       id="g180"
       transform="matrix(1.2577265,0,0,-1.2577265,-40.759197,602.89775)">
      <g
         id="g182">
        <path
           d="m 78.3074,398.0401 c 0.2636,1.0111 0.678,1.8428 1.1979,2.5109 -2.1937,6.1566 -9.3164,1.3604 -8.7525,-4.574 0.388,-4.0833 3.6121,-3.1716 5.9133,-2.5166 0.4561,0.5055 1.5168,1.5271 1.7419,0.5301 1.2178,-5.3986 7.4032,-6.2597 9.9315,-2.7694 6.7393,9.3041 -6.9846,14.5618 -9.044,6.6622 -0.0431,-0.2727 -0.2993,-0.4589 -0.5723,-0.4155 -0.273,0.0431 -0.4589,0.2996 -0.4158,0.5723 z m 1.9542,3.3109 c 4.8756,4.223 15.3762,-1.7776 8.9013,-10.6983 -3.5112,-4.8373 -10.7566,-1.8141 -11.6518,2.259 -0.1655,-0.1769 -0.3274,-0.3368 -0.506,-0.3884 0.0559,0.015 0.036,0.007 0.0615,0.0181 -7.249,-4.704 -10.5499,8.3376 -2.891,11.4974 2.7802,1.1469 5.0264,-0.288 6.086,-2.6878"
           style="fill:#1a1a18;fill-opacity:1;fill-rule:evenodd;stroke:none"
           id="path184" />
      </g>
      <g
         id="g186">
        <path
           d="m 84.2139,393.8924 c -2.2059,-0.1998 -0.826,-5.741 0.8303,-2.4607 0.407,0.8059 0.3538,2.1022 -0.576,2.3403 -0.0981,0.0156 -0.1851,0.0589 -0.2543,0.1204 z m 0.7161,0.7651 c 1.6333,-0.6778 1.68,-2.9698 0.6431,-4.2539 -3.2417,-4.0133 -5.3756,4.727 -0.9873,4.4801 0.1477,-0.0232 0.2699,-0.1091 0.3442,-0.2262"
           style="fill:#1a1a18;fill-opacity:1;fill-rule:evenodd;stroke:none"
           id="path188" />
      </g>
      <g
         id="g190">
        <path
           d="m 84.782,393.4811 c 0.1556,-0.2817 0.2673,-0.7441 0.3007,-1.4468 0.1798,-3.7519 -4.1887,-1.2206 -1.1052,1.9052 0.2177,0.1704 0.5321,0.1318 0.7024,-0.0856 0.0859,-0.11 0.1188,-0.2446 0.1021,-0.3728"
           style="fill:#1a1a18;fill-opacity:1;fill-rule:evenodd;stroke:none"
           id="path192" />
      </g>
      <g
         id="g194">
        <path
           d="m 82.7439,393.1157 c 0.5111,2.2201 4.3231,0.4873 2.5137,-1.824 -0.1879,-0.2024 -0.5045,-0.2141 -0.7069,-0.0261 -0.2024,0.1882 -0.214,0.5045 -0.0261,0.7069 0.2117,0.2719 0.1641,0.8408 -0.0403,1.0667 -0.2517,0.0425 -0.6964,0.1687 -0.7523,-0.0802 -0.0431,-0.2727 -0.2996,-0.4589 -0.5723,-0.4156 -0.273,0.0431 -0.4592,0.2997 -0.4158,0.5723"
           style="fill:#1a1a18;fill-opacity:1;fill-rule:evenodd;stroke:none"
           id="path196" />
      </g>
      <g
         id="g198">
        <path
           d="m 75.4739,395.6703 c -0.1764,-0.6137 -0.0655,-1.2347 0.6443,-1.6738 0.4972,0.155 1.7736,2.5271 0.3254,2.8102 -0.2123,-0.1672 -0.3603,-0.4796 -0.4519,-0.7151 -0.0402,-0.2546 -0.2661,-0.4337 -0.5178,-0.4213 z m 0.187,1.7422 c 0.9783,1.0074 2.2371,-0.006 2.3556,-0.8391 0.8011,-5.631 -5.949,-3.721 -2.8459,0.6653 0.1221,0.1497 0.3132,0.2107 0.4903,0.1738"
           style="fill:#1a1a18;fill-opacity:1;fill-rule:evenodd;stroke:none"
           id="path200" />
      </g>
      <g
         id="g202">
        <path
           d="m 74.6739,396.5539 c 0.4212,0.7804 0.7688,0.9734 1.6308,1.2271 0.2718,0.0485 0.5315,-0.1329 0.58,-0.4048 0.0484,-0.2718 -0.133,-0.5318 -0.4048,-0.5799 -0.4692,-0.1381 -0.6662,-0.2328 -0.8961,-0.6588 -0.115,-0.2512 -0.4118,-0.3617 -0.663,-0.2466 -0.2514,0.1148 -0.3617,0.4118 -0.2469,0.663"
           style="fill:#1a1a18;fill-opacity:1;fill-rule:evenodd;stroke:none"
           id="path204" />
      </g>
      <g
         id="g206">
        <path
           d="m 75.85,396.7597 c 0.0088,0.2109 0.1522,0.4014 0.3665,0.4609 0.7597,0.1397 0.9428,-0.4465 0.8876,-1.0636 0.4433,-0.6519 -0.0114,-1.4717 -0.5987,-1.9819 -0.1038,-0.1452 -0.2078,-0.2172 -0.3084,-0.2314 -0.7761,-0.4966 -1.5568,-0.3619 -0.7705,1.3845 -0.0771,0.6361 0.023,1.2824 0.4235,1.4315"
           style="fill:#1a1a18;fill-opacity:1;fill-rule:evenodd;stroke:none"
           id="path208" />
      </g>
      <g
         id="g210">
        <path
           d="m 95.8487,400.9791 c 2.1963,6.0029 -0.2534,12.1492 -5.47,16.0877 -9.811,7.4072 -12.5654,3.3163 -17.9042,15.1543 -1.4533,-4.3583 2.3964,-13.3217 4.8337,-16.2618 8.3681,-10.0936 14.7702,-7.5506 18.3648,-14.6171 0.064,-0.1253 0.1227,-0.2458 0.1757,-0.3631 z m 0.3047,-1.7561 c -0.0051,-0.0403 -0.0107,-0.0811 -0.0172,-0.1225 -0.065,-0.2684 -0.3351,-0.4337 -0.6038,-0.369 -0.2685,0.0649 -0.4337,0.335 -0.3691,0.6037 0.5295,3.3843 -4.6973,5.8644 -6.8899,6.8673 -21.3811,9.7803 -17.2959,31.7403 -15.133,26.9784 5.6239,-12.3817 7.7156,-7.6643 17.8719,-15.3397 6.0077,-4.5402 8.4469,-11.8335 5.1411,-18.6182"
           style="fill:#1a1a18;fill-opacity:1;fill-rule:evenodd;stroke:none"
           id="path212" />
      </g>
      <g
         id="g214">
        <path
           d="m 74.8335,403.867 c 1.1599,3.7278 4.2894,6.0474 8.2009,6.0069 0.273,-0.0434 0.4592,-0.2996 0.4159,-0.5726 -0.0434,-0.2727 -0.2997,-0.4589 -0.5723,-0.4159 -3.2454,0.0264 -6.0874,-2.0845 -7.0563,-5.1752 -0.0431,-0.2727 -0.2994,-0.4589 -0.5723,-0.4158 -0.273,0.0434 -0.459,0.2996 -0.4159,0.5726"
           style="fill:#1a1a18;fill-opacity:1;fill-rule:evenodd;stroke:none"
           id="path216" />
      </g>
      <g
         id="g218">
        <path
           d="m 73.2532,433.4119 c 7.2791,-10.3665 16.3738,-6.2118 24.6606,-17.225 2.9741,-3.9529 4.7891,-14.716 2.0282,-19.2401 -0.5352,-0.8771 -1.5588,-2.2261 -2.1711,-3.0555 -0.1681,-0.2194 -0.4819,-0.2608 -0.7013,-0.0927 -0.2194,0.1681 -0.2608,0.4819 -0.0927,0.7013 0.6044,0.8189 1.6053,2.1379 2.1328,3.0025 2.5007,4.0969 0.7469,14.443 -1.9908,18.0765 -8.1496,10.8164 -17.119,6.4959 -24.7124,17.3004 -0.1474,0.2336 -0.0768,0.5426 0.157,0.6897 0.2336,0.1471 0.5426,0.0768 0.6897,-0.1571"
           style="fill:#1a1a18;fill-opacity:1;fill-rule:evenodd;stroke:none"
           id="path220" />
      </g>
      <g
         id="g222">
        <path
           d="m 75.6312,404.803 c -6.6008,7.9954 -4.3977,5.381 -15.6016,9.6885 -5.436,2.09 -11.071,6.8301 -12.0283,12.9597 -1.0343,-4.4359 1.8397,-13.4294 4.1536,-16.2609 5.6206,-6.8791 11.9421,-7.6555 20.5163,-8.0082 0.2761,0.0102 0.5083,-0.2052 0.5185,-0.4813 0.0102,-0.2761 -0.2052,-0.5082 -0.4813,-0.5184 -4.5675,0.1868 -5.0451,0.003 -9.6687,1.0814 -10.8046,2.5205 -17.1179,12.8625 -15.9863,23.7948 0.7555,7.2981 3.0436,-2.4817 3.0612,-2.5157 7.107,-13.7979 16.6192,-5.8706 26.0668,-18.9043 0.231,-0.1522 0.2948,-0.4623 0.1429,-0.693 -0.152,-0.2308 -0.4624,-0.2948 -0.6931,-0.1426"
           style="fill:#1a1a18;fill-opacity:1;fill-rule:evenodd;stroke:none"
           id="path224" />
      </g>
      <g
         id="g226">
        <path
           d="m 77.2308,407.4497 c -5.5763,10.8984 -6.9024,9.485 -16.8117,11.7238 -3.5808,0.809 -7.7216,3.7364 -10.3853,6.3233 -1.0727,1.0423 -1.4661,1.4357 -2.3307,2.6702 -0.1182,0.2494 -0.0119,0.5479 0.2378,0.6661 0.2495,0.1185 0.548,0.0119 0.6662,-0.2375 0.8396,-1.1721 1.2478,-1.4151 2.1356,-2.3925 2.399,-2.641 7.5008,-5.7163 10.6869,-6.1863 9.9318,-1.4652 11.9911,-2.9409 16.7315,-12.1989 0.1018,-0.2571 -0.0241,-0.5476 -0.2812,-0.6491 -0.2568,-0.1018 -0.5474,0.0241 -0.6491,0.2809"
           style="fill:#1a1a18;fill-opacity:1;fill-rule:evenodd;stroke:none"
           id="path228" />
      </g>
      <g
         id="g230">
        <path
           d="m 71.3741,393.41 c -1.6254,-6.0245 -14.326,-11.4537 -15.2132,-14.6058 -0.0434,-0.273 -0.2997,-0.4592 -0.5726,-0.4159 -0.2727,0.0434 -0.459,0.2997 -0.4156,0.5726 1.0783,3.8844 13.7409,9.2265 15.2087,14.5735 0.0343,0.2741 0.2843,0.4686 0.5584,0.4343 0.2742,-0.0346 0.4689,-0.2846 0.4343,-0.5587"
           style="fill:#1a1a18;fill-opacity:1;fill-rule:evenodd;stroke:none"
           id="path232" />
      </g>
      <g
         id="g234">
        <path
           d="m 58.0714,375.8403 c -2.4792,3.8494 -5.5735,3.1289 -3.6448,-2.452 0.0255,-0.0737 0.0386,-0.1533 0.0377,-0.2327 0.1619,-0.157 0.2018,-0.4096 0.0825,-0.6126 -0.1403,-0.2381 -0.447,-0.3175 -0.6848,-0.1774 -0.3396,0.2233 -0.5667,0.4651 -0.4366,0.8127 -2.4208,5.2962 1.8462,8.8494 5.5162,3.1558 0.1364,-0.2404 0.0522,-0.5457 -0.1882,-0.682 -0.2404,-0.1364 -0.5457,-0.0522 -0.682,0.1882"
           style="fill:#1a1a18;fill-opacity:1;fill-rule:evenodd;stroke:none"
           id="path236" />
      </g>
      <g
         id="g238">
        <path
           d="m 53.7471,374.0253 c -1.1916,-5.3981 4.1933,-20.9776 10.1469,-17.6726 1.6691,0.9263 4.3084,4.3523 7.4058,6.525 6.4871,4.5508 10.5673,7.8367 11.6419,15.8647 -0.0221,0.0743 -0.0411,0.1318 -0.0635,0.2134 -0.0592,0.2699 0.1114,0.5366 0.3813,0.5959 0.2699,0.0595 0.5366,-0.1111 0.5961,-0.381 0.0462,-0.1599 0.0924,-0.2537 0.089,-0.434 -0.1465,-7.6226 -6.5664,-12.8117 -12.1532,-16.7303 -3.1536,-2.2122 -5.4922,-5.4641 -7.4092,-6.5271 -7.0983,-3.9359 -12.968,12.6782 -11.558,18.932 0.1066,0.2552 0.3997,0.3751 0.6545,0.2685 0.2551,-0.1066 0.3753,-0.3997 0.2684,-0.6545"
           style="fill:#1a1a18;fill-opacity:1;fill-rule:evenodd;stroke:none"
           id="path240" />
      </g>
      <g
         id="g242">
        <path
           d="m 81.4589,381.5481 c 2.4676,-2.7422 1.3153,-2.2626 4.2103,-2.3476 0.2761,-0.008 0.4935,-0.2384 0.4853,-0.5148 -0.0082,-0.2761 -0.2387,-0.4935 -0.5148,-0.4853 l -0.2134,0.006 c -2.7615,-0.278 -2.7635,0.5072 -4.64,2.6011 -0.2047,0.186 -0.2197,0.502 -0.0338,0.7067 0.1857,0.2044 0.5021,0.2197 0.7064,0.0337"
           style="fill:#1a1a18;fill-opacity:1;fill-rule:evenodd;stroke:none"
           id="path244" />
      </g>
      <g
         id="g246">
        <path
           d="m 86.25,385.6011 c -5.7787,0.4575 -0.9657,-4.9113 2.3582,-2.5163 2.0761,1.4955 -1.1753,1.9896 -2.3582,2.5163 z m -0.2562,1.0106 c 0.055,0.0153 0.1137,0.0212 0.1738,0.0167 0.0802,-0.0108 0.151,-0.0221 0.2145,-0.0377 l 0.0539,-0.003 c 0.1236,-0.0196 0.2296,-0.0828 0.3042,-0.1718 3.2419,-0.7373 4.9861,-2.9307 2.2039,-4.2959 -5.5976,-2.7459 -9.3507,4.699 -2.9503,4.4921"
           style="fill:#1a1a18;fill-opacity:1;fill-rule:evenodd;stroke:none"
           id="path248" />
      </g>
      <g
         id="g250">
        <path
           d="m 65.3879,374.1925 c 3.3404,3.5555 8.2117,1.2036 5,-3.6298 -0.1675,-0.2196 -0.4816,-0.2622 -0.7013,-0.0944 -0.2196,0.1676 -0.2619,0.4817 -0.0943,0.7013 2.5038,3.7633 -1.0469,4.9284 -3.4246,2.3959 -0.1732,-0.2152 -0.4881,-0.2495 -0.7033,-0.0763 -0.2154,0.1732 -0.2494,0.4879 -0.0765,0.7033"
           style="fill:#1a1a18;fill-opacity:1;fill-rule:evenodd;stroke:none"
           id="path252" />
      </g>
      <g
         id="g254">
        <path
           d="m 55.8641,376.0421 c 1.0848,-0.7577 0.9748,-1.0695 1.1987,-2.3173 0.0811,-0.2642 -0.0674,-0.544 -0.3316,-0.6251 -0.2642,-0.081 -0.544,0.0675 -0.6251,0.3317 -0.1749,0.9247 -0.0258,1.2478 -0.737,1.7413 -0.2401,0.1367 -0.324,0.4422 -0.1873,0.6823 0.1366,0.2401 0.4422,0.324 0.6823,0.1871"
           style="fill:#1a1a18;fill-opacity:1;fill-rule:evenodd;stroke:none"
           id="path256" />
      </g>
      <g
         id="g258">
        <path
           d="m 68.2291,371.6943 c -0.6154,0.0224 -1.1381,-0.4116 -1.5225,-0.8453 -0.1406,-0.2381 -0.4473,-0.3172 -0.6852,-0.1766 -0.2378,0.1406 -0.3169,0.4473 -0.1765,0.6852 0.7562,0.8824 1.3889,1.3776 2.5727,1.3192 0.2713,-0.0519 0.4493,-0.3141 0.3971,-0.5856 -0.0521,-0.2713 -0.3144,-0.449 -0.5856,-0.3969"
           style="fill:#1a1a18;fill-opacity:1;fill-rule:evenodd;stroke:none"
           id="path260" />
      </g>
      <g
         id="g262">
        <path
           d="m 75.7074,365.2336 c 2.81,-4.1981 6.0767,-0.8606 6.9991,3.2431 0.4291,1.9089 0.4756,2.1736 0.9025,4.2166 0.0434,0.2727 0.2996,0.4589 0.5726,0.4158 0.2727,-0.0434 0.4589,-0.2996 0.4158,-0.5726 -0.4997,-2.3947 -0.4164,-2.0517 -0.8968,-4.1746 -1.2002,-5.2988 -5.5163,-8.617 -8.8634,-3.6221 -0.1363,0.2404 -0.0522,0.5457 0.1882,0.682 0.2404,0.1364 0.5457,0.0522 0.682,-0.1882"
           style="fill:#1a1a18;fill-opacity:1;fill-rule:evenodd;stroke:none"
           id="path264" />
      </g>
      <g
         id="g266">
        <path
           d="m 83.704,370.4848 c 3.5574,-0.7827 8.6502,-0.4601 7.8451,4.6831 -0.1054,0.1355 -0.1383,0.322 -0.07,0.493 0.1023,0.2568 0.3935,0.3815 0.65,0.2792 0.2676,-0.1443 0.3436,-0.2931 0.4096,-0.5939 1.23,-5.6018 -4.5521,-6.8258 -9.0992,-5.8263 -0.2667,0.0731 -0.4235,0.3484 -0.3504,0.6148 0.0732,0.2665 0.3484,0.4232 0.6149,0.3501"
           style="fill:#1a1a18;fill-opacity:1;fill-rule:evenodd;stroke:none"
           id="path268" />
      </g>
      <g
         id="g270">
        <path
           d="m 98.0694,394.3397 c 7.0546,-12.9472 13.4322,-17.2907 28.0695,-13.6014 10.4227,2.6271 14.9664,2.0783 25.2731,-1.7876 0.2413,-0.1346 0.328,-0.439 0.1934,-0.6806 -0.1347,-0.2412 -0.4391,-0.3279 -0.6806,-0.1933 -10.067,3.7573 -14.4105,4.2441 -24.5305,1.694 -15.2022,-3.8305 -21.9594,0.7926 -29.2581,14.2081 -0.0995,0.2577 0.0287,0.5474 0.286,0.6471 0.2577,0.0995 0.5474,-0.0286 0.6472,-0.2863"
           style="fill:#1a1a18;fill-opacity:1;fill-rule:evenodd;stroke:none"
           id="path272" />
      </g>
      <g
         id="g274">
        <path
           d="m 151.3638,378.7954 c 5.7119,-5.4609 6.7516,-6.9582 8.0612,-14.9329 1.6563,-10.0851 -6.2674,-17.7956 -2.4106,-28.6143 0.112,-0.2526 -0.002,-0.5483 -0.2545,-0.6602 -0.2526,-0.112 -0.5482,0.002 -0.6602,0.2545 -4.0473,11.3508 3.9484,19.0375 2.355,28.7762 -1.2727,7.7797 -2.1917,9.1151 -7.7468,14.421 -0.2086,0.1811 -0.231,0.4969 -0.0499,0.7058 0.1811,0.2086 0.4972,0.2308 0.7058,0.0499"
           style="fill:#1a1a18;fill-opacity:1;fill-rule:evenodd;stroke:none"
           id="path276" />
      </g>
      <g
         id="g278">
        <path
           d="m 150.8431,378.917 c 2.0985,6.3751 11.7539,13.6877 16.9753,8.4484 4.1236,-4.1375 -2.9364,-17.2471 1.8422,-23.5627 l 0.4108,-0.4609 c -0.5219,2.6917 -1.438,2.2895 -0.0814,8.8058 1.0157,4.8795 4.54,15.9701 -3.6045,18.4697 -7.0118,2.1523 -14.5741,-5.5023 -16.1337,-11.5245 -0.0434,-0.273 -0.2996,-0.459 -0.5726,-0.4159 -0.2727,0.0434 -0.4589,0.2996 -0.4158,0.5726 1.7821,6.8292 10.6268,15.497 18.2596,12.0042 10.1585,-4.6488 1.9588,-19.3564 2.9489,-26.1834 0,0 1.5965,-4.7194 -0.1091,-3.5322 -7.7414,5.3878 0.5791,21.2799 -3.2502,25.1183 -4.6154,4.6262 -13.4309,-2.4103 -15.2813,-7.8959 -0.0431,-0.2729 -0.2996,-0.4592 -0.5723,-0.4158 -0.273,0.0431 -0.4593,0.2996 -0.4159,0.5723"
           style="fill:#1a1a18;fill-opacity:1;fill-rule:evenodd;stroke:none"
           id="path280" />
      </g>
      <g
         id="g282">
        <path
           d="m 168.2768,364.72 c -1.7068,-8.6205 2.9599,-7.8137 9.3449,-9.4445 -0.1661,2.3374 -2.6713,9.2528 -6.8283,8.9773 -0.2722,-0.0485 -0.5318,0.133 -0.5803,0.4048 -0.0485,0.2721 0.1329,0.5318 0.4048,0.5803 6.2782,0.3954 9.4946,-11.7876 7.2275,-11.0393 -6.2737,2.0707 -12.5734,0.5105 -10.5568,10.6781 0.0434,0.273 0.2996,0.4592 0.5723,0.4159 0.273,-0.0434 0.4592,-0.2997 0.4159,-0.5726 z m 9.7582,-9.5534 0.2047,-0.0552 c -0.0638,0.0368 -0.1344,0.0544 -0.2047,0.0552"
           style="fill:#1a1a18;fill-opacity:1;fill-rule:evenodd;stroke:none"
           id="path284" />
      </g>
      <g
         id="g286">
        <path
           d="m 87.2022,369.7787 c 5.8099,-6.7428 -6.5665,-13.8702 4.699,-23.4992 4.5176,-3.8617 11.0509,-4.1851 7.2224,-13.125 -0.9346,-2.1818 -7.2159,-11.2451 -4.0944,-12.4574 2.3879,-0.9275 9.4808,-2.573 10.0814,1.4425 0.5301,3.5459 -1.0012,18.2206 4.0468,18.8805 13.5575,1.7725 10.0925,-0.9658 25.0441,4.9643 10.9539,4.3444 13.8024,2.0052 13.7914,-11.7525 -0.003,-4.1496 -0.4116,-6.4119 -0.9258,-10.47 -0.0431,-0.273 -0.2994,-0.4589 -0.5723,-0.4159 -0.273,0.0434 -0.459,0.2997 -0.4159,0.5726 0.5069,4.0006 0.9097,6.2329 0.9134,10.3218 0.0119,13.1786 -2.3145,14.8255 -12.388,10.8281 -15.0775,-5.9834 -11.7012,-3.2647 -25.3517,-5.0442 -3.7797,-0.493 -2.7402,-15.293 -3.1538,-18.0414 -0.7347,-4.8827 -8.3693,-3.4112 -11.4392,-2.2156 -3.8523,1.5001 0.8708,8.869 1.9437,10.8437 6.0747,11.1809 0.7492,9.6604 -5.3325,14.8915 -11.7825,10.1338 0.3914,17.5807 -4.7733,23.5658 -0.1961,0.1945 -0.1976,0.5114 -0.0028,0.7075 0.1947,0.1962 0.5113,0.1973 0.7075,0.003"
           style="fill:#1a1a18;fill-opacity:1;fill-rule:evenodd;stroke:none"
           id="path288" />
      </g>
      <g
         id="g290">
        <path
           d="m 95.169,326.0307 c 2.8993,-1.0845 6.8714,-1.9927 9.9856,-1.4468 0.1868,0.1103 0.4311,0.0893 0.597,-0.0669 0.2009,-0.1893 0.2106,-0.5059 0.0212,-0.7072 -1.5211,-1.2804 -9.4909,0.7384 -11.0134,1.3082 -0.2523,0.1131 -0.3648,0.409 -0.2517,0.6613 0.1131,0.252 0.409,0.3645 0.6613,0.2514"
           style="fill:#1a1a18;fill-opacity:1;fill-rule:evenodd;stroke:none"
           id="path292" />
      </g>
      <g
         id="g294">
        <path
           d="M 88.9651,348.51 C 86.826,335.2586 81.237,337.8353 77.0734,329.8178 c -1.7189,-3.3103 6.3655,-6.7666 8.6817,-5.1049 3.7477,2.6887 3.7931,15.2274 9.1222,18.9204 0.2415,0.1341 0.5459,0.0471 0.68,-0.1944 0.1341,-0.2418 0.0471,-0.5463 -0.1944,-0.6803 -4.7934,-3.3293 -4.8799,-15.8891 -9.021,-18.8561 -3.0889,-2.2133 -12.4427,1.9519 -10.1514,6.3859 4.1949,8.1184 9.7092,5.5074 11.7864,18.3784 0.0431,0.273 0.2996,0.4589 0.5723,0.4158 0.273,-0.0433 0.459,-0.2996 0.4159,-0.5726"
           style="fill:#1a1a18;fill-opacity:1;fill-rule:evenodd;stroke:none"
           id="path296" />
      </g>
      <g
         id="g298">
        <path
           d="m 88.4636,327.3673 c -3.956,-0.3447 -8.081,1.5043 -10.6401,4.5144 -0.15,0.2319 -0.0833,0.5417 0.1485,0.6917 0.2322,0.1499 0.5417,0.0836 0.6917,-0.1485 2.2637,-2.6462 6.0786,-4.3765 9.5712,-4.0836 0.269,0.0632 0.5383,-0.1038 0.6012,-0.3728 0.0632,-0.269 -0.1035,-0.5383 -0.3725,-0.6012"
           style="fill:#1a1a18;fill-opacity:1;fill-rule:evenodd;stroke:none"
           id="path300" />
      </g>
      <g
         id="g302">
        <path
           d="m 131.6449,344.0568 c 6.4284,-13.1505 -7.2402,-18.1335 6.5673,-18.6347 5.4329,-0.1972 2.5903,4.4246 1.8763,7.4362 -0.9284,3.9163 -2.4874,11.0089 -0.0142,14.8456 0.1786,0.2112 0.4941,0.2375 0.7053,0.0589 0.2109,-0.1783 0.2372,-0.4938 0.0589,-0.7049 -2.1674,-3.3815 -0.5618,-10.6535 0.2231,-13.9672 0.7376,-3.1133 3.8497,-8.9118 -2.8874,-8.6683 -14.9541,0.5405 -1.3909,6.8592 -7.3936,19.1304 -0.1392,0.2384 -0.0584,0.5448 0.1803,0.684 0.2384,0.1392 0.5448,0.0587 0.684,-0.18"
           style="fill:#1a1a18;fill-opacity:1;fill-rule:evenodd;stroke:none"
           id="path304" />
      </g>
      <g
         id="g306">
        <path
           d="m 132.5259,330.9925 c 2.5248,-1.8485 5.4664,-1.319 8.4215,-0.9159 0.2721,0.0485 0.5317,-0.1329 0.5802,-0.4048 0.0482,-0.2721 -0.1329,-0.5317 -0.405,-0.5802 -3.5048,-0.4779 -6.3604,-0.9714 -9.3014,1.1908 -0.1961,0.1945 -0.1973,0.5114 -0.002,0.7073 0.1944,0.1961 0.5113,0.1973 0.7072,0.003"
           style="fill:#1a1a18;fill-opacity:1;fill-rule:evenodd;stroke:none"
           id="path308" />
      </g>
      <g
         id="g310">
        <path
           d="m 146.9211,324.2767 c 2.1152,-2.867 11.6748,-2.1558 11.802,0.3449 0.1012,1.9894 -2.1863,8.4257 -2.7858,10.8057 -0.007,0.2761 0.2117,0.5054 0.4881,0.5122 0.2761,0.007 0.5054,-0.2117 0.5122,-0.4878 0.6463,-2.4741 3.2477,-9.3013 2.6861,-11.5693 -0.5615,-2.2678 -10.6259,-4.097 -13.5728,-0.0995 -0.1364,0.2403 -0.0522,0.5456 0.1882,0.682 0.2404,0.1363 0.5457,0.0521 0.682,-0.1882"
           style="fill:#1a1a18;fill-opacity:1;fill-rule:evenodd;stroke:none"
           id="path312" />
      </g>
      <g
         id="g314">
        <path
           d="m 147.7191,327.8988 c 2.5551,-1.3663 8.1759,-1.5585 10.5848,0.335 0.1976,0.1931 0.5142,0.1894 0.7072,-0.008 0.1931,-0.1976 0.1894,-0.5145 -0.008,-0.7075 -2.8964,-2.2876 -8.8676,-2.0764 -11.9395,-0.375 -0.2089,0.1811 -0.231,0.4972 -0.0499,0.7058 0.1809,0.2086 0.4969,0.231 0.7056,0.0499"
           style="fill:#1a1a18;fill-opacity:1;fill-rule:evenodd;stroke:none"
           id="path316" />
      </g>
    </g>
  </g>
</svg>
