<?xml version="1.0" encoding="UTF-8" standalone="no"?>
<svg
   xmlns:dc="http://purl.org/dc/elements/1.1/"
   xmlns:cc="http://creativecommons.org/ns#"
   xmlns:rdf="http://www.w3.org/1999/02/22-rdf-syntax-ns#"
   xmlns:svg="http://www.w3.org/2000/svg"
   xmlns="http://www.w3.org/2000/svg"
   xmlns:sodipodi="http://sodipodi.sourceforge.net/DTD/sodipodi-0.dtd"
   xmlns:inkscape="http://www.inkscape.org/namespaces/inkscape"
   width="117.88818mm"
   height="145.9886mm"
   viewBox="0 0 117.88818 145.9886"
   version="1.1"
   id="svg28935"
   inkscape:version="1.0.2 (e86c8708, 2021-01-15)"
   sodipodi:docname="lion.svg">
  <defs
     id="defs28929" />
  <sodipodi:namedview
     id="base"
     pagecolor="#ffffff"
     bordercolor="#666666"
     borderopacity="1.0"
     inkscape:pageopacity="0.0"
     inkscape:pageshadow="2"
     inkscape:zoom="1.1183465"
     inkscape:cx="200.39043"
     inkscape:cy="252.98577"
     inkscape:document-units="mm"
     inkscape:current-layer="layer1"
     inkscape:document-rotation="0"
     showgrid="false"
     inkscape:window-width="1440"
     inkscape:window-height="855"
     inkscape:window-x="0"
     inkscape:window-y="23"
     inkscape:window-maximized="0" />
  <metadata
     id="metadata28932">
    <rdf:RDF>
      <cc:Work
         rdf:about="">
        <dc:format>image/svg+xml</dc:format>
        <dc:type
           rdf:resource="http://purl.org/dc/dcmitype/StillImage" />
        <dc:title />
      </cc:Work>
    </rdf:RDF>
  </metadata>
  <g
     inkscape:label="Слой 1"
     inkscape:groupmode="layer"
     id="layer1"
     transform="translate(-7.2017334,-9.9206184)">
    <g
       id="g2540"
       transform="matrix(1.4890283,0,0,-1.4890283,-446.53579,219.13896)">
      <path
         d="m 313.0605,98.456 c -0.6596,-0.2945 -0.7897,0.154 -1.4567,0.6764 -0.6012,0.4714 -2.4987,2.4664 -2.7873,3.2281 -0.9414,2.4862 -1.9086,4.7877 1.3261,5.3977 1.7535,0.3308 5.1411,-0.5947 6.7475,-1.3241 1.226,-0.5564 1.8017,-2.3071 0.8728,-3.592 -1.1571,-1.6005 -2.0636,-1.6489 -3.4517,-2.8993 -0.6375,-0.574 -0.9879,-0.5961 -1.3675,-1.2767 -0.0476,-0.0853 -0.1111,-0.3118 0.1168,-0.2101"
         style="fill:#2b2a29;fill-opacity:1;fill-rule:evenodd;stroke:none"
         id="path2542" />
      <path
         d="m 379.6551,90.0626 c -0.1496,0.3739 1.7743,1.9092 2.0983,2.9708 0.657,2.1526 1.5678,-1.0863 1.9122,-1.8284 0.6667,-1.4366 -0.2602,-3.5955 -1.228,-4.7217 -0.4127,-0.4802 -1.1185,-1.8419 -1.944,-2.3686 -0.3347,-0.2137 1.1968,-0.845 0.5437,-2.1608 -0.5774,-1.1637 -2.1271,-2.5662 -3.5915,-2.5662 -2.8358,0 -3.683,0.5252 -5.2599,2.9074 -0.8326,1.2575 0.1034,5.6212 1.2333,6.9764 1.7626,2.1146 1.4891,1.7929 3.6998,3.3746 2.7303,1.9534 2.5991,0.004 2.6904,-2.3119 0.005,-0.1165 -0.165,-0.2446 -0.1543,-0.2716"
         style="fill:#69441e;fill-opacity:1;fill-rule:evenodd;stroke:none"
         id="path2544" />
      <path
         d="m 306.7299,102.0266 0.2211,-0.8499 c 0.0638,0.1179 1.4363,0.7084 1.6586,0.7762 0.5261,1.3694 -3.1952,4.6811 1.7903,5.6162 0.8533,0.1599 1.8936,1.0568 2.4959,1.6631 0.038,0.0383 0.4885,0.3283 0.5517,0.3504 0.2114,0.7333 2.7,0.7282 1.7903,3.1663 -0.4572,1.2262 0.2614,2.2671 1.3037,2.8638 1.2733,0.7291 1.5069,0.6656 2.3661,2.1512 0.2585,0.4471 0.2914,0.7438 0.3554,1.241 0.6095,1.9954 2.1257,1.5787 3.6953,1.3941 0.8875,-0.104 0.8671,-1.0718 2.5092,-0.0433 1.4686,0.9195 4.7466,1.0751 6.4542,0.6735 0.6389,-0.1506 2.5858,-1.2759 3.1703,-1.7655 1.3804,-1.1559 2.4111,-2.1531 3.0183,-3.9075 0.0269,-0.0771 0.1808,-0.5213 0.2078,-0.5899 0.43,-1.7685 0.373,-2.5475 0.2256,-4.2429 -0.0958,-1.1064 -1.7878,-1.6396 0.18,-2.1203 1.5602,-0.3813 2.9588,-1.4349 3.1451,-3.0189 0.0399,-0.3419 0.189,-0.7537 0.189,-1.1818 0.0703,-0.7625 0.4788,-1.2458 0.4666,-2.4879 -0.0125,-1.2958 0.3147,-1.9044 -0.0933,-3.4209 -0.4949,-1.8394 -1.6568,-5.0102 -3.1019,-6.2371 -0.1792,-0.1522 -0.4224,-0.4742 -0.5678,-0.5731 -0.76,-2.4412 -7.5016,-6.0154 -9.5726,-7.966 -1.8811,-1.7716 -2.4911,-2.4369 -4.1315,-4.265 -0.5797,-0.646 -3.0342,3.6071 -3.8613,4.3113 -2.6958,2.2937 -1.6127,0.5887 -4.4572,1.5919 -6.3545,2.2413 -1.1685,5.7693 -5.4624,5.0896 -0.6916,-0.1097 0.0644,-3.6082 0.7622,-4.6505 0.6866,-1.0247 2.5787,-6.9191 3.4512,-7.1207 0.0927,-0.4481 1.2351,-0.691 2.001,-0.1136 0.5995,0.4521 2.2657,-2.2235 3.7423,-2.9177 0.6429,-0.3025 2.9231,-2.2646 3.3746,-3.0067 0.5035,-0.8283 4.0459,-2.5574 4.519,-1.9851 3.4453,4.1706 4.2546,5.2849 9.1319,7.8936 4.2332,2.2638 5.5632,3.1195 8.9509,6.3544 5.9701,5.7011 -1.3252,3.3109 8.9048,-1.2277 2.9375,-1.3033 1.2296,-0.1029 1.0627,2.7205 -0.0468,0.7939 0.4337,8.3182 1.0411,8.2099 0.476,-0.085 0.7305,-1.9485 2.5362,0.4377 0.0808,0.1066 1.8451,6.8987 1.8451,7.0336 -0.0377,0.2336 0.4878,9.152 0.7937,9.3886 1.2129,0.9392 1.5655,-2.6679 1.8017,4.7481 0.0167,0.5275 -1.3488,6.5866 -2.3142,7.9421 -1.0866,1.5256 -2.6357,5.2937 -3.9977,6.6546 -3.4237,3.4211 -4.3283,4.4206 -9.3719,5.4303 -2.5747,0.5154 -5.8244,0.3838 -8.5726,0.3838 0.0859,0.9774 1.3833,1.6753 0.6948,2.6907 -0.8195,1.2078 -4.3109,-1.8632 -4.949,-2.9852 -0.6826,-1.1993 -1.5625,0.6591 -2.463,1.6169 -1.7297,1.8397 -5.2078,2.7374 -7.7854,2.3423 -5.5366,-0.849 -2.3009,-0.0562 -6.7119,-2.3831 -2.4482,-1.2915 -6.097,-5.5415 -7.8879,-7.7139 l -0.0678,-0.1602 c -0.3435,-0.6335 -1.4125,-2.1314 -1.9445,-2.9798 -0.5426,-0.8651 -2.3908,-4.354 -1.7717,-5.4003 0.2047,-0.3458 1.607,-0.3588 0.1191,-2.8984 -1.145,-1.9545 -2.9863,-8.1201 -1.9707,-10.3654 0.341,-0.7535 -0.4739,-4.472 0.5295,-6.1574"
         style="fill:#69441e;fill-opacity:1;fill-rule:evenodd;stroke:none"
         id="path2546" />
      <path
         d="m 318.1439,104.2954 c -1.5936,3.2868 -2.4593,2.5444 -5.7549,3.5408 -1.372,0.4149 -1.9281,-0.4329 0.3651,1.5806 0.22,0.1933 1.5693,1.0757 2.5248,1.133 0.5088,0.0306 0.8629,-0.3161 0.9723,-0.8076 0.5967,-0.0831 1.5786,-1.6441 4.0074,-0.4196 0.1629,0.0823 0.2545,0.4082 0.4149,0.0633 0.3725,-0.8008 0.8623,-3.1165 4.8039,-2.7944 0.7574,0.0618 4.2163,1.7274 4.4215,3.0937 0.6049,4.0297 1.309,4.6086 -2.9234,6.1628 -0.5301,0.1945 -3.6972,1.0304 -4.0532,0.4051 -0.0114,-0.0196 -2.0917,-1.1021 -2.1609,-0.7376 -0.2106,1.1049 -2.8309,0.8184 -2.2737,1.3586 0.2988,0.3133 0.3289,1.7371 1.4029,2.8406 1.5744,1.6169 2.141,1.3218 3.1774,0.8728 0.4201,-0.1822 0.794,-0.8957 1.4777,-0.9255 0.411,-0.0176 1.006,0.4615 1.5894,0.7475 3.012,1.4774 7.3581,0.9845 9.6669,-1.5817 1.0925,-1.2141 1.628,-1.6512 2.3174,-3.3993 0.6148,-1.5596 0.642,-5.3328 0.03,-6.7901 0.8589,-0.5205 1.8029,-0.0326 3.1258,-2.3528 0.612,-1.0726 0.9819,-3.7723 1.1545,-3.8528 -0.5227,-4.0275 0.9607,-2.9662 -1.5755,-7.6445 -2.3071,-4.2554 -1.764,-2.8982 -4.1326,-5.4105 0.0473,-0.1205 -5.4391,-4.2452 -5.7033,-4.3628 -1.4238,-0.9079 -2.7978,-1.8213 -4.0286,-3.0121 -1.624,-1.5715 -1.3068,-1.2365 -1.999,-2.9642 -0.275,-0.6863 -3.1737,3.9257 -3.8047,4.5403 -2.5721,2.5041 -7.6524,0.9113 -8.0747,6.1628 -0.0683,0.8478 -2.4568,-0.0919 -4.0536,0.8654 -0.9459,0.5669 -2.0511,0.8257 -2.9335,2.001 -0.5984,0.7962 -1.7266,5.7982 -0.974,6.292 0.9139,0.6001 2.912,4.864 4.5456,2.2286 0.2041,-0.3291 2.7403,-3.2289 3.3639,-2.7524 0.4912,0.3753 4.0124,3.367 4.1406,3.6799 0.2511,0.6137 0.9436,1.5616 0.9436,2.2391"
         style="fill:#e6ad27;fill-opacity:1;fill-rule:evenodd;stroke:none"
         id="path2548" />
      <path
         d="m 324.9147,71.9237 c 0.6137,-0.5093 3.8594,-3.0585 4.6284,-1.9043 0.7322,1.099 2.7281,4.8736 3.8175,5.6458 2.9454,2.0874 2.6909,0.8606 5.3637,3.1416 0.2571,0.2197 3.9628,1.8593 7.6283,5.0894 0.6985,0.9087 2.4372,1.9992 2.6365,3.1756 0.3268,1.9298 1.4261,0.2098 1.9743,-0.4924 2.9381,-3.763 6.6884,-2.9732 9.8802,-5.6401 1.3751,-1.1491 3.2887,-1.3821 4.1298,-4.0765 0.2735,-0.8764 1.4601,-1.9981 1.3839,-2.965 l 2.5619,-10.9165 1.5316,-8.5964 1.0564,-2.3983 c 0.5891,-0.5032 2.2527,-1.4177 2.6711,-0.5582 0.2339,0.4799 1.912,0.9091 3.2397,3.5912 2.0452,4.1318 1.7193,10.0202 -1.1497,13.6882 -0.1823,0.2331 -2.5407,2.9725 -2.6444,2.9963 -0.9065,1.1432 -2.7987,4.6641 -2.7987,6.1628 0,1.3527 1.8933,3.7975 3.602,2.747 1.9332,-1.1885 1.1999,0.0451 0.005,-1.4624 -1.2512,-1.5789 2.4148,-5.4813 3.3797,-6.7632 1.59,-2.1126 3.0972,-4.1091 3.9807,-6.639 0.9777,-2.7998 0.6628,-2.1101 0.6628,-4.805 1.4414,-2.0219 -3.1992,-11.8017 -4.1565,-12.2224 -0.4087,-3.1329 -6.7442,-5.3167 -9.621,-5.3167 -3.9167,0 -4.777,0.279 -9.0485,-0.1352 -4.4127,-0.4277 -20.8239,-0.7512 -24.6189,0.0216 -3.9943,0.8129 -6.9171,0.3381 -8.9135,3.9804 -0.5006,0.9133 -0.5811,-0.3566 -1.9302,1.0343 -1.1596,1.196 1.0914,0.6404 -2.207,0.9346 -0.5119,0.0457 0.5853,2.0523 -1.2651,0.9845 -0.7829,0.324 0.3682,2.5826 -1.2439,1.6384 -1.1273,-0.6599 0.7062,8.1978 4.3858,4.3858 0.8697,-0.9009 3.3282,1.1123 2.3811,3.5447 -0.0785,0.2018 -1.3034,11.8406 -1.3034,12.1294"
         style="fill:#e6ad27;fill-opacity:1;fill-rule:evenodd;stroke:none"
         id="path2550" />
      <path
         d="m 331.3094,103.3588 c 0.2381,0.3688 -1.2401,-0.2922 -1.4542,-0.4138 -0.655,-0.3719 -0.72,-1.3159 -0.2151,-1.5985 2.1577,-1.2075 1.7093,-1.2991 4.4657,-1.402 0.4581,-0.017 1.6503,0.5468 1.6996,1.2671 0.0448,0.6539 -0.1377,1.0593 -0.8297,1.514 -1.1018,0.7237 -2.3122,0.5816 -3.5399,0.756 l -0.1683,-0.0145 z"
         style="fill:#ed4e4e;fill-opacity:1;fill-rule:evenodd;stroke:none"
         id="path2552" />
    </g>
    <g
       id="g2554"
       transform="matrix(1.4890283,0,0,-1.4890283,-446.53579,219.13896)">
      <g
         id="g2556">
        <path
           d="m 312.2158,97.9047 c -1.9397,2.0441 -5.6894,5.1919 -4.3812,8.8248 1.1636,3.2321 13.7701,0.9196 10.0845,-3.8588 -0.2293,-0.2973 -4.7713,-4.8282 -5.1437,-5.0805 -0.0664,-0.0233 -0.135,-0.0253 -0.1987,-0.0102 -0.1301,-0.0309 -0.2722,0.0133 -0.3609,0.1247 z m 0.3898,0.6171 c 0.8507,0.7968 3.4529,3.4543 4.2647,4.267 4.3506,4.3546 -7.3134,5.6849 -8.2811,3.8928 -1.5631,-2.8953 2.3814,-6.48 4.0164,-8.1598"
           style="fill:#1a1a18;fill-opacity:1;fill-rule:evenodd;stroke:none"
           id="path2558" />
      </g>
      <g
         id="g2560">
        <path
           d="m 312.891,97.9617 c 0.9187,-8.1706 5.7232,-11.5044 14.0111,-8.9422 3.655,1.1299 5.3226,3.4294 5.6308,7.1291 0,0.1968 0.1593,0.3561 0.356,0.3561 0.1964,0 0.356,-0.1593 0.356,-0.3561 -0.3356,-4.0169 -2.1455,-6.5761 -6.1177,-7.8046 -8.7971,-2.721 -13.9757,0.9507 -14.9482,9.6177 0,0.1964 0.1593,0.3557 0.356,0.3557 0.1964,0 0.356,-0.1593 0.356,-0.3557"
           style="fill:#1a1a18;fill-opacity:1;fill-rule:evenodd;stroke:none"
           id="path2562" />
      </g>
      <g
         id="g2564">
        <path
           d="m 331.34,97.6564 c 1.3981,-1.3368 2.7037,-1.7924 3.5198,0.2075 0.0641,0.1856 0.267,0.2843 0.4527,0.2199 0.1857,-0.0643 0.2843,-0.267 0.22,-0.4527 -1.0412,-2.5489 -2.9027,-2.1897 -4.7208,-0.4518 -0.1319,0.1457 -0.1202,0.3708 0.0255,0.5026 0.1459,0.1318 0.371,0.1205 0.5028,-0.0255"
           style="fill:#1a1a18;fill-opacity:1;fill-rule:evenodd;stroke:none"
           id="path2566" />
      </g>
      <g
         id="g2568">
        <path
           d="m 330.8666,102.799 c -2.8125,-0.6355 0.6401,-3.318 3.6182,-2.4248 2.1263,0.6375 0.985,2.6289 -3.1751,2.6289 h -0.1582 c -0.051,-0.1094 -0.1562,-0.1902 -0.2849,-0.2041 z m -0.388,0.6247 c 0.0306,0.1659 0.1757,0.2912 0.3501,0.2912 6.8295,0 5.9632,-3.3954 3.863,-4.0218 -4.2313,-1.2623 -7.5311,2.7099 -4.2131,3.7306"
           style="fill:#1a1a18;fill-opacity:1;fill-rule:evenodd;stroke:none"
           id="path2570" />
      </g>
      <g
         id="g2572">
        <path
           d="m 308.8755,101.6552 c -5.7368,-2.353 -4.2047,-12.2006 3.8559,-10.9145 0.4967,0.0791 1.0245,0.2596 1.2972,0.7038 0.087,0.1764 0.3004,0.2489 0.4768,0.1619 0.1763,-0.087 0.2486,-0.3005 0.1615,-0.4768 -0.4141,-0.6766 -1.0145,-0.9621 -1.8071,-1.0893 -8.8738,-1.4242 -10.8425,9.5731 -4.1643,12.3037 0.1905,0.0496 0.3846,-0.0643 0.4345,-0.2545 0.0496,-0.1902 -0.0643,-0.3847 -0.2545,-0.4343"
           style="fill:#1a1a18;fill-opacity:1;fill-rule:evenodd;stroke:none"
           id="path2574" />
      </g>
      <g
         id="g2576">
        <path
           d="m 313.1629,90.11 c -0.9678,-4.7495 8.4189,-6.3726 8.7395,-3.8081 0,0.1965 0.1593,0.3561 0.356,0.3561 0.1964,0 0.3557,-0.1596 0.3557,-0.3561 -0.4192,-3.7641 -11.3173,-1.7597 -10.1307,4.0201 0.0584,0.1877 0.258,0.2923 0.4456,0.2339 0.1877,-0.0587 0.2925,-0.2583 0.2339,-0.4459"
           style="fill:#1a1a18;fill-opacity:1;fill-rule:evenodd;stroke:none"
           id="path2578" />
      </g>
      <g
         id="g2580">
        <path
           d="m 320.2642,84.6882 c 0.159,-0.2186 3.8727,-4.5182 4.5184,-5.2529 3.3186,3.9971 3.8804,4.3356 8.5247,7.6745 5.4621,3.9268 9.8824,9.5133 8.6581,16.7165 -0.8215,4.8333 -4.9966,5.3628 -9.0025,3.5319 -0.3391,-0.155 -0.4167,-0.176 -0.7682,-0.3055 -0.1902,-0.0494 -0.3847,0.0652 -0.4337,0.2554 -0.0493,0.1905 0.0652,0.3846 0.2554,0.4339 0.6202,0.2359 2.2393,1.0381 2.287,1.0545 3.8384,1.3153 7.6782,-0.8186 8.3639,-4.8512 1.2727,-7.4826 -3.2573,-13.3248 -8.947,-17.4155 -3.3211,-2.3879 -3.7684,-2.6918 -6.7595,-5.5213 -0.8002,-0.7568 -1.7413,-2.1835 -1.8457,-2.2643 -0.8818,-0.684 -5.2528,5.3677 -5.5595,5.8754 -0.019,0.1955 0.1244,0.3696 0.32,0.3886 0.1956,0.019 0.3696,-0.1245 0.3886,-0.32"
           style="fill:#1a1a18;fill-opacity:1;fill-rule:evenodd;stroke:none"
           id="path2582" />
      </g>
      <g
         id="g2584">
        <path
           d="m 321.1722,110.1991 c 0.3435,-5.2106 10.2968,-4.9226 8.5232,3.3134 -0.6188,2.8735 -6.7808,3.7015 -8.5496,0.7492 -0.0442,-0.0737 -0.0403,-0.0737 -0.0578,-0.1431 -0.0199,-0.1956 -0.1945,-0.3382 -0.3901,-0.3183 -0.1956,0.0198 -0.3382,0.1944 -0.3183,0.39 0.0536,0.2248 0.0397,0.2426 0.157,0.4402 2.0534,3.4631 9.0987,2.5742 9.8586,-0.9879 1.9608,-9.1868 -9.5181,-9.7486 -9.9351,-3.4435 0,0.1965 0.1593,0.356 0.356,0.356 0.1968,0 0.3561,-0.1595 0.3561,-0.356"
           style="fill:#1a1a18;fill-opacity:1;fill-rule:evenodd;stroke:none"
           id="path2586" />
      </g>
      <g
         id="g2588">
        <path
           d="m 320.9953,114.9372 c -0.0377,0.0944 -0.4961,1.1098 -0.4944,1.135 -0.007,-0.1071 -0.007,-0.1876 0.0703,-0.2721 -4.1363,3.1533 -8.1567,-5.2532 -2.3244,-6.2683 0.3804,-0.0663 1.4295,0.0601 1.6954,0.3345 -0.0111,-0.0175 -0.004,-0.006 -0.0176,-0.0363 0.1174,0.2526 0.2075,0.1628 0.3787,0.3609 0.0318,0.1494 0.1579,0.2667 0.3178,0.2803 0.1959,0.0168 0.3682,-0.1284 0.3849,-0.3242 -0.017,-0.3385 -0.2171,-0.5261 -0.483,-0.6838 -0.8949,-1.3878 -4.9025,-0.4252 -5.625,1.8256 -1.9636,6.1177 5.7024,6.6095 6.2696,4.8991 0.3821,-0.4068 0.2461,-0.4008 0.4587,-0.921 0.091,-0.1743 0.0235,-0.3892 -0.1508,-0.4805 -0.1744,-0.091 -0.3892,-0.0235 -0.4802,0.1508"
           style="fill:#1a1a18;fill-opacity:1;fill-rule:evenodd;stroke:none"
           id="path2590" />
      </g>
      <g
         id="g2592">
        <path
           d="m 320.135,110.2822 c 1.0306,1.6378 -2.2343,1.8788 -1.385,0.1573 0.1408,-0.286 0.6562,-0.4782 0.9739,-0.4802 0.0831,0.095 0.2135,0.1426 0.3447,0.1134 -5e-4,0.0726 0.021,0.146 0.0664,0.2095 z m 0.2134,-0.5545 c 0,-0.0269 -0.003,-0.0544 -0.009,-0.0816 -0.263,-0.8584 -2.086,-0.2228 -2.3034,0.6845 -0.7863,3.2811 4.377,2.2408 2.6787,-0.4617 -0.0856,-0.1196 -0.2313,-0.1707 -0.3662,-0.1412"
           style="fill:#1a1a18;fill-opacity:1;fill-rule:evenodd;stroke:none"
           id="path2594" />
      </g>
      <g
         id="g2596">
        <path
           d="m 319.845,109.44 c -0.8499,-0.129 -1.1441,0.1993 -1.1276,0.6435 -0.569,0.314 -0.872,0.8506 -0.2282,1.3943 0.2681,0.2262 0.5181,0.3048 0.7404,0.2832 0.1049,0.197 0.3138,0.2324 0.657,-0.0856 0.3456,0.1103 0.6764,-0.0261 0.8456,-0.6148 0.2169,-0.7549 -0.1188,-1.1217 -0.614,-1.2255 0.025,-0.1808 -0.0921,-0.3537 -0.2732,-0.3951"
           style="fill:#1a1a18;fill-opacity:1;fill-rule:evenodd;stroke:none"
           id="path2598" />
      </g>
      <g
         id="g2600">
        <path
           d="m 325.2416,106.3208 c -0.9159,0.0399 -1.4545,0.3682 -1.7158,0.8058 -0.3048,0.3688 -0.3753,0.8941 0.002,1.5744 0.0927,0.193 0.2149,0.3716 0.3595,0.5241 0.6684,0.7963 1.5123,0.612 2.0732,0.0681 0.2296,-0.2016 0.4573,-0.4802 0.6753,-0.8535 0.691,-1.1844 -0.1097,-1.8275 -1.1024,-1.9412 -0.0587,-0.1015 -0.1662,-0.1718 -0.2917,-0.1777"
           style="fill:#1a1a18;fill-opacity:1;fill-rule:evenodd;stroke:none"
           id="path2602" />
      </g>
      <g
         id="g2604">
        <path
           d="m 310.3427,108.1312 c 2.0483,1.6626 2.3332,2.0849 4.9206,2.9997 0.1959,-0.0168 0.3413,-0.1891 0.3246,-0.385 -0.0167,-0.1959 -0.1888,-0.341 -0.3847,-0.3245 -2.5735,-1.3751 -2.2206,-1.1396 -4.5561,-2.9339 -0.1774,-0.0839 -0.3897,-0.008 -0.4739,0.1695 -0.0842,0.1777 -0.008,0.3901 0.1695,0.4742"
           style="fill:#1a1a18;fill-opacity:1;fill-rule:evenodd;stroke:none"
           id="path2606" />
      </g>
      <g
         id="g2608">
        <path
           d="m 318.1482,116.9802 c 0.6233,2.3901 2.0077,5.3852 5.1216,3.9934 0.7166,-0.3206 0.9547,-0.8402 1.2657,-1.0548 3.7499,2.6561 7.5931,2.1045 11.4814,-0.5051 2.9435,-1.9755 3.5711,-7.7746 2.141,-10.9222 -0.1015,-0.1684 -0.32,-0.2228 -0.4887,-0.1216 -0.1683,0.1012 -0.2228,0.3201 -0.1216,0.4884 1.1911,2.6388 0.6874,5.6571 -0.4912,8.2126 -1.4559,3.1549 -8.1122,4.9172 -11.1161,3.0719 -2.8876,-1.7742 -0.5573,-0.8938 -2.963,0.1814 -2.6433,1.1818 -3.6564,-1.6708 -4.1497,-3.5561 -0.0587,-0.1876 -0.2582,-0.2922 -0.4459,-0.2338 -0.1876,0.0586 -0.2922,0.2582 -0.2335,0.4459"
           style="fill:#1a1a18;fill-opacity:1;fill-rule:evenodd;stroke:none"
           id="path2610" />
      </g>
      <g
         id="g2612">
        <path
           d="m 311.5922,89.9697 c 0.286,-2.5864 2.2615,-10.5891 5.2344,-11.6637 0.4,-0.1446 0.3155,0.6879 0.3164,0.9391 0.2078,-0.0624 0.4124,-0.1503 0.614,-0.2591 l 0.0975,0.2837 c -6e-4,-0.1046 -0.003,-0.2168 -0.0108,-0.3322 1.6158,-0.9252 3.047,-3.1748 4.5749,-4.3262 0.68,-0.5128 5.4725,-3.8597 6.5834,-4.1902 5.6035,9.8878 16.0376,8.9821 20.3281,17.998 0.0907,0.1905 -0.003,0.2112 0.1715,0.5071 0.1066,0.1656 0.3266,0.2132 0.4921,0.1069 0.1653,-0.1066 0.2132,-0.3268 0.1066,-0.4921 l -0.015,-0.0255 c 0.002,-0.0377 2e-4,-0.049 -0.0204,-0.1392 -1.391,-6.0752 -14.0497,-10.4352 -18.2991,-15.1078 -1.7084,-1.8788 -1.8108,-3.9081 -2.9968,-3.5215 -3.3809,1.1027 -8.7072,5.7297 -11.0166,8.5728 -0.1386,-0.5326 -0.4572,-0.9385 -1.1687,-0.6831 -3.3565,1.2047 -5.3841,9.4309 -5.7036,12.333 0,0.1967 0.1593,0.356 0.3561,0.356 0.1964,0 0.356,-0.1593 0.356,-0.356"
           style="fill:#1a1a18;fill-opacity:1;fill-rule:evenodd;stroke:none"
           id="path2614" />
      </g>
      <g
         id="g2616">
        <path
           d="m 335.8063,135.2917 c 2.6487,3.5699 8.8234,6.9355 5.2047,1.3975 0.9913,-0.053 4.3727,0.4351 6.3023,0.0986 8.8149,-1.5369 12.8247,-5.1021 16.2056,-13.4161 0.5514,-1.3561 3.4492,-12.7417 1.4848,-13.3223 -0.5145,-0.1519 -0.8858,0.62 -1.2549,1.0353 -0.2602,-0.9709 -0.271,-6.0866 -0.6021,-8.064 -0.0124,-0.0754 -1.8396,-13.7024 -4.9104,-8.7208 -1.1823,-1.9916 -1.4987,-9.0853 0.3943,-11.668 0.1343,-0.1434 0.127,-0.3688 -0.0165,-0.5031 -0.1434,-0.1344 -0.3687,-0.127 -0.5031,0.0161 -2.0891,2.8434 -1.7612,6.8528 -1.1285,10.1455 1.4077,7.3259 1.6535,-1.8298 3.7735,3.4707 2.3423,5.8567 1.6183,8.6327 2.0619,13.9111 0.3047,3.6243 1.2872,1.9272 1.959,1.22 0.0573,0.1902 0.0128,0.2738 0.0216,1.1548 0.0666,6.84 -1.7425,12.077 -5.6265,17.6508 -3.5172,5.0474 -10.5642,6.8825 -16.3925,6.3867 -5.0108,-0.426 -1.3218,1.3357 -1.3362,2.8432 -1.4122,-0.0828 -4.2248,-2.924 -5.0057,-3.9657 -0.0913,-0.174 -0.3062,-0.2415 -0.4805,-0.1505 -0.1743,0.091 -0.2418,0.3061 -0.1508,0.4802"
           style="fill:#1a1a18;fill-opacity:1;fill-rule:evenodd;stroke:none"
           id="path2618" />
      </g>
      <g
         id="g2620">
        <path
           d="m 336.3188,135.1264 c -2.1736,1.2005 -2.9769,5.6427 -10.7436,4.5482 -7.4058,-1.0434 -15.7192,-10.8879 -17.2531,-17.4537 -0.1831,-0.7833 -0.1525,-0.6118 -0.1182,-0.6849 0.9448,0.3506 1.5959,0.9635 0.6483,-1.9576 -1.8436,-5.6835 -2.0443,-5.5256 -2.3533,-10.8218 0.1548,0.0842 0.2976,0.1803 0.4467,0.3268 0.0428,0.051 0.0879,0.0972 0.1353,0.1366 l 0.5442,-0.3356 c -0.0255,-0.0779 -0.0828,-0.1689 -0.1616,-0.2639 0.0672,0.055 0.0451,0.0309 0.0749,0.0655 l 2e-4,-6e-4 c -0.9209,-1.4842 -0.6377,-5.652 -0.2429,-7.4202 0.0491,-0.1902 -0.0657,-0.3844 -0.256,-0.4335 -0.1904,-0.0487 -0.3846,0.0658 -0.4334,0.2563 -0.2809,1.26 -0.608,4.7707 -0.1573,6.8049 -0.3691,-0.1387 -0.6814,-0.0956 -0.6843,0.35 -0.0365,6.0758 2.4304,10.1739 2.7887,12.7231 -0.9215,-0.5273 -1.2118,0.1505 -0.9221,1.4275 1.7107,7.541 11.543,18.7942 20.5997,18.0808 6.5132,-0.5134 6.7141,-3.7653 8.3531,-4.6874 0.1826,-0.0734 0.271,-0.2806 0.1976,-0.4632 -0.0734,-0.1823 -0.2806,-0.2707 -0.4629,-0.1973"
           style="fill:#1a1a18;fill-opacity:1;fill-rule:evenodd;stroke:none"
           id="path2622" />
      </g>
      <g
         id="g2624">
        <path
           d="m 350.1553,88.9302 c 1.1273,-5.1846 11.071,-5.6458 14.5995,-11.071 4.7696,-7.3326 4.8059,-23.3175 7.1785,-25.81 2.2961,-2.4126 10.2971,7.1218 3.9866,15.8321 -2.3346,3.2227 -7.4979,9.0184 -3.7669,13.0365 0.1341,0.1443 0.2106,0.1862 0.3923,0.252 0.1913,0.0451 0.383,-0.0737 0.428,-0.265 0.0434,-0.1843 -0.0649,-0.3685 -0.2438,-0.4224 -0.008,-0.0054 -0.011,-0.0079 -0.0241,-0.0196 -3.5719,-3.1759 1.9738,-9.6587 3.7574,-12.1206 6.8289,-9.4266 -1.9474,-20.0214 -5.0276,-16.8021 -2.7416,2.8658 -2.4494,18.5074 -7.2674,25.9163 -3.4827,5.3558 -13.4504,5.5134 -14.7215,11.4112 -0.0173,0.1958 0.1273,0.3685 0.3232,0.3858 0.1959,0.0172 0.3685,-0.1273 0.3858,-0.3232"
           style="fill:#1a1a18;fill-opacity:1;fill-rule:evenodd;stroke:none"
           id="path2626" />
      </g>
      <g
         id="g2628">
        <path
           d="m 375.7399,79.5923 c -3.1028,-1.7025 1.2348,-5.8198 2.7519,-8.0688 6.1719,-9.1485 6.5789,-15.1058 -0.5825,-24.1121 -4.5947,-5.7787 -8.9359,-4.6136 -15.8128,-4.7145 -4.4657,-0.0652 -30.6414,-1.0265 -32.646,1.4995 -1.046,1.3181 -0.6965,3.4293 1.3152,3.6093 0.1968,0 0.3561,-0.1596 0.3561,-0.356 0,-0.1967 -0.1593,-0.356 -0.3561,-0.356 -1.2231,-0.108 -1.4266,-1.3505 -0.9116,-2.2298 1.4088,-2.4043 28.2121,-1.5139 32.2322,-1.455 6.6611,0.0975 10.8448,-1.116 15.2736,4.4555 6.9364,8.7259 6.5262,14.3912 0.5483,23.2515 -1.7918,2.6552 -6.3457,6.9871 -2.4616,9.125 0.1791,0.0811 0.39,0.0017 0.4711,-0.1775 0.081,-0.1791 10e-4,-0.39 -0.1778,-0.4711"
           style="fill:#1a1a18;fill-opacity:1;fill-rule:evenodd;stroke:none"
           id="path2630" />
      </g>
      <g
         id="g2632">
        <path
           d="m 375.5038,79.7496 c -7.321,1.5551 -2.8746,9.9638 -0.324,11.8024 0.3682,0.2653 3.6836,2.5605 4.0558,2.3969 0.6642,-0.2922 0.7954,-1.6707 0.7064,-2.8783 0.7124,1.0834 1.0826,1.9599 1.7306,3.3543 0.6573,1.4156 4.4577,-4.5525 0.0124,-9.4034 0,0 -0.5125,-0.4671 -1.0031,-0.9229 1.2764,-0.0392 1.3011,-0.7558 0.227,-2.7281 -1.1531,-2.1181 -2.9888,-2.9979 -5.1795,-1.7663 l 0.057,0.0397 c -0.1094,-0.0085 -0.2114,0.0332 -0.2826,0.1057 z m 4.182,9.8059 -0.004,-0.0113 c -0.165,-0.1395 -0.3218,-0.2273 -0.4646,-0.2452 l -0.2285,0.3934 c 0.2991,1.0486 0.5502,2.4296 0.004,3.4728 -2.4974,-1.908 -3.9439,-1.8202 -5.4805,-4.7685 -1.9389,-3.7196 -2.1691,-7.1762 2.3278,-8.0005 0.1394,0 0.2602,-0.0802 0.3186,-0.197 2.6305,-0.868 4.28,0.1245 4.6641,3.2925 -0.451,-0.0593 -2.0707,-0.2588 -1.2297,0.5612 3.2857,3.2023 4.9235,5.3017 2.5254,9.548 -0.4606,-1.1033 -1.561,-3.3149 -2.4361,-4.0561 l 0.003,0.0107 z m -0.004,-0.0113 c -0.007,-0.0218 -0.0139,-0.0428 -0.021,-0.0632 0.0167,0.0371 0.0105,0.0212 0.0218,0.0638 z m -0.4728,3.7891 c 0.006,0.0045 0.0121,0.009 0.0178,0.0141 z"
           style="fill:#1a1a18;fill-opacity:1;fill-rule:evenodd;stroke:none"
           id="path2634" />
      </g>
      <g
         id="g2636">
        <path
           d="m 330.6597,43.4018 c -2.7635,0.9737 -4.5204,1.7629 -3.1002,4.7767 0.0839,0.1777 0.2959,0.254 0.4736,0.1701 0.178,-0.0837 0.2543,-0.2957 0.1704,-0.4737 -1.1908,-2.5268 0.271,-2.9506 2.668,-3.7933 0.1879,-0.0587 0.2925,-0.2583 0.2338,-0.4459 -0.0584,-0.1877 -0.2579,-0.2923 -0.4456,-0.2339"
           style="fill:#1a1a18;fill-opacity:1;fill-rule:evenodd;stroke:none"
           id="path2638" />
      </g>
      <g
         id="g2640">
        <path
           d="m 328.0575,44.4572 c -3.3658,0.2752 -4.1196,8.5572 6.8805,4.3526 5.0383,-1.9256 7.1808,-1.3383 12.5555,-1.4159 0.1968,0 0.3561,-0.1593 0.3561,-0.3558 0,-0.1967 -0.1593,-0.356 -0.3561,-0.356 -3.1972,0.0459 -8.6315,-0.2189 -11.4227,0.8053 -12.7761,4.6877 -9.4782,-2.1917 -8.036,-2.3185 0.1965,0.0063 0.3609,-0.1479 0.3671,-0.3446 0.006,-0.1965 -0.1479,-0.3609 -0.3444,-0.3671"
           style="fill:#1a1a18;fill-opacity:1;fill-rule:evenodd;stroke:none"
           id="path2642" />
      </g>
      <g
         id="g2644">
        <path
           d="m 336.6573,47.5084 c -2.583,0.5635 -2.9878,6.9871 -2.7774,8.729 1.0134,8.3962 9.4028,20.8899 19.2688,19.7266 2.2099,-0.2605 3.8321,-3.2278 4.6519,-4.9125 0.0646,-0.1856 -0.034,-0.3883 -0.2197,-0.4529 -0.1857,-0.0644 -0.3886,0.0343 -0.453,0.2199 -0.6845,1.4009 -2.1866,4.216 -4.0685,4.4391 -9.4454,1.1208 -17.5465,-11.1668 -18.4865,-19.1821 -0.1417,-1.2106 0.262,-7.4426 2.1671,-7.8602 0.1953,-0.0226 0.3351,-0.1995 0.3121,-0.3948 -0.0229,-0.1953 -0.1995,-0.3351 -0.3948,-0.3121"
           style="fill:#1a1a18;fill-opacity:1;fill-rule:evenodd;stroke:none"
           id="path2646" />
      </g>
      <g
         id="g2648">
        <path
           d="m 325.2546,72.0298 c 0.1636,-0.8425 4.2897,-20.2054 -2.4114,-15.3105 -1.8862,1.3776 -4.39,-4.3178 -3.1025,-4.6911 0.1176,-0.034 0.2503,0.0114 0.3605,0.0431 0.1857,0.0644 0.3887,-0.034 0.453,-0.2197 0.0644,-0.1859 -0.034,-0.3886 -0.2197,-0.453 -3.6329,-1.0386 -0.2988,8.2163 2.9577,5.8729 5.2475,-3.7755 1.3949,13.9648 1.2827,14.5462 -0.0584,0.1877 0.0462,0.3872 0.2338,0.4456 0.1877,0.0587 0.3872,-0.0459 0.4459,-0.2335"
           style="fill:#1a1a18;fill-opacity:1;fill-rule:evenodd;stroke:none"
           id="path2650" />
      </g>
      <g
         id="g2652">
        <path
           d="m 321.7708,54.5329 c -0.1465,-0.4498 -1.1131,-3.3976 -0.8396,-3.9917 0.133,0.0317 0.2489,0.1253 0.3583,0.2007 l 0.1616,0.1346 c 0.1508,0.1261 0.3753,0.1057 0.5012,-0.0451 0.1261,-0.1508 0.1057,-0.3753 -0.0451,-0.5014 l -0.0862,-0.0717 c -2.9441,-2.4565 -0.7653,4.3778 -0.7285,4.4909 0.0598,0.1874 0.2599,0.2908 0.4473,0.231 0.1874,-0.0598 0.2908,-0.2599 0.231,-0.4473"
           style="fill:#1a1a18;fill-opacity:1;fill-rule:evenodd;stroke:none"
           id="path2654" />
      </g>
      <g
         id="g2656">
        <path
           d="m 322.9634,53.8894 c -0.019,-0.1139 -1.1588,-5.5879 0.0521,-4.8316 0.0672,0.18 0.2665,0.275 0.4493,0.212 0.186,-0.064 0.2849,-0.2664 0.2208,-0.4524 -0.0504,-0.1199 -0.0949,-0.2089 -0.1987,-0.2948 -2.6005,-2.1526 -1.2356,5.3405 -1.235,5.343 -0.007,0.1965 0.1471,0.3612 0.3438,0.3677 0.1965,0.0068 0.3609,-0.1474 0.3677,-0.3439"
           style="fill:#1a1a18;fill-opacity:1;fill-rule:evenodd;stroke:none"
           id="path2658" />
      </g>
      <g
         id="g2660">
        <path
           d="m 331.5334,69.1109 c 0.6618,-5.0595 2.3913,-10.188 -0.7076,-14.8308 -1.0032,-1.5032 -2.0372,-1.3689 -3.4194,-0.5488 l 3e-4,-3e-4 c -0.5168,0.2117 -5.0757,-2.103 -2.6419,-5.2985 0.1332,-0.1446 0.1239,-0.3699 -0.021,-0.5029 -0.1448,-0.1332 -0.3699,-0.1239 -0.5029,0.021 -1.1179,1.4703 -1.3334,2.6918 -0.2307,4.2962 3.1788,4.6267 4.5995,-0.0088 6.2209,2.4247 3.0022,4.5057 1.211,9.5664 0.5905,14.4615 0.006,0.1968 0.1706,0.351 0.3671,0.3447 0.1964,-0.0059 0.3506,-0.1703 0.3447,-0.3668"
           style="fill:#1a1a18;fill-opacity:1;fill-rule:evenodd;stroke:none"
           id="path2662" />
      </g>
      <g
         id="g2664">
        <path
           d="m 325.8471,51.3014 c -0.3754,-1.1517 -1.8964,-4.0394 -0.1764,-3.8511 0.0803,0.1536 0.2628,0.2296 0.4315,0.1712 0.1856,-0.0641 0.2846,-0.2668 0.2202,-0.4524 -0.0714,-0.1724 -0.1462,-0.3011 -0.3268,-0.3756 -3.0308,-1.2498 -1.0814,3.92 -0.8592,4.551 0.0119,0.1962 0.1806,0.3455 0.3767,0.3339 0.1962,-0.0119 0.3459,-0.1808 0.334,-0.377"
           style="fill:#1a1a18;fill-opacity:1;fill-rule:evenodd;stroke:none"
           id="path2666" />
      </g>
      <g
         id="g2668">
        <path
           d="m 327.083,50.478 c -0.2333,-1.0687 -0.1245,-0.5537 -0.3289,-1.5449 0,-0.1965 -0.1595,-0.3561 -0.356,-0.3561 -0.1967,0 -0.356,0.1596 -0.356,0.3561 0.214,1.1242 0.1017,0.5958 0.3302,1.5868 0.0116,0.1962 0.18,0.3458 0.3762,0.3342 0.1961,-0.0116 0.3461,-0.18 0.3345,-0.3761"
           style="fill:#1a1a18;fill-opacity:1;fill-rule:evenodd;stroke:none"
           id="path2670" />
      </g>
      <g
         id="g2672">
        <path
           d="m 340.5719,75.0637 c 1.4953,-1.6084 1.2436,-1.9429 1.5832,-4.1346 0.0422,-0.1919 -0.0794,-0.3819 -0.2713,-0.4241 -0.1919,-0.0422 -0.3818,0.0794 -0.4241,0.2713 -0.2999,1.9273 -0.0703,2.3655 -1.3833,3.776 -0.1412,0.1366 -0.1448,0.362 -0.008,0.5034 0.1366,0.1412 0.362,0.1449 0.5034,0.008"
           style="fill:#1a1a18;fill-opacity:1;fill-rule:evenodd;stroke:none"
           id="path2674" />
      </g>
    </g>
    <path
       style="fill:#ffffff;fill-opacity:0.99;stroke-width:0.0202774"
       d="m 100.11583,184.16513 c -4.009706,-3.30513 -5.881158,-7.18415 -7.457583,-15.45754 -1.551463,-8.14239 -3.843656,-10.50461 -10.193205,-10.50461 -5.597735,0 -8.1536,2.48905 -8.1536,7.94047 0,2.09077 0.416537,4.57971 0.925638,5.53097 1.160358,2.16815 -0.312095,2.29674 -4.616691,0.40317 -5.935714,-2.61109 -9.338213,-6.9031 -10.126428,-12.77375 -2.033578,-15.14619 13.509657,-28.26573 25.502168,-21.52556 4.152773,2.33399 4.886883,3.91637 3.089522,6.65949 -1.544452,2.35713 -1.807508,5.65072 -0.467373,5.85174 0.491797,0.0738 1.26742,0.17437 1.723605,0.22354 0.456186,0.0492 2.036408,-1.57676 3.511603,-3.61321 1.755021,-2.42274 4.48196,-4.58638 7.888804,-6.25924 4.57361,-2.24578 6.18503,-2.55392 13.25422,-2.5345 6.93733,0.0191 8.82193,0.37664 13.66027,2.5919 6.52045,2.98542 10.54561,7.1294 11.55613,11.89725 0.3931,1.85476 0.70205,6.60876 0.68654,10.56444 -0.039,9.95279 -3.05241,16.24458 -9.86843,20.60474 -5.59708,3.58041 -5.75148,3.61314 -5.75148,1.21946 0,-4.95441 -7.09726,-12.47407 -11.77338,-12.47407 -4.92937,0 -11.59663,9.5992 -9.27564,13.35463 1.10106,1.78156 -0.88872,0.9598 -4.11469,-1.69932 z"
       id="path906"
       transform="matrix(0.26458333,0,0,0.26458333,7.2017334,9.9206184)" />
    <path
       style="fill:#ffffff;fill-opacity:0.99;stroke-width:0.0202774"
       d="m 100.11583,184.16513 c -4.009706,-3.30513 -5.881158,-7.18415 -7.457583,-15.45754 -1.530857,-8.03424 -3.869062,-10.50461 -9.942628,-10.50461 -5.41996,0 -8.404177,2.86404 -8.404177,8.06573 0,2.02188 0.448379,4.51395 0.996398,5.53793 0.938827,1.75421 0.824436,1.82739 -1.979832,1.26654 -9.651197,-1.93024 -15.206006,-12.15809 -12.104471,-22.28748 3.654794,-11.93629 15.557968,-18.18633 24.772592,-13.00742 4.204885,2.36328 4.785106,3.69392 3.06291,7.02428 -0.734217,1.41981 -1.334938,3.16198 -1.334938,3.87149 0,1.73684 2.450414,2.58234 3.556575,1.22717 0.488043,-0.5979 1.917838,-2.37428 3.177321,-3.94749 1.259483,-1.57322 4.585182,-3.9875 7.390443,-5.36507 4.45597,-2.18818 6.11738,-2.50188 13.14807,-2.48256 6.93733,0.0191 8.82193,0.37664 13.66027,2.5919 6.52045,2.98542 10.54561,7.1294 11.55613,11.89725 0.3931,1.85476 0.70205,6.60876 0.68654,10.56444 -0.039,9.95279 -3.05241,16.24458 -9.86843,20.60474 -5.59708,3.58041 -5.75148,3.61314 -5.75148,1.21946 0,-2.79797 -2.24682,-6.5412 -5.79758,-9.65881 -5.35205,-4.69915 -10.38678,-3.39216 -13.96707,3.62579 -1.02144,2.00218 -1.67542,4.59106 -1.45329,5.75306 0.52465,2.74452 -0.0593,2.66479 -3.94577,-0.5388 z"
       id="path908"
       transform="matrix(0.26458333,0,0,0.26458333,7.2017334,9.9206184)" />
    <path
       style="fill:#ffffff;fill-opacity:0.99;stroke-width:0.0202774"
       d="m 98.933622,182.87222 c -3.975279,-3.97528 -4.674572,-5.63084 -6.72995,-15.93305 -1.274725,-6.38932 -3.842576,-8.73619 -9.558778,-8.73619 -5.344745,0 -8.333452,2.89269 -8.333452,8.06573 0,2.02188 0.448379,4.51395 0.996398,5.53793 0.93917,1.75485 0.824894,1.82748 -1.989682,1.26457 -15.766276,-3.15326 -17.56088,-25.23392 -2.811132,-34.58793 4.999654,-3.17069 10.276829,-3.47468 15.354059,-0.88447 4.187883,2.1365 4.941021,3.83303 3.197954,7.20375 -0.734217,1.41981 -1.334938,3.16198 -1.334938,3.87149 0,1.73684 2.450414,2.58234 3.556575,1.22717 0.488043,-0.5979 1.917838,-2.37428 3.177321,-3.94749 1.259483,-1.57322 4.585182,-3.9875 7.390443,-5.36507 4.45597,-2.18818 6.11738,-2.50188 13.14807,-2.48256 6.93733,0.0191 8.82193,0.37664 13.66027,2.5919 6.52045,2.98542 10.54561,7.1294 11.55613,11.89725 0.3931,1.85476 0.70205,6.60876 0.68654,10.56444 -0.0382,9.75582 -3.00969,16.08408 -9.65302,20.55796 -5.42678,3.65461 -5.96689,3.75078 -5.96689,1.06252 0,-3.78988 -6.01492,-10.98403 -9.89635,-11.83653 -1.52025,-0.33391 -3.55941,0.005 -5.23062,0.86915 -3.20774,1.65879 -6.67179,7.85279 -6.09097,10.89114 0.58677,3.06949 -0.67887,2.6174 -5.127978,-1.83171 z"
       id="path910"
       transform="matrix(0.26458333,0,0,0.26458333,7.2017334,9.9206184)" />
  </g>
</svg>
