<?xml version="1.0" encoding="UTF-8" standalone="no"?>
<svg
   xmlns:dc="http://purl.org/dc/elements/1.1/"
   xmlns:cc="http://creativecommons.org/ns#"
   xmlns:rdf="http://www.w3.org/1999/02/22-rdf-syntax-ns#"
   xmlns:svg="http://www.w3.org/2000/svg"
   xmlns="http://www.w3.org/2000/svg"
   xmlns:sodipodi="http://sodipodi.sourceforge.net/DTD/sodipodi-0.dtd"
   xmlns:inkscape="http://www.inkscape.org/namespaces/inkscape"
   width="99.176521mm"
   height="152.47443mm"
   viewBox="0 0 99.176521 152.47443"
   version="1.1"
   id="svg32499"
   inkscape:version="1.0.2 (e86c8708, 2021-01-15)"
   sodipodi:docname="monkey.svg">
  <defs
     id="defs32493" />
  <sodipodi:namedview
     id="base"
     pagecolor="#ffffff"
     bordercolor="#666666"
     borderopacity="1.0"
     inkscape:pageopacity="0.0"
     inkscape:pageshadow="2"
     inkscape:zoom="0.35"
     inkscape:cx="313.614"
     inkscape:cy="202.42634"
     inkscape:document-units="mm"
     inkscape:current-layer="layer1"
     inkscape:document-rotation="0"
     showgrid="false"
     inkscape:window-width="1440"
     inkscape:window-height="855"
     inkscape:window-x="0"
     inkscape:window-y="23"
     inkscape:window-maximized="0" />
  <metadata
     id="metadata32496">
    <rdf:RDF>
      <cc:Work
         rdf:about="">
        <dc:format>image/svg+xml</dc:format>
        <dc:type
           rdf:resource="http://purl.org/dc/dcmitype/StillImage" />
        <dc:title></dc:title>
      </cc:Work>
    </rdf:RDF>
  </metadata>
  <g
     inkscape:label="Слой 1"
     inkscape:groupmode="layer"
     id="layer1"
     transform="translate(-22.856295,-94.60803)">
    <g
       id="g814"
       transform="matrix(1.2332173,0,0,-1.2332173,-185.1152,711.56441)">
      <path
         d="m 197.6791,417.7636 c -1.8553,-1.4758 -1.9032,-0.7682 -2.8366,-3.7027 -0.8805,-2.7677 1.262,-2.8919 -2.0415,-3.9781 -0.9054,-0.2976 -4.1417,0.6985 -4.1519,2.884 -0.0125,2.6458 -0.2773,2.1424 1.6299,4.456 1.4309,1.7357 2.9713,-0.1221 0.6463,3.3801 -0.3745,0.5638 -0.377,1.2585 -1.057,1.9068 -0.6084,0.5797 -2.0949,4.7095 -1.7252,5.6421 0.3903,0.9848 0.2551,4.1548 0.017,5.1296 0.0794,0.0947 0.0513,0.2849 0.1959,0.4385 1.332,0.5054 0.3226,6.613 4.4438,8.3356 2.1637,0.9042 1.9982,-4.1137 2.2476,-0.8691 0.1463,1.9026 5.0202,5.6551 6.5977,5.671 2.2246,0.0223 3.8049,0.4206 3.2343,-2.6606 -0.1743,-0.9411 -1.0463,-0.9088 1.2093,0.034 2.1648,0.9048 5.1769,-0.0513 3.3624,-2.5365 -0.3036,-0.4161 2.4732,-1.9508 2.755,-2.3799 0.7552,1.0978 1.3363,1.7583 2.5503,2.3601 0.9491,0.4705 2.367,1.0738 3.3959,0.3203 1.4483,-1.0607 2.4804,-4.5394 0.5644,-6.0899 -1.3388,-1.0832 -1.6078,-3.233 -3.056,-1.5373 -0.8844,1.0352 -4.6998,4.0601 -5.8493,4.1465 -1.1769,0.0885 -1.0386,1.12 -3.6921,0.0108 -2.9118,-1.2172 -1.2334,-0.3192 -3.3999,-2.6337 -1.444,-1.5423 1.3623,-4.6751 -1.7549,-3.0951 -1.7499,0.887 -5.7104,-0.9672 -6.0494,-3.7576 -0.7025,-5.7878 -0.8122,-2.2918 0.403,-8.0626 0.1313,-0.6225 2.2955,-3.2082 2.361,-3.4123"
         style="fill:#69441e;fill-opacity:1;fill-rule:evenodd;stroke:none"
         id="path816" />
      <path
         d="m 197.6791,417.7636 c 0.004,-0.007 -3.5651,3.4013 -3.1986,8.8645 0.2585,3.8528 1.6583,6.6268 5.7957,6.3051 1.0953,-0.0851 2.1212,-1.4585 2.4103,0.9592 0.1182,0.9885 0.0264,3.9351 1.5704,4.0297 0.9068,0.0556 3.0597,1.9253 4.2387,0.8842 0.081,-0.0715 2.6858,-0.9094 3.1175,-1.1234 2.3003,-1.1412 4.7154,-4.3804 4.8991,-4.4674 0.0525,-0.0247 1.6787,1.8281 2.4528,2.0871 0.6296,0.2112 0.4646,0.9068 2.7927,0.9017 1.9633,-0.004 1.8899,-0.7279 2.7522,-2.7912 0.6301,-1.5075 -0.8779,-2.5506 -0.4422,-4.5389 0.2384,-1.0879 1.0358,-8.3542 0.7007,-9.6539 -1.3175,-5.1129 -6.3456,-8.5405 -10.9332,-10.4579 -2.85,-1.1914 -2.3573,0.1755 -5.201,-0.036 -2.581,-0.1919 -2.4166,-0.6882 -5.1928,0.1151 -0.1366,0.0394 -2.7751,-3.2063 -6.171,-1.0681 -1.0273,0.6472 -3.7429,5.6075 -2.3222,7.4347 0.3671,0.472 2.1416,2.3012 2.7885,2.367 z"
         style="fill:#ffd8b0;fill-opacity:1;fill-rule:evenodd;stroke:none"
         id="path818" />
      <path
         d="m 223.6031,417.7222 c 2.3468,-1.3334 3.4089,-0.2458 5.3495,-4.8887 3.6652,-8.7686 -7.8128,-9.4909 -2.8655,-12.9914 0.9898,-0.7005 7.5546,4.2525 10.3995,2.8205 2.3224,-1.1691 3.4304,-1.0545 5.7804,-2.9461 2.4148,-1.9434 6.1477,0.591 3.1887,2.6325 -0.4851,0.3345 5.8033,1.8335 1.7974,4.5837 -0.8682,0.5958 -0.9777,-0.6075 0.599,2.3519 1.6591,3.1152 -3.2551,3.1802 -5.2277,2.245 -0.6026,-0.2854 -7.2476,-2.9225 -7.4228,-2.4525 -0.2228,0.5986 -0.1698,5.0204 -2.0823,6.9278 -0.6194,0.6174 -5.7909,10.5761 -8.1936,9.5721 0.5284,-1.0676 -1.3518,-7.8381 -1.3226,-7.8548"
         style="fill:#f28e1d;fill-opacity:1;fill-rule:evenodd;stroke:none"
         id="path820" />
      <path
         d="m 198.8779,406.603 c -1.3056,0.4581 -1.9296,-4.5264 -1.5925,-5.9774 1.0295,-4.4357 2.0628,-8.1749 7.2947,-8.1508 0.7049,0.003 10.0315,2.2814 7.541,-1.3297 -2.4429,-3.5422 -6.6178,0.1386 -5.7929,-10.7062 0.1919,-2.5222 -2.4506,-4.9396 -4.0975,-0.9995 0.5667,-1.3561 -2.319,-5.0082 -4.432,-0.5641 -1.9,3.9963 0.7594,2.3624 -2.2246,1.2796 -2.164,-0.7849 -1.3552,4.4853 -0.5272,6.1036 2.2073,4.3154 6.0976,2.2138 1.8068,3.9747 -3.2576,1.3374 -4.4728,4.1567 -6.0171,7.448 -1.8216,3.8829 3.7927,13.6253 3.9608,13.2228 0.9876,-2.363 2.3173,-3.6822 4.0805,-4.301"
         style="fill:#f28e1d;fill-opacity:1;fill-rule:evenodd;stroke:none"
         id="path822" />
      <path
         d="m 180.9865,452.4344 0.0153,11.7556 c -0.584,0.7752 0.1641,1.4116 -2.062,2.3652 -2.0914,0.8963 -3.0274,0.5547 -4.9246,1.5213 -3.2082,1.6345 -3.5949,2.1646 -4.5428,5.7379 -0.0213,0.08 0.3172,4.4731 1.3445,3.0425 0.5068,0.0983 1.1735,-1.5906 1.3388,-1.986 -0.3623,0.7155 0.502,4.1187 1.9718,2.6158 1.4632,-1.4958 -0.7487,-2.0647 1.6415,0.8663 1.5301,1.8765 0.8887,-4.0964 1.105,-1.5693 0.0946,1.1041 2.3431,3.657 2.0383,-0.47 -0.1493,-2.025 1.154,-7.624 4.4051,-6.2651 1.9372,0.8096 1.9984,0.9539 1.1452,3.208 -0.1188,0.314 -2.5234,3.905 0.5757,2.9758 1.8848,-0.5653 1.7816,-1.0389 2.5223,-3.0938 0.9876,-2.7396 -1.6342,-3.3814 -2.1303,-8.9223 -0.2843,-3.1759 3.3254,-4.6423 5.9106,-3.1555 0.3631,0.2089 0.9076,0.0589 1.3784,0.392 l 0.093,-0.1689 0.7778,7.6765 1.4505,11.7768 2.1501,9.3858 3.2241,5.1406 3.5487,2.8823 c 0.8907,0.9859 5.1129,2.1263 6.7782,1.5556 1.9199,-0.6573 1.2895,-0.4084 2.9169,-1.51 1.8462,-1.2498 2.7048,-5.0626 1.7767,-7.2932 -0.4178,-1.0038 -0.2471,-1.1143 -0.8934,-1.9182 -1.1294,-1.404 -2.033,-3.1006 -3.6845,-4.0893 -1.5783,-0.9448 -4.5544,-1.3918 -5.8479,0.127 -1.4578,1.7118 -0.9014,3.0274 0.7373,4.5975 0.2755,0.2639 1.26,0.2721 1.3195,0.3027 0.6395,-1.5295 1.086,0.1537 0.3447,-2.8454 -0.3217,-1.3002 1.7464,-1.019 2.7074,0.0919 1.6002,1.8499 3.3262,2.6351 2.9687,6.0332 -0.1151,1.0928 -1.2297,3.2072 -2.7227,3.2752 -2.3357,0.1066 -0.485,1.3793 -4.8223,-0.4337 -2.6997,-1.1285 -4.6621,-3.5796 -5.7132,-6.2056 -1.7643,-4.4073 -2.2028,-8.7639 -2.6356,-13.417 -0.0454,-0.4872 -0.0511,-1.4235 -0.1687,-1.8082 l -0.4586,-6.5338 0.8163,-4.2259 1.0579,-1.8491 c 1.7623,-0.8699 4.4819,-1.3836 5.6832,0.5868 1.1364,1.8635 0.938,1.0188 1.8822,3.5422 0.6066,1.6211 -1.5035,6.5545 -0.1329,10.0502 0.5156,1.3158 1.6081,1.3266 2.7428,1.2115 2.3133,-0.235 0.6814,-2.2654 -0.6466,-2.6915 -1.1189,-0.3588 -1.2254,-2.853 2.0029,-2.499 1.8145,0.1987 2.1215,0.1854 3.2276,1.815 1.0703,1.5769 -1.3102,6.8066 0.5731,7.7888 1.0897,0.5683 2.3896,-5.029 2.2848,-0.8422 -0.0457,1.8233 1.142,2.4378 2.1945,-0.0796 0.1803,0.0413 1.5673,4.6567 2.7017,0.6743 0.6129,-2.1518 0.8008,2.1762 2.4942,1.2116 0.8232,-0.4692 1.2856,-3.998 0.472,-5.3006 -1.1044,-1.7679 0.1281,-1.8311 -3.477,-3.3377 -1.1786,-0.4927 -2.6033,-1.9483 -4.3007,-2.8543 -3.3372,-1.7815 -3.9623,-1.5389 -5.86,-4.5754 -0.4618,-0.7389 -0.5216,-2.5052 -0.1786,-3.3256 l -0.2634,-3.899 4.4357,-15.4117 0.9638,-1.6087 c -0.0156,-0.0229 -1.2904,-2.4312 -2.7315,-2.6365 -0.4683,-0.0669 -2.7774,1.0052 -2.3743,1.9432 0.8632,2.0069 -1.0329,2.1966 -2.1813,2.6884 -0.9927,0.4252 -2.5364,-1.1688 -2.9905,-0.0151 -0.5556,1.412 -0.807,2.8531 -1.8034,2.9951 -1.135,0.1619 -2.5892,-1.2597 -3.6822,-1.2509 -1.4437,0.0116 -0.9797,-1.6021 -2.3885,-1.8193 -0.7614,-0.1173 -1.2844,-3.5107 -2.0146,-3.6521 -0.7628,-0.1477 -1.3904,2.1639 -2.1024,1.9448 -0.741,-0.2282 -0.8272,-0.7563 -1.5021,-1.0601 -3.2324,-1.4553 -3.2837,-11.2405 -3.2151,-15.4409 0.0204,-1.2371 3.4325,-7.981 2.5348,-6.2663 -0.5023,0.9593 -0.8056,-0.2767 -1.2796,1.0304 -0.5233,1.4423 -2.6546,4.0187 -3.7341,6.6013 -0.379,0.9063 -1.7869,4.4408 -2.1577,5.1622 l -1.8003,9.777 z"
         style="fill:#f28e1d;fill-opacity:1;fill-rule:evenodd;stroke:none"
         id="path824" />
      <path
         d="m 206.5346,429.6492 c -1.3374,1.7002 0.216,4.5207 2.3388,4.6361 2.7723,0.1505 4.2372,-0.8178 3.9169,-3.8753 -0.0861,-0.8231 -5.5658,-2.4051 -5.9014,-5.3336 -0.1131,-0.987 -1.6404,-3.7364 -3.4761,-3.1349 -2.0285,0.6645 -2.9345,0.5573 -3.9527,2.9931 -0.7092,1.6969 2.2042,5.9074 4.3762,5.9086 2.0517,10e-4 2.2932,-0.6789 2.6983,-1.194"
         style="fill:#ffffff;fill-opacity:1;fill-rule:evenodd;stroke:none"
         id="path826" />
      <path
         d="m 197.8186,414.0527 c -1.0052,-0.4201 -1.6058,-2.3269 0.2985,-2.5381 0.3897,-0.0434 1.5522,0.3793 1.7498,0.6831 0.3506,0.5395 1.2702,2.3426 0.1176,2.4747 -1.3855,0.159 -1.2075,-0.2191 -2.1659,-0.6197"
         style="fill:#ed4e4e;fill-opacity:1;fill-rule:evenodd;stroke:none"
         id="path828" />
      <path
         d="m 219.9271,434.5123 c -0.1876,-0.0309 -0.6392,-0.3962 -0.6528,-0.7044 -0.0417,-0.9368 -0.0431,-1.4023 1.1095,-1.3317 0.7568,0.0462 1.5463,0.5284 1.7801,1.2838 0.118,0.381 -0.1828,0.9519 -0.6899,1.0599 -0.6562,0.1398 -1.3592,-0.2769 -1.5469,-0.3076"
         style="fill:#ed4e4e;fill-opacity:1;fill-rule:evenodd;stroke:none"
         id="path830" />
      <path
         d="m 205.2493,413.0161 -0.7908,0.8575 8.0158,4.8169 5.8637,5.3504 2.4605,-1.2152 1.0111,-3.7973 -2.4145,1.1593 -1.878,-0.4515 -0.6661,-2.3964 -2.0381,-0.2288 -0.6044,-4.5504 z"
         style="fill:#ff969d;fill-opacity:1;fill-rule:evenodd;stroke:none"
         id="path832" />
      <path
         d="m 214.2266,412.6972 c -0.6559,0.8527 -0.2032,3.6935 0.9647,4.2117 0.2041,0.0907 1.4638,0.5944 1.5213,0.6656 1.162,1.4431 1.8074,3.9957 4.1358,2.2895 0.3243,-0.2375 0.7682,-1.2322 0.5471,-1.7886 -0.7379,-1.8587 -2.1626,-2.7151 -3.6831,-3.9308 -0.2472,-0.1979 -3.2839,-1.7096 -3.4858,-1.4474"
         style="fill:#ed4e4e;fill-opacity:1;fill-rule:evenodd;stroke:none"
         id="path834" />
    </g>
    <g
       id="g836"
       transform="matrix(1.2332173,0,0,-1.2332173,-185.1152,711.56441)">
      <g
         id="g838">
        <path
           d="m 205.6218,429.3615 c -3.801,4.0139 -9.2514,-7.0741 -1.6605,-7.0016 0.7837,0.008 1.2308,0.1863 1.9488,0.4422 0.2639,0.1106 0.5675,-0.0141 0.6777,-0.278 0.1103,-0.2639 -0.0141,-0.5675 -0.2783,-0.6778 -1.1013,-0.3926 -1.9001,-0.6489 -3.0997,-0.4714 -8.8027,1.3017 -1.766,13.8974 3.2054,8.6525 0.184,-0.2191 0.1556,-0.546 -0.0638,-0.7297 -0.2191,-0.1839 -0.5456,-0.1556 -0.7296,0.0638"
           style="fill:#1a1a18;fill-opacity:1;fill-rule:evenodd;stroke:none"
           id="path840" />
      </g>
      <g
         id="g842">
        <path
           d="m 205.8636,429.4996 c -2.4194,7.7927 10.5358,6.3292 7.2187,-0.1443 -0.1329,-0.2534 -0.4459,-0.3512 -0.6993,-0.2183 -0.2534,0.1327 -0.3512,0.4459 -0.2186,0.6993 2.4444,4.7614 -7.1214,5.7646 -5.345,0.0629 0.1103,-0.2639 -0.0141,-0.5675 -0.2783,-0.6777 -0.2639,-0.1103 -0.5672,0.0142 -0.6775,0.2781"
           style="fill:#1a1a18;fill-opacity:1;fill-rule:evenodd;stroke:none"
           id="path844" />
      </g>
      <g
         id="g846">
        <path
           d="m 209.8528,420.988 c -8.5799,-2.9143 -1.7093,10.6373 4.4748,8.7542 2.258,-0.6874 2.6314,-3.6584 0.2298,-4.7733 -0.2641,-0.1105 -0.5674,0.0142 -0.6777,0.2781 -0.1106,0.2639 0.0142,0.5675 0.2781,0.6778 1.0598,0.4873 1.396,1.6526 0.4799,2.4684 -3.5419,3.155 -12.1646,-8.8163 -5.1846,-6.4494 0.2639,0.1103 0.5675,-0.0142 0.6778,-0.2781 0.1102,-0.2642 -0.0142,-0.5675 -0.2781,-0.6777"
           style="fill:#1a1a18;fill-opacity:1;fill-rule:evenodd;stroke:none"
           id="path848" />
      </g>
      <g
         id="g850">
        <path
           d="m 208.2617,423.2231 c 0.0326,1.9148 3.1277,0.4728 0.7313,-0.6449 -0.2639,-0.1105 -0.5675,0.0142 -0.6777,0.2781 -0.0352,0.0839 -0.0465,0.172 -0.0369,0.2568 -0.009,0.0352 -0.015,0.072 -0.0167,0.11"
           style="fill:#1a1a18;fill-opacity:1;fill-rule:evenodd;stroke:none"
           id="path852" />
      </g>
      <g
         id="g854">
        <path
           d="m 211.7911,426.1654 c 0.2872,2.0572 3.0784,0.6971 0.9221,-0.339 -0.0983,-0.1224 -0.2508,-0.1993 -0.4198,-0.1939 -0.286,0.009 -0.5108,0.2472 -0.5023,0.5329"
           style="fill:#1a1a18;fill-opacity:1;fill-rule:evenodd;stroke:none"
           id="path856" />
      </g>
      <g
         id="g858">
        <path
           d="m 209.2059,431.5799 c -0.038,-0.0828 -0.072,-0.1729 -0.0737,-0.2412 0.1043,-0.0831 0.4839,-0.216 0.5922,-0.2143 0.1403,0.3036 -0.1435,0.5678 -0.5185,0.4555 z m -0.4002,0.9459 c 0.4643,0.2047 1.0542,0.1469 1.4425,-0.1511 2.7451,-2.1061 -3.5249,-3.63 -1.8629,-0.1176 0.0881,0.1613 0.2494,0.2574 0.4204,0.2687"
           style="fill:#1a1a18;fill-opacity:1;fill-rule:evenodd;stroke:none"
           id="path860" />
      </g>
      <g
         id="g862">
        <path
           d="m 209.613,430.8409 c -0.1483,0.004 -0.1276,3e-4 -0.1678,0.005 l -0.11,-0.0158 c -0.2832,-0.0408 -0.546,0.1556 -0.5868,0.4388 -0.0408,0.2832 0.1559,0.5459 0.4388,0.5867 0.1916,0.0275 0.2458,0.025 0.4232,0.0216 0.286,8e-4 0.5185,-0.2305 0.5193,-0.5165 6e-4,-0.286 -0.2307,-0.5187 -0.5167,-0.5193"
           style="fill:#1a1a18;fill-opacity:1;fill-rule:evenodd;stroke:none"
           id="path864" />
      </g>
      <g
         id="g866">
        <path
           d="m 205.2014,428.4116 c -0.0377,-0.0827 -0.072,-0.1729 -0.0737,-0.2412 0.1043,-0.0831 0.4839,-0.2163 0.5922,-0.2143 0.1403,0.3033 -0.1435,0.5678 -0.5185,0.4555 z m -0.4002,0.9459 c 0.4643,0.2044 1.0545,0.1469 1.4428,-0.151 2.7448,-2.1062 -3.5252,-3.6304 -1.8632,-0.118 0.0881,0.1616 0.2497,0.2574 0.4204,0.269"
           style="fill:#1a1a18;fill-opacity:1;fill-rule:evenodd;stroke:none"
           id="path868" />
      </g>
      <g
         id="g870">
        <path
           d="m 205.7579,427.593 c -0.1486,0.004 -0.1279,3e-4 -0.1681,0.005 l -0.11,-0.0162 c -0.2832,-0.0408 -0.5457,0.1559 -0.5865,0.4391 -0.0408,0.2829 0.1556,0.5457 0.4388,0.5865 0.1913,0.0275 0.2458,0.0252 0.4229,0.0218 0.286,9e-4 0.5188,-0.2307 0.5193,-0.5167 9e-4,-0.286 -0.2304,-0.5185 -0.5164,-0.5193"
           style="fill:#1a1a18;fill-opacity:1;fill-rule:evenodd;stroke:none"
           id="path872" />
      </g>
      <g
         id="g874">
        <path
           d="m 202.7441,415.3952 c 0.6789,-1.4196 1.6772,-3.9299 -0.5826,-4.769 -0.2639,-0.1103 -0.5672,0.0142 -0.6777,0.2781 -0.1103,0.2639 0.0144,0.5675 0.2783,0.6777 l 0.0766,0.0292 c 1.1982,1.4332 0.8328,1.5325 -0.0505,3.3846 -0.1102,0.2639 0.0142,0.5672 0.2781,0.6778 0.2642,0.1102 0.5675,-0.0145 0.6778,-0.2784"
           style="fill:#1a1a18;fill-opacity:1;fill-rule:evenodd;stroke:none"
           id="path876" />
      </g>
      <g
         id="g878">
        <path
           d="m 203.097,413.8296 c 7.0588,3.4447 15.7215,8.2571 17.2976,16.5663 0,0 0.0291,0.1255 0.0291,0.1255 0.065,0.2787 0.3433,0.4519 0.622,0.3873 0.2786,-0.065 0.4521,-0.3433 0.3872,-0.622 l -0.0281,-0.1213 -3e-4,-10e-4 -2e-4,-9e-4 c -1.122,-8.3582 -11.1008,-13.9697 -17.9076,-17.2896 -0.2639,-0.1103 -0.5675,0.0142 -0.6778,0.2784 -0.1103,0.2639 0.0142,0.5672 0.2781,0.6774"
           style="fill:#1a1a18;fill-opacity:1;fill-rule:evenodd;stroke:none"
           id="path880" />
      </g>
      <g
         id="g882">
        <path
           d="m 219.6896,431.4461 c 0.1735,-0.3138 1.8762,-0.449 2.1965,0.4085 0.0692,0.2775 0.3504,0.4464 0.6279,0.3776 0.2775,-0.0692 0.4465,-0.3504 0.3776,-0.6279 -0.6826,-1.8244 -3.4889,-1.8587 -4.1579,-0.5579 -0.1102,0.2639 0.0142,0.5675 0.2781,0.6778 0.2642,0.1103 0.5675,-0.0142 0.6778,-0.2781"
           style="fill:#1a1a18;fill-opacity:1;fill-rule:evenodd;stroke:none"
           id="path884" />
      </g>
      <g
         id="g886">
        <path
           d="m 204.1739,413.9169 c 5.4975,-0.8265 14.5814,-2.8712 16.7572,5.0443 0.8014,2.9146 -0.5275,3.5039 -2.4618,4.7078 -0.1908,0.2131 -0.1724,0.5405 0.0411,0.7313 0.2131,0.1908 0.5405,0.1724 0.7313,-0.0411 2.4557,-0.8504 3.3557,-3.2343 2.6974,-5.6384 -2.3487,-8.5756 -11.609,-6.7938 -17.7392,-5.8396 -0.286,-0.007 -0.5238,0.2188 -0.5309,0.5048 -0.007,0.286 0.2188,0.5236 0.5049,0.5309"
           style="fill:#1a1a18;fill-opacity:1;fill-rule:evenodd;stroke:none"
           id="path888" />
      </g>
      <g
         id="g890">
        <path
           d="m 213.6229,413.0005 c -0.19,3.4061 1.3663,5.1588 2.6909,4.9711 0.146,3.0952 4.053,3.4736 5.1973,1.4987 0.1103,-0.2639 -0.0142,-0.5675 -0.2783,-0.6778 -0.2546,-0.1063 -0.5457,0.006 -0.6651,0.2509 -2.0213,2.2 -2.7935,-0.2327 -3.2726,-1.6461 -0.0323,0.044 -0.0453,0.0604 -0.0674,0.0706 0.0224,-0.0238 0.0442,-0.049 0.066,-0.0745 -0.1386,-0.4091 -0.2528,-0.732 -0.3656,-0.8314 -0.3858,0.1598 -0.366,0.0909 -0.4337,0.1808 -1.9168,0.9343 -1.8862,-2.8857 -1.846,-3.5966 0.0403,-0.2832 -0.1567,-0.5454 -0.4399,-0.5856 -0.2832,-0.0403 -0.5454,0.1567 -0.5856,0.4399 z m 3.6708,4.3929 0.0315,-0.0375 -0.0301,0.0414 -0.001,-0.004 z"
           style="fill:#1a1a18;fill-opacity:1;fill-rule:evenodd;stroke:none"
           id="path892" />
      </g>
      <g
         id="g894">
        <path
           d="m 199.9562,417.3596 c -9.3586,0.214 -3.333,-14.9879 2.757,-8.5507 0.1536,0.1627 0.2046,0.2398 0.2744,0.4419 0.0578,0.2801 0.3319,0.4604 0.6122,0.4023 0.2801,-0.0579 0.4604,-0.332 0.4023,-0.6123 -0.1865,-0.5525 -0.3473,-0.8221 -0.8127,-1.2033 -8.3772,-6.861 -13.9632,10.8017 -3.1949,10.5573 0.2857,-0.0107 0.5088,-0.2508 0.4983,-0.5368 -0.0105,-0.2858 -0.2509,-0.5089 -0.5366,-0.4984"
           style="fill:#1a1a18;fill-opacity:1;fill-rule:evenodd;stroke:none"
           id="path896" />
      </g>
      <g
         id="g898">
        <path
           d="m 198.1389,413.9498 c -2.8874,-1.8164 2.0636,-3.2213 1.938,-0.1394 -0.0357,0.8773 -1.5,0.2973 -1.8535,0.1737 -0.0187,-0.008 -0.038,-0.0144 -0.057,-0.0198 z m -0.3691,0.9638 c 0.0173,0.01 0.0352,0.0187 0.0539,0.0264 1.7008,0.5918 3.865,0.4501 3.1946,-1.7725 -1.4507,-4.8087 -7.1747,-0.6821 -3.3318,1.7144 0.0275,0.0133 0.0553,0.0238 0.0833,0.0317"
           style="fill:#1a1a18;fill-opacity:1;fill-rule:evenodd;stroke:none"
           id="path900" />
      </g>
      <g
         id="g902">
        <path
           d="m 204.0001,408.9308 c 12.2471,-1.7053 23.699,7.2142 19.4905,19.7507 -0.1103,0.2639 0.0141,0.5675 0.2783,0.6777 0.2639,0.1103 0.5672,-0.0141 0.6778,-0.2783 4.473,-13.3555 -7.524,-22.9947 -20.5892,-21.1762 -0.2835,0.0394 -0.481,0.301 -0.4416,0.5845 0.0394,0.2831 0.301,0.481 0.5842,0.4416"
           style="fill:#1a1a18;fill-opacity:1;fill-rule:evenodd;stroke:none"
           id="path904" />
      </g>
      <g
         id="g906">
        <path
           d="m 223.5643,429.2589 c 2.9066,7.3823 -3.4308,9.426 -6.7726,3.1037 -0.1154,-0.2617 -0.4212,-0.3805 -0.6831,-0.2651 -0.2617,0.1154 -0.3804,0.4212 -0.2651,0.6829 4.0159,7.5923 12.0728,4.7174 8.6582,-3.9629 -0.1219,-0.259 -0.4306,-0.3699 -0.6894,-0.248 -0.2588,0.1219 -0.3699,0.4306 -0.248,0.6894"
           style="fill:#1a1a18;fill-opacity:1;fill-rule:evenodd;stroke:none"
           id="path908" />
      </g>
      <g
         id="g910">
        <path
           d="m 219.6947,433.1871 c 0.5683,-0.1771 2.677,-0.4555 1.764,1.3882 -0.7696,-0.0502 -1.9727,-0.1474 -1.8737,-1.0545 l 0.0119,0.004 0.0575,-0.1304 c 0.0284,-0.0678 0.0414,-0.1381 0.0403,-0.2073 z m -1.0956,0.0743 c -0.6681,2.1799 3.0387,2.634 3.49,2.2485 3.0016,-2.5645 -3.0793,-5.0185 -3.5158,-2.4665 -0.007,0.0763 0.002,0.15 0.0258,0.218"
           style="fill:#1a1a18;fill-opacity:1;fill-rule:evenodd;stroke:none"
           id="path912" />
      </g>
      <g
         id="g914">
        <path
           d="m 197.4104,417.3653 c -5.4765,3.6887 -5.2758,18.3855 4.3622,15.9514 -0.9184,5.8725 7.6326,9.9845 15.1368,0.737 0.1105,-0.2639 -0.0142,-0.5675 -0.2781,-0.6778 -0.2639,-0.1102 -0.5675,0.0142 -0.6778,0.2781 -2.1903,2.5926 -5.7821,5.749 -9.5652,4.6701 -7.3885,-2.1076 -0.358,-7.0549 -5.2883,-5.8283 -7.3863,1.8368 -7.945,-11.0072 -3.1913,-14.222 0.2509,-0.1375 0.3427,-0.4527 0.2053,-0.7036 -0.1378,-0.2508 -0.4527,-0.3427 -0.7036,-0.2049"
           style="fill:#1a1a18;fill-opacity:1;fill-rule:evenodd;stroke:none"
           id="path916" />
      </g>
      <g
         id="g918">
        <path
           d="m 194.9156,410.3923 c -8.3735,-3.6544 -9.4221,6.7074 -2.3604,8.4048 1.1126,0.2673 -0.1437,-0.0964 0.7852,0.1828 0.2639,0.1106 0.5675,-0.0142 0.6778,-0.2781 0.1102,-0.2639 -0.0142,-0.5675 -0.2781,-0.6777 -1.8819,-0.5667 -4.953,-1.5245 -4.8674,-4.1707 0.1253,-3.8874 2.7658,-3.761 5.6432,-2.5052 0.2639,0.1103 0.5675,-0.0142 0.6778,-0.2781 0.1103,-0.2639 -0.0142,-0.5675 -0.2781,-0.6778"
           style="fill:#1a1a18;fill-opacity:1;fill-rule:evenodd;stroke:none"
           id="path920" />
      </g>
      <g
         id="g922">
        <path
           d="m 218.9041,436.6511 c 1.2597,7.2147 -5.8181,5.8354 -6.1764,1.5383 -0.003,-0.0337 -0.002,-0.034 6e-4,-0.0578 0.0671,-0.2781 -0.1035,-0.5581 -0.3816,-0.6253 -0.2784,-0.0675 -0.5581,0.1035 -0.6253,0.3815 -0.0272,0.1874 -0.0405,0.2033 -0.0261,0.389 0.4402,5.6429 9.7492,6.9307 8.2154,-1.8718 -0.0681,-0.2778 -0.3484,-0.4481 -0.6262,-0.3801 -0.2781,0.0678 -0.4482,0.3484 -0.3804,0.6262"
           style="fill:#1a1a18;fill-opacity:1;fill-rule:evenodd;stroke:none"
           id="path924" />
      </g>
      <g
         id="g926">
        <path
           d="m 217.0979,439.7477 c -1.0452,-0.4031 -1.4973,-0.8632 -1.6251,-1.2958 0.737,0.1891 1.4955,0.1548 1.9006,-0.6661 2.2107,-4.4785 -7.6434,0.2183 -0.5811,2.9517 0.2732,0.0845 0.5632,-0.0686 0.6477,-0.3421 0.0845,-0.2733 -0.0689,-0.5633 -0.3421,-0.6477 z m -1.3975,-2.3083 c 0.2616,-0.358 0.6372,-0.5913 0.7568,-0.5837 0.2084,0.2342 0.0845,0.7816 -0.7568,0.5837"
           style="fill:#1a1a18;fill-opacity:1;fill-rule:evenodd;stroke:none"
           id="path928" />
      </g>
      <g
         id="g930">
        <path
           d="m 189.4286,413.3089 c 4.1627,7.4427 6.2059,-1.061 2.8185,0.017 -0.5012,0.1593 -0.7963,0.521 -1.0315,0.9369 -0.2946,-0.3699 -0.5443,-0.8504 -0.8584,-1.4134 -0.127,-0.2565 -0.4376,-0.3614 -0.6942,-0.2347 -0.2562,0.127 -0.3614,0.4377 -0.2344,0.6942 z m 2.6124,1.6036 c 0.5335,-0.9862 0.997,-0.667 0.8286,0.1666 -0.3254,-0.0136 -0.5962,-0.0705 -0.8286,-0.1666"
           style="fill:#1a1a18;fill-opacity:1;fill-rule:evenodd;stroke:none"
           id="path932" />
      </g>
      <g
         id="g934">
        <path
           d="m 192.2043,418.1213 c -5.6067,6.3794 -6.1702,13.0671 -2.9293,21.0645 1.0244,2.5277 4.1975,6.1016 5.5128,2.7723 1.9839,5.6427 11.9897,8.2055 10.4408,2.6969 0.5687,0.1749 1.3006,0.3064 2.2317,0.3614 1.5835,0.093 4.6806,-1.2288 2.674,-3.2544 0.8229,-0.4862 1.565,-0.7132 2.7601,-1.5988 0.1905,-0.2134 0.172,-0.5408 -0.0414,-0.7313 -0.2132,-0.1905 -0.5406,-0.1721 -0.7314,0.0411 -0.8708,0.623 -4.0271,1.6883 -3.1651,2.6274 2.4896,2.7133 -3.0597,1.76 -4.4756,0.8725 -0.6707,-0.8297 -1.5035,0.0593 -0.6628,0.9167 0.3838,0.8969 0.8362,3.3203 -1.2299,3.0039 -4.2038,-0.6429 -6.0078,-3.38 -7.1314,-6.7946 -0.4839,-1.4701 -1.1696,-0.9757 -1.2371,-0.3124 -0.5176,5.0831 -3.1082,1.1755 -3.9889,-1.0009 -3.0631,-7.568 -2.6056,-13.8892 2.7062,-19.9316 0.2024,-0.2023 0.2024,-0.5303 0,-0.7327 -0.2024,-0.2024 -0.5303,-0.2024 -0.7327,0"
           style="fill:#1a1a18;fill-opacity:1;fill-rule:evenodd;stroke:none"
           id="path936" />
      </g>
      <g
         id="g938">
        <path
           d="m 194.9936,410.3254 c -4.3892,-8.1771 -6.1787,-15.3776 3.1408,-20.131 0.3841,-0.1959 0.7047,-0.3249 1.1333,-0.3493 0.2854,0.0179 0.5312,-0.199 0.5493,-0.4847 0.0179,-0.2854 -0.199,-0.5312 -0.4844,-0.5493 -0.6914,0.0337 -1.0338,0.1366 -1.6594,0.4555 -9.9417,5.0649 -8.2395,12.8817 -3.5422,21.6326 0.1584,0.2384 0.4802,0.303 0.7183,0.1445 0.2381,-0.1584 0.3027,-0.4799 0.1443,-0.7183"
           style="fill:#1a1a18;fill-opacity:1;fill-rule:evenodd;stroke:none"
           id="path940" />
      </g>
      <g
         id="g942">
        <path
           d="m 198.6432,405.9091 c -2.1793,-1.302 -1.783,-15.41 8.8418,-12.2755 4.7367,1.397 9.2764,-2.1418 0.1704,-6.313 -2.3324,-1.0684 1.1599,-10.7087 -3.8305,-10.0772 -1.7733,0.2245 -2.0673,2.3029 -2.1223,3.7143 l -0.055,0.1717 c -0.0876,0.2725 0.0627,0.5641 0.3351,0.6515 0.2721,0.0875 0.5638,-0.0627 0.6514,-0.3348 l 0.0368,-0.1145 c 0.1848,-0.5766 -0.0927,-2.539 1.0973,-3.0113 3.4696,-1.3776 0.4366,8.5561 3.5252,9.9712 7.6235,3.4925 4.1252,5.4229 0.4856,4.3483 -11.6473,-3.4381 -13.0774,12.1204 -9.595,14.1979 0.2565,0.127 0.5672,0.0218 0.6939,-0.2347 0.127,-0.2563 0.0218,-0.5669 -0.2347,-0.6939"
           style="fill:#1a1a18;fill-opacity:1;fill-rule:evenodd;stroke:none"
           id="path944" />
      </g>
      <g
         id="g946">
        <path
           d="m 199.4071,389.0713 c -6.6121,-3.3758 -5.4337,-10.8267 -2.5333,-7.2122 0.233,0.7089 0.6857,1.2005 1.3705,1.2039 0.2452,-0.3975 0.3617,-0.3887 0.1781,-0.7614 -0.1401,-0.2843 -0.2841,-0.5395 -0.4298,-0.7719 -1.7427,-4.0238 3.5397,-5.4088 3.5949,-0.8096 -0.0178,0.2855 0.199,0.5315 0.4845,0.5494 0.2854,0.0181 0.5315,-0.199 0.5496,-0.4845 -0.017,-1.324 -0.1108,-2.5149 -1.2966,-3.3769 -2.8227,-2.0517 -4.4322,0.4204 -4.6199,2.7108 -3.2164,-2.1084 -6.0363,5.6497 2.3026,9.9085 0.2639,0.1103 0.5675,-0.0142 0.6778,-0.2784 0.1102,-0.2639 -0.0142,-0.5672 -0.2784,-0.6777"
           style="fill:#1a1a18;fill-opacity:1;fill-rule:evenodd;stroke:none"
           id="path948" />
      </g>
      <g
         id="g950">
        <path
           d="m 223.6031,417.7222 c 3.5728,0.7701 10.1713,-8.5147 3.797,-13.5647 -2.2408,-1.7753 -3.6164,-6.3447 3.5399,-2.014 7.073,4.2803 11.8451,-5.3161 14.9482,-1.7801 0.7056,0.8042 -1.1069,2.258 -2.4338,2.601 -0.2855,-0.0175 -0.5315,0.1996 -0.5494,0.485 -0.0175,0.2855 0.1996,0.5315 0.485,0.5491 2.1887,-0.4445 4.7288,-2.6481 3.301,-4.2902 -3.9328,-4.523 -8.7313,5.4791 -15.1897,1.5644 -8.443,-5.1176 -7.9787,1.1379 -4.6381,3.771 5.4403,4.2882 -0.7418,12.164 -2.9299,11.6966 -0.2713,-0.0913 -0.5649,0.0547 -0.6559,0.3259 -0.0913,0.271 0.0544,0.5647 0.3257,0.656"
           style="fill:#1a1a18;fill-opacity:1;fill-rule:evenodd;stroke:none"
           id="path952" />
      </g>
      <g
         id="g954">
        <path
           d="m 244.9945,403.1405 c 5.6687,1.8331 2.2314,3.4529 -1.0406,3.3987 -0.2832,-0.0411 -0.546,0.1551 -0.5871,0.4382 -0.0411,0.2832 0.1551,0.546 0.4382,0.5871 5.0667,0.1378 7.9954,-3.3279 1.5889,-5.3799 -0.2639,-0.1102 -0.5673,0.0142 -0.6778,0.2781 -0.1103,0.2639 0.0145,0.5675 0.2784,0.6778"
           style="fill:#1a1a18;fill-opacity:1;fill-rule:evenodd;stroke:none"
           id="path956" />
      </g>
      <g
         id="g958">
        <path
           d="m 245.9767,407.3202 c 2.3422,1.2685 3.2224,6.5939 -7.6085,2.2212 -6.0812,-2.4554 -2.2966,-1.1393 -5.4142,6.01 -1.7861,4.0955 -4.6961,7.0571 -7.9744,9.7741 -0.0278,0.0233 -0.053,0.0468 -0.0754,0.0712 -0.2636,0.0221 -0.4714,0.2421 -0.4737,0.5116 -0.002,0.2863 0.2276,0.5199 0.5137,0.5225 0.3333,-0.007 0.6258,-0.0459 0.7582,-0.3249 0.4247,-0.1825 0.5225,-0.2401 1.3065,-0.8311 5.1398,-3.8741 7.1034,-10.0553 8.6754,-15.7569 16.2151,6.7677 13.4255,-1.679 10.692,-3.1536 -0.2639,-0.1103 -0.5674,0.0142 -0.6777,0.2781 -0.1103,0.2642 0.0142,0.5675 0.2781,0.6778"
           style="fill:#1a1a18;fill-opacity:1;fill-rule:evenodd;stroke:none"
           id="path960" />
      </g>
      <g
         id="g962">
        <path
           d="m 192.0821,417.6734 c -6.1801,3.9762 -10.1069,18.1885 -10.7833,24.7867 -0.7948,7.7531 -0.5862,13.5031 -0.8149,21.0135 -0.1103,0.2639 0.0141,0.5675 0.2781,0.6778 0.2639,0.1103 0.5674,-0.0142 0.6777,-0.2781 0.3385,-7.5668 0.0916,-13.608 0.8952,-21.4214 0.6296,-6.1228 4.5213,-20.1912 10.2453,-23.8703 0.2508,-0.1374 0.3427,-0.4521 0.2052,-0.703 -0.1375,-0.2508 -0.4524,-0.3429 -0.7033,-0.2052"
           style="fill:#1a1a18;fill-opacity:1;fill-rule:evenodd;stroke:none"
           id="path964" />
      </g>
      <g
         id="g966">
        <path
           d="m 180.6588,463.6769 c -2.3718,4.9334 -6.9934,0.6673 -11.1921,8.0166 -2.1659,3.7917 0.4028,7.9745 2.3018,4.8206 0.2129,2.2808 1.008,3.2823 2.8068,0.379 0.8144,2.8939 2.0084,2.9373 2.5529,0.7801 1.2303,2.2836 3.2103,2.5606 2.5549,-3.3942 -0.3824,-3.4727 4.5139,-6.6682 4.6888,-1.4479 l -0.019,-0.1114 c -5.4244,6.2869 6.5548,5.4918 3.1765,-2.1019 -2.5152,-5.654 -2.391,-11.7791 4.9362,-8.8549 0.2724,0.0876 0.5641,-0.0626 0.6514,-0.3347 0.0876,-0.2725 -0.0626,-0.5641 -0.3347,-0.6517 -1.2257,-0.4924 -2.4103,-1.0812 -3.7633,-1.0225 -5.4309,0.2361 -3.924,7.935 -2.3981,11.3618 2.2104,4.9646 -4.3949,6.2195 -2.2076,3.157 1.5088,-2.1127 1.1148,-4.6216 -1.0559,-5.1072 -5.8975,-1.3184 -4.5397,8.5516 -4.5888,8.824 -0.299,-0.0244 -0.9238,-0.6908 -1.0142,-0.9482 -0.1409,-0.4003 -0.2656,-0.737 -0.3776,-1.0199 0.008,-0.116 0.0159,-0.2344 0.0218,-0.3563 -0.0206,0.0759 -0.0501,0.1414 -0.0861,0.1967 -1.3298,-3.2604 -0.6055,1.8833 -1.3332,2.1761 -0.1292,-0.1369 -0.2239,-0.481 -0.2463,-0.5541 -1.5803,-5.1509 -1.218,-0.6616 -2.751,0.0964 -0.5596,-0.4703 -0.3997,-1.7731 -0.3217,-2.3403 0.5652,-4.1219 -2.2199,1.1046 -2.3522,1.3524 -0.6608,-0.3858 -0.7501,-2.3927 -0.4782,-3.1935 2.7209,-8.0167 8.9963,-3.5382 11.7847,-9.3226 0.1103,-0.2639 -0.0142,-0.5672 -0.2781,-0.6778 -0.2639,-0.1102 -0.5675,0.0145 -0.6777,0.2784"
           style="fill:#1a1a18;fill-opacity:1;fill-rule:evenodd;stroke:none"
           id="path968" />
      </g>
      <g
         id="g970">
        <path
           d="m 192.3055,461.3905 c 0.7109,4.8965 0.6834,8.8588 1.4936,13.6842 1.4935,8.8912 1.3532,21.289 12.6935,24.73 11.5053,3.4909 14.4558,-13.2199 1.7331,-16.0101 -8.8509,-1.9411 -2.5013,10.4366 -0.2441,5.8048 0.4519,-0.9272 -0.0623,-1.737 -0.3138,-2.5117 3.3996,-1.3352 7.4226,6.6534 2.8455,8.9849 -5.7975,2.9526 -10.9642,-6.4207 -11.8968,-10.561 -0.6355,-2.821 -5.1216,-28.0327 4.339,-23.4737 4.976,2.3975 -1.4159,17.0294 5.58,15.9809 2.1022,-0.315 2.6893,-1.9109 0.0156,-3.4229 -3.2,-1.8099 4.8512,-4.5428 4.2886,1.8706 -0.0216,0.2429 -1.5469,8.432 2.3383,5.0148 l 0.0558,-0.0502 c 0.4598,1.3419 1.9329,2.4676 3.0691,0.6732 0.7948,1.3845 2.2957,2.2805 3.2445,-0.0229 2.0829,4.0782 7.2825,-4.379 -1.9191,-9.4227 -7.719,-4.231 -10.5576,-3.8863 -9.2389,-13.8407 0.009,-0.0672 0.1355,-0.326 0.163,-0.3866 0.1102,-0.2639 -0.0142,-0.5675 -0.2781,-0.6778 -0.2639,-0.1103 -0.5675,0.0142 -0.6778,0.2784 -0.5088,1.1114 -0.4614,4.6726 -0.4039,5.8493 0.4907,10.0482 16.5155,8.2218 14.5692,16.8233 -0.6443,2.8477 -1.2146,1.0117 -1.7628,-0.2004 0.0119,-0.0587 0.0241,-0.1154 0.0354,-0.1763 l -0.1182,-10e-4 c -0.3062,-0.6373 -0.6063,-0.9939 -0.9094,-0.1324 -1.4584,4.1459 -2.1999,1.4831 -1.9346,-0.0312 0.0278,-0.1069 0.0547,-0.2166 0.0808,-0.3308 0.0981,-0.4272 0.005,-0.3935 -0.2781,-0.6778 -0.8042,-0.002 -1.1152,0.5244 -1.1058,1.2116 -0.3291,0.6766 -0.7807,1.4884 -1.1327,1.6313 -0.9275,-0.7441 0.7305,-3.0257 -0.4456,-3.1796 -1.6107,-0.2112 -3.1346,7.1249 -2.3208,-2.2428 0.444,-5.1123 -4.2882,-5.9442 -6.0655,-4.7095 -3.8792,2.6961 4.2576,4.5785 0.5746,5.1293 -5.3499,0.8002 0.7528,-13.125 -4.9425,-15.8746 -12.007,-5.7965 -6.649,25.8407 -3.7403,29.9427 10.7376,15.1441 18.5703,-0.1522 10.6783,-4.3294 -5.2744,-2.7915 -3.2623,1.9287 -3.2609,2.0566 0.0402,3.4557 -6.0959,-5.5197 0.8847,-3.9847 11.3346,2.4928 8.945,17.0909 -1.196,14.0108 -10.7926,-3.278 -10.576,-15.5177 -11.9987,-23.9956 -0.7997,-4.7653 -0.775,-8.7621 -1.4843,-13.6428 -0.0589,-0.2801 -0.3336,-0.4595 -0.6134,-0.4006 -0.28,0.0587 -0.4592,0.3334 -0.4005,0.6135"
           style="fill:#1a1a18;fill-opacity:1;fill-rule:evenodd;stroke:none"
           id="path972" />
      </g>
      <g
         id="g974">
        <path
           d="m 210.6451,458.21 c 1.8113,-5.368 2.9327,-10.2702 5.0723,-15.5554 0.1103,-0.2642 -0.0142,-0.5675 -0.2781,-0.6778 -0.2639,-0.1105 -0.5675,0.0142 -0.6778,0.2781 -2.1461,5.2997 -3.2632,10.1832 -5.0726,15.5557 -0.1102,0.2639 0.0145,0.5675 0.2784,0.6777 0.2639,0.1103 0.5672,-0.0141 0.6778,-0.2783"
           style="fill:#1a1a18;fill-opacity:1;fill-rule:evenodd;stroke:none"
           id="path976" />
      </g>
    </g>
  </g>
</svg>
