<?xml version="1.0" encoding="UTF-8" standalone="no"?>
<svg
   xmlns:dc="http://purl.org/dc/elements/1.1/"
   xmlns:cc="http://creativecommons.org/ns#"
   xmlns:rdf="http://www.w3.org/1999/02/22-rdf-syntax-ns#"
   xmlns:svg="http://www.w3.org/2000/svg"
   xmlns="http://www.w3.org/2000/svg"
   xmlns:sodipodi="http://sodipodi.sourceforge.net/DTD/sodipodi-0.dtd"
   xmlns:inkscape="http://www.inkscape.org/namespaces/inkscape"
   width="152.69537mm"
   height="154.22142mm"
   viewBox="0 0 152.69537 154.22142"
   version="1.1"
   id="svg26526"
   sodipodi:docname="mouse.svg"
   inkscape:version="1.0.2 (e86c8708, 2021-01-15)">
  <defs
     id="defs26520" />
  <sodipodi:namedview
     id="base"
     pagecolor="#ffffff"
     bordercolor="#666666"
     borderopacity="1.0"
     inkscape:pageopacity="0.0"
     inkscape:pageshadow="2"
     inkscape:zoom="2.2158485"
     inkscape:cx="182.58407"
     inkscape:cy="203.0968"
     inkscape:document-units="mm"
     inkscape:current-layer="layer1"
     inkscape:document-rotation="0"
     showgrid="false"
     inkscape:window-width="1440"
     inkscape:window-height="855"
     inkscape:window-x="0"
     inkscape:window-y="23"
     inkscape:window-maximized="0"
     fit-margin-top="0"
     fit-margin-left="0"
     fit-margin-right="0"
     fit-margin-bottom="0" />
  <metadata
     id="metadata26523">
    <rdf:RDF>
      <cc:Work
         rdf:about="">
        <dc:format>image/svg+xml</dc:format>
        <dc:type
           rdf:resource="http://purl.org/dc/dcmitype/StillImage" />
        <dc:title />
      </cc:Work>
    </rdf:RDF>
  </metadata>
  <g
     inkscape:label="Слой 1"
     inkscape:groupmode="layer"
     id="layer1"
     transform="translate(-0.52467376,-0.25037359)">
    <g
       id="g1484"
       transform="matrix(0.98135222,0,0,-0.98135222,-631.89121,465.61898)">
      <path
         d="m 675.9661,441.2016 -4.7789,2.1172 c 0.7458,1.8802 0.373,4.136 2.1988,7.552 1.1948,2.2354 -8.528,3.7934 -9.8257,3.7596 -3.8418,-0.0992 -4.7741,-0.6585 -7.4503,-4.0728 -1.0301,-1.3144 -2.7221,-3.335 -2.8018,-5.0128 -0.0445,-0.9371 -1.1577,-2.7071 -1.1577,-6.6835 0,-4.377 2.6071,-6.5676 5.2844,-9.5448 2.253,-2.5061 7.9772,-3.3001 0.7038,-3.3001 -0.4079,0 -5.2588,2.6609 -5.3019,2.6702 -0.006,0.0442 -2.9219,2.5424 -3.2613,3.2406 -1.3643,2.8063 -5.0638,6.4638 -4.8398,10.8071 0.1253,2.4298 -1.1585,2.2481 0.7758,6.0122 3.1547,6.1393 1.3649,3.6791 6.2303,8.7455 2.6821,2.793 9.1601,4.3526 13.0717,4.2401 1.6463,-0.0474 2.9004,0.4444 4.6729,-0.2866 2.6793,-1.1053 6.8082,-2.0044 8.3276,-5.0664 0.5613,-1.1313 0.4102,-1.6274 1.4145,-1.8346 4.7758,1.5432 5.2415,2.5912 11.0395,1.1123 2.6442,-0.6743 4.2613,-2.7249 4.8994,1.1759 1.0687,6.5313 7.2853,10.5409 12.5317,13.767 0.1772,0.1088 2.0801,1.0627 2.202,1.0531 l 9.8682,2.5588 c 4.2285,0 5.3238,-0.0731 9.3827,-0.8399 5.9457,-1.1231 6.5747,-2.5056 11.304,-5.5871 l 0.1998,-0.1519 4.6038,-6.1325 3.8874,-10.6648 -0.398,-11.2689 -4.3341,-7.7799 -10.234,-7.3103 -5.7251,-2.4857 11.9381,-6.2864 10.6002,-9.0856 8.2499,-14.8813 2.8528,-16.9189 -0.6429,-10.0599 -7.5569,-20.2937 12.7015,0.9983 12.6227,4.9326 7.5336,7.1155 4.5119,10.8196 -0.0394,13.5765 -3.8917,9.3093 -10.3963,11.662 -12.4492,10.6948 -8.4977,11.0673 -1.709,8.7642 5.0828,10.6976 1.0942,-5.1531 2.2413,-11.368 3.8991,-5.8193 6.6892,-6.0063 17.0705,-16.6371 5.4337,-8.2698 1.9327,-4.9601 1.2112,-13.0711 -2.0934,-11.6138 -5.2931,-11.4613 -9.5652,-8.0544 -18.9879,-5.0122 -25.6042,-2.9398 -14.4604,-3.7355 -16.7865,-10.1268 -4.6638,-1.0414 c -2.4075,-1.258 -0.5454,3.0724 -2.5396,1.5276 -0.3311,-0.2566 -6.4786,-1.3805 -4.4132,3.3236 0.117,0.2662 -9.0797,3.4818 1.1848,8.7276 3.0691,1.5687 6.2238,2.7513 9.6166,3.0285 1.0406,0.0853 1.7379,0.4266 3.2105,0.4266 0.005,0.0669 -4.0754,3.6652 -4.595,4.7325 -1.6829,3.4562 -4.5518,6.5962 -5.9794,10.3654 -0.2049,0.5406 -1.3663,2.5546 -1.3308,2.9687 -0.2115,1.2895 -0.1574,4.8127 -0.5488,6.77 -0.8779,4.3881 2.2002,9.6775 3.9951,13.5255 1.7436,3.7384 7.3103,3.1587 -1.0533,6.1611 -3.8432,1.3799 2.3227,-1.7186 -2.4616,-5.3974 -0.9479,-0.7294 -6.5208,-2.0475 -8.3546,-1.4443 -1.7189,0.5658 -3.3055,0.8827 -3.5952,3.6998 -0.4019,3.9047 2.3304,8.5331 4.9261,11.1206 0.1794,0.1789 0.6579,0.7603 0.8263,0.8623 1.7504,3.1799 4.7511,1.8485 1.2892,4.5947 -0.3886,0.3084 -0.8161,1.1015 -0.94,1.5069 -0.864,0.18 1.4791,0.9998 -3.8908,0.9998 -2.3851,0 -11.2975,0.5799 -12.8274,2.0109 -0.3469,0.3245 -8.5084,4.6692 -8.7301,4.1505 -1.3201,-3.0887 -5.6636,-3.2273 -8.2409,-1.6708 -0.7886,0.4759 -0.6545,-0.2406 -2.5512,1.0174 -1.0241,0.6789 -1.8323,2.6645 -2.3303,3.8905 -0.3796,0.9346 -0.8357,2.545 -0.8357,3.5507 l -0.4419,4.2174 4.3994,-0.5808 4.663,1.7807 1.9882,4.7126 -1.427,4.0697 -1.5477,2.393 3.1538,0.4742 3.8821,2.1322 3.2383,4.0303 4.1267,-0.2545 2.2943,1.9179 1.2759,3.5626 2.5778,-2.8891 4.7568,-0.8523 4.3328,1.5429 2.8125,3.2 0.8,6.311 -4.6491,3.7591 -7.9847,-0.2844 -2.7178,-2.0126 z"
         style="fill:#c2c2c2;fill-opacity:1;fill-rule:evenodd;stroke:none"
         id="path1486" />
      <path
         d="m 691.6989,328.6704 1.0723,-3.513 -35.2754,7.3511 -5.2705,2.9883 7.7315,24.5633 12.1255,30.2737 4.0524,-2.1682 2.2952,1.4114 0.7067,8.1782 11.4928,-1.1823 2.7482,-3.4197 -4.5097,-4.9955 -3.2655,-7.2454 0.1126,-4.0116 2.1211,-2.7224 6.3505,0.3507 3.9552,1.6863 0.8478,5.309 4.8705,-3.0503 -5.1279,-5.8173 -1.9922,-7.5189 -0.7483,-6.8032 4.0813,-10.1593 8.551,-11.1218 -6.7045,-1.2979 -7.5682,-3.1822 z"
         style="fill:#f7ff00;fill-opacity:1;fill-rule:evenodd;stroke:none"
         id="path1488" />
      <path
         d="m 668.857,386.8676 c -2.8289,-0.9632 -4.6939,-0.6318 -6.9746,-3.4035 -1.0741,-1.3054 -2.069,-3.949 -1.1874,-5.514 1.3283,-2.3587 0.7092,-2.9217 4.0889,-3.964 1.6002,-0.4932 2.8596,-1.7807 3.5941,1.2008 0.3914,1.5888 -1.3349,0.5442 1.3844,0.7356 0.7847,0.0553 1.5531,1.254 1.5531,2.2589 0,1.404 -0.4892,2.5583 -1.1398,3.7162 -0.0283,0.0505 4.2049,1.08 1.6963,4.0935 -0.4391,0.5276 -2.541,1.0378 -3.015,0.8765"
         style="fill:#c2c2c2;fill-opacity:1;fill-rule:evenodd;stroke:none"
         id="path1490" />
      <path
         d="m 693.9079,392.5264 c -0.9754,0.0292 -0.7979,0.8669 -1.4984,1.4902 -1.2551,1.1168 0.2478,2.772 -2.933,2.772 -3.1566,0 -3.8687,-0.3932 -4.6204,-3.5461 -0.5845,-2.4517 -3.191,-8.2996 -0.2611,-10.3822 0.0986,-0.07 1.5616,-0.2288 1.6529,0.7223 0.0604,0.6275 3.7958,6.1894 4.443,6.5222 1.5596,0.8016 2.234,0.9411 3.3551,2.2317 0.0538,0.0621 0.0881,0.1831 -0.1381,0.1899"
         style="fill:#ff7700;fill-opacity:1;fill-rule:evenodd;stroke:none"
         id="path1492" />
      <path
         d="m 675.5134,374.2461 c -1.2861,0.2939 -5.0077,-0.7058 -5.7748,-2.2984 -1.419,-2.9454 -0.8294,-5.6089 2.6765,-6.5313 5.2092,-1.3714 5.7339,2.7074 5.796,6.8327 0.0125,0.8203 -1.0823,2.8644 -2.1498,2.1529 -0.1882,-0.1259 -0.5202,-0.1622 -0.5479,-0.1559"
         style="fill:#ff7700;fill-opacity:1;fill-rule:evenodd;stroke:none"
         id="path1494" />
      <path
         d="m 697.5547,369.7914 c -1.2155,0.8158 -5.5284,-1.2302 -6.124,-2.3567 -1.0973,-2.0755 -2.2969,-3.3211 -0.8623,-6.2121 1.9599,-3.9492 2.8693,-2.3091 5.4482,-3.4251 0.9927,-0.43 -0.191,4.0501 0.1358,5.5091 0.2517,1.1242 0.6837,4.1066 1.1699,5.0247 0.1417,0.267 0.3475,1.383 0.2324,1.4601"
         style="fill:#ff7700;fill-opacity:1;fill-rule:evenodd;stroke:none"
         id="path1496" />
      <path
         d="m 682.6493,357.6532 c -1.9777,-0.1596 -4.5995,-0.9695 -5.8227,-2.6683 -2.004,-2.783 -1.6509,-2.4502 -2.6092,-5.6511 -1.9642,-6.5585 1.9797,-7.3531 7.4803,-8.6769 3.528,-0.8489 6.7394,0.5072 7.043,4.4995 0.3483,4.5774 1.1177,5.2971 -1.444,9.6511 -0.2872,0.4884 -4.1321,2.8874 -4.6474,2.8457"
         style="fill:#ff7700;fill-opacity:1;fill-rule:evenodd;stroke:none"
         id="path1498" />
      <path
         d="m 659.6232,359.0005 c 5.3762,-0.6389 8.0844,-2.5747 6.605,-8.348 -0.5964,-2.327 -2.2561,-3.8367 -3.8594,-5.5214 -1.3904,-1.4609 -10.3402,-4.2811 -7.6161,1.0608 1.0352,2.0301 2.0979,5.4275 3.382,7.3281 0.7132,1.0553 1.9933,5.4207 1.4885,5.4805"
         style="fill:#ff7700;fill-opacity:1;fill-rule:evenodd;stroke:none"
         id="path1500" />
      <path
         d="m 652.5694,340.0866 c 2.1184,-0.0527 4.2089,-1.2795 6.1209,-2.1577 1.9335,-0.8878 3.6468,-2.2144 5.9006,-2.9285 1.1151,-0.3532 1.9647,-0.7302 3.2179,-1.0128 2.8709,-0.6474 5.7665,-1.3266 8.6261,-2.1022 3.3738,-0.9147 8.9334,-1.7711 12.5719,-2.0976 1.2269,-0.11 0.9204,-0.2625 2.162,-0.152 0.1301,0.0117 -0.5686,-2.3292 0.3745,-3.2195 1.1557,-1.092 -3.699,2e-4 -4.2177,0.0521 -1.961,0.1959 -7.7777,1.6243 -9.0408,1.6098 -1.872,-0.0213 -13.8127,2.4406 -15.7218,3.2627 -2.3068,0.9935 -5.343,0.7517 -8.602,2.4423 -2.3281,1.2076 -1.6501,1.8145 -1.6501,4.8217 0,0.8113 0.4068,1.478 0.2585,1.4817"
         style="fill:#ff7700;fill-opacity:1;fill-rule:evenodd;stroke:none"
         id="path1502" />
      <path
         d="m 731.8332,431.2148 -16.2697,-4.9839 c -0.6049,2.1606 -2.5855,6.514 -5.3155,6.4304 -0.6024,-0.0184 -5.8213,0.383 -5.8213,0.4178 0,2.1436 0.5225,1.9696 -0.6088,4.1086 -0.6293,1.1903 -4.2463,7.5676 -4.195,8.2142 0.1437,1.821 -0.6622,4.5278 1.3575,7.1014 1.8212,2.3207 1.7566,4.1139 4.2281,6.5367 l 7.7264,5.9105 5.1721,2.0687 11.7893,-2.0137 6.5874,-4.1519 4.0323,-7.4665 0.8793,-6.2096 -3.9571,-9.7191 z"
         style="fill:#ff969d;fill-opacity:1;fill-rule:evenodd;stroke:none"
         id="path1504" />
      <path
         d="m 668.9815,454.6689 4.9291,-2.7031 -2.2495,-8.0081 -4.0743,-1.4134 -1.5009,-3.1589 0.8492,-4.4785 3.2094,-2.0746 -4.3095,-4.1854 -3.259,-1.66 -5.7407,3.6581 -3.6394,6.3638 -0.4601,5.8802 2.3984,6.2663 5.6396,5.385 z"
         style="fill:#ff969d;fill-opacity:1;fill-rule:evenodd;stroke:none"
         id="path1506" />
      <path
         d="m 648.5457,426.0526 c -4.03,-0.1794 -4.2528,-5.4776 -0.4448,-8.7259 4.2327,-3.6107 3.3367,-3.9631 10.3655,-2.7751 5.6301,0.9513 4.0802,9.4127 2.2617,10.3927 -2.4653,1.328 -9.4612,1.2297 -12.1824,1.1083"
         style="fill:#ed4e4e;fill-opacity:1;fill-rule:evenodd;stroke:none"
         id="path1508" />
      <path
         d="m 693.9777,433.7572 c -1.1597,-0.3104 -4.3478,-1.3513 -3.0816,-3.2029 0.7949,-1.1619 7.2732,-2.2714 7.4713,-0.7486 0.1947,1.4981 0.4592,1.6495 -1.7887,2.8032 -0.5845,0.2999 -2.5696,1.1568 -2.601,1.1483"
         style="fill:#ff969d;fill-opacity:1;fill-rule:evenodd;stroke:none"
         id="path1510" />
    </g>
    <g
       id="g26094"
       transform="matrix(2.7817859,0,0,2.7817859,-413.72662,-144.28942)">
      <g
         id="g1512"
         transform="matrix(0.35277777,0,0,-0.35277777,-78.329785,219.77885)">
        <g
           id="g1514">
          <path
             d="m 646.2677,422.7973 c -0.6576,-8.7636 14.1721,-12.1541 15.2312,-2.084 0.5777,5.493 -13.0723,6.8434 -14.6645,2.7076 -0.0771,-0.2999 -0.2962,-0.5252 -0.5667,-0.6236 z m -0.5816,2.1569 c 3.8338,5.1503 18.3509,2.7077 17.6074,-4.4308 -1.332,-12.7885 -21.1014,-8.534 -18.612,3.8086 0.1352,0.434 0.5683,0.6928 1.0046,0.6222"
             style="fill:#1a1a18;fill-opacity:1;fill-rule:evenodd;stroke:none"
             id="path1516" />
        </g>
        <g
           id="g1518">
          <path
             d="m 657.5525,427.0541 c 6.9267,0.3067 7.7712,1.7578 12.0248,6.4451 0.3665,0.3377 0.9372,0.3147 1.275,-0.0521 0.3377,-0.3665 0.3144,-0.9371 -0.0521,-1.275 -4.6106,-5.1279 -5.8799,-6.5872 -13.2477,-6.9225 -0.4984,0 -0.9023,0.4042 -0.9023,0.9022 0,0.4984 0.4039,0.9023 0.9023,0.9023"
             style="fill:#1a1a18;fill-opacity:1;fill-rule:evenodd;stroke:none"
             id="path1520" />
        </g>
        <g
           id="g1522">
          <path
             d="m 659.0999,413.8997 c 6.7924,-11.6697 20.9633,-20.2224 34.6518,-15.1575 7.9779,2.952 7.975,12.822 1.918,19.2235 l -1.3655,1.2951 c -0.4033,0.2923 -0.4929,0.8566 -0.2007,1.26 0.2926,0.4034 0.8569,0.493 1.2603,0.2007 l 1.6268,-1.5267 c 6.9296,-7.2831 6.6189,-18.7163 -2.6342,-22.1528 -14.5908,-5.4187 -29.6518,3.6431 -36.8901,16.0912 -0.2117,0.4512 -0.0176,0.9884 0.4337,1.2002 0.451,0.2114 0.9882,0.0172 1.1999,-0.4337"
             style="fill:#1a1a18;fill-opacity:1;fill-rule:evenodd;stroke:none"
             id="path1524" />
        </g>
        <g
           id="g1526">
          <path
             d="m 652.2931,413.2383 c 0.9161,-15.0134 12.6819,-13.5666 13.0246,-9.1899 0,0.4983 0.4039,0.9023 0.9023,0.9023 0.498,0 0.9022,-0.404 0.9022,-0.9023 -0.5502,-6.9701 -15.5659,-8.2471 -16.6337,9.1899 0,0.4984 0.404,0.9023 0.9023,0.9023 0.4981,0 0.9023,-0.4039 0.9023,-0.9023"
             style="fill:#1a1a18;fill-opacity:1;fill-rule:evenodd;stroke:none"
             id="path1528" />
        </g>
        <g
           id="g1530">
          <path
             d="m 665.6587,400.7245 c 1.429,-2.9514 13.0862,-19.2047 12.1927,-6.5622 l -0.2106,2.9585 c 0,0.4981 0.4039,0.9023 0.9022,0.9023 0.4984,0 0.9023,-0.4042 0.9023,-0.9023 l 0.2007,-2.7686 c 1.0176,-14.4734 -12.0682,-2.2586 -15.7887,6.266 -0.0292,0.4975 0.3504,0.9244 0.8476,0.9539 0.4974,0.0292 0.9243,-0.3504 0.9538,-0.8476"
             style="fill:#1a1a18;fill-opacity:1;fill-rule:evenodd;stroke:none"
             id="path1532" />
        </g>
        <g
           id="g1534">
          <path
             d="m 676.1789,388.1684 c -0.5618,2.132 -6.3691,9.6251 -8.1431,13.4093 0.0392,0.4969 0.4737,0.8677 0.9703,0.8283 0.497,-0.0394 0.8677,-0.4737 0.8286,-0.9703 1.6742,-2.7842 7.674,-10.4343 8.1479,-13.3251 -0.0159,-0.498 -0.4326,-0.8886 -0.9306,-0.8728 -0.498,0.0159 -0.8889,0.4326 -0.8731,0.9306"
             style="fill:#1a1a18;fill-opacity:1;fill-rule:evenodd;stroke:none"
             id="path1536" />
        </g>
        <g
           id="g1538">
          <path
             d="m 692.5,423.4374 c 0.2763,-2.8707 4.0714,-2.6683 4.7874,-0.0561 0.0845,0.4909 0.5508,0.8209 1.0417,0.7367 0.4913,-0.0845 0.8212,-0.5508 0.7368,-1.0417 -1.3176,-4.7852 -7.8656,-4.7659 -8.3705,0.3611 0,0.4983 0.404,0.9025 0.9023,0.9025 0.4983,0 0.9023,-0.4042 0.9023,-0.9025"
             style="fill:#1a1a18;fill-opacity:1;fill-rule:evenodd;stroke:none"
             id="path1540" />
        </g>
        <g
           id="g1542">
          <path
             d="m 692.5453,432.0972 c -3.7003,-3.5617 9.7886,-3.6581 3.7647,0.1191 -1.0899,0.6837 -2.4001,1.0091 -3.4279,0.1071 -0.097,-0.1034 -0.2126,-0.1788 -0.3368,-0.2262 z m -0.8195,1.5939 c 2.3346,1.8624 5.7555,0.7731 7.0926,-1.4244 4.6613,-7.6614 -13.771,-4.7494 -7.3743,1.268 0.0864,0.0706 0.1819,0.1224 0.2817,0.1564"
             style="fill:#1a1a18;fill-opacity:1;fill-rule:evenodd;stroke:none"
             id="path1544" />
        </g>
        <g
           id="g1546">
          <path
             d="m 701.623,407.2139 c 19.4357,2.1971 15.539,30.1935 2.1747,24.1435 -0.4711,-0.163 -0.985,0.0867 -1.148,0.5578 -0.163,0.4709 0.0867,0.9848 0.5579,1.1478 0.4388,0.2069 0.8084,0.4045 1.3084,0.4813 17.3668,2.6626 16.7284,-25.9146 -2.893,-28.1353 -0.4983,0 -0.9023,0.4043 -0.9023,0.9026 0,0.498 0.404,0.9023 0.9023,0.9023"
             style="fill:#1a1a18;fill-opacity:1;fill-rule:evenodd;stroke:none"
             id="path1548" />
        </g>
        <g
           id="g1550">
          <path
             d="m 704.0642,432.686 c -0.8416,7.9531 -10.9721,10.8204 -0.635,25.4562 16.1827,22.9125 52.7482,1.048 33.0562,-23.6962 -4.7622,-5.9839 -12.8965,-8.3134 -20.2237,-8.4917 -0.4984,0 -0.9023,0.4039 -0.9023,0.9022 0,0.4984 0.4039,0.9023 0.9023,0.9023 6.8034,0.1607 14.3807,2.2419 18.8101,7.8089 18.1894,22.8606 -15.4213,42.4156 -30.1674,21.5354 -9.7189,-13.7622 0.0516,-15.3706 0.9606,-24.5331 -0.032,-0.4974 -0.4612,-0.8744 -0.9584,-0.8424 -0.4972,0.032 -0.8742,0.4612 -0.8424,0.9584"
             style="fill:#1a1a18;fill-opacity:1;fill-rule:evenodd;stroke:none"
             id="path1552" />
        </g>
        <g
           id="g1554">
          <path
             d="m 674.6916,438.8899 c 1.2152,-1.4006 0.6196,-0.6662 1.781,-2.2079 0.1624,-0.4711 -0.0879,-0.9851 -0.5587,-1.1475 -0.4711,-0.1624 -0.985,0.0876 -1.1475,0.5587 -0.7818,0.8431 -0.3991,0.3972 -1.1429,1.3422 -0.4017,0.2948 -0.4881,0.8598 -0.1933,1.2615 0.2951,0.4013 0.8597,0.4878 1.2614,0.193"
             style="fill:#1a1a18;fill-opacity:1;fill-rule:evenodd;stroke:none"
             id="path1556" />
        </g>
        <g
           id="g1558">
          <path
             d="m 675.3268,439.3689 c 0.6069,-0.3772 0.9034,-0.5728 1.2408,-1.2001 0.1763,-0.4661 -0.0584,-0.9868 -0.5245,-1.1631 -0.4345,-0.1641 -0.917,0.0289 -1.1228,0.4337 -0.1406,0.1426 -0.3016,0.2463 -0.4705,0.3523 -0.4354,0.2424 -0.5922,0.7918 -0.3501,1.2274 0.2424,0.4355 0.7917,0.5922 1.2271,0.3498"
             style="fill:#1a1a18;fill-opacity:1;fill-rule:evenodd;stroke:none"
             id="path1560" />
        </g>
        <g
           id="g1562">
          <path
             d="m 686.9225,435.0529 c -6.6912,-0.7648 -2.7482,11.7989 1.9599,4.6131 0.9037,-1.3788 0.2959,-2.5424 -0.4706,-3.7567 -0.0428,-0.2274 -0.1717,-0.4329 -0.3625,-0.569 -0.2531,-0.3551 -0.7296,-0.4801 -1.1268,-0.2874 z m -0.0246,1.8071 c 0.3262,0.5003 0.6987,1.1475 0.608,1.5276 -1.0644,4.4668 -4.5269,-2.1906 -0.608,-1.5276"
             style="fill:#1a1a18;fill-opacity:1;fill-rule:evenodd;stroke:none"
             id="path1564" />
        </g>
        <g
           id="g1566">
          <path
             d="m 687.174,439.416 c -0.0715,-1.9525 -0.0366,-0.9777 -0.1046,-2.9239 0,-0.4984 -0.404,-0.9023 -0.9023,-0.9023 -0.4983,0 -0.9023,0.4039 -0.9023,0.9023 0.0692,2.01 0.0343,1.0355 0.1046,2.9239 0,0.4983 0.404,0.9023 0.9023,0.9023 0.498,0 0.9023,-0.404 0.9023,-0.9023"
             style="fill:#1a1a18;fill-opacity:1;fill-rule:evenodd;stroke:none"
             id="path1568" />
        </g>
        <g
           id="g1570">
          <path
             d="m 686.6158,440.7211 c 1.6268,-1.1634 1.5905,-1.7076 1.495,-3.636 0.0391,-0.4967 -0.3317,-0.9312 -0.8286,-0.9703 -0.4966,-0.0394 -0.9311,0.3313 -0.9703,0.8283 0.036,1.1126 0.3289,1.561 -0.5935,2.2121 -0.4326,0.248 -0.5823,0.7994 -0.3342,1.2317 0.248,0.4325 0.7993,0.5822 1.2316,0.3342"
             style="fill:#1a1a18;fill-opacity:1;fill-rule:evenodd;stroke:none"
             id="path1572" />
        </g>
        <g
           id="g1574">
          <path
             d="m 686.6169,439.4259 c -0.3911,-0.5167 -0.2846,-1.3725 -0.2786,-1.9942 0,-0.498 -0.4039,-0.9022 -0.9023,-0.9022 -0.4983,0 -0.9022,0.4042 -0.9022,0.9022 -0.0136,1.4194 -0.099,2.0875 0.7659,3.2276 0.3404,0.3637 0.9116,0.3824 1.2753,0.0419 0.3637,-0.3407 0.3824,-0.9116 0.0419,-1.2753"
             style="fill:#1a1a18;fill-opacity:1;fill-rule:evenodd;stroke:none"
             id="path1576" />
        </g>
        <g
           id="g1578">
          <path
             d="m 674.7094,438.5143 c -0.2763,0.002 -0.93,0.023 -1.2333,-0.0479 -0.0748,-0.3852 -0.0468,-0.3852 -0.0403,-0.8719 0.1123,-0.2997 1.3267,-0.9051 1.6524,-1.0795 0.2605,0.2214 0.9085,1.5857 -0.3788,1.9993 z m -1.0771,1.7399 c 0.148,0.1063 0.3294,0.1692 0.5258,0.1692 1.7048,-0.1536 2.9993,-0.8027 3.0983,-2.7345 0.3926,-7.657 -10.3728,1.6925 -3.6241,2.5653"
             style="fill:#1a1a18;fill-opacity:1;fill-rule:evenodd;stroke:none"
             id="path1580" />
        </g>
        <g
           id="g1582">
          <path
             d="m 678.3494,439.7009 c -0.1034,-12.5099 -16.4225,-7.9671 -12.755,1.4431 1.8331,4.703 8.5906,4.9374 11.8941,0.8286 0.258,-0.4264 0.1219,-0.9811 -0.3044,-1.2393 -0.4263,-0.258 -0.9811,-0.1219 -1.2393,0.3044 -1.7068,2.1132 -4.2653,2.4715 -6.7201,1.5208 v 3e-4 c -0.7353,-0.4924 -1.0386,-0.593 -1.5375,-1.2983 -4.2747,-6.042 8.7675,-12.5371 8.8588,-1.5015 0.0159,0.498 0.4329,0.8889 0.9309,0.8728 0.4981,-0.0162 0.8887,-0.4329 0.8725,-0.9309"
             style="fill:#1a1a18;fill-opacity:1;fill-rule:evenodd;stroke:none"
             id="path1584" />
        </g>
        <g
           id="g1586">
          <path
             d="m 676.0667,441.1239 c -3.3622,15.5012 23.6126,11.353 16.4545,-2.5821 -2.9613,-5.7648 -14.8946,-7.6995 -15.6625,1.1883 0,0.498 0.4039,0.9022 0.9022,0.9022 0.4984,0 0.9023,-0.4042 0.9023,-0.9022 0.5502,-6.2847 9.0085,-4.7353 11.7142,-1.2252 8.0776,10.4789 -15.4145,16.147 -12.5932,3.1726 0.1531,-0.4743 -0.1074,-0.9825 -0.582,-1.1356 -0.4742,-0.1528 -0.9825,0.1077 -1.1355,0.582"
             style="fill:#1a1a18;fill-opacity:1;fill-rule:evenodd;stroke:none"
             id="path1588" />
        </g>
        <g
           id="g1590">
          <path
             d="m 670.8022,443.8037 c 1.711,17.5196 24.8547,15.3023 24.9865,9.9684 -0.0314,-0.4972 -0.4603,-0.8748 -0.9575,-0.8433 -0.4972,0.0314 -0.8748,0.4603 -0.8433,0.9575 -0.0445,1.9046 -19.8627,5.5522 -21.3809,-10.0826 0,-0.4983 -0.4042,-0.9022 -0.9026,-0.9022 -0.498,0 -0.9022,0.4039 -0.9022,0.9022"
             style="fill:#1a1a18;fill-opacity:1;fill-rule:evenodd;stroke:none"
             id="path1592" />
        </g>
        <g
           id="g1594">
          <path
             d="m 693.777,452.5761 c 2.5755,29.0509 53.2176,33.5568 57.1501,-2.9301 1.6022,-14.8675 -11.194,-26.4626 -25.7318,-28.5894 l -9.212,-0.5032 c -0.498,0 -0.9023,0.404 -0.9023,0.9023 0,0.498 0.4043,0.9023 0.9023,0.9023 l 8.9824,0.4884 c 13.5587,1.9783 25.6524,12.7275 24.1657,26.619 -3.6783,34.3681 -51.1909,29.711 -53.5499,3.1107 0,-0.4983 -0.4039,-0.9022 -0.9023,-0.9022 -0.498,0 -0.9022,0.4039 -0.9022,0.9022"
             style="fill:#1a1a18;fill-opacity:1;fill-rule:evenodd;stroke:none"
             id="path1596" />
        </g>
        <g
           id="g1598">
          <path
             d="m 679.0147,454.6596 c -17.3948,19.9137 -47.7643,-6.9321 -24.0763,-25.2156 2.5341,-1.9559 4.9926,-1.5194 5.3937,-2.7028 0.3277,-0.1763 0.525,-0.5454 0.4641,-0.9341 -0.0769,-0.4923 -0.5383,-0.8291 -1.0307,-0.752 -0.5409,0.1134 -0.9235,0.3385 -1.0894,0.7433 -1.8983,0.3951 -3.1391,0.9051 -4.8143,2.1971 -25.7548,19.8652 7.2997,49.8407 26.617,27.7189 0.2911,-0.4043 0.1996,-0.9681 -0.2047,-1.2595 -0.4042,-0.2914 -0.968,-0.1995 -1.2594,0.2047"
             style="fill:#1a1a18;fill-opacity:1;fill-rule:evenodd;stroke:none"
             id="path1600" />
        </g>
        <g
           id="g1602">
          <path
             d="m 674.0742,450.8549 c -7.3885,4.3297 -14.2291,5.7252 -19.0885,-3.7553 -3.3554,-6.5463 -0.9099,-13.6743 5.243,-17.5935 l 2.6864,-1.6628 c 0.4711,-0.163 0.7208,-0.6767 0.5578,-1.1475 -0.163,-0.4711 -0.6766,-0.7211 -1.1475,-0.5581 l -3.0636,1.8448 c -8.045,5.1239 -10.1537,15.4851 -4.076,22.6581 6.5469,7.7276 12.1159,6.272 19.7907,1.7771 0.4317,-0.2489 0.5794,-0.8008 0.3302,-1.2325 -0.2489,-0.4318 -0.8008,-0.5794 -1.2325,-0.3303"
             style="fill:#1a1a18;fill-opacity:1;fill-rule:evenodd;stroke:none"
             id="path1604" />
        </g>
        <g
           id="g1606">
          <path
             d="m 724.9,403.7559 c 11.1733,-21.5272 -5.4312,-36.0406 -21.8523,-25.7987 -0.4368,0.2721 -1.9006,0.9499 -3.4404,1.7422 0.6386,-3.223 -0.7189,-6.922 -5.4836,-3.996 -0.7654,0.4697 -3.0521,3.2346 -2.8517,4.085 0,0.4983 0.4039,0.9022 0.9023,0.9022 0.4881,0 0.8858,-0.3877 0.9017,-0.8716 5.0156,-7.2218 7.1022,-0.0663 3.0557,1.7887 0.0346,-0.005 0.006,-0.001 0.0862,-0.003 l -0.008,0.1017 c -1.0134,0.7716 -1.3592,1.4281 -0.1423,1.6968 0.6936,0.1528 1.3167,-0.0445 1.8442,-0.4682 2.3119,-0.7427 3.4849,-1.8205 6.1183,-3.4637 14.9944,-9.3569 29.4758,3.7837 19.3306,23.3433 -0.26,0.4252 -0.1262,0.9805 0.299,1.2407 0.4249,0.26 0.9802,0.1262 1.2405,-0.299"
             style="fill:#1a1a18;fill-opacity:1;fill-rule:evenodd;stroke:none"
             id="path1608" />
        </g>
        <g
           id="g1610">
          <path
             d="m 696.5184,374.5338 c -4.252,-2.3111 -8.5065,-0.0644 -8.4804,4.4966 0.0428,0.4963 0.4801,0.8643 0.9765,0.8215 0.4963,-0.0428 0.8643,-0.4799 0.8215,-0.9766 -0.0145,-3.0075 2.8593,-4.3718 5.7223,-2.8136 0.422,0.265 0.9791,0.1383 1.2438,-0.2838 0.265,-0.4221 0.1381,-0.9791 -0.2837,-1.2441"
             style="fill:#1a1a18;fill-opacity:1;fill-rule:evenodd;stroke:none"
             id="path1612" />
        </g>
        <g
           id="g1614">
          <path
             d="m 691.2938,373.2874 c -14.1896,-3.621 -3.5923,27.5692 11.8514,19.8765 2.3632,-1.1769 4.2678,-3.3698 6.0738,-5.2299 0.3461,-0.3586 0.3362,-0.9297 -0.0224,-1.2756 -0.3586,-0.3461 -0.9298,-0.3362 -1.2756,0.0224 l -2.236,2.3032 c -14.2582,13.3693 -26.1121,-16.8341 -14.9278,-13.9734 0.4757,0.1482 0.9817,-0.1174 1.1299,-0.5933 0.1483,-0.4757 -0.1176,-0.9816 -0.5933,-1.1299"
             style="fill:#1a1a18;fill-opacity:1;fill-rule:evenodd;stroke:none"
             id="path1616" />
        </g>
        <g
           id="g1618">
          <path
             d="m 728.1828,423.4878 c 22.5382,-7.3797 35.3392,-26.5096 35.3877,-50.1604 0.0178,-8.6551 -4.2384,-21.1867 -8.638,-28.2535 -0.4856,-0.112 -0.97,0.1908 -1.0823,0.6763 -0.112,0.4853 0.1908,0.9701 0.6764,1.082 2.6435,10.4145 7.2646,14.5874 7.2394,26.4867 -0.048,22.7242 -12.2622,41.2837 -33.9591,48.4041 -0.4876,0.104 -0.7982,0.5831 -0.6945,1.0704 0.104,0.4872 0.5831,0.7982 1.0704,0.6944"
             style="fill:#1a1a18;fill-opacity:1;fill-rule:evenodd;stroke:none"
             id="path1620" />
        </g>
        <g
           id="g1622">
          <path
             d="m 754.547,345.8109 c 14.0448,0.9774 28.3918,2.9154 34.6504,17.67 6.1727,14.5514 -1.5316,31.0255 -13.2041,40.7262 -10.1225,8.4124 -28.3731,20.8234 -19.4836,36.5817 1.1092,1.9664 2.169,3.1737 3.7675,4.701 0.411,0.2815 0.9726,0.176 1.254,-0.235 0.2818,-0.4113 0.1764,-0.9726 -0.2347,-1.2543 -1.106,-1.0843 -1.0737,-0.976 -2.1313,-2.4483 -10.7782,-15.0035 8.2168,-27.8396 17.9603,-35.9399 12.3032,-10.2283 20.2334,-27.5131 13.7333,-42.8358 -6.6002,-15.5588 -21.4855,-17.7315 -36.3637,-18.769 -0.4981,0.0145 -0.8904,0.4297 -0.8759,0.9278 0.0144,0.498 0.4297,0.8901 0.9278,0.8756"
             style="fill:#1a1a18;fill-opacity:1;fill-rule:evenodd;stroke:none"
             id="path1624" />
        </g>
        <g
           id="g1626">
          <path
             d="m 761.6886,444.7176 c 0.2579,-22.2111 5.5496,-19.9913 21.9625,-35.7488 13.1593,-12.6332 17.4813,-20.7082 15.738,-39.9691 -4.0828,-45.1137 -53.8314,-26.8829 -78.262,-40.373 -1.6081,-0.8881 -23.2903,-18.1573 -21.8458,-5.3733 0.1284,1.1355 0.9405,1.6157 1.8933,2.0398 0.4708,0.1632 0.985,-0.0862 1.148,-0.557 0.1633,-0.4709 -0.0862,-0.9848 -0.557,-1.1481 -0.2228,-0.0995 -0.5633,-0.2333 -0.6846,-0.4702 -0.176,-7.8642 13.5394,2.9593 17.42,5.5278 1.9455,3.0382 12.6366,5.2186 14.9219,5.7149 22.8362,4.9601 55.0346,-0.962 62.822,26.9408 3.8628,13.8401 2.1194,29.4145 -7.6609,40.1542 -17.9178,19.675 -28.385,16.5852 -28.6991,43.317 0.0153,0.4981 0.4314,0.8895 0.9295,0.8742 0.498,-0.015 0.8895,-0.4311 0.8742,-0.9292"
             style="fill:#1a1a18;fill-opacity:1;fill-rule:evenodd;stroke:none"
             id="path1628" />
        </g>
        <g
           id="g1630">
          <path
             d="m 700.3692,320.5108 c -10.8924,-2.2385 -6.8527,6.8573 -2.656,7.8546 0.4952,0.0561 0.9425,-0.2997 0.9986,-0.7946 0.0561,-0.4952 -0.2996,-0.9425 -0.7948,-0.9986 -1.1648,-0.4213 -6.8244,-6.0064 2.3564,-4.2591 0.4978,0.0264 0.9224,-0.3557 0.9491,-0.8532 0.0266,-0.4978 -0.3558,-0.9224 -0.8533,-0.9491"
             style="fill:#1a1a18;fill-opacity:1;fill-rule:evenodd;stroke:none"
             id="path1632" />
        </g>
        <g
           id="g1634">
          <path
             d="m 694.0159,323.9906 c -7.0375,2.6998 -2.1852,9.29 4.9598,11.8228 5.199,1.8431 10.6586,1.6727 16.0705,1.7478 0.4983,0 0.9025,-0.4042 0.9025,-0.9022 0,-0.4984 -0.4042,-0.9023 -0.9025,-0.9023 -5.0845,-0.0706 -10.5438,0.0995 -15.4154,-1.6248 -3.1844,-1.1271 -11.1841,-6.0829 -5.1179,-8.4062 0.479,-0.1372 0.7562,-0.6369 0.619,-1.116 -0.1372,-0.479 -0.6369,-0.7563 -1.116,-0.6191"
             style="fill:#1a1a18;fill-opacity:1;fill-rule:evenodd;stroke:none"
             id="path1636" />
        </g>
        <g
           id="g1638">
          <path
             d="m 738.3736,369.5825 c -0.3339,6.3862 -6.8638,10.1798 -11.9251,12.6961 -0.4708,0.163 -0.7205,0.6766 -0.5575,1.1475 0.163,0.4708 0.6769,0.7205 1.1477,0.5576 6.0001,-2.9742 12.7525,-7.0096 13.1383,-14.4556 -0.015,-0.4981 -0.4309,-0.8898 -0.9289,-0.8748 -0.4981,0.0153 -0.8898,0.4312 -0.8745,0.9292"
             style="fill:#1a1a18;fill-opacity:1;fill-rule:evenodd;stroke:none"
             id="path1640" />
        </g>
        <g
           id="g1642">
          <path
             d="m 704.5404,377.8308 c -12.6573,-11.3976 -7.2924,-28.6455 3.7089,-39.2227 0.1924,-0.1849 1.097,-1.0449 1.5358,-1.1518 0.4838,0.0222 0.9014,-0.3432 0.9402,-0.8299 0.0394,-0.497 -0.3311,-0.9315 -0.828,-0.9709 -1.1911,0.0167 -2.0752,0.8612 -2.9046,1.6577 -11.9143,11.4372 -17.1749,29.6765 -3.5776,41.9287 0.3894,0.3106 0.9572,0.2466 1.2679,-0.1429 0.3107,-0.3895 0.2469,-0.9576 -0.1426,-1.2682"
             style="fill:#1a1a18;fill-opacity:1;fill-rule:evenodd;stroke:none"
             id="path1644" />
        </g>
        <g
           id="g1646">
          <path
             d="m 691.9421,396.4346 c 1.7555,-2.189 1.0026,-1.1608 2.304,-3.0515 0.4711,-0.1622 0.7214,-0.6761 0.5593,-1.1469 -0.1622,-0.4712 -0.6758,-0.7215 -1.1469,-0.5593 -2.2045,2.4001 -1.1656,1.1866 -3.1269,3.6323 -0.3107,0.3895 -0.2469,0.957 0.1426,1.2679 0.3897,0.3107 0.9572,0.2469 1.2679,-0.1425"
             style="fill:#1a1a18;fill-opacity:1;fill-rule:evenodd;stroke:none"
             id="path1648" />
        </g>
        <g
           id="g1650">
          <path
             d="m 666.3169,385.3287 c -11.9256,-5.6259 1.6002,-14.9468 1.484,-10.328 -1.6132,0.949 0.3118,5.2591 1.4303,1.902 4.5533,-0.5578 -2.8049,5.6123 0.9737,5.9375 3.0529,0.2624 1.3096,3.7397 -3.5087,2.7909 -0.0933,-0.1292 -0.2217,-0.2355 -0.3793,-0.3024 z m -1.0942,1.4681 c 0.2186,0.4028 0.5188,0.6451 0.9428,0.6015 5.5392,2.3646 10.3386,-4.8042 5.0879,-6.1869 1.1362,-1.4582 2.7519,-3.6139 -0.0532,-5.3652 -0.6033,-0.3761 -1.1234,-0.6338 -1.5724,-0.7968 0.8433,-9.0207 -20.0126,3.9991 -4.4051,11.7474 z m 1.2705,0.5193 0.0579,-0.0238 c -0.0188,0.009 -0.0383,0.0164 -0.0579,0.0238 z m -0.4844,0.0113 c -0.0394,-0.013 -0.0768,-0.03 -0.1125,-0.0513 0.0377,0.0184 0.0751,0.034 0.1125,0.0513"
             style="fill:#1a1a18;fill-opacity:1;fill-rule:evenodd;stroke:none"
             id="path1652" />
        </g>
        <g
           id="g1654">
          <path
             d="m 672.988,390.0688 c -0.9817,-2.4435 -0.4862,-1.3757 -1.4227,-3.2321 0.0277,-0.4977 -0.3532,-0.9232 -0.851,-0.951 -0.4975,-0.0275 -0.923,0.3535 -0.9507,0.851 0.9802,2.6328 0.4787,1.3436 1.5018,3.8693 0.1482,0.4756 0.6539,0.7409 1.1298,0.5927 0.4757,-0.1483 0.741,-0.6543 0.5928,-1.1299"
             style="fill:#1a1a18;fill-opacity:1;fill-rule:evenodd;stroke:none"
             id="path1656" />
        </g>
        <g
           id="g1658">
          <path
             d="m 665.0921,373.002 c -1.4641,-5.7331 -12.4679,-36.4335 -12.0311,-37.0619 3.0104,-4.3313 33.1435,-8.7231 39.1164,-9.2387 0.4983,0 0.9023,-0.4042 0.9023,-0.9023 0,-0.4983 -0.404,-0.9022 -0.9023,-0.9022 -6.1889,0.5258 -38.4435,4.873 -40.9184,10.5789 -0.7084,1.6325 10.3527,31.2052 12.0285,37.5262 0,0.498 0.404,0.9022 0.9023,0.9022 0.4983,0 0.9023,-0.4042 0.9023,-0.9022"
             style="fill:#1a1a18;fill-opacity:1;fill-rule:evenodd;stroke:none"
             id="path1660" />
        </g>
        <g
           id="g1662">
          <path
             d="m 653.6262,341.5839 c 9.9845,-6.6096 21.6564,-9.5264 33.6076,-10.5299 2.5069,-0.2106 2.0939,-0.1658 4.2012,0.1817 0.4649,0.1792 0.9873,-0.0524 1.1664,-0.5173 0.1795,-0.4649 -0.0521,-0.9873 -0.517,-1.1665 -2.6192,-0.4609 -2.1342,-0.5351 -5.0179,-0.2948 -12.2411,1.0208 -24.2257,4.0641 -34.4528,10.8329 -0.4125,0.2798 -0.5205,0.8408 -0.2407,1.2535 0.2798,0.4124 0.8408,0.5202 1.2532,0.2404"
             style="fill:#1a1a18;fill-opacity:1;fill-rule:evenodd;stroke:none"
             id="path1664" />
        </g>
        <g
           id="g1666">
          <path
             d="m 660.6391,360.328 c 14.5032,-1.5276 5.1497,-20.8024 -5.2755,-17.4033 -0.5976,0.1947 -0.8354,0.4881 -1.0341,1.0525 -0.1117,0.4855 0.1916,0.9694 0.6775,1.0808 0.3948,0.0907 0.7891,-0.093 0.9822,-0.426 9.2344,-1.7408 15.3504,12.7783 4.6499,13.8914 -0.498,0 -0.9022,0.404 -0.9022,0.9023 0,0.4983 0.4042,0.9023 0.9022,0.9023"
             style="fill:#1a1a18;fill-opacity:1;fill-rule:evenodd;stroke:none"
             id="path1668" />
        </g>
        <g
           id="g1670">
          <path
             d="m 676.1866,353.6909 c -2.1172,-6.7646 -3.6834,-10.9715 6.0976,-12.4775 9.6052,-1.4791 8.4002,20.1297 -3.8055,14.4354 -0.2475,-0.1151 -1.4959,-1.2858 -2.2921,-1.9579 z m -0.8051,1.62 c 0.6021,0.6741 1.9044,1.787 2.507,2.0435 15.3819,6.5478 16.7196,-19.8584 4.1196,-17.9243 -11.9103,1.8284 -9.7203,7.7913 -7.4154,15.1997 0.0941,0.3815 0.4189,0.6451 0.7888,0.6811"
             style="fill:#1a1a18;fill-opacity:1;fill-rule:evenodd;stroke:none"
             id="path1672" />
        </g>
        <g
           id="g1674">
          <path
             d="m 696.1323,356.5604 c -8.2443,-1.2758 -10.2376,16.3049 1.8244,14.0726 0.4799,-0.1349 0.7594,-0.6332 0.6242,-1.1131 -0.135,-0.4796 -0.6333,-0.7591 -1.1129,-0.6242 -9.0508,1.688 -7.0189,-11.3947 -1.7266,-10.5732 0.4864,0.108 0.9686,-0.1993 1.0766,-0.6857 0.1077,-0.4865 -0.1993,-0.9684 -0.6857,-1.0764"
             style="fill:#1a1a18;fill-opacity:1;fill-rule:evenodd;stroke:none"
             id="path1676" />
        </g>
        <g
           id="g1678">
          <path
             d="m 670.6023,367.2581 c 3.4209,-2.5004 7.0515,-1.0329 7.003,4.5352 l -3e-4,-0.004 c -1.2611,3.5541 -9.9093,0.8093 -7.0429,-4.4039 0.017,-0.042 0.03,-0.0845 0.0402,-0.127 z m -2.1146,0.2738 c -1.1605,2.9489 0.6724,5.8621 3.7919,7.2769 11.414,5.1769 7.5572,-18.239 -3.6199,-8.2837 -0.2675,0.2755 -0.3237,0.6777 -0.172,1.0068"
             style="fill:#1a1a18;fill-opacity:1;fill-rule:evenodd;stroke:none"
             id="path1680" />
        </g>
        <g
           id="g1682">
          <path
             d="m 685.7028,381.8115 c -5.6138,0.4969 -2.5915,10.6211 -0.0176,14.5641 0.163,0.4711 0.6766,0.7208 1.1477,0.5581 0.4709,-0.163 0.7209,-0.6766 0.5579,-1.1477 l -0.9198,-1.5075 c -1.8148,-2.8993 -3.3322,-10.4422 -0.7682,-10.6625 0.4983,0 0.9022,-0.4039 0.9022,-0.9023 0,-0.498 -0.4039,-0.9022 -0.9022,-0.9022"
             style="fill:#1a1a18;fill-opacity:1;fill-rule:evenodd;stroke:none"
             id="path1684" />
        </g>
      </g>
    </g>
    <path
       style="fill:#ffffff;fill-opacity:0.99;stroke-width:0.0102341"
       d="m 141.49602,147.86709 c -5.54453,-1.05227 -6.88826,-1.7102 -9.44867,-4.62634 -1.85025,-2.10733 -3.00831,-4.82028 -3.66343,-8.58226 -0.56681,-3.25486 -1.56909,-4.67138 -3.3053,-4.67138 -1.0564,0 -1.07137,-0.0446 -0.43973,-1.31081 0.49819,-0.99864 0.55225,-1.77783 0.22698,-3.27188 -2.4235,-11.13193 1.22812,-20.32459 9.64132,-24.27128 3.90385,-1.831316 7.05876,-2.456207 12.19898,-2.416238 12.01072,0.09339 24.36545,6.605598 28.72856,15.142898 0.56091,1.09754 0.51087,2.23205 -0.41628,9.43642 l -1.05384,8.1889 -3.13662,3.55375 c -2.32571,2.63498 -3.13664,3.31252 -3.13664,2.6207 0,-2.68785 -4.79289,-8.99704 -8.47323,-11.15386 -6.01413,-3.52452 -12.20066,0.83684 -13.70804,9.66386 -0.65939,3.86128 -0.2485,6.66332 1.4508,9.89375 0.72865,1.38518 1.32482,2.59944 1.32482,2.69834 0,0.3113 -1.42537,0.1235 -6.78968,-0.89457 z"
       id="path16533"
       transform="matrix(0.26458333,0,0,0.26458333,0.52467376,0.25037359)" />
    <path
       style="fill:#ffffff;fill-opacity:0.99;stroke-width:0.0102341"
       d="m 99.506107,154.63057 c -3.697392,-1.06081 -7.548224,-3.45347 -10.310342,-6.40618 -3.329443,-3.55919 -4.670566,-6.76816 -4.713055,-11.27717 -0.0257,-2.72754 0.184293,-3.6295 1.437871,-6.17588 1.811241,-3.67916 5.021779,-6.68563 8.570087,-8.02537 3.616393,-1.36544 10.132902,-1.54011 13.925202,-0.37325 2.98701,0.91909 7.58692,4.00848 8.85896,5.94985 0.43045,0.65696 1.37357,1.50005 2.09582,1.87353 1.20519,0.62323 1.27316,0.78508 0.82653,1.96832 l -0.48663,1.28925 -1.94591,-1.08759 c -4.27261,-2.38801 -11.92058,-1.53103 -15.1725,1.70012 -1.44311,1.43389 -1.69171,1.97185 -1.68795,3.65265 0.009,3.99184 3.32342,8.88526 8.15793,12.04412 l 2.72447,1.78017 -2.11599,1.73389 c -1.92917,1.58082 -2.37985,1.74332 -5.10493,1.84075 -1.64392,0.0588 -3.92072,-0.16047 -5.059563,-0.48721 z"
       id="path16535"
       transform="matrix(0.26458333,0,0,0.26458333,0.52467376,0.25037359)" />
    <path
       style="fill:#ffffff;fill-opacity:0.99;stroke-width:0.0102341"
       d="m 99.506107,154.60769 c -3.643435,-1.00507 -7.530452,-3.41159 -10.310342,-6.3833 -3.329443,-3.55919 -4.670566,-6.76816 -4.713055,-11.27717 -0.0257,-2.72754 0.184293,-3.6295 1.437871,-6.17588 1.811241,-3.67916 5.021779,-6.68563 8.570087,-8.02537 3.616393,-1.36544 10.132902,-1.54011 13.925202,-0.37325 2.98701,0.91909 7.58692,4.00848 8.85896,5.94985 0.43045,0.65696 1.37357,1.50005 2.09582,1.87353 1.20519,0.62323 1.27316,0.78508 0.82653,1.96832 l -0.48663,1.28925 -1.94591,-1.08759 c -4.25085,-2.37585 -11.71658,-1.54933 -15.10292,1.67201 -1.53044,1.45588 -1.76136,1.93728 -1.75753,3.66397 0.009,4.13351 4.38044,10.22562 9.0445,12.60504 l 1.98581,1.01308 -1.79418,1.56396 c -0.9868,0.86017 -2.26433,1.74654 -2.83897,1.96971 -1.44441,0.56094 -5.31221,0.43881 -7.795243,-0.24616 z"
       id="path16537"
       transform="matrix(0.26458333,0,0,0.26458333,0.52467376,0.25037359)" />
    <path
       style="fill:#ffffff;fill-opacity:0.99;stroke-width:0.0102341"
       d="m 141.49602,147.86709 c -5.55423,-1.05411 -6.88669,-1.7084 -9.46932,-4.64986 -1.91699,-2.18334 -2.95934,-4.61 -3.62308,-8.4348 -0.58691,-3.38205 -1.56684,-4.79532 -3.325,-4.79532 -1.03564,0 -1.06226,-0.0658 -0.50198,-1.24106 0.49247,-1.033 0.47962,-1.95982 -0.0767,-5.52835 -1.90619,-12.22794 3.82761,-21.25532 15.21114,-23.948628 3.75906,-0.889382 10.82997,-0.687214 15.34401,0.438711 7.27903,1.815587 14.74988,6.239247 18.10715,10.721677 3.13399,4.1843 3.07354,3.76864 1.87595,12.89818 l -1.06947,8.15281 -3.13869,3.55608 c -2.05737,2.33096 -3.1387,3.27033 -3.1387,2.72665 0,-2.69535 -4.84339,-9.13024 -8.47323,-11.25747 -6.8284,-4.00171 -13.73246,2.24224 -13.82955,12.50729 -0.0322,3.40128 0.11714,4.14223 1.3176,6.53818 0.74463,1.4862 1.42157,2.85701 1.50431,3.04624 0.21723,0.49684 -0.87359,0.37819 -6.71446,-0.73033 z"
       id="path16539"
       transform="matrix(0.26458333,0,0,0.26458333,0.52467376,0.25037359)" />
    <path
       style="fill:#ffffff;fill-opacity:0.99;stroke-width:0.0102341"
       d="m 141.27027,147.86248 c -5.30058,-1.04673 -6.70268,-1.75135 -9.24357,-4.64525 -1.90389,-2.16842 -2.95886,-4.60712 -3.60574,-8.3352 -0.57333,-3.30423 -1.66519,-4.89492 -3.35992,-4.89492 -1.01646,0 -1.04329,-0.0687 -0.4844,-1.24106 0.49247,-1.033 0.47962,-1.95982 -0.0767,-5.52835 -1.90619,-12.22795 3.82172,-21.24679 15.21114,-23.950615 3.71061,-0.880888 11.26172,-0.65838 15.56966,0.458789 7.15187,1.854686 14.58736,6.305446 17.8815,10.703586 3.11646,4.16089 3.05573,3.7492 1.90178,12.89255 -0.8917,7.06539 -1.17242,8.32851 -2.07484,9.33599 -0.57399,0.64081 -1.98335,2.20392 -3.13192,3.47358 l -2.0883,2.30847 -0.26996,-1.43902 c -0.32375,-1.72572 -2.26757,-4.88355 -4.58522,-7.44891 -7.71761,-8.54248 -17.46347,-3.16029 -17.54001,9.68653 -0.0187,3.1349 0.15679,3.96621 1.33238,6.31253 0.74463,1.4862 1.42157,2.85701 1.50431,3.04624 0.22932,0.52448 -1.47819,0.34367 -6.94021,-0.73494 z"
       id="path16541"
       transform="matrix(0.26458333,0,0,0.26458333,0.52467376,0.25037359)" />
  </g>
</svg>
