<?xml version="1.0" encoding="UTF-8" standalone="no"?>
<svg
   xmlns:dc="http://purl.org/dc/elements/1.1/"
   xmlns:cc="http://creativecommons.org/ns#"
   xmlns:rdf="http://www.w3.org/1999/02/22-rdf-syntax-ns#"
   xmlns:svg="http://www.w3.org/2000/svg"
   xmlns="http://www.w3.org/2000/svg"
   xmlns:sodipodi="http://sodipodi.sourceforge.net/DTD/sodipodi-0.dtd"
   xmlns:inkscape="http://www.inkscape.org/namespaces/inkscape"
   width="137.989mm"
   height="134.60417mm"
   viewBox="0 0 137.989 134.60417"
   version="1.1"
   id="svg31486"
   inkscape:version="1.0.2 (e86c8708, 2021-01-15)"
   sodipodi:docname="parrot.svg">
  <defs
     id="defs31480" />
  <sodipodi:namedview
     id="base"
     pagecolor="#ffffff"
     bordercolor="#666666"
     borderopacity="1.0"
     inkscape:pageopacity="0.0"
     inkscape:pageshadow="2"
     inkscape:zoom="0.69395513"
     inkscape:cx="53.431638"
     inkscape:cy="243.75612"
     inkscape:document-units="mm"
     inkscape:current-layer="layer1"
     inkscape:document-rotation="0"
     showgrid="false"
     inkscape:window-width="1440"
     inkscape:window-height="855"
     inkscape:window-x="0"
     inkscape:window-y="23"
     inkscape:window-maximized="0" />
  <metadata
     id="metadata31483">
    <rdf:RDF>
      <cc:Work
         rdf:about="">
        <dc:format>image/svg+xml</dc:format>
        <dc:type
           rdf:resource="http://purl.org/dc/dcmitype/StillImage" />
        <dc:title></dc:title>
      </cc:Work>
    </rdf:RDF>
  </metadata>
  <g
     inkscape:label="Слой 1"
     inkscape:groupmode="layer"
     id="layer1"
     transform="translate(-38.214324,-37.838843)">
    <path
       d="m 88.669222,146.40573 c -0.258751,0.61845 -2.971972,0.245 -3.77688,0.88026 -0.362367,0.28624 -7.740062,-0.2564 -9.288658,6.44994 -0.813079,3.52311 0.525387,7.72524 4.591901,4.53342 1.443322,-1.13233 0.938021,-1.417 0.938021,1.55015 0,3.05038 2.82584,2.91032 4.846769,1.1548 0.263855,-0.2293 2.26679,-1.57492 2.26679,-1.51203 0,2.84025 0.611682,5.83189 3.986455,3.71162 0.496296,-0.31174 3.897663,-5.2249 6.28455,-7.03501 4.44826,-3.3727 6.57003,-0.65809 6.38511,-0.55837 -2.39118,1.28986 -3.02959,-0.0393 -5.869142,3.78352 -1.954166,2.63025 -0.82333,9.25615 3.419512,6.53902 0.64271,-0.41151 0.76488,-1.09314 1.03609,-1.45829 0,2.10266 -0.88068,5.81581 3.28293,4.01321 2.63579,-1.14098 1.51051,-5.60569 2.91213,1.5569 0.30281,1.54652 3.18474,1.31172 4.38427,0.2344 1.20937,-1.08651 1.47325,-0.34356 2.72931,-2.65782 0.79852,-1.47157 4.61931,-6.45658 6.20642,-7.17785 -0.89716,-0.57012 -8.78571,-1.57171 -11.24283,-2.6535 -1.4677,-0.64589 -3.77522,-1.47436 -5.50956,-2.20613 -3.88284,-1.63931 -6.648979,-2.7548 -10.559246,-4.67018 -0.38204,-0.18689 -7.379372,-3.62878 -7.023942,-4.47801"
       style="fill:#ef7c00;fill-opacity:1;fill-rule:evenodd;stroke:none;stroke-width:1.38515"
       id="path994" />
    <path
       d="m 44.221522,68.765895 c -1.755812,1.476706 -5.159256,10.104654 -5.159256,13.288528 0,2.214017 -0.900763,8.131538 0.352945,10.108129 0.722077,1.139002 -0.57442,9.761818 7.504168,13.770698 2.989145,1.4838 4.253509,3.01034 8.2588,4.26129 5.246107,1.63888 1.39706,1.92673 8.272097,1.08094 1.61494,-0.19868 -6.094092,-4.55309 -0.468735,-9.01384 1.890171,-1.49871 2.031042,3.08655 8.611737,3.08655 4.392024,0 6.776967,-0.53828 10.617427,-2.90315 5.835346,-3.59391 8.577246,-14.977284 8.590128,-14.987971 -0.06275,-0.03924 -0.147672,-3.542778 -0.147672,-3.846259 0,-4.895826 -1.216713,-3.498072 1.492084,-4.051298 5.318687,-1.085526 5.019077,-5.851818 4.520425,-10.141485 -0.354868,-3.049951 -0.414572,-2.131185 -2.005553,-4.013468 -1.079722,-1.276967 -9.294612,0.500181 -10.820769,0.931241 -2.073978,0.586191 -0.797428,0.373431 -3.191379,0.475936 -3.156888,0.135006 -5.817755,-5.307746 -6.137721,-7.594075 -2.124956,-0.140996 -4.356844,1.510512 -8.088844,-0.587021 -0.888157,-0.499069 -0.716122,-0.461675 -1.471581,-0.984286 0,-0.01266 -1.119059,-1.927159 -2.573323,-1.329043 -0.490066,0.201383 -8.18622,2.991084 -8.220709,2.996893 -2.291172,0.403356 -7.989943,6.968269 -9.47177,8.911347 -0.06981,0.09155 -0.387143,0.522611 -0.462503,0.540344"
       style="fill:#f7ff00;fill-opacity:1;fill-rule:evenodd;stroke:none;stroke-width:1.38515"
       id="path996" />
    <path
       d="m 117.34883,84.983477 c 0.23048,-1.968687 -0.7441,-2.404487 -0.88816,-3.099146 -1.2922,0.09929 2.54701,-1.33485 5.8751,-4.300579 2.95535,-2.633447 -5.26855,-0.661568 -4.72819,-2.131171 1.95567,-0.451579 6.5653,-5.947293 3.2832,-5.422037 -5.81414,0.930537 -5.54445,-1.549707 -7.22341,-5.459291 -3.12654,-7.28061 -0.56499,-10.60122 -9.13711,-20.091272 -4.50117,-4.983069 -16.878429,-8.065711 -23.10217,-4.676399 -4.246308,2.312644 -5.637132,1.585442 -8.794712,6.253524 -0.17398,0.257219 -1.082493,1.254528 -1.014622,1.475185 0.762107,0.755458 4.457678,1.285138 4.457678,4.542029 1.89294,0 2.750903,-2.266649 6.682365,-2.266649 2.821822,0 2.50116,1.112687 4.339388,1.641265 3.245259,0.933308 3.677842,9.581887 1.145793,11.698672 -0.06203,0.05133 -2.141435,3.048434 -0.01766,2.007628 3.410925,-1.671872 6.257536,0.301553 8.289825,2.943579 1.501917,1.95264 0.371086,6.406718 1.055069,6.63596 -0.682879,0.07229 -1.267412,1.942796 -2.245462,2.920431 -1.093989,1.094288 -3.008816,1.856084 -4.553533,1.856084 0,3.905591 0.540346,8.439026 -0.645477,12.18088 -0.62581,1.974503 -1.750826,4.098375 -2.827362,5.895844 -1.964834,3.280196 -5.069084,4.809526 -8.239131,6.448006 -0.71543,0.36948 -2.424286,1.33336 -3.218114,1.27047 0.661132,1.14662 -1.480719,5.48726 -1.556904,7.12021 -0.07257,1.554 -0.171191,8.83 0.149596,10.07707 0.246696,0.95839 0.05858,1.91373 0.781777,2.77596 0.04126,0.0496 0.617222,1.69389 0.703239,1.91416 -0.203075,1.23913 3.618142,10.23499 5.393763,11.62674 1.597629,1.25261 2.253632,3.95004 5.308434,6.11035 1.348719,0.95406 1.807343,2.62995 4.92018,3.67393 0.07966,0.0274 4.000583,2.2035 5.449448,2.75633 3.655812,1.39427 7.024352,3.22322 10.552602,4.86407 3.17683,1.47753 6.2186,1.94432 9.46498,2.64632 0.49975,0.10838 0.32593,0.21477 0.8865,0.21477 2.85852,0.74715 4.5272,1.19244 7.75862,1.47821 4.81892,0.42649 8.27099,0.72014 13.19033,-0.0157 1.75706,-0.26188 8.7418,-1.16653 9.79092,-1.91412 0.68121,-0.48495 3.8561,-0.13895 5.58809,-1.76649 0.75337,-0.70792 7.88411,-3.90956 8.67683,-5.06077 0.0661,-0.0966 0.0468,-0.0817 0.17634,-0.0714 l 6.7832,-6.10753 3.70431,-5.14193 1.52254,-4.78389 0.10058,-5.82926 -1.37184,-3.04485 -4.42858,-0.19748 3.45828,-9.68008 0.74994,-7.19019 c 0.91294,-3.27489 -1.67965,-9.5384 -5.90683,-8.61243 -1.2663,0.27721 -2.94482,1.41771 -3.51066,2.82072 -1.93755,4.80312 -0.86489,2.57848 -1.713,-0.30625 -0.31652,-1.07709 -0.25444,-4.081885 -0.95812,-5.85584 -1.59167,-4.013609 -2.08491,-8.371545 -7.32077,-9.685639 -3.9201,-0.983992 -6.98073,3.743781 -4.24118,7.300701 4.55103,5.908888 3.85292,13.051788 4.6563,14.279888 0.0966,0.14763 0.55711,4.7577 -1.0606,5.84253 -2.78844,1.86968 -1.99531,1.16186 -1.72645,-2.13047 0.12262,-1.50221 0.72762,-4.24479 -1.49873,-4.12983 -0.8362,0.0432 -3.99075,5.5115 -3.58241,1.27766 0.16028,-1.65843 1.38099,-4.59622 -0.75462,-6.40977 -0.84494,-0.7178 -3.1839,3.15482 -7.25054,3.15482 -2.21555,0 -2.11194,-2.89411 -4.1887,-4.47692 -3.41675,-2.60438 -2.38841,-9.473195 -11.59575,-15.751891 -0.66168,-0.451578 -4.66933,-2.097138 -5.59433,-2.097138"
       style="fill:#ff0000;fill-opacity:1;fill-rule:evenodd;stroke:none;stroke-width:1.38515"
       id="path998" />
    <path
       d="m 138.7276,107.30942 -2.92239,-3.03471 c -1.99656,-0.0742 -4.17995,-0.32903 -5.88757,0.78924 -2.1521,1.40911 -1.14689,6.70146 0.26582,8.70123 0.61723,0.87319 0.97446,1.89679 2.4567,2.31347 0,0.42801 -4.91353,-0.24306 -6.93003,1.6483 -1.16504,1.09276 -2.36417,0.28074 -1.98089,4.25268 0.0655,0.68206 4.28563,5.7168 6.00141,5.20358 l -6.96229,3.06339 -2.31458,2.06097 -0.93442,3.83216 3.12102,5.56025 6.24576,0.27367 11.25902,-1.8643 6.21889,-1.75985 5.48409,-4.38853 3.732,-5.18446 2.03546,-7.31095 -0.59712,-7.33406 -6.18373,3.23737 1.09428,-5.07493 -0.66279,-3.20479 -4.83805,3.75402 0.5445,-5.63077 -0.45626,-2.91338 -4.19257,2.35418 z"
       style="fill:#009ee3;fill-opacity:1;fill-rule:evenodd;stroke:none;stroke-width:1.38515"
       id="path1000" />
    <path
       d="m 130.66825,104.88373 4.60686,-0.18258 c -1.97258,-1.61135 -1.0365,-2.71694 -5.45996,-5.11728 -3.39486,-1.842259 -2.22428,-1.34707 -5.90932,-1.158949 -0.92694,0.04753 -4.33744,2.550479 -4.58483,4.129389 -0.62858,4.00765 -0.98831,6.13218 1.46492,9.57651 0.10534,0.148 -4.88983,0.7294 -5.78436,1.36673 -0.46874,0.33374 -4.8134,0.55043 -4.20793,4.63896 0.001,0.008 0.87568,1.48588 0.93136,1.49168 0.39146,1.695 6.39689,5.5774 6.7947,5.13419 -1.27336,0.0809 -6.25408,1.63571 -7.03571,2.7473 -1.02916,1.46257 -2.01041,0.13191 -1.85611,4.36417 0.0661,1.80305 -0.39919,3.08375 1.17253,5.21937 2.31292,3.14233 5.08862,3.82871 9.06759,4.08894 1.95846,0.12797 3.64016,0.62858 1.85831,-0.83274 -1.60939,-1.31979 -2.97848,-7.18998 -0.99176,-8.2412 0.0399,-0.0197 1.89169,-2.26899 2.85881,-2.66446 1.02279,-0.41805 6.44204,-2.15128 6.1373,-2.26044 -2.72292,-0.97209 -1.62782,0.34003 -3.78574,-2.09668 -2.42111,-2.7347 -3.17531,-6.02455 0.41776,-7.91517 1.29608,-0.68161 1.79278,-0.83993 3.35427,-0.83993 l 3.09761,-0.25835 -3.82439,-4.26403 -0.47346,-4.22057 z"
       style="fill:#ffed00;fill-opacity:1;fill-rule:evenodd;stroke:none;stroke-width:1.38515"
       id="path1002" />
    <path
       d="m 86.373063,69.234772 c -2.267486,0.130646 -1.806922,4.310297 0.04197,4.84316 2.057085,0.592434 5.762076,0.194759 5.762076,-2.775132 0,-1.138742 -2.825838,-2.16983 -3.711641,-2.182023 -0.791609,-0.0112 -1.602059,0.08536 -2.092404,0.114051"
       style="fill:#ed4e4e;fill-opacity:1;fill-rule:evenodd;stroke:none;stroke-width:1.38515"
       id="path1004" />
    <g
       id="g1006"
       transform="matrix(1.3851468,0,0,-1.3851468,-377.00898,613.25673)">
      <g
         id="g1008">
        <path
           d="m 326.5727,399.7037 c 0.4144,-3.1674 3.1006,-5.7991 6.5038,-4.3554 13.8521,5.8751 11.0798,-12.2771 4.3611,-10.5522 -0.2542,0.0881 -0.3892,0.3659 -0.3013,0.6202 0.0882,0.2545 0.366,0.3895 0.6205,0.3016 4.849,-1.2382 7.9509,13.9243 -4.2848,8.7389 -4.0927,-1.7345 -7.3667,1.3323 -7.8744,5.2469 0,0.2693 0.2183,0.4876 0.4876,0.4876 0.269,0 0.4875,-0.2183 0.4875,-0.4876"
           style="fill:#1a1a18;fill-opacity:1;fill-rule:evenodd;stroke:none"
           id="path1010" />
      </g>
      <g
         id="g1012">
        <path
           d="m 325.9959,399.4988 c -2.1918,-0.2665 -6.6354,-1.2141 -7.6904,2.5707 -1.5098,5.4176 7.4035,9.8521 9.1678,3.5434 7.4381,6.1854 14.8612,-5.6461 6.8513,-10.4537 -0.2506,-0.1502 -0.4532,-0.1627 -0.7341,-0.1754 -0.2693,0 -0.4876,0.2182 -0.4876,0.4875 0,0.2693 0.2183,0.4876 0.4876,0.4876 2.3286,0.0992 4.8197,6.4877 1.574,9.1406 -4.8019,3.9251 -8.1595,-2.5943 -8.5226,-0.193 -0.7872,5.2086 -8.0535,2.495 -7.4483,-2.3208 0.426,-3.3913 5.1593,-2.3099 6.7547,-2.1129 0.2687,0.0133 0.4974,-0.1942 0.5108,-0.4629 0.013,-0.269 -0.1942,-0.4978 -0.4632,-0.5111"
           style="fill:#1a1a18;fill-opacity:1;fill-rule:evenodd;stroke:none"
           id="path1014" />
      </g>
      <g
         id="g1016">
        <path
           d="m 333.8481,394.9495 c -5.4638,-1.3796 -2.8131,8.187 0.743,4.3512 0.8694,-0.9377 0.8935,-2.9554 -0.4051,-3.816 0.034,-0.233 -0.1057,-0.4629 -0.3379,-0.5352 z m -1.2617,0.8458 c 0.0785,0.1639 0.2461,0.2764 0.4397,0.2764 1.2081,0.11 1.4003,1.4029 1.0168,2.2896 -1.2572,2.9069 -3.8305,-2.2428 -1.4565,-2.566"
           style="fill:#1a1a18;fill-opacity:1;fill-rule:evenodd;stroke:none"
           id="path1018" />
      </g>
      <g
         id="g1020">
        <path
           d="m 332.1167,395.8044 c -0.3288,0.0649 -0.6055,0.3864 -0.7285,1.0965 -0.004,0.0181 -0.008,0.0362 -0.01,0.0549 l -0.002,0.0134 c -0.7668,4.9909 5.4975,1.0425 2.5591,-0.9043 -0.8991,-0.5958 -1.4828,-0.5766 -1.8187,-0.2605"
           style="fill:#1a1a18;fill-opacity:1;fill-rule:evenodd;stroke:none"
           id="path1022" />
      </g>
      <g
         id="g1024">
        <path
           d="m 324.0125,400.4731 c 0.7497,0.0368 1.4377,2.6212 -0.1151,2.478 -0.4235,-0.2095 -1.1245,-2.3992 -0.1191,-2.5293 0.07,0.0354 0.15,0.0541 0.2342,0.0513 z m 0.0558,-0.9678 c -0.0711,-0.0402 -0.1531,-0.0632 -0.2406,-0.0632 -1.6013,0.0987 -1.7431,1.7053 -1.3516,2.9648 1.5568,5.0062 5.7093,-2.5878 1.5922,-2.9016"
           style="fill:#1a1a18;fill-opacity:1;fill-rule:evenodd;stroke:none"
           id="path1026" />
      </g>
      <g
         id="g1028">
        <path
           d="m 324.1939,402.9432 -0.0125,-0.0927 c 2.0619,0.4501 -0.8328,-5.0803 -1.0735,-1.9942 -0.2831,0.4139 -0.3756,1.0137 0.0363,1.4516 0.0227,0.2492 0.0522,0.5191 0.0913,0.8156 0.0499,0.2647 0.3047,0.4388 0.5695,0.3889 0.2647,-0.0496 0.4388,-0.3047 0.3889,-0.5692"
           style="fill:#1a1a18;fill-opacity:1;fill-rule:evenodd;stroke:none"
           id="path1030" />
      </g>
      <g
         id="g1032">
        <path
           d="m 324.1205,403.5206 c 1.1905,-0.0998 1.7674,-1.8598 0.4036,-3.4143 -0.1984,-0.182 -0.5068,-0.1687 -0.6891,0.0294 -0.182,0.1985 -0.1686,0.5069 0.0298,0.6892 0.4402,0.5754 0.932,0.9963 0.1635,1.7331 -0.2097,0.0481 -0.3696,0.2324 -0.3778,0.4577 -0.01,0.2691 0.2007,0.495 0.47,0.5049"
           style="fill:#1a1a18;fill-opacity:1;fill-rule:evenodd;stroke:none"
           id="path1034" />
      </g>
      <g
         id="g1036">
        <path
           d="m 323.4345,403.7431 c 1.9125,1.9191 3.8007,-3.0019 1.8159,-3.7227 -0.2605,-0.0689 -0.5273,0.0862 -0.5962,0.3467 -0.0626,0.2369 0.0601,0.4793 0.2792,0.5728 0.2064,0.436 0.1724,2.4815 -0.7761,2.1558 -0.1681,-0.1548 -0.4272,-0.1743 -0.6182,-0.034 -0.2171,0.1593 -0.2639,0.4643 -0.1046,0.6814"
           style="fill:#1a1a18;fill-opacity:1;fill-rule:evenodd;stroke:none"
           id="path1038" />
      </g>
      <g
         id="g1040">
        <path
           d="m 318.4101,401.7271 c -7.7624,-1.0891 -13.5598,-7.1461 -16.5756,-14.0678 -1.7958,-4.1207 -1.425,-14.1003 1.5233,-18.0722 3.9082,-5.2645 8.3671,-6.0744 13.9298,-6.5903 -0.7348,2.6303 -3.3954,5.0621 2.084,8.1731 4.8234,2.7383 9.7566,2.8744 12.312,10.203 0.6222,1.785 0.4737,1.9843 0.4742,3.8268 l -0.002,-0.0136 c -0.0204,0.0542 -0.0467,0.1313 -0.0779,0.1891 -0.1636,0.1479 -0.2106,0.3937 -0.1001,0.5955 0.1293,0.2362 0.4258,0.3226 0.6619,0.1934 0.2061,-0.1463 0.2733,-0.2489 0.3714,-0.4848 2.0092,-4.8393 -4.8456,-11.9636 -9.5987,-13.867 -12.3319,-4.9389 -2.9617,-8.608 -5.4553,-9.7342 -3.8531,-1.7402 -12.8996,3.583 -15.3825,6.9284 -3.1572,4.254 -3.5748,14.5877 -1.6322,19.0471 3.1813,7.3027 9.3053,13.5193 17.4677,14.6486 0.2693,0 0.4875,-0.2182 0.4875,-0.4875 0,-0.2693 -0.2182,-0.4876 -0.4875,-0.4876"
           style="fill:#1a1a18;fill-opacity:1;fill-rule:evenodd;stroke:none"
           id="path1042" />
      </g>
      <g
         id="g1044">
        <path
           d="m 331.1433,388.0199 c 0.1358,-1.9587 2.0319,-1.5579 3.1822,-1.0094 0.2528,0.0927 0.5329,-0.0371 0.6256,-0.29 0.0876,-0.2395 -0.0244,-0.5034 -0.2514,-0.6094 -1.5648,-1.4296 -4.3835,-0.2056 -4.5315,1.9088 0,0.2693 0.2183,0.4876 0.4875,0.4876 0.2693,0 0.4876,-0.2183 0.4876,-0.4876"
           style="fill:#1a1a18;fill-opacity:1;fill-rule:evenodd;stroke:none"
           id="path1046" />
      </g>
      <g
         id="g1048">
        <path
           d="m 335.3961,392.6979 c -3.3701,-0.1922 -0.9408,-5.1383 2.63,-2.3139 1.2773,1.0103 -0.449,2.2799 -2.2912,2.3703 -0.0323,0 -0.0638,0.003 -0.0944,0.009 -0.0717,-0.0417 -0.1551,-0.0655 -0.2444,-0.0655 z m 0.0944,0.9661 c 0.0717,0.0416 0.1554,0.0654 0.2444,0.0654 3.3199,-0.1641 4.6868,-2.6997 2.8978,-4.1091 -4.987,-3.9288 -8.4073,3.7557 -3.2366,4.0527 0.0323,0 0.0641,-0.003 0.0944,-0.009"
           style="fill:#1a1a18;fill-opacity:1;fill-rule:evenodd;stroke:none"
           id="path1050" />
      </g>
      <g
         id="g1052">
        <path
           d="m 337.8937,385.4302 c 3.5776,-17.8163 -15.3805,-23.5092 -20.0372,-16.5203 l -0.0545,0.0989 c -0.1955,0.176 -0.2165,0.4768 -0.045,0.6783 0.1746,0.205 0.4824,0.2296 0.6874,0.0553 0.1488,-0.1619 0.1482,-0.1446 0.2304,-0.2971 10.1192,-7.52 20.6575,3.8554 18.288,15.6946 -0.0802,0.2571 0.0632,0.5304 0.3203,0.6106 0.2572,0.0799 0.5304,-0.0632 0.6106,-0.3203"
           style="fill:#1a1a18;fill-opacity:1;fill-rule:evenodd;stroke:none"
           id="path1054" />
      </g>
      <g
         id="g1056">
        <path
           d="m 323.4725,408.6828 c 9.1845,11.1146 23.9984,7.8312 28.9295,-5.1109 1.8431,-4.8382 1.5089,-5.2636 2.7567,-9.3268 1.2203,-3.9736 9.0593,1.1435 4.1097,-4.7676 -0.3495,-0.4173 -0.671,-0.7787 -1.0454,-1.0726 1,-0.0735 1.2044,0.5346 3.2816,-0.5188 -0.6945,-1.9891 -4.5158,-4.7078 -6.6237,-4.7803 -0.2681,0.0229 -0.4671,0.2591 -0.4442,0.5272 0.023,0.2684 0.2591,0.4672 0.5276,0.4442 1.3249,0.0575 4.1691,1.9981 5.2319,3.401 -7.3358,-0.0992 -1.4026,1.6883 -0.5457,4.2633 -2.3125,-0.4986 -4.574,-0.5312 -5.4133,2.1852 -1.3031,4.2166 -0.8346,4.2733 -2.7556,9.3229 -4.6171,12.134 -18.5298,15.3661 -27.1851,4.9116 -0.144,-0.2276 -0.4453,-0.2954 -0.6727,-0.1511 -0.2276,0.144 -0.2953,0.445 -0.1513,0.6727"
           style="fill:#1a1a18;fill-opacity:1;fill-rule:evenodd;stroke:none"
           id="path1058" />
      </g>
      <g
         id="g1060">
        <path
           d="m 345.0487,373.3716 c -2.0688,3.8027 2.5767,8.7179 7.1073,8.7888 9.2545,0.144 11.9503,-3.7774 16.0231,-11.177 6.245,-11.346 8.0663,-0.701 10.1222,-3.1955 0.7988,-0.9694 0.3921,-3.9934 0.1488,-5.6483 1.533,1.5667 4.1545,5.0094 3.8923,-1.1089 -0.0388,-0.9017 -0.0958,-1.4471 -0.3155,-2.0529 3.1241,1.8876 4.9391,3.9972 4.5184,-2.9837 -0.8535,-14.1591 -14.9125,-17.0935 -26.6896,-16.1068 -10.2659,0.8601 -19.5089,7.9611 -20.2059,18.7609 0,0.2692 0.2185,0.4875 0.4876,0.4875 0.2692,0 0.4878,-0.2183 0.4878,-0.4875 1.1302,-17.521 21.4679,-20.4432 35.5589,-15.8522 6.6308,2.1605 10.7626,10.26 9.0142,16.9639 -0.1176,-0.0607 -0.2324,-0.1276 -0.341,-0.191 -8.3486,-4.8759 -1.5239,0.373 -3.7094,3.9084 -6.9577,-6.5384 -1.637,0.3299 -3.5586,3.6283 -0.0984,-0.038 -0.2322,-0.1315 -0.2906,-0.1746 -12.4685,-9.1894 -5.8334,14.5556 -25.1427,14.254 -3.8843,-0.0607 -7.8701,-4.3739 -6.3202,-7.2383 0.1591,-0.2174 0.1114,-0.5221 -0.106,-0.6811 -0.2174,-0.159 -0.5224,-0.1114 -0.6811,0.106"
           style="fill:#1a1a18;fill-opacity:1;fill-rule:evenodd;stroke:none"
           id="path1062" />
      </g>
      <g
         id="g1064">
        <path
           d="m 370.2393,366.3916 c -4.0459,2.0344 -7.9106,-2.2839 -1.631,-7.2423 0.6825,-0.5388 0.2928,-0.7106 -0.5704,-0.7908 l 0.003,-0.003 -0.003,0.003 c -2.637,-0.2455 -9.7033,0.3625 -4.178,-6.0418 1.2776,-1.4811 6.5605,-0.6426 -1.2886,-3.1377 -3.981,-1.2654 -5.4252,-5.7713 -0.631,-8.2392 0.2526,-0.1301 0.339,-0.2457 0.4411,-0.4991 0.0879,-0.2546 -0.0471,-0.5321 -0.3016,-0.6203 -0.2393,-0.0827 -0.4989,0.0318 -0.6024,0.2571 -1.4213,0.5945 -2.5194,1.4463 -3.1348,2.9027 -2.2003,5.2084 3.5152,6.7677 6.3964,7.7922 -0.5902,0.1414 -1.133,0.345 -1.6362,0.93 -5.0168,5.8309 -1.2787,7.2598 3.9696,7.4829 -5.8711,5.4689 -1.2441,10.5078 3.6848,8.0326 0.2282,-0.1429 0.2974,-0.4439 0.1542,-0.6721 -0.1429,-0.2282 -0.4439,-0.2974 -0.6721,-0.1542"
           style="fill:#1a1a18;fill-opacity:1;fill-rule:evenodd;stroke:none"
           id="path1066" />
      </g>
      <g
         id="g1068">
        <path
           d="m 368.1918,368.3976 c -7.2632,8.2276 -13.1589,-1.987 -8.2703,-6.243 0.0649,-0.0561 0.0643,-0.053 0.1247,-0.0856 l -0.002,-6e-4 c 0.8212,-0.4155 0.6322,-0.6111 -0.0745,-0.7463 l -0.01,-0.2254 c -0.1905,0.0454 -0.328,0.0876 -0.4507,0.1534 -2.8608,-0.3787 -10.1379,-0.4422 -5.5188,-5.4972 2.9602,-3.2395 6.5696,-2.8911 3.8137,-3.5958 l 0.0139,-0.0108 -0.0281,0.007 c -0.5127,-0.1307 -1.2427,-0.2976 -2.2345,-0.5298 -4.811,-1.127 -4.5964,-6.5874 -1.7113,-8.9385 0.2223,-0.1519 0.2792,-0.4555 0.1273,-0.6777 -0.1519,-0.2223 -0.4555,-0.2792 -0.6778,-0.1273 -1.144,0.9303 -1.7597,1.9069 -2.162,3.3659 -1.381,5.0125 1.5231,6.6047 5.283,7.4318 -1.6061,0.8022 -3.193,2.2153 -4.0411,3.5533 -2.9914,4.7165 2.6674,5.7115 6.34,5.8303 -4.8898,6.2759 2.7329,15.4457 10.2543,6.9273 0.1633,-0.2141 0.1219,-0.5199 -0.0921,-0.6832 -0.2143,-0.1633 -0.5202,-0.1222 -0.6835,0.0921"
           style="fill:#1a1a18;fill-opacity:1;fill-rule:evenodd;stroke:none"
           id="path1070" />
      </g>
      <g
         id="g1072">
        <path
           d="m 327.4688,366.1937 c -4.4246,-11.124 2.9576,-27.0031 13.6321,-32.0559 17.1017,-8.0943 34.8701,-11.2354 50.7781,1.3978 4.0686,3.2309 7.8194,8.6717 6.1259,14.1361 -0.5881,1.8978 -2.1699,1.624 -3.4744,0.8223 -1.7141,-2.1509 -3.1754,-1.6441 -2.0429,-0.4164 0.4547,0.4927 0.8946,0.8895 1.3181,1.2027 3.2664,5.0905 6.2444,20.8755 -2.23,17.5037 -0.7569,-0.6905 -2.1359,-10.529 -2.4903,-1.2192 -0.1459,3.8319 -3.3128,12.4285 -7.5177,11.238 -1.5543,-0.44 -1.1699,-2.8925 -0.9919,-4.1026 3.4331,-1.8405 3.9314,-12.3849 3.3633,-15.4213 -0.0881,-0.2546 -0.3659,-0.3892 -0.6205,-0.3014 -0.2545,0.0882 -0.3892,0.3657 -0.3013,0.6203 0.6115,3.329 -0.1023,11.5424 -2.5996,14.0439 -2.2329,2.2366 -0.9927,7.2885 2.8865,5.959 5.2829,-1.8102 6.2566,-7.6671 6.6495,-12.4551 0.246,1.0709 0.5675,2.1016 1.0712,2.4446 5.0213,3.4217 7.276,-2.816 6.9321,-7.4931 -0.35,-4.7639 -1.3223,-7.9336 -2.3768,-9.9584 3.9815,0.8229 5.5156,-6.9755 1.2747,-12.8001 -9.5462,-13.11 -29.8905,-15.9968 -44.3772,-10.764 -8.2037,2.963 -15.9004,5.2713 -21.0926,12.6439 -5.1834,7.3596 -8.2157,16.7904 -4.7625,25.4599 0.1338,0.2336 0.4317,0.3147 0.6656,0.1806 0.2336,-0.1338 0.3144,-0.4317 0.1806,-0.6653"
           style="fill:#1a1a18;fill-opacity:1;fill-rule:evenodd;stroke:none"
           id="path1074" />
      </g>
      <g
         id="g1076">
        <path
           d="m 348.3771,329.8878 c -6.3867,-0.7262 -6.1597,-8.9297 -2.7108,-6.4227 1.4273,1.0372 1.1095,2.1489 2.2921,1.8221 0.003,-0.008 -0.0881,-0.3333 -0.1956,-0.8019 0.0621,0.0147 0.125,0.0556 0.2007,0.1366 -0.0779,-0.1071 -0.1598,-0.2205 -0.2455,-0.3376 -0.3384,-1.5491 -0.7251,-4.223 1.1172,-2.9755 2.1923,1.4848 2.8604,4.5856 2.7096,0.0612 -0.0918,-2.7459 2.2822,-2.6498 4.3328,0.1165 2.0205,2.7252 2.4089,3.9929 5.3838,5.944 0.2435,0.1148 0.5341,0.0108 0.6489,-0.2327 0.1151,-0.2435 0.011,-0.5341 -0.2325,-0.6492 -3.5132,-2.315 -5.2478,-7.0032 -7.2592,-7.9137 -3.009,-1.3624 -3.6573,1.1012 -3.7026,3.2329 -2.7074,-2.9327 -4.652,-1.7907 -4.2854,0.9504 -0.3056,-0.2548 -0.6356,-0.4541 -0.9899,-0.5488 -5.29,-1.4142 -4.1117,7.8018 2.9364,8.5938 0.2693,0 0.4876,-0.2185 0.4876,-0.4878 0,-0.269 -0.2183,-0.4876 -0.4876,-0.4876"
           style="fill:#1a1a18;fill-opacity:1;fill-rule:evenodd;stroke:none"
           id="path1078" />
      </g>
      <g
         id="g1080">
        <path
           d="m 335.8491,336.2085 c -4.0093,-0.0462 -8.4095,-0.8059 -8.7758,-5.7807 -0.2216,-3.0129 1.7861,-3.1028 3.8707,-0.1669 0.5687,0.8011 1.5032,0.9584 0.9709,-0.332 0.009,0.007 0.0176,0.0139 0.0264,0.0216 l -0.0369,-0.0462 c -0.0839,-0.1996 -0.2021,-0.4329 -0.3614,-0.703 -0.4445,-0.7532 -0.9147,-6.173 3.7162,-0.9292 1.796,2.0336 0.4774,-2.4426 2.5359,-3.437 0.0961,-0.0462 0.1621,-0.0865 0.2115,-0.1415 2.4068,2.075 5.3314,6.5617 7.4664,7.4038 0.2656,0.0457 0.5173,-0.1326 0.563,-0.3979 0.0456,-0.2654 -0.1327,-0.5174 -0.398,-0.563 -2.1172,-0.9349 -7.2862,-9.4827 -8.3894,-7.111 -1.5806,0.8121 -1.6447,1.6614 -1.6963,3.062 -2.9239,-3.545 -5.5746,-2.1249 -5.1196,1.0874 -2.5753,-2.3576 -4.5273,-0.358 -4.3317,2.3252 0.4068,5.5834 5.1633,6.6297 9.7481,6.6836 0.2693,0 0.4876,-0.2183 0.4876,-0.4876 0,-0.2693 -0.2183,-0.4876 -0.4876,-0.4876"
           style="fill:#1a1a18;fill-opacity:1;fill-rule:evenodd;stroke:none"
           id="path1082" />
      </g>
      <g
         id="g1084">
        <path
           d="m 356.2662,384.0653 c 1.0483,-1.5602 0.572,-0.7586 1.4315,-2.4032 0.0882,-0.2546 -0.0468,-0.5321 -0.3013,-0.6202 -0.2546,-0.0879 -0.5321,0.0467 -0.6202,0.3013 -0.7376,1.3839 -0.3479,0.7186 -1.1642,1.999 -0.1996,0.1805 -0.2152,0.4889 -0.0343,0.6885 0.1805,0.1996 0.4889,0.2152 0.6885,0.0346"
           style="fill:#1a1a18;fill-opacity:1;fill-rule:evenodd;stroke:none"
           id="path1086" />
      </g>
    </g>
  </g>
</svg>
