<?xml version="1.0" encoding="UTF-8" standalone="no"?>
<svg
   xmlns:dc="http://purl.org/dc/elements/1.1/"
   xmlns:cc="http://creativecommons.org/ns#"
   xmlns:rdf="http://www.w3.org/1999/02/22-rdf-syntax-ns#"
   xmlns:svg="http://www.w3.org/2000/svg"
   xmlns="http://www.w3.org/2000/svg"
   xmlns:sodipodi="http://sodipodi.sourceforge.net/DTD/sodipodi-0.dtd"
   xmlns:inkscape="http://www.inkscape.org/namespaces/inkscape"
   width="173.30406mm"
   height="167.92828mm"
   viewBox="0 0 173.30406 167.92828"
   version="1.1"
   id="svg31937"
   inkscape:version="1.0.2 (e86c8708, 2021-01-15)"
   sodipodi:docname="pig.svg">
  <defs
     id="defs31931" />
  <sodipodi:namedview
     id="base"
     pagecolor="#ffffff"
     bordercolor="#666666"
     borderopacity="1.0"
     inkscape:pageopacity="0.0"
     inkscape:pageshadow="2"
     inkscape:zoom="0.35"
     inkscape:cx="354.01503"
     inkscape:cy="317.34477"
     inkscape:document-units="mm"
     inkscape:current-layer="layer1"
     inkscape:document-rotation="0"
     showgrid="false"
     inkscape:window-width="1440"
     inkscape:window-height="855"
     inkscape:window-x="0"
     inkscape:window-y="61"
     inkscape:window-maximized="0" />
  <metadata
     id="metadata31934">
    <rdf:RDF>
      <cc:Work
         rdf:about="">
        <dc:format>image/svg+xml</dc:format>
        <dc:type
           rdf:resource="http://purl.org/dc/dcmitype/StillImage" />
        <dc:title></dc:title>
      </cc:Work>
    </rdf:RDF>
  </metadata>
  <g
     inkscape:label="Слой 1"
     inkscape:groupmode="layer"
     id="layer1"
     transform="translate(-12.166855,-64.202529)">
    <g
       id="g3388"
       transform="matrix(1.5029631,0,0,-1.5029631,-415.02744,473.39558)">
      <g
         id="g3390"
         transform="scale(0.7131)">
        <path
           d="m 427.0983,279.8104 c -3.6394,2.5413 -2.8003,5.1843 -9.9893,4.1463 -2.1747,-0.3138 -0.5624,1.0363 -3.3032,2.7286 -4.0989,2.531 -6.6963,-0.9607 -2.8006,-3.7072 1.2569,-0.8858 -2.753,-1.417 -3.4781,-3.2607 -1.0199,-2.5925 -0.8785,-5.8881 2.1963,-7.0321 2.4278,-0.9032 6.9196,1.2977 7.6249,3.7499 0.6874,2.3893 3.096,0.7481 3.6677,-0.7498 1.4916,-3.9047 2.312,-2.2447 -2.6677,-7.4358 -2.9398,-3.0645 -9.106,-6.0843 -9.4175,-6.3964 -0.5411,-0.5405 0.4141,-8.2369 -0.2503,-11.5112 -0.1831,-0.9017 -1.1659,-7.1555 -0.4932,-7.5211 l -0.5023,0.2423 c 5.4904,-2.554 6.9758,-3.9418 13.3823,-5.2846 9.1511,-1.9185 16.3174,-2.5555 25.564,-3.2071 4.0558,-0.2861 8.2559,1.4745 12.9682,2.1036 5.688,0.7588 14.1381,-0.8646 20.8432,-0.8646 6.8669,0 13.1199,0.75 20.3465,0.75 4.2032,0 3.7735,-2.9534 7.4358,-3.1249 0.7076,-0.0334 2.3111,1.8301 4.9893,1.7504 0.2421,-0.008 0.1811,-0.0442 0.3883,0.0496 l 26.3047,2.596 9.828,2.6127 0.7744,16.5387 -4.788,2.7037 -8.0929,6.1693 -10.0287,13.4076 -12.4015,17.4767 2.6231,6.3335 c 2.2261,6.4936 2.6122,20.3289 -0.2718,26.4226 -2.2031,4.655 -2.7723,7.8094 -6.0752,12.4279 -0.4317,0.6044 -1.6866,3.2326 -1.6251,4.0113 0.6854,0.8158 7.2408,2.6158 7.7397,9.989 0.1908,2.8194 1.3121,0.7257 0.6355,5.0108 -1.5304,2.5382 -6.184,3.9116 -8.8322,9.25 -2.2938,4.6239 -4.843,8.0232 -10.5321,6.8647 -3.6624,-0.7464 -4.3917,-8.3449 -6.3539,-9.8966 -0.0257,-0.021 -3.1294,5.4955 -5.1071,6.4712 -3.7616,1.8564 -3.3021,5.3249 -11.3108,5.8 -7.6652,0.4547 -4.33,3.2048 -13.8141,-0.0822 -3.1726,-1.0993 -3.2633,-0.1987 -6.1642,-2.9069 -1.2666,-1.1821 -2.7406,-0.5304 -4.7611,-3.2502 -5.3223,1.3881 0.6477,3.6904 -10.3757,4.1249 -1.4431,0.057 -3.4565,-4.204 -6.8856,-6.1251 -2.8363,-1.5885 -6.0503,-2.7768 -8.6468,-4.907 -2.6918,-2.2088 -4.559,-4.3351 -3.3426,-8.2287 0.8495,-2.721 4.9059,-7.5365 7.1141,-8.907 0,-0.0372 -1.8678,-3.5796 -1.9894,-4.6143 -0.0323,-0.2747 -4.9617,-12.5005 -5.5,-14.593 -0.0357,-0.1086 -1.6251,-8.9807 -1.6251,-9.3325 0,-6.0316 1.6667,-12.1451 4.4787,-17.2817 2.1368,-3.9036 11.0886,-9.116 11.1147,-9.1678 0.6207,-1.2515 -7.4217,-12.9289 -8.5933,-14.3428 z"
           style="fill:#ff969d;fill-opacity:1;fill-rule:evenodd;stroke:#1a1a18;stroke-width:0.5669;stroke-linecap:butt;stroke-linejoin:miter;stroke-miterlimit:22.9256;stroke-dasharray:none;stroke-opacity:1"
           id="path3392" />
      </g>
      <g
         id="g3394"
         transform="scale(0.7131)">
        <path
           d="m 471.1768,353.4338 c -2.9291,-0.604 -5.8737,-0.9961 -8.7134,-2.6524 -5.0508,-2.9457 -7.3024,-4.5073 -10.2504,-9.354 -2.3618,-3.8826 -2.982,-2.647 -4.875,-8.375 -2.1838,-6.6087 -2.9367,-8.3593 -1.1679,-15.2393 1.1007,-4.2803 5.5247,-6.0001 9.5,-6.0001 8.5165,0 10.0131,5.8519 20.5322,3.0932 4.0573,-1.0642 5.4644,-3.6357 11.2181,-1.5004 6.245,2.3179 5.819,6.7946 7.0002,7.6255 1.5344,1.0791 -3.7709,16.5821 -5.7821,19.0213 -3.1944,3.8744 -4.8515,9.8589 -11.2289,11.5109 -0.9842,0.2549 -2.4367,1.209 -4.3642,1.3641 -0.1077,0.009 -1.7566,0.5295 -1.8686,0.5062 z"
           style="fill:#ed4e4e;fill-opacity:1;fill-rule:evenodd;stroke:#1a1a18;stroke-width:0.5669;stroke-linecap:butt;stroke-linejoin:miter;stroke-miterlimit:22.9256;stroke-dasharray:none;stroke-opacity:1"
           id="path3396" />
      </g>
      <g
         id="g3398"
         transform="scale(0.7131)">
        <path
           d="m 470.2816,359.0963 c 0.7362,1.3989 -0.7299,4.0949 -2.0877,4.9411 -2.3899,1.4904 -4.0952,1.5704 -6.9004,0.8841 -1.4975,-0.3659 -4.0717,-1.9814 -4.2554,-3.7964 -0.316,-3.1289 -1.3252,-6.226 1.5376,-8.8804 1.0749,-0.9964 3.4727,-1.5032 4.922,-0.5627 1.3105,0.8507 4.2418,1.4499 5.7586,1.4998 1.7388,0.0579 3.2607,0.4522 4.9589,-0.0405 1.721,-0.4995 2.3911,-1.0298 4.527,-1.5948 3.3171,-0.8767 3.1478,-0.1338 4.8484,2.7071 1.8068,3.0183 -0.2997,7.3837 -3.068,9.1381 -1.7161,1.0868 -4.2208,1.8053 -6.0109,0.6335 -1.6443,-1.0766 -3.9551,-2.3873 -4.149,-4.7724 z"
           style="fill:#ffffff;fill-opacity:1;fill-rule:evenodd;stroke:#1a1a18;stroke-width:0.5669;stroke-linecap:butt;stroke-linejoin:miter;stroke-miterlimit:22.9256;stroke-dasharray:none;stroke-opacity:1"
           id="path3400" />
      </g>
      <g
         id="g3402"
         transform="scale(0.7131)">
        <path
           d="m 447.1243,232.8083 c -0.4834,-0.005 0.3194,2.9826 1.0836,3.7318 3.1074,3.0481 2.0563,2.4285 6.5569,3.9373 3.6141,1.2124 6.8547,1.8689 10.5789,0.9539 2.8964,-0.7118 0.9178,-10.2606 -0.2909,-10.7699 -2.4868,-1.0469 -5.1999,3.0455 -7.0166,2.9004 -0.8427,-1.8553 -1.1877,-7.4744 -4.2318,-6.6768 -1.3317,0.3487 -6.7255,5.9225 -6.6801,5.9233 z"
           style="fill:#ed4e4e;fill-opacity:1;fill-rule:evenodd;stroke:#1a1a18;stroke-width:0.5669;stroke-linecap:butt;stroke-linejoin:miter;stroke-miterlimit:22.9256;stroke-dasharray:none;stroke-opacity:1"
           id="path3404" />
      </g>
      <g
         id="g3406"
         transform="scale(0.7131)">
        <path
           d="m 490.8149,239.6999 c -1.5979,-1.2657 -1.701,-4.6542 -2.1322,-6.6328 -1.0159,-4.6627 7.0044,0.5522 7.2502,0.3073 0.0147,-0.015 0.9941,-4.0513 1.6086,-5.0023 1.2827,-1.984 1.7042,-2.8519 4.5519,-1.7444 1.4443,0.5615 4.4303,4.6394 4.3858,6.5843 -0.0899,3.9773 -3.0271,6.2552 -6.4463,7.7249 -1.9363,0.8323 -8.2499,-0.4705 -9.218,-1.237 z"
           style="fill:#ed4e4e;fill-opacity:1;fill-rule:evenodd;stroke:#1a1a18;stroke-width:0.5669;stroke-linecap:butt;stroke-linejoin:miter;stroke-miterlimit:22.9256;stroke-dasharray:none;stroke-opacity:1"
           id="path3408" />
      </g>
      <g
         id="g3410"
         transform="scale(0.7131)">
        <path
           d="m 408.2882,261.7971 c -2.8142,-0.9564 -3.8052,-1.5749 -6.7802,-2.2518 -0.966,-0.2197 -1.6274,-1.3757 -0.8535,-2.1444 1.5225,-1.5132 1.7614,-2.7684 4.0161,-4.6605 2.4959,-2.0954 -0.3784,-0.5114 -2.2714,-1.5843 -1.6075,-0.9105 -0.9031,-3.7491 0.7818,-4.8141 1.694,-1.0706 4.3384,-4.6275 6.7697,-1.9165 2.3437,2.613 2.0174,7.8203 0.684,10.8236 -0.3589,0.8087 -0.6761,2.2308 -1.2875,3.6088 -0.3589,0.8095 -1.3496,2.8408 -1.059,2.9392 z"
           style="fill:#ed4e4e;fill-opacity:1;fill-rule:evenodd;stroke:#1a1a18;stroke-width:0.5669;stroke-linecap:butt;stroke-linejoin:miter;stroke-miterlimit:22.9256;stroke-dasharray:none;stroke-opacity:1"
           id="path3412" />
      </g>
      <g
         id="g3414"
         transform="scale(0.7131)">
        <path
           d="m 551.3306,257.0794 c -0.636,-1.1645 -2.3003,-2.8026 -3.1949,-4.4719 -2.4378,-4.5511 -1.8439,-5.7226 -1.0196,-10.3074 0.409,-2.2751 1.2586,-2.2683 3.4486,-2.12 1.5409,0.1052 10.3935,4.7183 4.4731,6.0471 -0.4334,0.097 -1.8201,1.0109 -2.3752,0.9587 0,3.051 12.0345,5.7674 2.386,7.8072 -1.2161,0.2571 -4.0213,1.531 -3.718,2.0863 z"
           style="fill:#ed4e4e;fill-opacity:1;fill-rule:evenodd;stroke:#1a1a18;stroke-width:0.5669;stroke-linecap:butt;stroke-linejoin:miter;stroke-miterlimit:22.9256;stroke-dasharray:none;stroke-opacity:1"
           id="path3416" />
      </g>
      <g
         id="g3418"
         transform="scale(0.7131)">
        <path
           d="m 436.8756,323.9649 c -7.0469,0.782 -10.1154,-7.3248 -4.8858,-7.9481 7.1614,-0.8518 12.3792,7.1172 4.8858,7.9481 z"
           style="fill:#ed4e4e;fill-opacity:1;fill-rule:evenodd;stroke:#1a1a18;stroke-width:2.126;stroke-linecap:butt;stroke-linejoin:miter;stroke-miterlimit:22.9256;stroke-dasharray:none;stroke-opacity:1"
           id="path3420" />
      </g>
      <g
         id="g3422"
         transform="scale(-0.7131,0.7131)">
        <path
           d="m -502.6226,323.0989 c -7.047,0.7818 -10.1155,-7.3253 -4.8858,-7.9484 7.1617,-0.8521 12.3794,7.1175 4.8858,7.9484 z"
           style="fill:#ed4e4e;fill-opacity:1;fill-rule:evenodd;stroke:#1a1a18;stroke-width:2.126;stroke-linecap:butt;stroke-linejoin:miter;stroke-miterlimit:22.9256;stroke-dasharray:none;stroke-opacity:1"
           id="path3424" />
      </g>
    </g>
    <g
       id="g3426"
       transform="matrix(1.5029631,0,0,-1.5029631,-415.02744,473.39558)">
      <g
         id="g3428">
        <path
           d="m 334.5885,256.2755 c 0.8754,4.2885 -9.6505,5.4941 -8.4203,-2.4001 0.2064,-1.3238 1.5262,-2.054 2.5013,-2.628 0.4394,0 0.7957,-0.356 0.7957,-0.7954 0,-0.4394 -0.3563,-0.7954 -0.7957,-0.7954 -1.8669,0.697 -3.7315,1.7887 -4.0737,3.9764 -1.595,10.205 12.9575,9.2883 11.5115,2.1683 -0.1309,-0.4193 -0.5771,-0.6531 -0.9963,-0.5222 -0.4193,0.1307 -0.6531,0.5769 -0.5225,0.9964"
           style="fill:#1a1a18;fill-opacity:1;fill-rule:evenodd;stroke:none"
           id="path3430" />
      </g>
      <g
         id="g3432">
        <path
           d="m 334.9378,256.7452 c 0.6213,7.2816 14.3127,4.4949 10.5417,-4.5485 -0.5411,-1.298 -1.709,-2.6427 -3.1969,-2.7326 -0.4394,0 -0.7954,0.3563 -0.7954,0.7957 0,0.4394 0.356,0.7954 0.7954,0.7954 0.6775,0.0386 1.493,1.1877 1.7269,1.7498 2.8267,6.7887 -7.0926,8.5425 -7.4809,3.9402 0,-0.4394 -0.3561,-0.7954 -0.7954,-0.7954 -0.4394,0 -0.7954,0.356 -0.7954,0.7954"
           style="fill:#1a1a18;fill-opacity:1;fill-rule:evenodd;stroke:none"
           id="path3434" />
      </g>
      <g
         id="g3436">
        <path
           d="m 332.3134,253.4726 c 0.1492,1.8641 -1.2685,1.3136 -0.1028,-0.0845 l 0.008,0.004 c 0.0295,0.0292 0.0612,0.0564 0.0952,0.0808 z m 0.8255,-1.3691 c -0.5015,-0.4108 -1.2492,-0.442 -1.7969,-0.0669 -4.3758,2.9985 3.5748,7.2918 2.4673,0.6675 -0.0802,-0.3288 -0.3541,-0.5598 -0.6704,-0.6006"
           style="fill:#1a1a18;fill-opacity:1;fill-rule:evenodd;stroke:none"
           id="path3438" />
      </g>
      <g
         id="g3440">
        <path
           d="m 333.2614,254.3306 c -0.3864,-0.968 -0.1908,-0.4901 -0.5868,-1.4337 -0.1749,-0.4031 -0.6435,-0.5882 -1.0466,-0.4133 -0.4031,0.1749 -0.5879,0.6435 -0.413,1.0465 0.3799,0.9046 0.1899,0.4411 0.5692,1.3916 0.1633,0.4079 0.6262,0.6063 1.0338,0.443 0.4079,-0.1633 0.6063,-0.6261 0.4434,-1.0341"
           style="fill:#1a1a18;fill-opacity:1;fill-rule:evenodd;stroke:none"
           id="path3442" />
      </g>
      <g
         id="g3444">
        <path
           d="m 332.8166,254.4046 c -0.2682,-0.5607 -0.3393,-0.8506 -0.9357,-1.1092 -0.4159,-0.142 -0.868,0.08 -1.01,0.4958 -0.1236,0.362 0.0286,0.7515 0.3444,0.94 0.0746,0.1451 0.1826,0.3827 0.2429,0.502 0.2288,0.375 0.7183,0.4935 1.0934,0.2648 0.3753,-0.2288 0.4938,-0.7183 0.265,-1.0934"
           style="fill:#1a1a18;fill-opacity:1;fill-rule:evenodd;stroke:none"
           id="path3446" />
      </g>
      <g
         id="g3448">
        <path
           d="m 339.0525,254.4712 c -1.9924,-0.3344 0.9015,-2.8397 0.6906,-0.2021 -0.0148,0.1854 -0.5171,0.1973 -0.6906,0.2021 z m -0.2593,1.5631 c 0.0465,0.013 0.0946,0.0218 0.144,0.0263 l 0.01,9e-4 0.0108,5e-4 0.009,6e-4 0.0111,6e-4 0.009,3e-4 0.0108,2e-4 h 0.01 c 0.0389,0 0.0771,-0.003 0.1146,-0.008 1.591,-0.1287 2.6526,-0.9431 2.0545,-2.6586 -1.8539,-5.3175 -7.1133,1.7439 -2.3839,2.6374"
           style="fill:#1a1a18;fill-opacity:1;fill-rule:evenodd;stroke:none"
           id="path3450" />
      </g>
      <g
         id="g3452">
        <path
           d="m 339.7513,254.2759 c -0.2727,-0.5184 -0.2503,-0.5357 -0.2687,-1.1267 0,-0.4391 -0.3561,-0.7954 -0.7955,-0.7954 -0.4393,0 -0.7956,0.3563 -0.7956,0.7954 0.0323,0.968 0.051,1.0905 0.502,1.9559 0.2287,0.375 0.7186,0.4932 1.0933,0.2644 0.375,-0.229 0.4935,-0.7185 0.2645,-1.0936"
           style="fill:#1a1a18;fill-opacity:1;fill-rule:evenodd;stroke:none"
           id="path3454" />
      </g>
      <g
         id="g3456">
        <path
           d="m 340.5447,254.3482 c -0.3903,-1.0757 -0.1896,-0.6318 -0.5494,-1.3544 0.0207,-0.4388 -0.3186,-0.811 -0.7574,-0.8317 -0.4388,-0.0204 -0.8113,0.3187 -0.8317,0.7575 0.3935,1.3342 0.186,0.7174 0.6064,1.8567 0.1182,0.4232 0.557,0.6701 0.9799,0.5519 0.4232,-0.1182 0.6704,-0.5571 0.5522,-0.98"
           style="fill:#1a1a18;fill-opacity:1;fill-rule:evenodd;stroke:none"
           id="path3458" />
      </g>
      <g
         id="g3460">
        <path
           d="m 336.712,224.4223 c -9.351,0.055 -4.1148,-2.446 -10.4001,-3.0586 -8.198,-0.7991 -11.662,9.512 -8.0339,17.305 3.1291,6.7223 12.9214,17.9302 21.8021,13.043 10.2679,-5.6508 21.0231,-29.2873 4.2318,-29.7096 -3.5464,-0.0893 -4.2723,1.2761 -7.0956,2.2946 -0.1846,-0.0164 -0.36,0.0315 -0.5043,0.1256 z m 0.5411,1.4199 c 3.2066,-0.7328 3.1198,-2.3485 7.0163,-2.2499 14.8295,0.3756 3.7111,22.0079 -5.112,26.8234 -7.7386,4.2234 -16.8656,-6.9004 -19.4462,-12.4373 -3.0521,-6.5489 -0.5224,-15.7076 6.4502,-15.031 5.3011,0.5148 0.9876,3.1309 10.599,3.0657 0.186,0 0.3572,-0.0641 0.4927,-0.1709"
           style="fill:#1a1a18;fill-opacity:1;fill-rule:evenodd;stroke:none"
           id="path3462" />
      </g>
      <g
         id="g3464">
        <path
           d="m 329.1902,231.8715 c -0.2993,1.963 -2.569,3.4679 -4.0135,3.4886 -0.811,-2.0552 2.186,-3.5127 3.865,-3.6961 l 0.004,0.001 c 0.0374,0.0777 0.0867,0.1468 0.1445,0.2064 z m 1.173,-1.0781 c -1.3501,-2.006 -5.508,0.5335 -6.4573,2.1969 -3.335,5.8436 6.7507,4.379 6.9077,-1.48 0,-0.3157 -0.1839,-0.5884 -0.4504,-0.7169"
           style="fill:#1a1a18;fill-opacity:1;fill-rule:evenodd;stroke:none"
           id="path3466" />
      </g>
      <g
         id="g3468">
        <path
           d="m 339.882,230.8683 0.004,0.0428 c -0.0122,0.1125 0,0.2245 0.0337,0.3288 0.9978,8.3296 11.4435,3.1745 4.2373,-0.9944 -1.5234,-0.8816 -3.0938,-1.4683 -3.996,0.0176 -0.171,0.146 -0.2792,0.3628 -0.2792,0.6052 z m 1.6134,0.2245 c 0.0261,-0.0567 0.0567,-0.1114 0.0953,-0.1497 0.0697,-0.0108 0.2049,0.0252 0.2568,0.0423 6.8584,2.2674 0.2784,5.6049 -0.3521,0.1074"
           style="fill:#1a1a18;fill-opacity:1;fill-rule:evenodd;stroke:none"
           id="path3470" />
      </g>
      <g
         id="g3472">
        <path
           d="m 332.6085,220.6644 c 0.3294,-2.1135 5.262,-1.7493 5.4108,0.5723 0,0.4394 0.356,0.7954 0.7954,0.7954 0.4394,0 0.7957,-0.356 0.7957,-0.7954 -0.2806,-4.3387 -7.9288,-4.9045 -8.5867,-0.712 -0.0386,0.4376 0.2849,0.8237 0.7225,0.8623 0.4377,0.0385 0.8238,-0.2849 0.8623,-0.7226"
           style="fill:#1a1a18;fill-opacity:1;fill-rule:evenodd;stroke:none"
           id="path3474" />
      </g>
      <g
         id="g3476">
        <path
           d="m 315.8303,268.3205 c -5.2994,-1.3808 -1.6722,-2.8369 -7.7389,-5.4068 -17.4217,-7.38 6.925,-19.8601 10.643,-14.5902 1.7773,2.5188 4.9042,16.0551 1.042,18.9161 -1.3187,0.9766 -2.1433,0.9848 -3.6927,1.0395 -0.0887,0 -0.1738,0.0147 -0.2534,0.0414 z m 0.3143,1.5474 c 1.8408,-0.068 2.9458,-0.1477 4.5281,-1.3141 4.8977,-3.61 1.6016,-17.987 -0.6647,-21.1839 -5.2348,-7.3848 -32.8782,8.4064 -12.4433,17.045 5.5012,2.3255 1.628,3.8497 8.125,5.5071 0.1598,0.0281 0.3166,0.006 0.4549,-0.0541"
           style="fill:#1a1a18;fill-opacity:1;fill-rule:evenodd;stroke:none"
           id="path3478" />
      </g>
      <g
         id="g3480">
        <path
           d="m 320.8224,266.3147 c 7.285,8.6921 21.8049,7.3377 28.9077,-0.7424 0.945,-1.0749 1.3481,-1.9454 1.8623,-3.2349 0.1095,-0.4255 -0.1468,-0.8592 -0.5723,-0.9683 -0.4255,-0.1094 -0.8592,0.1468 -0.9683,0.5723 -0.4144,1.0137 -0.7979,1.7541 -1.5332,2.5996 -6.3137,7.263 -19.8281,8.6809 -26.3858,0.8717 -0.2489,-0.3617 -0.7444,-0.4533 -1.1063,-0.2041 -0.3617,0.2489 -0.4533,0.7444 -0.2041,1.1061"
           style="fill:#1a1a18;fill-opacity:1;fill-rule:evenodd;stroke:none"
           id="path3482" />
      </g>
      <g
         id="g3484">
        <path
           d="m 355.0995,267.7589 c -0.326,-0.985 -3.4447,-7.3207 -3.9334,-7.6515 0.1108,-2.1833 -6.4037,-13.1417 4.5689,-13.5457 6.5117,-0.2395 13.4277,1.8338 13.1695,9.6066 -0.0448,1.3485 -4.0748,2.8103 -5.5661,5.1361 -3.0997,4.834 -2.3213,7.3639 -8.085,6.5279 l -0.0114,0.001 c -0.0439,-0.0289 -0.0915,-0.0542 -0.1425,-0.0746 z m -0.2211,1.5302 c 0.1431,0.0946 0.3177,0.1437 0.5023,0.1289 6.0981,1.3332 6.7087,-3.2371 9.3359,-7.319 1.5267,-2.372 5.688,-3.153 5.779,-5.9307 0.2996,-9.1389 -9.5276,-12.4852 -17.1596,-11.0522 -7.4012,1.3895 -6.4117,11.2096 -3.3182,15.8289 1.6444,3.4138 2.372,5.3269 4.4887,8.2902 0.1221,0.0491 0.2494,0.0655 0.3719,0.0539"
           style="fill:#1a1a18;fill-opacity:1;fill-rule:evenodd;stroke:none"
           id="path3486" />
      </g>
      <g
         id="g3488">
        <path
           d="m 306.942,248.44 c -5.6892,-9.9865 -10.6209,-25.6425 -0.4621,-34.6814 10.4468,-9.2942 22.2976,-1.2197 31.8532,-2.2955 10.6824,-1.2021 26.2205,-10.0207 30.541,6.1756 2.7111,10.1633 -0.5847,19.2319 -5.9363,27.7234 -0.1516,0.2404 -0.2511,0.4725 -0.2596,0.7141 -0.3722,0.178 -0.5497,0.6156 -0.3972,1.0065 0.1596,0.4094 0.6208,0.6115 1.0301,0.4519 0.7059,-0.3121 1.2547,-0.6591 1.0174,-1.4006 5.5962,-8.7645 8.8781,-18.43 6.0837,-28.9012 -4.2106,-15.7794 -17.8047,-10.1821 -28.9298,-7.9818 -13.1054,2.5914 -24.5154,-6.9525 -36.061,3.3199 -10.7657,9.5791 -5.9584,25.9506 0.1554,36.6854 0.2256,0.3771 0.714,0.5001 1.091,0.2744 0.3771,-0.2253 0.4998,-0.7137 0.2742,-1.0907"
           style="fill:#1a1a18;fill-opacity:1;fill-rule:evenodd;stroke:none"
           id="path3490" />
      </g>
      <g
         id="g3492">
        <path
           d="m 315.0856,207.6316 c -5.5497,-5.6092 -3.6255,-23.5511 -1.4732,-29.9552 1.2249,-3.645 5.4329,-14.3311 10.5914,-15.1976 1.9219,-0.3229 -0.2965,8.7278 3.812,4.7197 2.1983,-2.145 4.3302,-4.1344 4.2883,0.9895 -0.0748,9.1891 -2.5518,13.4436 -1.6257,24.1577 0.1437,0.4153 0.5967,0.6353 1.012,0.4916 0.4153,-0.1438 0.6352,-0.5967 0.4915,-1.012 -0.6389,-8.1337 0.3595,-10.0386 1.2271,-17.8923 0.7543,-6.8304 0.2265,-15.0412 -6.3969,-7.9704 -0.2735,-1.9758 -0.7917,-5.0508 -2.6439,-5.0817 -5.8294,-0.097 -10.9735,12.45 -12.259,16.274 -2.4381,7.2524 -4.2843,25.4452 2.0191,31.7471 0.351,0.2645 0.8496,0.1942 1.1141,-0.1567 0.2642,-0.3507 0.1941,-0.8496 -0.1568,-1.1137"
           style="fill:#1a1a18;fill-opacity:1;fill-rule:evenodd;stroke:none"
           id="path3494" />
      </g>
      <g
         id="g3496">
        <path
           d="m 351.489,191.8287 c 0.2928,-10.8139 0.9538,-11.0038 -1.6773,-21.7862 -0.212,-0.8689 -0.7308,-3.2948 -0.5116,-4.3575 3.7615,0.5023 5.4552,5.264 5.5272,-1.7577 0.0633,-6.1764 9.1919,5.4626 10.5577,9.165 3.3619,9.1133 4.7177,26.0824 0.2066,35.2961 l -0.1324,0.1834 c -0.2573,0.3563 -0.1768,0.8532 0.1795,1.1106 0.3563,0.2571 0.8535,0.1766 1.1106,-0.1797 l 0.0808,-0.112 c 4.5964,-6.3703 3.2108,-23.4856 1.868,-30.3327 -1.0576,-5.3923 -4.6933,-13.7942 -9.5882,-17.0563 -5.707,-3.8032 -5.61,0.5766 -5.8606,3.7874 -4.8461,-2.6734 -6.8275,-2.8698 -4.9467,4.7565 2.5656,10.4054 1.8788,10.796 1.5956,21.2831 0,0.4394 0.356,0.7954 0.7954,0.7954 0.4393,0 0.7954,-0.356 0.7954,-0.7954"
           style="fill:#1a1a18;fill-opacity:1;fill-rule:evenodd;stroke:none"
           id="path3498" />
      </g>
      <g
         id="g3500">
        <path
           d="m 366.3825,209.7553 c 0.0468,-0.2129 0.0927,-0.3926 0.184,-0.584 0.252,-0.18 0.3858,-0.4994 0.314,-0.8212 -0.0955,-0.4286 -0.5207,-0.6987 -0.9496,-0.6029 -0.8033,0.258 -0.9876,1.0996 -1.1321,1.8561 -0.042,0.4374 0.2786,0.8261 0.7157,0.868 0.4374,0.042 0.826,-0.2786 0.868,-0.716"
           style="fill:#1a1a18;fill-opacity:1;fill-rule:evenodd;stroke:none"
           id="path3502" />
      </g>
      <g
         id="g3504">
        <path
           d="m 318.0492,166.0158 c 0.423,6.3868 12.132,9.5783 15.0648,6.0996 0.248,-0.3625 0.155,-0.8574 -0.2075,-1.1058 -0.3626,-0.248 -0.8575,-0.155 -1.1058,0.2075 -1.7014,2.0058 -11.8333,-0.2568 -12.1604,-5.2013 0,-0.4393 -0.3563,-0.7954 -0.7957,-0.7954 -0.4391,0 -0.7954,0.3561 -0.7954,0.7954"
           style="fill:#1a1a18;fill-opacity:1;fill-rule:evenodd;stroke:none"
           id="path3506" />
      </g>
      <g
         id="g3508">
        <path
           d="m 348.6144,169.9733 c 0.3617,3.9869 13.6734,4.1613 13.7905,-4.2143 0,-0.4391 -0.3563,-0.7954 -0.7954,-0.7954 -0.4394,0 -0.7957,0.3563 -0.7957,0.7954 -0.0873,6.7794 -10.5284,5.3422 -10.6095,4.2622 0.0133,-0.4391 -0.3319,-0.8059 -0.7707,-0.8189 -0.4391,-0.0134 -0.8059,0.3319 -0.8192,0.771"
           style="fill:#1a1a18;fill-opacity:1;fill-rule:evenodd;stroke:none"
           id="path3510" />
      </g>
      <g
         id="g3512">
        <path
           d="m 333.7288,169.4699 c 8.2094,-0.8737 6.347,-0.8635 14.7161,0.1644 0.4379,-0.0349 0.7647,-0.4181 0.7299,-0.8561 -0.0349,-0.4382 -0.4181,-0.7648 -0.8561,-0.7299 -7.5149,-1.357 -7.7624,-0.8966 -15.0778,-0.0927 -0.4181,0.1346 -0.648,0.5828 -0.5133,1.0009 0.1349,0.4184 0.5831,0.648 1.0012,0.5134"
           style="fill:#1a1a18;fill-opacity:1;fill-rule:evenodd;stroke:none"
           id="path3514" />
      </g>
      <g
         id="g3516">
        <path
           d="m 316.9185,166.5045 c -9.1364,1.3045 -26.0221,1.5821 -31.5763,11.0484 -1.1216,1.9116 1.3207,2.3079 3.0209,2.4749 -2.6677,2.5778 -8.3438,5.0998 1.1645,6.8031 8.8787,1.5908 12.9523,11.5991 17.3531,18.2172 l 3.6074,4.9597 c 0.2523,0.3598 0.7483,0.4471 1.1081,0.1945 0.3597,-0.2523 0.4467,-0.7483 0.1944,-1.1081 -3.7216,-5.1168 -6.2212,-10.1089 -9.3654,-14.4297 -10.1987,-14.0154 -20.6541,-7.4602 -14.7852,-12.2069 5.8269,-4.7126 2.0784,-3.3086 -0.8374,-4.2412 5.3045,-8.6371 21.6944,-8.8818 30.1159,-10.1208 0.4394,0 0.7954,-0.356 0.7954,-0.7954 0,-0.4393 -0.356,-0.7957 -0.7954,-0.7957"
           style="fill:#1a1a18;fill-opacity:1;fill-rule:evenodd;stroke:none"
           id="path3518" />
      </g>
      <g
         id="g3520">
        <path
           d="m 291.5011,186.2008 c 2.842,-4.9714 4.8455,-8.9289 0.5187,-13.4589 -0.328,-0.2923 -0.8308,-0.2633 -1.1231,0.0646 -0.2922,0.3283 -0.2633,0.8309 0.0649,1.1231 3.8994,4.0779 1.2666,7.5943 -1.0224,11.9687 -0.0834,0.4312 0.1984,0.8484 0.6298,0.9321 0.4312,0.0836 0.8484,-0.1982 0.9321,-0.6296"
           style="fill:#1a1a18;fill-opacity:1;fill-rule:evenodd;stroke:none"
           id="path3522" />
      </g>
      <g
         id="g3524">
        <path
           d="m 363.5359,168.4809 c 8.4283,0.2063 25.9419,0.4623 32.4077,6.1035 0.0853,0.0746 0.1641,0.1409 0.2387,0.2013 -6.7471,1.9686 -1.1101,2.7584 1.4581,5.7906 -5.5295,2.3408 -3.6315,0.3407 -9.7322,4.4838 -5.29,3.5927 -6.2328,4.9553 -9.5485,9.4445 l 0.0255,0.144 c -2.0684,2.8196 -9.4348,14.9771 -11.1129,16.1702 -0.3603,0.0528 -0.6489,0.3498 -0.6769,0.728 -0.0326,0.4382 0.2962,0.8198 0.7341,0.8523 0.9054,-0.011 1.408,-0.7679 1.9333,-1.4269 l -0.1429,0.0292 c 2.9169,-3.6182 6.4718,-8.8753 8.6927,-12.8906 3.9266,-7.0979 11.8891,-14.22 19.8295,-16.0415 5.099,-1.1699 -1.5378,-3.9926 -2.774,-5.4887 2.4253,-1.2906 6.1642,0.3328 2.1127,-3.2026 -6.8916,-6.014 -24.5171,-6.2703 -33.4449,-6.488 -0.4393,0 -0.7956,0.3561 -0.7956,0.7954 0,0.4394 0.3563,0.7955 0.7956,0.7955"
           style="fill:#1a1a18;fill-opacity:1;fill-rule:evenodd;stroke:none"
           id="path3526" />
      </g>
      <g
         id="g3528">
        <path
           d="m 393.3326,181.8884 c -3.8135,-2.4463 -3.1073,-6.2118 -1.3655,-9.8299 0.2163,-0.3824 0.0817,-0.8677 -0.3007,-1.084 -0.3824,-0.2166 -0.8677,-0.0819 -1.084,0.3005 -2.1798,4.5283 -2.6952,9.0051 1.9735,12.0019 0.3835,0.2145 0.8683,0.0773 1.0828,-0.3059 0.2143,-0.3835 0.0774,-0.8683 -0.3061,-1.0826"
           style="fill:#1a1a18;fill-opacity:1;fill-rule:evenodd;stroke:none"
           id="path3530" />
      </g>
      <g
         id="g3532">
        <path
           d="m 303.3629,198.5298 c -0.7262,2.3941 -3.6056,3.5359 -5.9621,3.0779 -0.4153,-0.1435 -0.8682,0.0771 -1.0117,0.4923 -0.1434,0.4153 0.0771,0.8683 0.4924,1.0117 3.4047,0.6738 6.9925,-0.796 8.0359,-4.2423 0.0936,-0.4292 -0.1783,-0.8532 -0.6074,-0.9468 -0.4292,-0.0938 -0.8532,0.178 -0.9471,0.6072"
           style="fill:#1a1a18;fill-opacity:1;fill-rule:evenodd;stroke:none"
           id="path3534" />
      </g>
      <g
         id="g3536">
        <path
           d="m 291.3778,203.9621 c 4.7007,-1.6421 4.8894,-6.9817 1.9105,-7.2139 -0.4394,0 -0.7954,0.3563 -0.7954,0.7954 0,0.4394 0.356,0.7957 0.7954,0.7957 0.6466,0.0471 0.7614,3.0096 -2.3267,4.0873 -0.424,0.1148 -0.6746,0.5519 -0.5598,0.976 0.1148,0.424 0.5519,0.6746 0.976,0.5595"
           style="fill:#1a1a18;fill-opacity:1;fill-rule:evenodd;stroke:none"
           id="path3538" />
      </g>
      <g
         id="g3540">
        <path
           d="m 290.374,203.3226 c 0.8887,8.674 15.1121,-5.0624 4.4283,-9.5071 -4.9201,-2.0472 -8.695,5.8059 -1.9315,8.0331 0.0394,0.0283 0.0578,0.03 0.2208,0.1069 0.415,0.144 0.8682,-0.0757 1.0125,-0.4907 0.1307,-0.3765 -0.038,-0.7844 -0.3801,-0.9646 -0.0553,-0.04 -0.1137,-0.0723 -0.1868,-0.1018 -5.1619,-2.0747 -1.895,-5.686 -0.015,-5.313 8.5541,1.6968 -1.0219,13.2809 -1.5571,8.2372 0,-0.4394 -0.3563,-0.7954 -0.7954,-0.7954 -0.4394,0 -0.7957,0.356 -0.7957,0.7954 z m 2.5569,-1.4544 c 0.0473,0.015 0.0929,0.0309 0.1411,0.0456 -0.0561,-0.0167 -0.1009,-0.0298 -0.1411,-0.0456 z m -0.1018,-0.0516 c -0.0312,-0.0204 -0.0638,-0.046 -0.1012,-0.08 0.0473,0.0366 0.0785,0.0618 0.1012,0.08"
           style="fill:#1a1a18;fill-opacity:1;fill-rule:evenodd;stroke:none"
           id="path3542" />
      </g>
      <g
         id="g3544">
        <path
           d="m 298.5778,199.5542 c 2.395,-0.5417 2.7927,-3.2765 3.0189,-5.3492 0,-0.4394 -0.3561,-0.7957 -0.7954,-0.7957 -0.4394,0 -0.7954,0.3563 -0.7954,0.7957 -0.0978,0.8725 -0.4133,3.4965 -1.6045,3.7684 -0.4365,0.0484 -0.7511,0.4419 -0.7024,0.8784 0.0488,0.4365 0.4419,0.7512 0.8788,0.7024"
           style="fill:#1a1a18;fill-opacity:1;fill-rule:evenodd;stroke:none"
           id="path3546" />
      </g>
    </g>
  </g>
</svg>
