<?xml version="1.0" encoding="UTF-8" standalone="no"?>
<svg
   xmlns:dc="http://purl.org/dc/elements/1.1/"
   xmlns:cc="http://creativecommons.org/ns#"
   xmlns:rdf="http://www.w3.org/1999/02/22-rdf-syntax-ns#"
   xmlns:svg="http://www.w3.org/2000/svg"
   xmlns="http://www.w3.org/2000/svg"
   xmlns:sodipodi="http://sodipodi.sourceforge.net/DTD/sodipodi-0.dtd"
   xmlns:inkscape="http://www.inkscape.org/namespaces/inkscape"
   width="177.19885mm"
   height="201.98634mm"
   viewBox="0 0 177.19885 201.98634"
   version="1.1"
   id="svg28470"
   inkscape:version="1.0.2 (e86c8708, 2021-01-15)"
   sodipodi:docname="squirrel.svg">
  <defs
     id="defs28464" />
  <sodipodi:namedview
     id="base"
     pagecolor="#ffffff"
     bordercolor="#666666"
     borderopacity="1.0"
     inkscape:pageopacity="0.0"
     inkscape:pageshadow="2"
     inkscape:zoom="0.35"
     inkscape:cx="166.56242"
     inkscape:cy="-44.008006"
     inkscape:document-units="mm"
     inkscape:current-layer="layer1"
     inkscape:document-rotation="0"
     showgrid="false"
     inkscape:window-width="1440"
     inkscape:window-height="855"
     inkscape:window-x="0"
     inkscape:window-y="23"
     inkscape:window-maximized="0" />
  <metadata
     id="metadata28467">
    <rdf:RDF>
      <cc:Work
         rdf:about="">
        <dc:format>image/svg+xml</dc:format>
        <dc:type
           rdf:resource="http://purl.org/dc/dcmitype/StillImage" />
        <dc:title />
      </cc:Work>
    </rdf:RDF>
  </metadata>
  <g
     inkscape:label="Слой 1"
     inkscape:groupmode="layer"
     id="layer1"
     transform="translate(-61.763692,-159.81045)">
    <g
       id="g1348"
       transform="matrix(4.4473601,0,0,-4.4473601,-3280.7247,2682.5549)">
      <path
         d="m 755.3339,552.5379 c 0.3662,-0.021 1.5035,0.5474 1.9513,0.6503 0.5508,0.1264 0.4255,1.0959 -0.1936,1.4822 -0.8274,0.5159 -1.3291,0.8501 -2.3527,0.7929 -0.2824,-0.0159 -0.7651,-0.1454 -0.8711,-0.4278 -0.4932,-1.3147 0.6193,-1.3745 1.0757,-2.23 0.0615,-0.1156 0.2682,-0.2605 0.3904,-0.2676"
         style="fill:#e31e24;fill-opacity:1;fill-rule:evenodd;stroke:none"
         id="path1350" />
      <path
         d="m 764.0252,542.7836 c -1.3765,0.1945 -0.9564,-3.4271 -0.6146,-3.4001 0.0165,-0.2248 -0.5074,0.3648 -0.699,0.3495 -0.009,-6e-4 -1.2115,0.2996 -1.6974,0.2996 -1.1455,0 -1.6081,-0.2146 -2.247,-1.1483 -1.4865,-2.1728 1.5579,-2.545 0.5366,-3.9402 -0.4927,-0.6729 -1.2257,-4.2879 -0.849,-5.3467 0.2407,-0.6766 0.1398,-2.1481 0.8787,-2.7791 1.0069,-0.8594 -0.1757,-0.4663 -1.2653,-0.4663 -2.1785,0 -1.5055,-0.1692 -2.5379,1.6974 -0.1443,0.2611 -0.2619,6.4882 0.1171,7.0104 0.2426,0.3342 1.1727,2.1798 1.1727,2.7088 0,2.4551 -0.5964,3.6119 1.1313,5.3597 2.1277,2.1526 2.3051,0.7041 4.7103,0.7988 0.0729,0.003 2.4066,-1.2909 1.3635,-1.1435"
         style="fill:#ffeab0;fill-opacity:1;fill-rule:evenodd;stroke:none"
         id="path1352" />
      <path
         d="m 788.8255,542.7726 c 0.0553,-0.0777 1.7405,-4.2809 1.6336,-4.1519 -0.396,-0.9726 -0.9091,-1.3641 -1.9579,-1.2255 -0.2268,0.0301 -1.3363,0.5848 -1.5749,0.7467 -0.5834,0.396 -1.66,1.8898 -1.7847,2.5529 -0.0204,0.1094 -0.3025,-0.0451 -0.3203,-0.3538 -0.0343,-0.5987 -0.8042,-2.6317 -1.3893,-2.95 -0.7517,-0.409 -0.4405,-0.8388 -1.794,-0.3974 -1.4165,0.462 -1.9299,2.2388 -2.2754,2.48 -0.1605,0.112 0.0374,1.3864 -0.6662,-0.6596 -0.2012,-0.5851 -1.4575,-2.505 -2.2512,-1.7555 -0.3864,0.3648 -1.2504,0.8597 -1.5098,1.3331 -1.2866,2.3477 -1.0012,0.9885 -1.4482,0.5287 -0.2188,-0.2254 -1.4508,-2.7635 -1.9471,-0.9323 -0.1621,0.5981 -0.4147,0.2644 -0.6284,1.082 0.0875,1.5338 -0.027,2.5511 -1.2354,3.6099 -0.2741,0.2398 -1.0973,0.4175 0.5514,0.6049 0.0768,0.009 1.3206,0.5386 1.4079,0.5536 1.3884,1.2339 2.3698,1.1472 3.4217,3.1609 0.4238,0.8116 2.1277,2.7043 0.548,3.4214 -0.1815,0.0822 -1.7261,0.0434 -0.4624,0.6704 0.008,0.004 1.3286,1.8046 0.5122,1.9344 -0.9946,0.1582 -3.0529,0.917 -2.8111,2.1067 0.5925,2.9157 4.8053,4.1723 10.3899,3.655 1.1766,-0.1089 3.9087,-1.4879 4.3126,-2.664 0.2469,-0.7189 0.8164,-3.1031 0.4229,-2.7831 -2.827,2.3006 -6.7286,0.1114 0.8561,-10.5675"
         style="fill:#ffeab0;fill-opacity:1;fill-rule:evenodd;stroke:none"
         id="path1354" />
      <path
         d="m 764.0201,542.7819 -0.6373,-0.5292 -0.1975,-1.298 0.3322,-1.6719 -1.806,0.8603 -1.298,0.0627 -1.6012,-1.2787 -0.421,-1.7422 0.7747,-0.6641 0.6285,-1.1937 -1.4188,-2.1345 -0.0825,-2.8253 0.5783,-2.4072 1.0548,-1.7974 -3.2517,0.2435 c -0.0997,0.4022 -0.6437,1.9091 -0.7038,2.1963 -0.6942,3.3114 -0.3725,2.0148 -0.0907,4.9935 0.0992,1.0502 0.6188,1.7328 0.6469,2.0032 0.2403,0.5508 1.0808,1.3178 0.9898,1.5645 -0.5428,1.4726 -0.0187,1.6364 -0.0436,2.6444 -0.009,0.3484 0.3974,1.4451 0.2746,1.4542 -0.6525,0.0482 -0.593,0.4538 -0.6806,0.8957 -0.3364,-0.1451 -1.7722,-0.7339 -2.046,-0.8286 -0.203,-0.0703 -0.7849,-0.8727 -0.1083,-1.1072 0.0882,-0.4266 -1.0134,-1.1463 0.4623,-1.3351 0.1988,-0.0255 -0.242,-1.0315 0.3864,-1.1613 0.0133,-0.0318 -0.6296,-0.7631 -0.5905,-1.2396 0.0448,-0.5463 -0.5992,-1.3371 -0.5992,-2.846 0,-1.5642 -0.14,-2.761 0.2869,-4.2069 0.0706,-0.2393 0.0326,-0.8215 0.121,-1.0772 0.0102,-0.002 -0.6423,0.2707 -1.552,-0.3251 -0.1434,-0.0938 -2.3935,-0.6554 -1.7433,-1.9301 0.4091,-0.8017 2.6504,-0.5596 3.4866,-0.849 -0.0697,-0.7203 -1.0465,-1.9531 0.8986,-2.1926 1.9188,-0.2361 4.4765,-0.8921 6.3542,-0.9986 1.6682,-0.0944 4.0192,-0.4422 5.6205,-0.0499 0.9859,0.2415 2.4664,0.4413 3.4537,0.8317 1.3125,0.519 1.3218,-0.2092 2.8917,-0.3323 0.9263,-0.0728 1.0312,-0.0544 1.9017,-0.0544 2.2207,0.5335 4.5698,0.2472 6.6904,1.0857 1.4896,0.589 2.9491,1.0998 4.7707,2.3462 0.7466,1.2558 2.3814,2.5022 2.8434,4.6315 0.2945,1.3578 0.4277,1.5276 0.3626,3.0586 -0.0525,1.2226 0.4181,1.9352 -0.237,3.4453 -0.038,0.0878 -0.1556,1.4686 -0.2625,1.5976 -0.396,-0.9726 -0.9091,-1.3641 -1.9579,-1.2255 -0.2268,0.0301 -1.3363,0.5848 -1.5749,0.7467 -0.5834,0.396 -1.66,1.8898 -1.7847,2.5529 -0.0204,0.1094 -0.3025,-0.0451 -0.3203,-0.3538 -0.0343,-0.5987 -0.8042,-2.6317 -1.3893,-2.95 -0.7517,-0.409 -0.4405,-0.8388 -1.794,-0.3974 -1.4165,0.462 -1.9299,2.2388 -2.2754,2.48 -0.1605,0.112 0.0374,1.3864 -0.6662,-0.6596 -0.2012,-0.5851 -1.4575,-2.505 -2.2512,-1.7555 -0.3864,0.3648 -1.2504,0.8597 -1.5098,1.3331 -1.2866,2.3477 -1.0012,0.9885 -1.4482,0.5287 -0.2188,-0.2254 -1.4508,-2.7635 -1.9471,-0.9323 -0.1621,0.5981 -0.4147,0.2644 -0.6284,1.082 0.0875,1.5338 -0.027,2.5511 -1.2354,3.6099 -0.2741,0.2398 -1.0973,0.4175 0.5514,0.6049 0.0768,0.009 1.3206,0.5386 1.4079,0.5536 1.3884,1.2339 2.3698,1.1472 3.4217,3.1609 0.4238,0.8116 2.1277,2.7043 0.548,3.4214 -0.1815,0.0822 -1.7261,0.0434 -0.4624,0.6704 0.008,0.004 1.3388,1.9344 0.5122,1.9344 -1.1338,0 -4.2253,3.6601 -4.2939,4.0943 0.15,0.9071 0.7115,0.0315 0.7115,2.7465 0,2.0781 -0.4238,1.8831 -0.9572,3.5263 -0.0655,0.2019 -0.8343,1.1931 -1.0398,1.3788 -0.5074,0.6395 -2.3133,2.0713 -2.3241,0.5015 -0.005,-0.732 -0.0329,-0.648 -0.5326,-0.0355 -0.3632,0.4453 -2.1615,2.8865 -2.1615,-0.0417 0,-0.009 -0.7032,0.8816 -2.2096,0.3847 -2.0695,-0.6831 1.3218,-2.5914 -0.4473,-2.0509 -0.8195,0.2506 -2.3043,-0.3611 -0.7631,-1.5769 1.0849,-0.8557 0.2262,-0.2783 -1.4252,-1.2047 -1.3796,-0.7739 -0.6526,-0.9901 -0.5993,-1.8765 0.01,-0.1625 0.743,0.7443 1.4032,0.7443 0.0527,0 0.6599,-0.0306 0.7126,-0.0306 0.6503,-0.0161 1.3317,-1.5808 1.3317,-2.2773 0,-1.442 0.1185,-2.4304 -1.6248,-2.7406 -0.8932,-0.1587 -2.052,1.1234 -2.1092,1.6957 -0.3215,0.1786 -0.186,0.6154 -0.868,-0.1834 -0.9394,-1.1001 -2.1504,-0.214 -0.8632,-1.6869 0.9236,-1.0564 -1.5902,-2.1291 -2.4984,-1.6563 -0.3232,0.1684 -1.2464,0.6262 -1.3232,0.009 -0.0562,-0.4501 -0.3005,-1.6599 0.0748,-1.9539 0.5168,-0.4042 1.4204,-0.5941 1.6838,0.1661 0.1652,-0.739 2.0324,-1.8399 1.0854,-2.8956 -0.2047,-0.2282 -0.3354,-0.4906 -0.6721,-0.4906 -0.125,0.1734 -0.4405,-0.5179 0.6242,-1.6954 0.6295,-0.6965 1.0275,-0.6866 1.6835,-1.5143 0.0969,-0.1225 0.5261,-0.3719 0.8268,-0.4266 0.0836,-0.0151 3.4881,-1.1571 4.94,-1.1529"
         style="fill:#ff9100;fill-opacity:1;fill-rule:evenodd;stroke:none"
         id="path1356" />
      <path
         d="m 769.3767,559.1197 c -0.1023,0.0102 -1.2328,2.4131 -1.2101,2.7093 0.0456,0.5916 -0.2704,0.9304 0.4158,1.6543 0.7929,0.836 1.9228,-2.2402 1.4945,-3.1997 -0.2413,-0.5411 -0.2702,-0.7475 -0.7337,-1.1084 z"
         style="fill:#ff969d;fill-opacity:1;fill-rule:evenodd;stroke:none"
         id="path1358" />
      <path
         d="m 765.1956,555.4349 c 0.4493,-0.1287 0.8249,-0.3027 0.5255,-0.8475 -0.2381,-0.4334 -2.2388,-1.1557 -1.5789,0.2369 0.2288,0.4825 1.0389,0.6149 1.0534,0.6106"
         style="fill:#ed4e4e;fill-opacity:1;fill-rule:evenodd;stroke:none"
         id="path1360" />
    </g>
    <g
       id="g1362"
       transform="matrix(4.4473601,0,0,-4.4473601,-3279.9656,2680.5768)">
      <g
         id="g1364">
        <path
           d="m 759.7888,558.3951 c 0.9811,2.6215 4.1873,0.2033 2.9225,-2.7691 -0.5417,-1.2736 -2.8516,-1.3142 -3.5943,1.1381 -0.2004,0.6619 -0.692,-0.8192 -2.236,-1.3493 -0.0247,-0.008 -0.0436,-0.0181 -0.0607,-0.0309 l -0.0107,-3e-4 c -0.0998,0 -0.1809,-0.081 -0.1809,-0.1808 0,-0.1001 0.0811,-0.1812 0.1809,-0.1812 0.085,0.003 0.1542,0.007 0.2129,0.0547 0.6142,0.1327 1.4451,0.7002 1.8615,1.2634 0.9813,-2.4857 3.524,-2.3453 4.1561,-0.8648 1.4718,3.4469 -2.4278,6.1449 -3.5966,3.028 -0.0297,-0.0953 0.0236,-0.1968 0.1188,-0.2265 0.0955,-0.0298 0.197,0.0235 0.2265,0.1187 z m -2.8043,-3.3264 c -0.004,-0.001 -0.009,-0.002 -0.0128,-0.003 z"
           style="fill:#1a1a18;fill-opacity:1;fill-rule:evenodd;stroke:none"
           id="path1366" />
      </g>
      <g
         id="g1368">
        <path
           d="m 759.818,558.5539 c -0.3149,3.3225 -4.1888,1.1443 -3.1125,-1.6438 0.2569,-0.6659 1.2958,-1.2697 1.6141,-0.9873 0.0768,0.0414 0.1148,0.1335 0.0853,0.2185 -0.0326,0.0944 -0.1355,0.1446 -0.2302,0.112 l -0.0238,-0.0102 c -0.3138,0.0116 -0.487,0.0584 -0.7256,0.2826 -1.9755,1.8575 1.7265,5.2671 2.031,2.0282 0,-0.1001 0.0811,-0.1809 0.1808,-0.1809 0.1001,0 0.1809,0.0808 0.1809,0.1809 z m -1.4678,-2.598 c 0.004,0.005 0.007,0.009 0.0105,0.0145 -0.003,-0.005 -0.007,-0.01 -0.0105,-0.0145"
           style="fill:#1a1a18;fill-opacity:1;fill-rule:evenodd;stroke:none"
           id="path1370" />
      </g>
      <g
         id="g1372">
        <path
           d="m 761.0873,556.6853 c 0.5809,-1.1466 -0.8362,-1.726 -0.6528,-0.3713 0.0363,0.2684 0.3705,0.4586 0.6061,0.4161 0.0127,-0.0176 0.0286,-0.0329 0.0467,-0.0448 z m 0.1097,0.3736 c -0.3404,0.1548 -1.0437,-0.1301 -1.1211,-0.6959 -0.271,-1.9834 2.3449,-1.2492 1.2578,0.6213 -0.0335,0.046 -0.0839,0.0718 -0.1367,0.0746"
           style="fill:#1a1a18;fill-opacity:1;fill-rule:evenodd;stroke:none"
           id="path1374" />
      </g>
      <g
         id="g1376">
        <path
           d="m 761.0769,555.6317 c 0.0833,-0.0103 0.132,0.0666 0.151,0.1836 0.0743,0.1931 0.044,0.5162 -0.1978,1.0061 -0.0496,0.0867 -0.1599,0.1167 -0.2469,0.0674 -0.0766,-0.0436 -0.1089,-0.1346 -0.0817,-0.2151 -0.0442,-0.0255 -0.0904,-0.0644 -0.1389,-0.1194 -0.5649,-0.6412 0.1511,-1.1333 0.5143,-0.9226"
           style="fill:#1a1a18;fill-opacity:1;fill-rule:evenodd;stroke:none"
           id="path1378" />
      </g>
      <g
         id="g1380">
        <path
           d="m 760.7001,556.8077 c -1.0808,-0.1374 -0.0949,-2.2895 0.5647,-0.8447 0.0652,0.1426 0.0451,0.3212 0.0405,0.4754 0,0.1001 -0.081,0.1808 -0.1811,0.1808 -0.0998,0 -0.1809,-0.0807 -0.1809,-0.1808 0.003,-0.1026 0.006,-0.1899 0.003,-0.2931 l 0.006,3e-4 c -0.0366,-0.0553 -0.1718,-0.2846 -0.2659,-0.3025 -0.1162,0.08 -0.1434,0.5828 0.0244,0.6029 0.0998,0.003 0.1783,0.0865 0.1755,0.1863 -0.003,0.0998 -0.0865,0.1783 -0.1863,0.1754"
           style="fill:#1a1a18;fill-opacity:1;fill-rule:evenodd;stroke:none"
           id="path1382" />
      </g>
      <g
         id="g1384">
        <path
           d="m 758.9134,556.664 c 0.9026,1.8944 -2.1305,1.2053 -0.8971,-0.1145 0.1766,-0.1891 0.767,-0.2866 0.8963,-0.005 0.0142,0.0399 0.0136,0.0816 8e-4,0.119 z m -0.3668,0.0703 c -0.083,-0.003 -0.1817,0.0117 -0.2369,0.0417 -0.8819,0.4774 1.0003,1.3745 0.2369,-0.0417"
           style="fill:#1a1a18;fill-opacity:1;fill-rule:evenodd;stroke:none"
           id="path1386" />
      </g>
      <g
         id="g1388">
        <path
           d="m 757.7597,557.1295 c 0.2073,-2.4231 1.8502,0.8164 0.675,0.3605 -0.1755,-0.068 -0.2875,-0.1553 -0.3521,-0.2483 -0.0329,0.042 -0.0845,0.0689 -0.142,0.0689 -0.0998,0 -0.1809,-0.0811 -0.1809,-0.1811 z m 0.4505,-0.4717 c 0.0147,-0.01 0.0297,-0.0184 0.0453,-0.0261 -0.005,-10e-4 -0.01,-0.002 -0.0144,-0.002 -0.0114,0.006 -0.0219,0.0156 -0.0309,0.0284"
           style="fill:#1a1a18;fill-opacity:1;fill-rule:evenodd;stroke:none"
           id="path1390" />
      </g>
      <g
         id="g1392">
        <path
           d="m 767.577,561.5297 c -0.8218,1.6509 -2.8837,5.6645 -5.3833,4.0552 -0.7135,-0.4595 -0.1709,-1.4057 0.3713,-2.0539 -1.9451,0.5581 -2.3133,-1.2569 -0.9626,-2.0183 -1.0769,-0.1301 -1.8669,-0.5604 -2.4075,-1.8706 -0.034,-0.0938 0.0145,-0.1976 0.1083,-0.2319 0.0938,-0.034 0.1979,0.0145 0.2319,0.1083 0.7503,1.8213 1.6806,1.4718 3.2224,1.692 l 0.0153,0.3405 c -2.5319,0.6857 -2.0083,2.3853 0.4884,1.3028 l 0.2268,0.0946 c -0.009,0.063 -0.0578,0.1423 -0.131,0.2345 l 0.0267,0.0113 c 0.01,-0.004 0.0127,-0.005 0.0144,-0.006 -0.026,0.0136 -0.0515,0.026 -0.0773,0.0391 -0.4357,0.5201 -1.5234,1.398 -0.9264,2.0562 2.3641,1.2144 4.0277,-2.243 4.8444,-3.8823 0.0354,-0.0936 0.1398,-0.1406 0.2333,-0.1049 0.0933,0.0354 0.1403,0.1398 0.1049,0.2333 z m -4.1789,1.6586 h 3e-4 v -3e-4 h 3e-4 v 0 l 0.003,-0.002 6e-4,-3e-4 5e-4,-3e-4 6e-4,-3e-4"
           style="fill:#1a1a18;fill-opacity:1;fill-rule:evenodd;stroke:none"
           id="path1394" />
      </g>
      <g
         id="g1396">
        <path
           d="m 767.6306,561.3814 c 0.008,0.1239 0.1692,4.519 0.5263,4.5035 1.7368,-0.0755 3.6488,-3.6508 3.729,-5.2597 0.0581,-1.1682 0.0584,-2.9974 -1.186,-3.6805 -0.0944,-0.0326 -0.1446,-0.1355 -0.112,-0.2302 0.0326,-0.0944 0.1358,-0.1443 0.2302,-0.1117 1.44,0.7778 1.5032,2.592 1.4295,4.0295 -0.0921,1.7971 -2.1163,5.544 -4.0972,5.6143 -0.951,0.034 -0.8379,-4.1956 -0.8818,-4.8652 0,-0.0997 0.081,-0.1808 0.1811,-0.1808 0.0998,0 0.1809,0.0811 0.1809,0.1808"
           style="fill:#1a1a18;fill-opacity:1;fill-rule:evenodd;stroke:none"
           id="path1398" />
      </g>
      <g
         id="g1400">
        <path
           d="m 769.4977,558.985 c 1.3462,1.2938 1.1934,2.977 0.0397,4.326 -1.4714,1.7206 -2.175,-1.3547 -0.8799,-3.3554 0.0514,-0.0793 0.3807,-0.5525 0.5446,-0.788 -0.0156,-0.0576 -0.003,-0.1216 0.0399,-0.169 0.0669,-0.0742 0.1815,-0.0805 0.2557,-0.0136 z m -0.0581,0.4604 c -0.2979,0.4377 -0.6857,0.9723 -0.8767,1.3626 -0.2356,0.481 -0.5018,3.6828 0.6947,2.2734 0.9975,-1.1747 1.1673,-2.5288 0.182,-3.636"
           style="fill:#1a1a18;fill-opacity:1;fill-rule:evenodd;stroke:none"
           id="path1402" />
      </g>
      <g
         id="g1404">
        <path
           d="m 765.159,565.1096 c 0.0437,1.6095 0.2174,1.6925 1.4378,0.5335 0.4787,-0.455 0.4195,-0.4238 0.7236,-0.9278 0.0329,-0.0944 0.1358,-0.1443 0.2302,-0.1117 0.0944,0.0326 0.1446,0.1358 0.112,0.2302 -0.3532,0.5955 -0.2829,0.5641 -0.8181,1.0729 -1.4689,1.396 -1.9936,1.1766 -2.0472,-0.7971 0,-0.0998 0.0811,-0.1809 0.1809,-0.1809 0.1,0 0.1808,0.0811 0.1808,0.1809"
           style="fill:#1a1a18;fill-opacity:1;fill-rule:evenodd;stroke:none"
           id="path1406" />
      </g>
      <g
         id="g1408">
        <path
           d="m 765.4518,555.2501 c 1.0979,-0.9893 -2.3502,-1.4491 -0.9464,-0.1647 0.2225,0.2035 0.6607,0.1678 0.9337,0.167 l 0.01,3e-4 0.003,-0.003 z m 0.1032,0.322 c -0.0312,0.0264 -0.0717,0.0423 -0.1159,0.0423 -0.4932,10e-4 -0.9984,0.0334 -1.3127,-0.4196 -1.514,-2.1801 3.2558,-1.2019 1.5511,0.3379 -0.036,0.0289 -0.0797,0.0417 -0.1225,0.0394"
           style="fill:#1a1a18;fill-opacity:1;fill-rule:evenodd;stroke:none"
           id="path1410" />
      </g>
      <g
         id="g1412">
        <path
           d="m 766.6824,553.674 c -0.0882,-1.1426 -1.2855,-1.6871 -2.1113,-0.7205 -0.0646,0.0762 -0.1788,0.085 -0.2548,0.0204 -0.076,-0.0649 -0.0851,-0.1792 -0.0201,-0.2551 1.0278,-1.2042 2.6308,-0.5604 2.7479,0.9552 0,0.0998 -0.0808,0.1809 -0.1809,0.1809 -0.0998,0 -0.1808,-0.0811 -0.1808,-0.1809"
           style="fill:#1a1a18;fill-opacity:1;fill-rule:evenodd;stroke:none"
           id="path1414" />
      </g>
      <g
         id="g1416">
        <path
           d="m 765.7679,552.2417 c 1.188,-5.6168 -7.0719,-7.1904 -9.7651,-1.6991 -0.2678,0.5457 -0.314,1.4743 -0.3945,2.084 0,0.1001 -0.0808,0.1809 -0.1809,0.1809 -0.0998,0 -0.1808,-0.0808 -0.1808,-0.1809 0.0858,-0.6701 0.1391,-1.6472 0.432,-2.2444 2.8712,-5.8598 11.7243,-4.1264 10.4368,1.9593 -0.0275,0.0961 -0.1275,0.1516 -0.2236,0.1239 -0.0961,-0.0275 -0.1517,-0.1276 -0.1239,-0.2237"
           style="fill:#1a1a18;fill-opacity:1;fill-rule:evenodd;stroke:none"
           id="path1418" />
      </g>
      <g
         id="g1420">
        <path
           d="m 755.6031,552.4583 c 6.0554,0.4541 -1.4657,5.703 -2.0355,2.1078 -0.1758,-1.1078 0.9332,-1.8422 1.7963,-2.2343 0.0933,-0.0354 0.1976,0.0119 0.233,0.1055 0.003,0.007 0.005,0.0142 0.006,0.021 z m -0.2993,0.3004 c -0.6347,0.3116 -1.3768,0.8096 -1.3909,1.5755 -0.0565,3.0558 7.1492,-1.207 1.5145,-1.5267 -0.0476,0 -0.0913,-0.0184 -0.1236,-0.0488"
           style="fill:#1a1a18;fill-opacity:1;fill-rule:evenodd;stroke:none"
           id="path1422" />
      </g>
      <g
         id="g1424">
        <path
           d="m 755.358,551.0418 c -0.4369,-1.0559 -2.562,-0.1556 -1.1628,1.9701 l 0.0147,0.0102 c 0.0825,0.0564 0.1038,0.1689 0.0474,0.2514 -0.0564,0.0825 -0.169,0.1035 -0.2515,0.0471 -0.0518,-0.0366 -0.0558,-0.0352 -0.1049,-0.0973 -1.7274,-2.1809 1.052,-4.104 1.8054,-2.279 0.027,0.0961 -0.0292,0.1961 -0.1253,0.2231 -0.0963,0.0269 -0.1961,-0.0292 -0.223,-0.1256"
           style="fill:#1a1a18;fill-opacity:1;fill-rule:evenodd;stroke:none"
           id="path1426" />
      </g>
      <g
         id="g1428">
        <path
           d="m 754.4996,550.2098 c 0.1979,-1.4473 -0.0178,-3.2408 2.094,-2.5857 0.4427,0.1374 0.4178,0.7339 0.481,1.1488 0,0.0998 -0.0811,0.1809 -0.1811,0.1809 -0.0998,0 -0.1809,-0.0811 -0.1809,-0.1809 l -0.0592,-0.3656 c -0.1863,-1.0514 -1.406,-0.3424 -1.4664,-0.2979 -0.3141,1.0465 -0.199,1.212 -0.3399,2.2008 -0.0277,0.0961 -0.1278,0.1513 -0.2239,0.1236 -0.0961,-0.0278 -0.1514,-0.1282 -0.1236,-0.224"
           style="fill:#1a1a18;fill-opacity:1;fill-rule:evenodd;stroke:none"
           id="path1430" />
      </g>
      <g
         id="g1432">
        <path
           d="m 755.3511,550.7419 c 0.0346,-0.7926 0.0409,-2.16 0.258,-2.9174 0.0264,-0.0964 0.1259,-0.1531 0.2222,-0.1267 0.0964,0.0263 0.1531,0.1258 0.1267,0.2222 -0.2057,0.7155 -0.212,2.0667 -0.2449,2.8219 0,0.0998 -0.081,0.1808 -0.1808,0.1808 -0.1001,0 -0.1812,-0.081 -0.1812,-0.1808"
           style="fill:#1a1a18;fill-opacity:1;fill-rule:evenodd;stroke:none"
           id="path1434" />
      </g>
      <g
         id="g1436">
        <path
           d="m 755.5819,547.522 c 0.1531,-2.0798 2.7451,-3.8046 4.5989,-4.1995 4.1236,-0.8776 7.6748,-1.2696 11.7162,0.5649 2.1543,0.978 3.9033,3.0895 4.3364,5.4074 0.3073,1.6438 -0.8691,1.2229 -1.2118,1.3836 0.1222,0.203 1.7311,2.5282 0.9318,2.632 -2.5756,0.3345 -2.6312,1.7206 -4.5749,3.9072 -0.0771,0.0638 -0.191,0.0528 -0.2545,-0.0243 -0.0638,-0.0771 -0.0528,-0.1911 0.0243,-0.2546 1.7263,-1.948 2.198,-3.7341 4.6089,-3.9739 -0.0601,-0.5482 -0.2027,-0.8266 -0.544,-1.3388 -1.6509,-2.478 1.0491,-0.2463 0.6665,-2.2558 -0.4224,-2.2181 -2.0674,-4.2162 -4.1304,-5.1525 -3.9784,-1.8054 -7.4699,-1.4012 -11.5243,-0.5361 -1.6358,0.3493 -4.1434,1.9778 -4.2817,3.8288 0.003,0.1001 -0.0751,0.1834 -0.1749,0.1868 -0.0998,0.003 -0.1834,-0.0751 -0.1865,-0.1752"
           style="fill:#1a1a18;fill-opacity:1;fill-rule:evenodd;stroke:none"
           id="path1438" />
      </g>
      <g
         id="g1440">
        <path
           d="m 769.1119,542.8868 c 1.5251,-0.7466 2.147,-5.5035 0.834,-7.0342 -1.8859,-2.1991 -3.0563,-2.3581 -5.6582,-0.7616 -1.6714,1.0253 -0.6889,0.591 -1.9251,1.629 -0.7316,0.6143 0.4476,-2.2283 -1.106,-1.548 -0.5346,0.2339 -0.4147,1.1413 -0.2758,1.5684 0.0637,0.0769 0.053,0.1908 -0.0239,0.2546 -0.0768,0.0638 -0.191,0.0533 -0.2548,-0.0238 -1.0383,-2.1923 1.8533,-3.299 1.7779,-0.9726 0.4734,-0.4884 1.1307,-0.917 1.6191,-1.2166 2.7307,-1.6756 4.104,-1.5131 6.103,0.8149 1.4687,1.7108 0.8711,6.7335 -0.9589,7.6272 -0.093,0.036 -0.1979,-0.01 -0.2342,-0.1032 -0.0362,-0.0929 0.01,-0.1978 0.1029,-0.2341"
           style="fill:#1a1a18;fill-opacity:1;fill-rule:evenodd;stroke:none"
           id="path1442" />
      </g>
      <g
         id="g1444">
        <path
           d="m 760.674,535.4867 c -1.0916,0.0742 -1.6982,0.8801 -0.8537,1.7801 0.0666,0.0712 0.0722,0.1384 0.0705,0.2311 -0.007,0.0995 -0.0944,0.1743 -0.1939,0.1666 -0.0901,-0.007 -0.1598,-0.0785 -0.1666,-0.1658 -0.9131,-0.6599 -0.5454,-2.2584 1.1437,-2.3737 0.0998,0 0.1809,0.081 0.1809,0.1808 0,0.1001 -0.0811,0.1809 -0.1809,0.1809 z m -1.1069,2.0375 c 0.003,0.002 0.007,0.005 0.0102,0.007 z"
           style="fill:#1a1a18;fill-opacity:1;fill-rule:evenodd;stroke:none"
           id="path1446" />
      </g>
      <g
         id="g1448">
        <path
           d="m 759.1853,536.7005 c -1.4987,0.3381 0.1896,5.2358 4.045,2.4755 0.1083,-0.0774 0.2671,-0.2722 0.3524,-0.3697 0.0564,-0.0825 0.1689,-0.1037 0.2514,-0.0473 0.0825,0.0564 0.1035,0.1692 0.0471,0.2514 -0.1443,0.1676 -0.2826,0.349 -0.4641,0.4754 -4.3327,3.0231 -6.4442,-2.6521 -4.2704,-3.145 0.0993,-0.0105 0.1885,0.0612 0.199,0.1607 0.0108,0.0992 -0.0612,0.1885 -0.1604,0.199"
           style="fill:#1a1a18;fill-opacity:1;fill-rule:evenodd;stroke:none"
           id="path1450" />
      </g>
      <g
         id="g1452">
        <path
           d="m 759.2916,543.9067 c -1.2487,-0.1978 -3.4288,-2.5639 -1.6399,-2.776 -0.335,-0.9425 -1.0284,-3.3239 -0.1343,-3.9356 -1.0531,-1.4859 -0.8986,-0.6004 -1.6804,-3.0571 -0.4343,-1.3644 -0.5655,-6.922 0.8691,-7.7531 0.0919,-0.0397 0.1984,0.002 0.2381,0.0941 0.0397,0.0916 -0.002,0.1982 -0.0938,0.2379 -0.1902,0.1114 -0.2843,0.3257 -0.364,0.5235 -0.9334,2.3148 -0.9638,7.1595 0.8705,9.2707 0.9771,1.1248 0.5633,0.6273 0.3025,1.0658 -0.8768,1.4749 0.8785,3.8294 0.2392,3.9002 -1.7617,0.1951 1.0508,2.0087 1.393,2.0676 0.1001,0 0.1808,0.0811 0.1808,0.1809 0,0.1 -0.0807,0.1811 -0.1808,0.1811"
           style="fill:#1a1a18;fill-opacity:1;fill-rule:evenodd;stroke:none"
           id="path1454" />
      </g>
      <g
         id="g1456">
        <path
           d="m 757.0298,542.1263 c -0.5371,-0.0522 -3.2507,-0.7183 -2.3797,-1.8615 0.0633,-0.0831 0.1338,-0.131 0.2143,-0.1625 -0.424,-0.5862 -0.8373,-1.2642 0.3827,-1.3657 -0.2721,-0.6868 0.0669,-2.1359 2.0846,-0.057 0.0221,0.0975 -0.0385,0.1945 -0.136,0.2166 -0.0976,0.0224 -0.1945,-0.0386 -0.2166,-0.1361 -0.1607,-0.0445 -0.1281,-0.0215 -0.305,-0.2063 -1.2447,-1.2986 -1.3536,-0.1205 -1.0644,0.1973 0.0153,0.008 0.0312,0.0178 0.0501,0.0306 l 0.0375,0.2205 c -0.1095,0.0652 -0.2098,0.0462 -0.2931,-0.0252 l 0.0121,0.0723 c 0.0383,0.0263 0.0343,0.0283 0.0706,0.0388 -0.2951,-0.013 -0.8626,0.0658 -0.6307,0.4379 0.7648,1.2266 0.4057,0.5332 0.0819,0.9579 -0.4665,0.6123 1.4514,1.2183 2.0917,1.2807 0.0998,0 0.1809,0.081 0.1809,0.1808 0,0.1001 -0.0811,0.1809 -0.1809,0.1809"
           style="fill:#1a1a18;fill-opacity:1;fill-rule:evenodd;stroke:none"
           id="path1458" />
      </g>
      <g
         id="g1460">
        <path
           d="m 755.7993,537.8695 c -1.8887,-2.7485 -1.6379,-6.2266 -0.8892,-9.3589 -2.0704,0.6942 -4.915,-2.3587 -2.4982,-2.9494 0.5295,-0.1296 2.1682,-0.2807 2.74,-0.3396 0.0981,-0.019 0.193,0.045 0.2123,0.1428 0.019,0.0981 -0.0448,0.1931 -0.1429,0.2124 -0.498,0.0518 -2.2246,0.2145 -2.7113,0.3327 -1.9967,0.4851 1.0278,3.0612 2.5563,2.1408 0.0405,0.1031 0.0691,0.2151 0.0887,0.335 l 0.1375,-0.0527 c -0.044,0.0272 -0.089,0.0513 -0.1344,0.0743 0.2778,1.8357 -1.6276,5.5244 0.9238,9.2369 0.0624,0.078 0.0496,0.1919 -0.0286,0.2543 -0.078,0.0624 -0.1919,0.0493 -0.254,-0.0286"
           style="fill:#1a1a18;fill-opacity:1;fill-rule:evenodd;stroke:none"
           id="path1462" />
      </g>
      <g
         id="g1464">
        <path
           d="m 759.6751,535.4631 c -2.1503,-2.3159 -2.0307,-6.5151 -0.0105,-9.1734 -1.7651,0.3274 -3.8296,0.8149 -4.96,-1.4517 -1.0761,-2.158 2.3907,-2.1685 3.4903,-2.3598 5.3813,-0.9371 7.0013,-1.0783 12.5237,-0.0346 4.0351,0.7628 3.9674,5.1373 3.4438,8.4549 -0.3889,2.465 -1.5919,5.9227 -3.1133,7.9163 -0.0524,0.0854 -0.1638,0.1117 -0.2488,0.0593 -0.0851,-0.0525 -0.1117,-0.1639 -0.0593,-0.2489 1.8108,-2.4199 2.9404,-6.133 3.2301,-9.1191 0.2818,-2.9032 -0.0252,-6.0845 -3.3191,-6.7067 -5.4865,-1.0367 -7.0452,-0.8935 -12.3902,0.0343 -0.7722,0.134 -3.8072,0.1258 -3.3387,1.5837 1.1183,3.4789 6.2839,0.5768 5.2141,1.8584 -2.0753,2.4857 -2.2879,6.6863 -0.2237,8.9152 0.0754,0.0658 0.0828,0.18 0.017,0.2551 -0.0657,0.0754 -0.1803,0.0828 -0.2554,0.017"
           style="fill:#1a1a18;fill-opacity:1;fill-rule:evenodd;stroke:none"
           id="path1466" />
      </g>
      <g
         id="g1468">
        <path
           d="m 772.0809,532.1571 c -0.2452,0.9196 -1.7064,3.0243 -2.6254,3.0569 -0.0995,-0.009 -0.1732,-0.0961 -0.165,-0.1956 0.009,-0.0995 0.0961,-0.1732 0.1956,-0.165 0.6188,-0.0538 2.0234,-1.9616 2.234,-2.7235 0.007,-0.0998 0.0944,-0.1743 0.1939,-0.167 0.0998,0.008 0.1743,0.0944 0.1669,0.1942"
           style="fill:#1a1a18;fill-opacity:1;fill-rule:evenodd;stroke:none"
           id="path1470" />
      </g>
      <g
         id="g1472">
        <path
           d="m 772.056,523.0675 c 3.7862,-1.7478 13.712,0.0391 16.3996,3.2871 3.685,4.4532 3.1779,9.0076 1.5335,14.1871 -1.3034,4.1049 -6.8593,8.6519 -5.3657,12.6896 0.4938,1.3348 2.4636,0.735 3.0297,0.1496 0.5187,-1.7594 2.3734,5.169 -5.2342,5.5594 -3.5359,0.1814 -8.2928,-0.0567 -9.771,-3.8345 -0.0272,-0.0961 0.0289,-0.1958 0.125,-0.2231 0.0961,-0.0272 0.1961,0.029 0.2231,0.125 l 0.2582,0.6597 c 1.6997,3.3338 10.2115,3.7046 12.721,2.0222 1.0877,-0.7291 2.2269,-2.8488 1.9052,-4.0632 -0.6491,0.7489 -2.9871,1.3728 -3.5929,-0.2602 -1.586,-4.2766 4.0677,-8.8741 5.3527,-12.9206 1.6092,-5.0664 2.1407,-9.508 -1.4684,-13.8665 -2.5259,-3.0504 -12.3579,-4.8439 -15.9245,-3.2046 -0.0847,0.053 -0.1964,0.0269 -0.2491,-0.0578 -0.053,-0.0848 -0.027,-0.1964 0.0578,-0.2492"
           style="fill:#1a1a18;fill-opacity:1;fill-rule:evenodd;stroke:none"
           id="path1474" />
      </g>
      <g
         id="g1476">
        <path
           d="m 790.0251,538.6365 c -0.1122,-2.1634 -3.3486,-0.9802 -4.396,1.4312 -1.5712,3.6179 -0.9331,-6.3748 -5.034,-2.1571 -1.8462,1.8986 -0.6061,4.2004 -2.2161,0.5907 -0.9692,-2.173 -2.1705,-1.5871 -3.4787,0.0627 -0.8836,1.114 -0.4567,2.5942 -1.5452,0.3024 -0.3484,-0.7333 -0.525,-1.4023 -1.3975,-1.5576 -0.0995,0.009 -0.187,-0.0655 -0.1956,-0.165 -0.008,-0.0995 0.0652,-0.1871 0.1647,-0.1956 1.4202,0.152 1.5256,1.5435 2.1102,2.5597 0.1366,-0.4122 0.1207,-0.5899 0.5867,-1.1772 3.0271,-3.8166 4.0754,0.0847 4.5763,1.3189 0.2301,-1.0964 1.0122,-2.0347 1.9383,-2.658 2.7113,-1.8258 3.3506,2.0472 3.9169,3.4704 0.104,-0.1536 0.2342,-0.5184 0.2342,-0.5184 1.2316,-2.8417 4.9606,-3.9277 5.0975,-1.3071 0,0.0998 -0.0811,0.1809 -0.1808,0.1809 -0.1001,0 -0.1809,-0.0811 -0.1809,-0.1809"
           style="fill:#1a1a18;fill-opacity:1;fill-rule:evenodd;stroke:none"
           id="path1478" />
      </g>
      <g
         id="g1480">
        <path
           d="m 763.7805,539.0203 c -0.2086,0.7385 -0.8702,3.0796 0.3039,3.5924 0.0944,0.0326 0.1446,0.1358 0.1117,0.2302 -0.0326,0.0944 -0.1355,0.1442 -0.2302,0.1117 -1.4405,-0.6291 -0.8192,-3.0212 -0.5337,-4.0318 0.0269,-0.0961 0.1267,-0.1522 0.223,-0.1253 0.0961,0.027 0.1523,0.1268 0.1253,0.2228"
           style="fill:#1a1a18;fill-opacity:1;fill-rule:evenodd;stroke:none"
           id="path1482" />
      </g>
    </g>
  </g>
</svg>
