<?xml version="1.0" encoding="UTF-8" standalone="no"?>
<svg
   xmlns:dc="http://purl.org/dc/elements/1.1/"
   xmlns:cc="http://creativecommons.org/ns#"
   xmlns:rdf="http://www.w3.org/1999/02/22-rdf-syntax-ns#"
   xmlns:svg="http://www.w3.org/2000/svg"
   xmlns="http://www.w3.org/2000/svg"
   xmlns:sodipodi="http://sodipodi.sourceforge.net/DTD/sodipodi-0.dtd"
   xmlns:inkscape="http://www.inkscape.org/namespaces/inkscape"
   width="32.186279mm"
   height="36.119324mm"
   viewBox="0 0 32.186279 36.119324"
   version="1.1"
   id="svg8"
   inkscape:version="1.0.2 (e86c8708, 2021-01-15)"
   sodipodi:docname=" lizard.svg">
  <defs
     id="defs2">
    <clipPath
       clipPathUnits="userSpaceOnUse"
       id="clipPath849">
      <path
         d="M -9,-9 H 851 V 605 H -9 Z"
         clip-rule="evenodd"
         id="path847" />
    </clipPath>
  </defs>
  <sodipodi:namedview
     id="base"
     pagecolor="#ffffff"
     bordercolor="#666666"
     borderopacity="1.0"
     inkscape:pageopacity="0.0"
     inkscape:pageshadow="2"
     inkscape:zoom="5.079916"
     inkscape:cx="39.877933"
     inkscape:cy="104.24759"
     inkscape:document-units="mm"
     inkscape:current-layer="layer1"
     inkscape:document-rotation="0"
     showgrid="false"
     fit-margin-top="0"
     fit-margin-left="0"
     fit-margin-right="0"
     fit-margin-bottom="0"
     inkscape:window-width="1440"
     inkscape:window-height="855"
     inkscape:window-x="0"
     inkscape:window-y="23"
     inkscape:window-maximized="0" />
  <metadata
     id="metadata5">
    <rdf:RDF>
      <cc:Work
         rdf:about="">
        <dc:format>image/svg+xml</dc:format>
        <dc:type
           rdf:resource="http://purl.org/dc/dcmitype/StillImage" />
        <dc:title></dc:title>
      </cc:Work>
    </rdf:RDF>
  </metadata>
  <g
     inkscape:label="Слой 1"
     inkscape:groupmode="layer"
     id="layer1"
     transform="translate(-67.11012,-238.22692)">
    <g
       id="g1911"
       transform="matrix(0.35277777,0,0,-0.35277777,-15.873942,433.81742)">
      <path
         d="m 262.6464,462.145 c -0.5341,-0.5519 -1.802,-3.9458 -3.481,-5.7721 -1.3932,-1.5155 -3.727,-2.5192 -5.508,-1.033 -0.9317,0.7778 -1.3031,1.2889 -1.0621,2.7204 0.0921,0.5474 2.1158,3.6998 1.9454,3.8566 -0.6205,0.5703 -2.0996,-0.9125 -1.573,1.184 0.3365,1.3388 -1.8467,-0.2977 -2.4434,-1.9216 -0.3983,-1.0846 -0.3036,-0.4485 -0.6032,-1.861 -0.5599,-2.6396 -0.0681,-2.7249 1.4646,-4.8432 0.5715,-0.7898 1.2887,-1.4332 2.2181,-1.7368 1.8769,-0.6126 2.6839,-0.6701 4.5256,0.0657 0.8098,0.3237 4.4469,3.4101 4.7497,4.3175 0.1715,0.5139 1.8757,2.8445 1.6271,3.9554 -0.0757,0.3394 -0.938,0.4162 -1.6067,1.0307 -0.1293,0.1188 -0.123,0.1718 -0.2531,0.0374"
         style="fill:#ed4e4e;fill-opacity:1;fill-rule:evenodd;stroke:none"
         id="path1913" />
      <path
         d="m 260.4078,497.7471 c 0.6546,0.6706 4.3923,1.3612 5.3499,1.1571 2.9066,-0.62 6.4482,-2.4806 6.9454,-5.6526 0.1622,-1.0347 0.5471,-2.0554 -0.2619,-3.1626 -1.1478,-1.571 -0.8751,-2.6504 -3.5949,-2.8741 -0.5134,-0.0422 -5.2418,-1.0797 -5.5905,-1.4227 -1.22,-1.2007 -1.6815,-1.1361 -2.1132,-3.3083 -0.0961,-0.4842 0.6624,-3.1019 1.7138,-2.4633 2.4154,1.4683 5.8853,-0.9099 6.5302,-3.3103 0.0975,-0.3631 0.521,-0.7954 0.4654,-1.3657 l 0.0338,-0.1049 c 0.4286,1.6404 3.2706,1.709 4.4265,0.875 2.4188,-1.745 2.3857,-2.1721 2.9506,-4.8713 0.1177,-0.5621 0.6545,-0.1176 1.6328,-0.2548 1.0616,-0.1486 2.9585,1.5247 3.4095,2.3527 0.5185,0.9516 -0.1185,4.0479 -0.8311,4.8138 -0.3813,0.4099 -2.5761,4.3138 -2.5095,4.9932 0.1063,1.0837 -0.9043,1.7748 -0.4133,3.0153 0.1196,0.3024 0.3566,0.8362 0.3617,1.3699 0.004,0.4357 2.6643,2.5858 3.0379,2.2621 2.3655,-0.2821 2.8457,0.1749 5.4371,-1.0012 1.5678,-0.7115 3.6405,-2.6873 4.2596,-4.2642 0.7138,-1.8178 1.3771,-3.1048 0.4779,-4.9626 -1.0403,-2.1492 -5.6239,0.7022 -5.3997,-3.1731 0.0389,-0.6709 -0.1607,-1.6636 1.2447,-1.1285 0.5888,0.2243 3.4708,2.0382 3.7267,0.3728 0.1284,-0.8379 -2.2294,-0.9105 -2.2717,-2.5877 -0.01,-0.3824 2.1901,-3.4855 3.7735,0.5405 0.5874,1.493 2.3664,1.3553 2.6442,-0.6307 0.2829,-2.0217 2.8729,-1.4238 3.4767,0.1826 0.8044,2.1421 -3.0538,1.574 -2.2374,3.6513 0.155,0.394 0.9898,0.081 0.839,-0.0766 1.1594,0.8022 2.7579,-1.3957 3.8336,1.0199 0.4658,1.0455 0.2129,2.4342 -1.1565,2.2757 -1.1316,-0.131 -2.2082,-0.6389 -3.2057,-0.3949 -0.5913,0.1446 -1.7728,1.9653 -1.9347,2.6654 -0.3299,1.4287 -0.8161,2.9333 -1.1982,4.3804 -0.6332,2.3984 -1.9233,3.0884 -3.8063,4.4541 -0.0888,0.0641 -0.9984,0.6517 -1.0412,0.667 -0.4606,0.1542 -2.8859,1.4907 -3.314,1.8802 -0.6743,0.6137 -0.9609,-0.1423 0.7608,1.6668 0.6472,0.68 1.4176,1.7042 2.1124,2.4318 0.0661,0.0689 0.1315,0.1432 0.1965,0.2138 1.4584,0.1227 6.635,9.136 6.9344,10.8538 0.0306,0.1755 0.801,2.827 1.0731,2.6629 3.7667,-2.27 6.988,-0.7177 8.6967,3.2029 0.387,0.8878 -0.1442,3.3786 0.4754,5.6035 0.7688,2.7606 1.3785,2.2802 3.3222,3.5906 1.5234,-0.6485 1.586,0.5171 3.7673,-1.9814 0.1587,-0.182 1.0644,-1.8368 1.1298,-2.213 0.8513,-4.9034 -6.2605,-0.9842 -3.9033,-5.4774 0.7285,-1.3887 1.6104,1.3227 2.9124,1.0704 2.656,-0.5148 -0.2971,-2.9228 -0.3419,-3.9362 -0.0544,-1.2302 2.264,-2.9736 2.7836,-1.1653 0.6395,2.2243 3.195,4.411 3.7018,0.9918 0.2307,-1.5554 3.9382,-2.8105 1.9743,2.2314 -1.2186,3.1289 -0.2375,2.4347 2.5963,2.0382 2.6634,-0.3728 2.0982,3.3386 -0.1752,3.1444 -0.4816,-0.0414 -3.1207,0.116 -3.4696,0.4366 -1.1361,1.0445 -0.4261,1.3561 -1.3286,3.0619 -0.6475,1.224 -0.7759,2.9563 -2.1603,4.6372 -1.5316,1.8599 -2.7187,3.7585 -5.4295,4.2288 -1.5675,0.2718 -0.769,0.5856 -3.1683,0.4356 -1.8212,-0.1139 -0.7781,0.1701 -2.4267,-0.5995 -2.5719,-1.2007 -4.0757,-3.8001 -5.5188,-6.1084 l -0.1077,-0.1227 c -1.218,-2.1912 -2.0137,-2.876 -4.5669,-2.4358 -0.8348,0.144 -2.3326,2.0253 -2.7235,2.7184 -2.0597,3.6527 -1.7422,6.626 -4.0091,10.7246 -2.3697,4.2843 -4.3903,7.0589 -8.4089,9.9825 -0.3697,0.269 -5.9638,4.0071 -6.1878,4.0484 -1.603,0.6344 -3.8897,1.2181 -5.3303,2.1107 -0.8271,0.5125 -5.0981,0.7932 -7.1342,1.6824 -2.6637,1.163 -5.5647,0.6542 -8.3364,0.5581 -0.2248,-0.008 -0.7923,-0.3455 -0.9436,-0.2959 -0.4953,-0.273 -2.3443,0.1176 -4.1962,-1.04 -0.0187,-0.0117 -2.2269,-0.9046 -2.6589,-1.1294 -0.9947,-0.5179 -5.1947,-3.1946 -5.4635,-4.1184 -0.0326,-0.1126 -0.8535,-1.2254 -0.9229,-1.2892 -0.1089,-0.5205 -2.4744,-1.8587 -3.3001,-4.5763 -0.2024,-0.6658 -0.5933,-1.1585 -0.6081,-2.0338 -0.043,-2.5977 -0.4592,-2.3463 0.8045,-5.057 1.0936,-2.3468 5.6651,-3.6564 8.0229,-2.4804 0.5539,0.2764 1.3674,-0.079 1.8629,0.4224 0.5554,0.5616 3.0819,1.1631 3.9805,3.8149 0.9932,2.9321 -0.2387,4.9802 -2.9606,6.2336 -2.1262,0.9797 -4.7488,-0.4903 -4.7962,-2.819 -0.0303,-1.4927 -0.4938,-1.7804 1.2872,-2.7936 0.387,-0.2199 1.4338,-0.9592 1.9375,-0.208 0.0644,0.0958 -2.5248,4.2072 0.3881,3.5407 2.1367,-0.4887 2.8363,-7.3488 -2.6697,-6.1506 -1.2866,0.2801 -3.3355,2.3491 -3.2978,3.9144 0.0757,3.1524 0.6803,4.5949 3.3123,6.7218 0.4416,0.3566 3.8976,2.1209 4.2205,2.0072 3.107,0.4717 3.935,0.9686 7.2918,0.2959 2.1552,-0.4317 2.3783,0.0593 4.8249,-1.0831 1.2668,-0.5916 2.6285,-0.8969 4.0212,-1.6874 1.7518,-0.9947 7.6334,-5.0551 7.757,-7.1507 0.0819,-1.395 0.8385,-2.3862 0.6738,-4.6154 -0.0437,-0.5907 -3e-4,-0.8297 -0.0893,-1.4967 1.0023,-1.9032 -1.785,-7.9597 -4.1281,-7.9934 -3.4038,-0.0488 -3.2604,1.1234 -3.3369,4.017 -0.0709,2.6759 -0.9264,7.1084 -4.0873,7.8131 -1.3907,0.3101 -4.8036,-3.0223 -5.6571,-3.9506 -0.4391,-0.8255 -3.8577,-5.0987 -4.6831,-5.6467 -2.234,-1.4828 -2.5625,-2.6316 -5.5279,-1.1939 -0.3126,0.1516 -1.815,1.0596 -2.1353,0.8399 -1.2977,-0.4105 -2.2609,-3.4141 1.0196,-2.9676 2.0302,0.2764 2.2161,-2.6201 -0.8949,-1.6543 -0.5136,-0.4436 0.6826,-4.3098 3.3387,-1.2481 0.1882,0.2166 1.4876,0.6268 0.9961,-1.2971 -0.3257,-1.2745 0.2202,-2.1949 1.5695,-2.236 1.1293,-0.034 -0.4799,3.2409 1.4074,2.6898 0.6766,-0.1976 1.4754,-1.6739 2.5631,-2.1263 1.4955,-0.6222 2.3165,1.1467 1.1126,2.9467 -1.0049,1.5026 -1.6977,2.9491 -0.3433,4.422 0.3694,0.5417 3.238,2.0795 3.8486,1.8499 1.6642,-0.6262 1.709,-0.3929 2.1713,-2.6464 0.4805,-2.3429 -1.5567,-8.2905 0.1639,-9.8723 1.4938,-1.3733 2.2728,-2.1078 4.2908,-1.8473 1.2311,0.1587 3.0178,0.5037 3.9492,1.3071 1.0001,0.8623 1.844,-3.1964 2.2434,-3.9907 0.1352,-0.5045 1.618,-7.0061 1.6171,-7.035 -0.0947,-3.1609 0.1517,-0.8285 -3.1804,-0.2032 -1.378,0.2588 -2.3664,0.4005 -3.7245,0.5938 -0.8492,0.1208 -2.7303,0.3785 -3.4755,0.057 -0.7699,0.2395 -4.9031,-2.0089 -5.4763,-2.6773 -0.4337,-0.5054 -3.2621,-3.5419 -3.6972,-3.492 -1.2067,0.1386 -1.7204,-0.9119 -3.6975,1.0207 -0.957,0.9355 -1.8292,0.1786 -2.1739,-0.7086 -0.8093,-1.0154 0.7461,-1.6552 1.6364,-1.6946 0.4867,-0.0212 2.77,-1.5193 -0.1256,-2.2382 -1.0547,-0.2616 -2.7175,-1.3286 -1.8413,-2.6949 0.6624,-1.0329 2.1415,0.0896 3.0095,0.7245 1.8323,1.3405 2.1762,0.7713 1.5885,-1.3181 -0.3268,-1.1616 -1.7458,-2.2277 0.9326,-3.1181 1.7181,-0.5712 0.9312,5.8717 3.8824,3.1584 0.6046,-0.5559 0.1698,-2.437 2.6302,-1.2334 0.8036,0.3932 0.8377,1.8777 -0.335,2.6147 -2.4322,1.5284 -1.6849,3.8149 0.006,5.5324 0.4165,0.4232 1.3879,1.7937 2.1085,1.8921 0.0782,0.0105 0.477,0.3847 0.5572,0.4723"
         style="fill:#6eb52a;fill-opacity:1;fill-rule:evenodd;stroke:none"
         id="path1915" />
      <path
         d="m 268.3794,472.8943 c -1.0029,-1.495 -2.8516,-1.9638 -4.3713,-0.9655 -0.2559,0.1684 -1.4085,0.8161 -1.5658,0.6449 -0.8714,-0.9479 -0.9777,-4.642 -0.7994,-5.9502 0.2837,-2.084 -0.3832,-2.6223 1.622,-4.4657 1.3773,-1.2665 1.7348,-1.1307 3.5339,-0.271 1.1333,0.5417 6.4228,5.4077 5.9758,5.3107 -0.9176,-0.1993 -4.1443,2.4151 -4.0746,3.4997 0.0261,0.4039 -0.2721,0.117 -0.1519,1.0834 0.0116,0.0918 -0.2047,1.0598 -0.1687,1.1137"
         style="fill:#6eb52a;fill-opacity:1;fill-rule:evenodd;stroke:none"
         id="path1917" />
      <path
         d="m 277.9682,511.2737 c 0.8725,-0.8252 2.0792,-1.148 3.2547,-1.0358 1.2538,0.1194 3.0501,2.0994 3.2644,3.2947 0.3127,1.7422 0.4431,1.4519 -0.2835,3.2834 -0.4646,1.1713 -1.4728,1.9488 -2.6501,2.3567 -1.3884,0.4808 -1.1262,0.5066 -2.662,0.125 -1.0808,-0.2687 -2.2629,-2.2515 -2.3811,-3.338 -0.1437,-1.3176 -0.377,-0.6364 0.1457,-2.3089 0.3674,-1.1744 0.1644,-1.2625 1.2056,-2.141 0.0757,-0.0638 -0.0388,-0.0989 0.1063,-0.2361"
         style="fill:#e31e24;fill-opacity:1;fill-rule:evenodd;stroke:none"
         id="path1919" />
      <path
         d="m 279.6885,524.3255 c 1.4823,-0.009 2.039,-1.0159 2.9243,1.054 0.3875,0.9065 -0.004,1.7209 -0.4544,2.5202 -0.4235,0.7515 -0.5973,1.0058 -1.4142,1.2 -0.8156,0.1941 -1.9285,-0.9105 -2.0175,-1.7088 -0.1046,-0.9382 -0.0255,-1.8683 0.6339,-2.582 0.1301,-0.1409 0.2471,-0.4831 0.3279,-0.4834"
         style="fill:#7b1e82;fill-opacity:1;fill-rule:evenodd;stroke:none"
         id="path1921" />
      <path
         d="m 277.7851,535.0833 c 0.6505,-0.8288 3.1079,0.7631 3.0554,1.4598 -0.0949,1.2541 -0.4938,1.6702 -1.3167,2.6561 -0.7971,0.9553 -3.2641,-1.0309 -2.2107,-3.2097 0.0833,-0.172 0.3546,-0.7568 0.472,-0.9062"
         style="fill:#3694ff;fill-opacity:1;fill-rule:evenodd;stroke:none"
         id="path1923" />
      <path
         d="m 254.0038,549.436 c 0.466,-0.6599 0.6758,0.8095 0.6296,1.2739 -0.0408,0.4115 -0.4074,0.5629 -0.836,0.2763 -0.5969,-0.3988 -0.3659,-0.883 -0.0634,-1.4436 0.004,-0.008 0.3852,-0.2699 0.2698,-0.1066"
         style="fill:#e31e24;fill-opacity:1;fill-rule:evenodd;stroke:none"
         id="path1925" />
      <path
         d="m 276.8196,500.8391 c 1.1355,-1.044 1.2206,-0.9377 2.7332,-0.7444 0.7472,0.0955 1.5652,1.6574 1.7861,2.2915 0.4305,1.2376 0.6769,1.4556 -0.2875,2.8301 -0.699,0.9961 -1.9048,1.7691 -3.2173,1.2311 -0.4629,-0.1896 -1.436,-0.6009 -1.6412,-1.0862 -0.4142,-0.9791 -0.2515,-2.0143 -0.1744,-3.0351 0.0493,-0.6533 0.3396,-1.0627 0.8011,-1.487"
         style="fill:#ff9100;fill-opacity:1;fill-rule:evenodd;stroke:none"
         id="path1927" />
      <path
         d="m 259.3468,548.6573 c 0.233,0.1327 1.7836,-0.5528 2.037,1.2665 0.0981,0.7056 -0.9581,0.4331 -1.493,0.5876 -0.2755,0.0797 -1.3345,-0.9782 -0.6233,-1.7543 0.0167,-0.0185 0.053,-0.1148 0.0793,-0.0998"
         style="fill:#ff9100;fill-opacity:1;fill-rule:evenodd;stroke:none"
         id="path1929" />
      <path
         d="m 273.1422,542.1651 c 0.6072,-0.375 1.7904,-0.1803 1.7909,0.9162 6e-4,1.3875 -0.119,1.4125 -1.2688,2.1308 -0.3282,0.2049 -1.7229,-0.1559 -1.3266,-1.3981 0.0556,-0.174 0.5729,-1.5057 0.8045,-1.6489"
         style="fill:#2d631b;fill-opacity:1;fill-rule:evenodd;stroke:none"
         id="path1931" />
      <path
         d="m 266.7325,546.673 c 0.6823,-0.085 0.9638,-0.6338 1.7303,0.3493 0.0567,0.0725 0.5249,2.9766 -1.6314,1.8056 -0.6128,-0.3328 -0.6491,-0.8467 -0.7846,-1.0148 0.2279,-1.0627 0.1536,-0.4717 0.6163,-1.0335 z"
         style="fill:#f7ff00;fill-opacity:1;fill-rule:evenodd;stroke:none"
         id="path1933" />
      <path
         d="m 276.5993,495.1352 c 0.4269,-0.7747 1.1841,-1.0868 1.8505,-0.3197 0.4972,0.5726 0.3628,0.3061 0.4456,1.1542 0.04,0.4082 -0.5414,1.3363 -1.0905,1.1869 -0.8016,-0.2183 -2.0253,-0.9176 -1.294,-1.8734 0.0139,-0.0184 0.0828,-0.1378 0.0884,-0.148"
         style="fill:#f7ff00;fill-opacity:1;fill-rule:evenodd;stroke:none"
         id="path1935" />
    </g>
    <g
       id="g1937"
       transform="matrix(0.35277777,0,0,-0.35277777,-15.873942,433.81742)">
      <g
         id="g1939">
        <path
           d="m 268.9112,472.5317 c -1.2424,-1.7092 3.7979,-8.6479 7.5365,-1.7183 1.4522,2.692 -3.191,7.3562 -6.2739,4.1615 -0.1463,-0.1593 -0.3938,-0.1695 -0.5528,-0.0232 -0.1593,0.1463 -0.1695,0.3937 -0.0232,0.5527 3.727,3.8634 9.4192,-1.5502 7.5293,-5.0794 -4.1748,-7.7967 -10.9221,-0.0958 -8.7559,2.6734 0.1565,0.1491 0.4042,0.1434 0.5533,-0.0133 0.1491,-0.1565 0.1432,-0.4042 -0.0133,-0.5534"
           style="fill:#1a1a18;fill-opacity:1;fill-rule:evenodd;stroke:none"
           id="path1941" />
      </g>
      <g
         id="g1943">
        <path
           d="m 268.924,472.6783 c -5.7527,-5.3257 -12.2208,4.9028 -6.1626,7.6961 3.1882,1.47 5.8859,-0.4627 7.1482,-3.4952 l -0.1009,0.006 c 0.3897,-0.2999 0.1882,-1.2353 0.1621,-1.7393 -0.0629,-0.207 -0.2815,-0.3238 -0.4884,-0.2608 -0.2067,0.0629 -0.3234,0.2815 -0.2605,0.4884 0.007,0.7231 0.005,0.3469 0.002,1.1565 -1.2991,2.1532 -2.78,4.6792 -6.135,3.1334 -4.9814,-2.2949 0.4515,-10.8997 5.2588,-6.4553 0.1463,0.159 0.394,0.1695 0.553,0.0232 0.159,-0.1462 0.1695,-0.394 0.0233,-0.553"
           style="fill:#1a1a18;fill-opacity:1;fill-rule:evenodd;stroke:none"
           id="path1945" />
      </g>
      <g
         id="g1947">
        <path
           d="m 269.4419,471.6516 c 0.0286,-0.0179 0.0592,-0.034 0.0915,-0.0476 0.0165,0.006 0.0329,0.0144 0.0493,0.0258 -0.0476,-10e-4 -0.0952,0.006 -0.1408,0.0218 z m 0.4731,0.5584 c 0.0572,0.1911 0.083,0.3838 0.0533,0.5069 -0.095,-0.0224 -0.2594,-0.1015 -0.307,-0.1537 0.01,-0.085 0.1216,-0.1987 0.1757,-0.2543 0.032,-0.0294 0.0578,-0.0629 0.078,-0.0989 z m -1.3295,-0.6846 c -0.5981,0.6424 -0.7143,1.6702 0.8184,2.414 3.3236,1.6124 1.6716,-6.1163 -0.866,-2.8973 -0.1001,0.1559 -0.0757,0.3558 0.0476,0.4833"
           style="fill:#1a1a18;fill-opacity:1;fill-rule:evenodd;stroke:none"
           id="path1949" />
      </g>
      <g
         id="g1951">
        <path
           d="m 269.5297,472.9192 c 0.4655,0.1939 0.654,0.0998 1.0287,-0.2273 0.159,-0.1463 0.1695,-0.394 0.0233,-0.553 -0.1463,-0.1591 -0.394,-0.1695 -0.5531,-0.0233 -0.1125,0.0992 -0.0813,0.078 -0.1306,0.1123 l -0.009,-0.004 c -0.1922,-0.0992 -0.4283,-0.0238 -0.5273,0.1681 -0.0992,0.1922 -0.0238,0.4283 0.1681,0.5272"
           style="fill:#1a1a18;fill-opacity:1;fill-rule:evenodd;stroke:none"
           id="path1953" />
      </g>
      <g
         id="g1955">
        <path
           d="m 269.7854,471.0396 c 0.9482,0.2409 1.3785,1.3498 0.9383,1.8536 -0.1701,0.1335 -0.1999,0.3792 -0.0666,0.5496 0.1332,0.1701 0.3792,0.1998 0.5493,0.0666 0.9981,-1.0292 0.313,-2.8332 -1.2838,-3.2403 -0.2126,-0.038 -0.4158,0.1038 -0.4538,0.3167 -0.038,0.2126 0.104,0.4158 0.3166,0.4538"
           style="fill:#1a1a18;fill-opacity:1;fill-rule:evenodd;stroke:none"
           id="path1957" />
      </g>
      <g
         id="g1959">
        <path
           d="m 268.3208,473.4451 c 0.998,2.0596 -3.4634,2.0548 -2.0676,-0.2537 0.2092,-0.3464 0.6307,-0.4646 1.0128,-0.4989 0.138,0.1068 0.3353,0.1111 0.4796,-6e-4 0.1707,-0.1327 0.2013,-0.3787 0.0689,-0.5493 -0.5584,-0.6146 -2.2391,-0.0165 -2.4531,1.2571 -0.6721,3.9963 5.2653,2.2663 3.568,-0.4464 -0.1358,-0.1681 -0.3822,-0.1942 -0.5503,-0.0584 -0.168,0.1357 -0.1941,0.3821 -0.0583,0.5502"
           style="fill:#1a1a18;fill-opacity:1;fill-rule:evenodd;stroke:none"
           id="path1961" />
      </g>
      <g
         id="g1963">
        <path
           d="m 268.2096,474.4205 c 0.6563,-0.6716 0.5018,-1.0982 0.0448,-1.2977 -0.1009,-0.5157 -0.4589,-0.7883 -1.1727,-0.326 -0.1295,0.0836 -0.2214,0.1794 -0.2797,0.2826 -0.9287,0.2438 -1.5988,0.9774 -0.2413,2.1413 0.6656,0.5703 1.2339,0.0218 1.5219,-0.722 0.0457,-0.0173 0.0891,-0.0434 0.127,-0.0782 z m -1.3711,-0.6296 c 0.036,0.0649 0.0797,0.1295 0.1301,0.1928 0.1423,0.1544 0.3799,0.1686 0.5392,0.0354 -0.1477,0.2095 -0.3929,0.4065 -0.5403,0.4978 -0.3869,-0.4309 -0.3351,-0.6361 -0.129,-0.726"
           style="fill:#1a1a18;fill-opacity:1;fill-rule:evenodd;stroke:none"
           id="path1965" />
      </g>
      <g
         id="g1967">
        <path
           d="m 267.4213,472.3583 c -4.2349,1.3912 1.5171,3.4605 1.4352,1.3847 0.0456,-0.1707 -0.0292,-0.3569 -0.1913,-0.445 -0.19,-0.1032 -0.4275,-0.0329 -0.5307,0.157 -0.0136,0.0286 -0.0249,0.053 -0.034,0.0751 -0.752,0.6761 -2.3698,0.2038 -0.4765,-0.4158 0.2086,-0.0562 0.3325,-0.2707 0.2767,-0.4797 -0.0562,-0.2086 -0.2707,-0.3325 -0.4794,-0.2763 z m 0.6506,1.3578 c 8e-4,0.015 0.002,0.0311 0.004,0.049 -0.002,-0.0167 -0.003,-0.0332 -0.004,-0.049"
           style="fill:#1a1a18;fill-opacity:1;fill-rule:evenodd;stroke:none"
           id="path1969" />
      </g>
      <g
         id="g1971">
        <path
           d="m 268.0574,473.7274 c 0.019,0.4141 0.004,0.5363 -0.2792,0.8263 -0.159,0.1463 -0.1692,0.3937 -0.023,0.5528 0.1463,0.1593 0.3938,0.1695 0.5528,0.0232 0.4978,-0.5108 0.5553,-0.7852 0.5244,-1.512 -0.0303,-0.214 -0.2285,-0.3628 -0.4422,-0.3328 -0.214,0.0303 -0.3631,0.2285 -0.3328,0.4425"
           style="fill:#1a1a18;fill-opacity:1;fill-rule:evenodd;stroke:none"
           id="path1973" />
      </g>
      <g
         id="g1975">
        <path
           d="m 273.4929,466.9401 c -2.676,-2.3454 -10.4469,-10.4595 -12.3296,-2.2226 -0.3833,1.6775 0.4181,5.6857 0.7208,7.8259 0.0153,0.2154 0.2024,0.3778 0.4179,0.3628 0.2157,-0.015 0.3781,-0.2024 0.3628,-0.4178 -0.2761,-1.9803 -1.0743,-6.139 -0.7396,-7.5915 1.6478,-7.1492 8.6423,0.5176 10.9914,2.573 0.1462,0.159 0.394,0.1695 0.553,0.0233 0.159,-0.1463 0.1695,-0.3941 0.0233,-0.5531"
           style="fill:#1a1a18;fill-opacity:1;fill-rule:evenodd;stroke:none"
           id="path1977" />
      </g>
      <g
         id="g1979">
        <path
           d="m 265.1814,461.4883 c -0.94,-6.3757 -10.3317,-13.7333 -15.0319,-6.3627 -1.8725,2.9364 -0.6417,6.9528 2.1637,8.8038 0.9879,0.6517 1.0749,-0.7809 0.9244,-1.6633 5.9261,0.7191 -4.576,-5.4612 1.6654,-7.3208 3.0651,-0.9133 6.8161,5.546 7.3613,7.2848 0.0467,0.2109 0.2559,0.3438 0.4668,0.297 0.2112,-0.047 0.3441,-0.2562 0.2971,-0.4671 -0.6611,-2.1433 -4.6134,-7.9761 -7.1362,-8.0359 -3.8169,-0.0907 -4.1219,2.7034 -3.0512,5.4334 0.3322,0.8476 1.5094,2.039 1.506,2.2119 -0.0125,0.0244 -0.0431,0.047 -0.0646,0.064 -0.0448,0.008 -0.0562,0.009 -0.1151,0.004 -3.3032,-0.2724 -1.1631,-0.2233 -1.5849,1.4406 -2.3828,-1.4958 -3.2986,-5.2398 -1.7742,-7.6294 4.2418,-6.6479 12.6964,0.2698 13.5919,5.8946 -0.0128,0.216 0.1522,0.4011 0.3679,0.4136 0.216,0.0124 0.4008,-0.1522 0.4136,-0.3682"
           style="fill:#1a1a18;fill-opacity:1;fill-rule:evenodd;stroke:none"
           id="path1981" />
      </g>
      <g
         id="g1983">
        <path
           d="m 277.3389,471.3608 c 3.4551,-0.0885 5.3827,1.1681 4.7571,4.93 -0.3067,1.8459 -8.0198,10.1438 -1.247,13.392 5.0128,2.404 13.8459,-3.82 11.8109,-10.1104 -1.0494,-3.2442 -6.3678,0.4615 -5.5259,-3.545 0.3991,-1.8983 4.2721,2.8386 5.2169,-0.3767 0.4462,-1.5177 -4.578,-2.2379 -1.4063,-3.8526 0.7946,-0.4042 1.2555,0.0188 1.7405,0.6143 l -0.0505,-0.009 c 0.4423,3.6139 3.3886,3.5263 3.7474,0.2262 0.2699,-2.4803 5.3258,1.1362 1.2371,1.8703 -0.976,0.1755 -2.4568,4.487 2.6543,2.3406 0.5619,-0.2358 3.6981,3.8679 -1.7552,2.4582 -4.5671,-1.1806 -3.0379,6.5061 -5.2151,8.8325 -3.9734,4.2452 -7.134,4.3957 -7.9456,5.2095 -0.1593,0.1463 -0.1695,0.3937 -0.0232,0.553 0.1463,0.1591 0.3937,0.1695 0.5528,0.0233 0.0759,-0.0757 0.0555,-0.0542 0.0878,-0.0882 3.4288,-0.9745 5.4647,-2.5727 7.858,-5.1213 2.4828,-2.6445 0.9382,-9.5704 4.4407,-8.6653 6.1948,1.6005 3.8976,-3.1263 2.759,-3.8667 -0.4403,-0.286 -5.366,1.7328 -3.1556,-0.9094 2.4764,-0.1808 2.3344,-2.874 1.3907,-3.5126 -3.9631,-2.6836 -3.685,1.7671 -3.7791,1.9366 -0.298,0.2239 -0.7781,0.6378 -1.2053,0.5675 -0.7489,-0.1236 -1.1166,-5.1823 -4.0847,-2.9078 -3.2165,2.465 1.3929,3.5923 1.4133,3.9909 0.1278,2.497 -4.9598,-2.9381 -5.2798,0.7583 -0.4329,5.0006 4.7015,0.964 5.5899,3.734 1.7946,5.5962 -6.3142,11.2629 -10.7356,9.1435 -5.9556,-2.8545 1.3617,-10.6387 1.6801,-12.5473 0.6959,-4.1715 -1.5276,-5.9545 -5.5211,-5.8513 -0.216,-0.002 -0.3929,0.1721 -0.3946,0.3881 -0.002,0.2163 0.1718,0.3929 0.3881,0.3949"
           style="fill:#1a1a18;fill-opacity:1;fill-rule:evenodd;stroke:none"
           id="path1985" />
      </g>
      <g
         id="g1987">
        <path
           d="m 261.8226,479.7213 c -2.6903,2.9021 -0.881,6.6302 3.0303,7.0251 16.3224,1.6483 3.6651,17.6638 -6.2218,9.4198 -6.8307,-5.6951 3.9812,-5.8065 -0.4621,-9.4697 -2.4137,-1.9894 -2.0684,2.1135 -3.7046,2.332 -2.5407,0.3396 0.5193,-6.5843 -4.2148,-3.6533 -2.8859,1.787 2.4228,2.7536 -0.3625,4.9757 -0.4303,-0.3589 -4.2582,-4.153 -4.576,-0.203 -0.1157,1.44 5.3396,2.1036 2.8253,3.2664 -0.5329,0.2466 -2.2978,0.311 -2.4378,1.654 -0.0865,0.8291 0.8183,3.4841 3.2156,1.6325 3.4481,-2.6632 3.1986,-1.0276 5.9043,1.8677 3.9359,4.2118 12.3712,4.4555 17.1782,0.9193 0.159,-0.1463 0.1695,-0.3937 0.0233,-0.5527 -0.1463,-0.1594 -0.394,-0.1696 -0.5531,-0.0233 -1.978,1.4548 -3.2638,2.0616 -5.8121,2.1643 -10.5591,0.4249 -9.3691,-3.9342 -12.8027,-5.8777 -4.7262,-2.6747 -4.1511,4.504 -6.2955,-0.007 0.6313,-0.6372 0.3487,-0.392 0.9295,-0.8597 -0.0255,0.0218 -0.0156,0.015 -0.0275,0.0232 0.4014,-0.1256 0.6832,-0.01 1.1679,-0.3197 3.3092,-2.1184 -2.4919,-3.4192 -2.5348,-3.7613 -0.3568,-2.8497 3.5578,0.9558 3.9493,0.8722 2.5341,-0.5392 0.972,-3.4951 0.1754,-4.7577 0.7986,-0.7475 2.4183,-1.5199 2.3738,0.2863 -0.131,5.2889 3.5033,2.7037 3.6655,1.8488 0.6159,-3.2431 3.1697,-0.0854 1.572,0.8986 -3.4545,2.1274 -2.5735,4.949 0.296,7.34 11.0194,9.1811 24.5228,-9.0476 6.7141,-10.7989 -3.1291,-0.3075 -4.6684,-3.3131 -2.4854,-5.6664 0.159,-0.1463 0.1695,-0.3938 0.0233,-0.5528 -0.1463,-0.1593 -0.3938,-0.1695 -0.5531,-0.0232"
           style="fill:#1a1a18;fill-opacity:1;fill-rule:evenodd;stroke:none"
           id="path1989" />
      </g>
      <g
         id="g1991">
        <path
           d="m 285.0511,493.9177 c 4.6959,5.4474 6.7176,6.3406 9.7569,13.0831 0.2075,0.46 1.4933,3.5923 1.5035,3.6056 l -0.0108,-0.0158 c 0.04,0.1491 0.01,0.0308 0.0694,0.3594 0.0309,0.214 0.2291,0.3625 0.4431,0.3316 0.214,-0.0306 0.3625,-0.229 0.3317,-0.443 -0.0392,-0.2103 -0.065,-0.5176 -0.209,-0.7044 -0.5244,-1.8536 -0.6738,-1.8014 -1.383,-3.3738 -3.1575,-7.0002 -5.038,-7.7032 -9.8773,-13.3144 -0.1301,-0.1726 -0.3756,-0.2066 -0.5479,-0.0765 -0.1727,0.1304 -0.2067,0.3759 -0.0766,0.5482"
           style="fill:#1a1a18;fill-opacity:1;fill-rule:evenodd;stroke:none"
           id="path1993" />
      </g>
      <g
         id="g1995">
        <path
           d="m 271.3586,499.4614 c -0.2171,4.4998 -1.2061,8.1939 -3.1232,12.2656 -0.159,0.1462 -0.1695,0.3937 -0.0232,0.553 0.1463,0.159 0.394,0.1695 0.553,0.0232 2.2213,-4.4719 3.191,-8.1141 3.329,-13.1091 -0.0739,-0.2032 -0.2985,-0.3078 -0.5017,-0.2341 -0.203,0.074 -0.3078,0.2985 -0.2339,0.5014"
           style="fill:#1a1a18;fill-opacity:1;fill-rule:evenodd;stroke:none"
           id="path1997" />
      </g>
      <g
         id="g1999">
        <path
           d="m 271.9477,514.3833 c -3.5368,-3.456 -9.1157,-6.2952 -13.1919,-1.55 -1.9814,2.3069 3.3452,13.5201 -2.4789,11.6008 -7.4106,-2.442 0.0984,-5.3215 -1.3275,-8.1278 -1.9845,-3.9064 -5.3223,3.9855 -5.3141,0.5848 0.001,-0.6582 1.0985,-2.6149 -2.031,-1.8813 -2.6779,0.6278 -0.4028,3.2927 -0.8648,3.8882 -0.1781,-0.2103 -3.1646,-4.1193 -4.3161,0.2671 -0.2948,1.1231 0.3804,1.6441 1.4721,1.2458 1.0941,0.1301 1.6061,-0.0181 0.5833,1.0973 -0.0958,0.0283 -4.4416,-1.4205 -2.8837,2.6161 1.2408,3.215 3.8373,-1.9077 7.5263,0.1817 3.4736,1.9672 8.1372,13.6474 13.7617,9.5763 4.5235,-3.274 -0.2852,-11.7919 5.0941,-10.677 0.1621,0.0337 0.2534,0.0261 0.3864,-0.0836 1.3161,-0.0216 2.8284,3.85 3.3755,4.7761 0.0119,0.212 0.1913,0.3764 0.4045,0.3688 0.216,-0.008 0.3849,-0.1891 0.377,-0.4051 -0.0261,-0.2342 -0.038,-0.2319 -0.1446,-0.4224 -0.1593,-0.8328 -2.7388,-5.7291 -4.3413,-5.0162 -6.3258,-1.2741 -1.5301,8.8209 -5.9677,11.0427 -6.8182,3.4135 -10.3947,-15.0358 -17.2642,-9.7943 -2.863,2.1844 -3.7267,-2.0015 -1.5519,-1.5605 2.9384,0.5956 3.6932,-2.4035 0.6689,-2.4715 l 0.0718,0.0539 c -0.3787,-0.1636 -0.597,0.1754 -0.8173,0.0881 -0.2477,-0.3299 0.8688,-2.7467 1.9001,-1.5338 2.5271,2.9721 2.7955,0.4961 2.2975,-0.5958 -0.923,-2.0251 0.7412,-2.293 1.688,-1.88 -0.7886,2.88 1.3924,3.4092 2.4608,1.872 2.4499,-3.5251 3.2921,-0.2732 2.6699,0.3507 -4.6429,4.6556 0.4142,7.7176 3.4671,7.4355 4.9461,-0.4566 0.0317,-10.1545 1.692,-12.0866 3.7372,-4.3492 8.8344,-1.5452 12.0217,1.5698 0.1463,0.159 0.394,0.1695 0.553,0.0232 0.1591,-0.1462 0.1696,-0.394 0.0233,-0.553"
           style="fill:#1a1a18;fill-opacity:1;fill-rule:evenodd;stroke:none"
           id="path2001" />
      </g>
      <g
         id="g2003">
        <path
           d="m 271.7654,528.0565 c 0.5128,1.3904 0.3671,8.9016 -0.6945,9.9822 -5.4643,5.5624 -10.0644,8.0552 -17.9969,8.6502 -5.5828,0.4187 -14.4586,-3.9662 -11.6427,-10.3411 2.4259,-5.4924 8.6213,0.368 4.7923,3.2667 l 0.011,-0.0343 c -3.5524,-0.01 2.8653,-3.6326 -1.0772,-3.5609 -5.5734,0.1009 -3.0123,10.5455 3.9345,5.6429 4.1738,-2.9454 1.427,-8.7312 -3.7607,-9.9742 -6.9418,-1.6631 -11.5123,1.9156 -9.7041,9.1233 1.0655,4.2468 7.5946,10.0122 11.3553,11.6626 8.4129,3.6924 15.2643,1.485 23.4933,-1.1124 6.6849,-2.1101 7.2725,-2.5656 12.6093,-7.1963 8.0393,-6.9755 6.3621,-9.6057 10.3261,-18.4093 1.8124,-4.0258 4.1544,-4.5921 6.8326,-1.1449 0.1256,0.1757 0.3702,0.2163 0.5459,0.0904 0.1758,-0.1256 0.2163,-0.3702 0.0905,-0.5459 -3.0427,-3.9141 -6.1061,-3.3296 -8.1814,1.2761 -3.8854,8.623 -2.268,11.3267 -10.1061,18.1253 -5.2517,4.5553 -5.7554,4.9768 -12.3242,7.0498 -8.0453,2.5393 -14.7549,4.7542 -22.9799,1.1472 -5.3688,-2.3548 -15.0105,-11.2451 -9.6774,-17.9828 2.3468,-2.965 8.1343,-1.902 10.3084,-0.2383 6.3207,4.8359 -1.315,10.612 -4.0963,8.0458 -2.2547,-2.08 0.0978,-5.9012 1.8544,-4.7041 -0.0283,0.0474 -0.0751,0.0953 -0.1029,0.127 -3.1005,3.5062 0.5511,3.8531 1.5792,2.8845 3.9838,-3.753 -3.5841,-10.3135 -6.4392,-3.8528 -3.0796,6.9676 6.1943,11.9001 12.4342,11.4347 8.1581,-0.6081 12.8029,-3.1524 18.4348,-8.8379 1.4366,-1.4499 1.6209,-9.8373 0.764,-11.0954 -0.1514,-0.1542 -0.3992,-0.1567 -0.5537,-0.005 -0.1457,0.1431 -0.1556,0.3724 -0.0286,0.5272"
           style="fill:#1a1a18;fill-opacity:1;fill-rule:evenodd;stroke:none"
           id="path2005" />
      </g>
      <g
         id="g2007">
        <path
           d="m 300.2737,524.6481 c 2.7644,3.3792 2.5711,5.7563 7.8914,6.9747 4.8438,1.1095 9.4088,-3.0096 10.8561,-7.331 2.3522,-7.024 -0.006,-4.748 5.4581,-5.2302 2.2814,-0.201 2.2612,-1.6585 1.601,-3.4356 -1.3062,-2.488 -6.3212,2.9727 -3.8004,-2.4179 2.4188,-5.1724 -3.0835,-4.841 -2.8933,-1.7774 0.1052,1.6937 -1.9156,2.2451 -2.5577,-0.2179 -1.3436,-5.154 -4.4215,-0.3382 -4.187,0.1856 0.3211,0.7175 3.1824,2.753 1.0437,3.9532 -0.0848,-0.1148 -3.3914,-4.6848 -3.907,0.3359 -0.2886,2.81 6.0772,-0.3294 4.2171,4.6256 -2.0798,5.5403 -7.3347,3.001 -7.4353,-2.6592 -0.1927,-10.8527 -10.0706,-7.8349 -15.6988,-2.732 -0.1593,0.1463 -0.1695,0.394 -0.0233,0.553 0.1463,0.1591 0.3938,0.1695 0.5528,0.0233 5.1999,-4.714 14.2078,-7.7891 14.3867,2.1464 0.1202,6.6656 6.5919,9.233 8.9577,2.9239 2.0373,-5.4329 -4.3149,-3.5668 -4.1797,-4.7888 0.4559,-4.1222 1.8085,0.9864 3.4297,0.2962 3.0175,-1.2853 -0.1999,-4.4966 -0.5916,-4.9502 2.1322,-2.1282 2.1027,-1.9142 2.6719,0.2611 1.0075,3.8514 4.2353,2.164 4.1015,-0.0128 -0.1239,-2.0111 2.3502,-1.5111 2.0874,-0.2049 -0.8351,4.1528 -4.1366,5.7475 2.5336,4.6687 1.1758,-0.1902 2.0047,2.5531 -1.3445,2.4624 -5.0062,-0.1355 -3.4934,0.7246 -5.1749,5.775 -1.3073,3.9263 -5.5097,7.7982 -9.9286,6.7848 -4.9697,-1.1396 -4.8458,-3.5068 -7.4903,-6.7417 -0.1463,-0.159 -0.394,-0.1695 -0.553,-0.0232 -0.159,0.1463 -0.1695,0.394 -0.0233,0.553 z m 25.8066,-9.0221 -0.004,-0.0116 0.007,0.0159 -0.003,-0.004 z"
           style="fill:#1a1a18;fill-opacity:1;fill-rule:evenodd;stroke:none"
           id="path2009" />
      </g>
      <g
         id="g2011">
        <path
           d="m 277.465,494.8285 c 1.8049,-1.2866 1.6886,3.6935 -0.4915,1.5562 -0.4649,-0.4555 -0.1037,-1.0562 0.2798,-1.4689 0.0751,-0.007 0.1491,-0.036 0.2117,-0.0873 z m -0.2038,-0.7843 c -0.117,-0.0222 -0.2429,0.01 -0.3376,0.0963 -1.1146,1.0245 -1.4627,2.5696 0.1582,3.2227 3.6856,1.4845 2.7473,-4.651 0.1794,-3.319"
           style="fill:#1a1a18;fill-opacity:1;fill-rule:evenodd;stroke:none"
           id="path2013" />
      </g>
      <g
         id="g2015">
        <path
           d="m 277.4117,500.7146 c 4.3855,-0.949 5.4205,4.7875 1.8621,5.4814 -3.6385,0.7095 -3.0934,-3.8645 -3.1272,-3.9739 0.005,0.015 0.004,0.008 0.006,0.0193 -0.004,-0.3609 0.8354,-1.2223 1.131,-1.5194 0.042,0.005 0.0851,0.002 0.1284,-0.007 z m -0.2905,-0.716 c -0.112,-0.0156 -0.2299,0.017 -0.3198,0.0995 -0.4782,0.4774 -1.5026,1.4162 -1.4144,2.2428 -0.9142,2.41 1.6596,5.4408 4.3061,4.5521 4.4419,-1.4913 2.5979,-8.0345 -2.4548,-6.9417 -0.0423,0.01 -0.0817,0.0258 -0.1171,0.0473"
           style="fill:#1a1a18;fill-opacity:1;fill-rule:evenodd;stroke:none"
           id="path2017" />
      </g>
      <g
         id="g2019">
        <path
           d="m 279.3229,510.5931 c 5.9167,-1.6688 7.4148,8.8138 0.5629,8.492 -3.1476,-0.1479 -4.6111,-4.8991 -2.374,-7.0951 l 1.4641,-1.1812 0.0173,-0.005 c 0.142,-0.006 0.2665,-0.0893 0.3297,-0.2106 z m -0.5851,-0.5298 -0.007,0.002 c -4.6432,1.4842 -3.7534,9.5698 1.1219,9.8019 7.9943,0.3804 6.3822,-12.1884 -0.9187,-9.9745 -0.0864,0.034 -0.1542,0.0955 -0.1967,0.1706"
           style="fill:#1a1a18;fill-opacity:1;fill-rule:evenodd;stroke:none"
           id="path2021" />
      </g>
      <g
         id="g2023">
        <path
           d="m 280.552,524.5101 c 3.06,-1.0772 1.9409,6.2495 -0.834,3.6893 -1.1798,-1.0888 -0.8943,-3.2157 0.529,-3.6856 0.0946,0.0388 0.2041,0.0408 0.305,-0.004 z m -0.0737,-0.7889 c -0.0647,-0.0258 -0.1367,-0.0346 -0.2101,-0.0221 -2.9534,0.6925 -2.5489,5.184 0.059,5.6979 3.9722,0.7827 3.6558,-6.5781 0.1511,-5.6758"
           style="fill:#1a1a18;fill-opacity:1;fill-rule:evenodd;stroke:none"
           id="path2025" />
      </g>
      <g
         id="g2027">
        <path
           d="m 278.3733,535.163 c 2.4434,-0.0105 3.052,1.8666 1.087,3.5988 -0.9476,0.1503 -3.5475,-1.2756 -1.1593,-3.6003 0.0238,0.003 0.0479,0.003 0.0723,10e-4 z m 0.2109,-0.7762 -0.009,-0.01 c -0.1463,-0.1593 -0.3938,-0.1695 -0.5531,-0.0232 -1.0933,0.9564 -2.1033,2.1044 -1.207,3.7034 2.7746,4.9504 7.6981,-3.4529 1.7689,-3.6706"
           style="fill:#1a1a18;fill-opacity:1;fill-rule:evenodd;stroke:none"
           id="path2029" />
      </g>
      <g
         id="g2031">
        <path
           d="m 273.0796,542.6853 c 1.3456,-0.9091 2.5307,0.8594 0.5842,2.1821 -0.0907,-0.0111 -0.1823,-0.004 -0.2758,0.0343 -0.972,-0.3422 -1.1353,-1.2121 -0.4283,-2.0002 0.0649,-0.0595 0.1048,-0.1357 0.1199,-0.2162 z m -0.7362,-0.2597 c -1.5537,1.8612 0.3064,3.4418 1.2577,3.2278 0.0468,0.0173 0.1018,0.0252 0.1491,0.0235 2.6822,-0.0938 1.9571,-5.9397 -1.2815,-3.5101 -0.0763,0.07 -0.1182,0.1633 -0.1253,0.2588"
           style="fill:#1a1a18;fill-opacity:1;fill-rule:evenodd;stroke:none"
           id="path2033" />
      </g>
      <g
         id="g2035">
        <path
           d="m 267.446,546.6753 c 0.5051,-0.0998 1.8561,1.0219 0.157,2.1662 -1.1914,-0.4586 -2.0443,-1.0465 -0.269,-2.0769 0.044,-0.0232 0.0814,-0.0539 0.112,-0.0893 z m -0.5077,-0.5851 c -2.0367,1.1997 -1.7376,3.0376 0.5635,3.5397 l -0.0754,-0.0616 c 1.7224,1.0066 2.7323,-4.695 -0.3359,-3.5983 -0.0623,0.0278 -0.1136,0.0698 -0.1522,0.1202"
           style="fill:#1a1a18;fill-opacity:1;fill-rule:evenodd;stroke:none"
           id="path2037" />
      </g>
      <g
         id="g2039">
        <path
           d="m 260.2094,548.9175 c 0.0797,0.0258 0.1534,0.0525 0.2223,0.0794 l 0.0167,0.0147 c 0.0774,0.0842 0.1831,0.1267 0.2894,0.1264 1.673,0.9216 -1.5911,2.2542 -1.4893,0.3975 0.0167,-0.3053 0.3498,-0.7532 0.7659,-0.7283 0.051,0.0533 0.1176,0.0927 0.195,0.1103 z m 0.6287,-0.5882 c -1.3033,-0.9513 -2.5435,0.5122 -2.3519,1.4168 0.7733,3.6507 5.711,0.091 2.3519,-1.4168"
           style="fill:#1a1a18;fill-opacity:1;fill-rule:evenodd;stroke:none"
           id="path2041" />
      </g>
      <g
         id="g2043">
        <path
           d="m 254.0475,549.7671 c 0.8033,-0.3068 0.3804,2.2186 -0.3745,0.8469 -0.1434,-0.2607 0.1038,-0.5201 0.2704,-0.6896 0.0488,-0.0448 0.0834,-0.099 0.1041,-0.1573 z m -0.8215,-0.2041 c -0.4845,0.6247 -0.5874,1.4116 0.1942,1.8751 2.7068,1.6047 2.0647,-3.7029 -0.0582,-2.1651 -0.0881,0.0757 -0.134,0.1822 -0.136,0.29"
           style="fill:#1a1a18;fill-opacity:1;fill-rule:evenodd;stroke:none"
           id="path2045" />
      </g>
    </g>
    <path
       style="fill:#ffffff;fill-opacity:0.99;stroke-width:0.00446408"
       d="m 48.947241,115.2389 c -0.914687,-0.26269 -2.195618,-1.16987 -2.834432,-2.0074 -0.289366,-0.37938 -0.526121,-0.72866 -0.526121,-0.77618 0,-0.0475 0.335512,-0.14006 0.745582,-0.20563 0.904684,-0.14466 1.895432,-1.05332 2.219662,-2.03575 0.302738,-0.91731 0.0033,-1.94879 -0.784974,-2.704 -0.506134,-0.48491 -0.69881,-0.54707 -1.43759,-0.4638 -0.828502,0.0934 -0.862087,0.0752 -1.163726,-0.63115 -0.788745,-1.84691 -4.176958,-2.12681 -4.890569,-0.404 -0.371475,0.89682 -0.170831,2.6591 0.368061,3.23273 0.38122,0.40579 0.396576,0.48108 0.119783,0.58729 -0.910401,0.34936 -3.324917,-0.71496 -4.400143,-1.93957 -2.611701,-2.97456 -2.21918,-6.60896 0.871702,-8.071178 2.912118,-1.377653 5.065421,-0.507904 7.268313,2.935768 0.545742,0.85313 0.690192,1.27868 0.690192,2.0333 0,1.50903 0.710976,1.85833 1.841693,0.90484 2.43769,-2.05563 5.981442,-0.94032 7.625914,2.40008 0.83917,1.7046 0.748296,2.5273 -0.483892,4.38077 -1.009412,1.51838 -1.874176,2.27318 -3.099718,2.70558 -0.92136,0.32507 -1.176537,0.33206 -2.129737,0.0583 z"
       id="path16277"
       transform="matrix(0.26458333,0,0,0.26458333,67.11012,238.22692)" />
    <path
       style="fill:#ffffff;fill-opacity:0.99;stroke-width:0.00446408"
       d="m 48.947241,115.2389 c -0.914687,-0.26269 -2.195618,-1.16987 -2.834432,-2.0074 -0.632172,-0.82882 -0.643467,-0.91291 -0.122638,-0.91291 1.001163,0 2.403128,-1.24849 2.646563,-2.35684 0.175447,-0.7988 -0.178331,-1.78937 -0.87872,-2.46038 -0.495387,-0.47461 -0.693478,-0.53815 -1.422638,-0.45633 -0.819751,0.092 -0.858571,0.071 -1.201785,-0.64957 -0.852134,-1.78905 -4.080813,-2.11042 -4.823627,-0.48012 -0.404373,0.8875 -0.293046,2.32596 0.24091,3.11279 0.583875,0.86038 0.347058,1.02575 -1.028971,0.7185 -1.758154,-0.39257 -3.295643,-1.61663 -4.1609,-3.31267 -1.425519,-2.79425 -0.715197,-5.36457 1.826138,-6.607928 2.87928,-1.408701 5.112338,-0.514339 7.315648,2.929988 0.545742,0.85313 0.690192,1.27868 0.690192,2.0333 0,1.60304 0.643174,1.83483 2.069758,0.74589 2.500452,-1.90864 5.962019,-0.618 7.530348,2.80768 0.680983,1.48747 0.547678,2.38111 -0.616391,4.13212 -0.978245,1.4715 -1.931578,2.31984 -3.060348,2.72332 -0.829029,0.29634 -1.251021,0.30423 -2.169107,0.0406 z"
       id="path16279"
       transform="matrix(0.26458333,0,0,0.26458333,67.11012,238.22692)" />
  </g>
</svg>
