<svg width="56" height="56" viewBox="0 0 56 56" fill="none" xmlns="http://www.w3.org/2000/svg">
<g clip-path="url(#clip0)">
<path d="M28.0001 56C24.4315 56 21.5382 53.1067 21.5382 49.5381V6.46155C21.5382 2.89297 24.4315 0 28.0001 0C31.5687 0 34.4616 2.89297 34.4616 6.46155V49.5381C34.4616 53.1068 31.5687 56 28.0001 56Z" fill="#FF0000"/>
<path d="M49.5396 34.4618C47.886 34.4618 46.232 33.8312 44.9712 32.5695L28.0015 15.6004L11.0318 32.5695C8.50871 35.0931 4.4171 35.0931 1.89393 32.5695C-0.629682 30.0459 -0.629682 25.9548 1.89393 23.4311L23.4321 1.8932C25.9551 -0.630414 30.0467 -0.630414 32.5696 1.8932L54.1082 23.4313C56.6316 25.9549 56.6316 30.046 54.1082 32.5697C52.8464 33.8311 51.1927 34.4618 49.5396 34.4618Z" fill="#FF0000"/>
</g>
<defs>
<clipPath id="clip0">
<rect width="56" height="56" fill="white"/>
</clipPath>
</defs>
</svg>
