<?xml version="1.0" encoding="UTF-8"?> <svg xmlns="http://www.w3.org/2000/svg" height="512pt" viewBox="0 -1 512.0047 512" width="512pt"> <path d="m319.53125 303.3125c-1.1875 1.925781-3.089844 3.300781-5.292969 3.824219-2.203125.523437-4.523437.152343-6.449219-1.035157l-81.304687-50.082031-.964844 1.015625 80.496094 76.332032c1.640625 1.558593 3.832031 2.398437 6.097656 2.339843 2.261719-.058593 4.410157-1.015625 5.964844-2.65625l21.265625-22.417969c-4.804688-6.109374-9.480469-11.886718-13.78125-17.117187zm0 0" fill="#728f9c"></path> <path d="m314.699219 278.605469-88.566407-22.816407 81.65625 50.296876c1.925782 1.183593 4.246094 1.558593 6.449219 1.035156 2.203125-.523438 4.105469-1.898438 5.292969-3.828125l6.03125-9.804688c-2.464844-2.996093-4.804688-5.808593-6.910156-8.328125-1.648438-1.964844-2.980469-4.175781-3.953125-6.554687zm0 0" fill="#d7dee2"></path> <path d="m441.429688 203.042969-19.882813 20.90625-15.53125 16.386719-30.207031 31.742187-20.480469-20.480469c-.839844-.761718-1.722656-1.472656-2.644531-2.132812l45.910156-74.496094 9.46875-15.359375 33.027344 31.316406c3.421875 3.261719 3.574218 8.671875.339844 12.117188zm0 0" fill="#475962"></path> <path d="m415.828125 203.042969-19.882813 20.90625-15.53125 16.386719-17.746093 18.601562-7.339844-7.339844c-.839844-.761718-1.722656-1.472656-2.644531-2.132812l45.910156-74.496094 16.894531 15.957031c3.425781 3.261719 3.578125 8.671875.339844 12.117188zm0 0" fill="#728f9c"></path> <path d="m240.945312 15.609375c-.804687-4.640625-5.222656-7.75-9.863281-6.945313l-100.890625 17.519532c-4.640625.804687-7.75 5.222656-6.945312 9.863281l19.421875 111.890625c3.601562 3.375 6.3125 7.589844 7.886719 12.269531l3.046874 9.128907 6.175782-9.265626c5.34375-8.414062 15.710937-12.132812 25.183594-9.035156 5.246093 1.890625 9.519531 5.808594 11.855468 10.875 2.339844 5.066406 2.554688 10.855469.59375 16.082032-3.296875 8.492187-5.914062 17.234374-7.832031 26.144531-.777344 3.832031-1.707031 7.621093-2.636719 11.398437l77.71875-13.496094c4.644532-.808593 7.75-5.222656 6.949219-9.867187zm0 0" fill="#d7dee2"></path> <path d="m369.058594 89.976562-99.15625-25.597656c-2.195313-.566406-4.519532-.238281-6.46875.914063-1.949219 1.148437-3.363282 3.027343-3.925782 5.21875l-5.394531 20.925781 17.496094 100.691406c.800781 4.644532-2.304687 9.058594-6.949219 9.867188l-40.875 7.097656-11.09375 43.179688 102.042969 26.289062c-3.160156-7.707031-2.230469-16.488281 2.472656-23.363281s12.554688-10.921875 20.882813-10.769531l37.136718-144.125c1.132813-4.554688-1.625-9.167969-6.167968-10.328126zm0 0" fill="#728f9c"></path> <path d="m410.71875 138.976562-39.253906-24.175781-33.398438 129.628907c5.28125.097656 10.394532 1.875 14.597656 5.070312l60.84375-98.78125c1.1875-1.929688 1.5625-4.246094 1.039063-6.449219s-1.902344-4.105469-3.828125-5.292969zm0 0" fill="#d7dee2"></path> <path d="m171.886719 107.4375s29.925781 16.671875 32.394531 27.765625c-2.46875-11.09375 17.585938-38.875 17.585938-38.875s-29.925782-16.660156-32.425782-27.761719c2.5 11.101563-17.554687 38.871094-17.554687 38.871094zm0 0" fill="#f85b44"></path> <path d="m184.960938 151.035156c-9.472657-3.097656-19.839844.621094-25.183594 9.035156l-6.175782 9.265626-3.046874-9.128907c-3.382813-10.191406-11.972657-17.78125-22.503907-19.882812l-10.84375-2.167969c-9.3125-1.859375-18.949219.808594-25.976562 7.195312l-72.457031 66.355469c-7.265626 6.554688-11.007813 16.152344-10.105469 25.898438 2.160156 23.039062 7.347656 67.480469 8.210937 116.410156.21875 13.136719-1.800781 26.214844-5.972656 38.671875l-2.371094 7.050781v85.332031c0 9.425782 7.640625 17.066407 17.066406 17.066407h37.621094c7.949219 0 14.84375-5.484375 16.632813-13.226563l19.875-86.132812c1.222656-5.867188 4.917969-10.917969 10.136719-13.859375 19.601562-10.378907 52.265624-54.246094 52.265624-91.582031 0-15.359376 9.25-40.027344 16.632813-57.230469 4.820313-11.585938 8.445313-23.636719 10.8125-35.960938 1.914063-8.910156 4.53125-17.65625 7.832031-26.152343 1.960938-5.226563 1.746094-11.015626-.59375-16.082032-2.335937-5.066406-6.609375-8.984375-11.855468-10.875zm0 0" fill="#ffe4be"></path> <path d="m503.296875 482.679688c.691406 4.894531-.773437 9.851562-4.011719 13.582031-3.242187 3.730469-7.941406 5.875-12.886718 5.875h-77.054688c-5.730469.042969-11.089844-2.816407-14.25-7.59375-7.058594-10.347657-10.917969-22.546875-11.09375-35.070313 0-25.601562 0-68.269531-8.535156-93.867187-6.140625-18.519531-38.996094-59.222657-56.832032-80.46875-6.808593-8.128907-7.703124-19.683594-2.21875-28.757813 2.371094-3.992187 5.835938-7.21875 9.984376-9.300781 3.515624-1.792969 7.40625-2.730469 11.351562-2.734375 6.59375-.035156 12.929688 2.578125 17.578125 7.253906l20.480469 20.480469 35.070312-36.949219 10.667969-11.179687 69.460937 64.511719c9.035157 9.078124 13.515626 21.734374 12.203126 34.476562-2.476563 25.257812-8.277344 73.8125-8.277344 119.464844zm0 0" fill="#cab596"></path> <path d="m480.597656 482.679688c.691406 4.894531-.773437 9.851562-4.011718 13.582031-3.242188 3.730469-7.941407 5.875-12.882813 5.875h-54.359375c-5.730469.042969-11.089844-2.816407-14.25-7.59375-7.058594-10.347657-10.917969-22.546875-11.09375-35.070313 0-25.601562 0-68.269531-8.535156-93.867187-6.140625-18.519531-38.996094-59.222657-56.832032-80.46875-6.808593-8.128907-7.703124-19.683594-2.21875-28.757813 2.371094-3.992187 5.835938-7.21875 9.984376-9.300781 2.21875 1.105469 4.355468-2.816406 6.230468-.941406l20.480469 8.535156 11.09375 5.800781 11.605469 11.605469 35.070312-36.949219 57.34375 53.332032c9.097656 9.042968 13.617188 21.71875 12.289063 34.476562-2.472657 25.257812-8.277344 73.8125-8.277344 119.464844zm0 0" fill="#ffe4be"></path> <path d="m433.664062 223.558594 13.917969-14.675782c6.484375-6.839843 6.203125-17.636718-.632812-24.125l-28.015625-26.574218 1.84375-2.984375c2.375-3.855469 3.121094-8.496094 2.070312-12.902344-1.046875-4.402344-3.800781-8.210937-7.660156-10.582031l-33.882812-20.882813 2.15625-8.371093c2.347656-9.121094-3.140626-18.421876-12.261719-20.777344l-99.171875-25.566406c-5.175782-1.308594-10.664063-.113282-14.824219 3.234374l-7.84375-45.226562c-1.625-9.277344-10.457031-15.480469-19.734375-13.867188l-100.882812 17.519532c-4.460938.769531-8.4375 3.285156-11.042969 6.984375-2.609375 3.703125-3.640625 8.289062-2.867188 12.753906l16.496094 94.964844c-.546875-.136719-1.042969-.398438-1.605469-.511719l-10.84375-2.175781c-11.976562-2.382813-24.375 1.058593-33.410156 9.277343l-72.472656 66.320313c-9.1875 8.402344-13.925782 20.617187-12.800782 33.015625l1.210938 12.363281c2.484375 24.875 6.25 62.464844 6.972656 103.390625.195313 12.175782-1.6875 24.296875-5.5625 35.839844l-2.347656 7.058594c-.296875.863281-.4570312 1.765625-.46875 2.679687v85.332031c0 14.140626 11.460938 25.601563 25.601562 25.601563h37.621094c11.9375.046875 22.304688-8.199219 24.945313-19.839844l19.871093-86.136719c.667969-3.453124 2.789063-6.453124 5.820313-8.234374 22.871094-12.082032 56.808594-59.085938 56.808594-99.125 2.207031-18.730469 7.597656-36.949219 15.9375-53.871094 2.8125-6.667969 5.195312-13.507813 7.136719-20.476563l18.492187-3.210937-7.835937 30.394531c-1.171876 4.5625 1.574218 9.210937 6.136718 10.386719l8.882813 2.296875c.09375.09375.136719.230469.230469.324219l80.496093 76.339843c3.15625 3.015625 7.363281 4.695313 11.730469 4.683594h.445312c4.53125-.105469 8.832032-2.019531 11.945313-5.316406l14.414063-15.191407c11.433593 13.574219 21.078124 28.558594 28.699218 44.589844 8.085938 24.300782 8.085938 66.164063 8.085938 91.1875.167968 14.199219 4.519531 28.039063 12.511718 39.78125 4.75 7.136719 12.757813 11.425782 21.332032 11.417969h77.089844c7.515624-.003906 14.644531-3.308594 19.507812-9.035156 4.859375-5.726563 6.960938-13.300781 5.742188-20.714844l-8.183594-39.371094c.070312-38.921875 4.3125-79.605469 7.128906-106.589843l1.148438-11.171876c1.5625-15.410156-3.9375-30.695312-14.957032-41.582031zm1.535157-26.453125-59.511719 62.746093-12.003906-12 27.996094-45.40625 18.117187-29.40625zm-28.960938-50.894531-20.121093 32.683593-36.4375 59.152344c-.359376-.136719-.675782-.375-1.035157-.492187l28.160157-109.457032zm-255.609375-2.371094-18.976562-109.242188 100.890625-17.539062 13.164062 75.828125 17.496094 100.695312-65.023437 11.289063c.476562-2.277344 1.160156-4.726563 1.816406-7.167969.375-1.359375.621094-2.621094 1.050781-4.019531 1.222656-4.0625 2.667969-8.300782 4.34375-12.714844 2.789063-7.296875 2.523437-15.40625-.746094-22.503906-3.265625-7.207032-9.300781-12.789063-16.742187-15.488282-1.453125-.523437-2.949219-.925781-4.46875-1.203124-.546875-.09375-1.09375-.117188-1.632813-.179688-.964843-.132812-1.933593-.21875-2.90625-.253906-.179687 0-.359375-.042969-.539062-.042969-.316407 0-.632813.085937-.957031.101563-1.429688.042968-2.855469.195312-4.265626.453124-.503906.09375-1 .164063-1.492187.28125-1.753906.417969-3.46875.988282-5.121094 1.707032-.316406.136718-.605469.316406-.921875.460937-1.414062.671875-2.777344 1.445313-4.078125 2.3125-.425781.28125-.855469.5625-1.253906.851563-1.554687 1.121094-3.003906 2.375-4.328125 3.757812-1.4375-2.601562-3.175781-5.023437-5.179688-7.21875zm-34.132812 95.933594c-.546875 2.191406-1.074219 4.316406-1.613282 6.398437-1.273437-.859375-2.59375-1.65625-3.949218-2.382813v-14.503906c-.027344-7.390625 4.152344-14.152344 10.777344-17.425781l3.039062-1.519531c-3.429688 10.496094-5.972656 20.4375-8.226562 29.464844zm37.105468 57.5625c0 34.527343-30.96875 75.164062-47.738281 84.046874-7.414062 4.089844-12.6875 11.199219-14.453125 19.480469l-19.875 86.136719c-.878906 3.875-4.335937 6.621094-8.3125 6.605469h-37.621094c-4.714843 0-8.535156-3.820313-8.535156-8.535157v-83.949218l1.921875-5.734375c4.484375-13.375 6.660157-27.417969 6.433594-41.523438-.742187-41.625-4.539063-79.632812-7.058594-104.78125l-1.195312-12.269531c-.667969-7.066406 2.054687-14.03125 7.332031-18.773438l72.464844-66.324218c5.027344-4.554688 11.917968-6.453125 18.566406-5.117188l10.855469 2.175782c4.496093.960937 8.5625 3.355468 11.582031 6.824218.777344.796875 1.492188 1.65625 2.140625 2.5625.980469 1.496094 1.769531 3.109375 2.347656 4.804688l1.78125 5.355468c-3.789062 6.019532-7.210937 12.261719-10.238281 18.699219-.429688.082031-.851562.199219-1.265625.339844l-6.320313 3.167969c-1.367187-6.953125-4.613281-13.398438-9.386718-18.628906-3.347656-3.234376-8.671875-3.1875-11.964844.101562-3.289062 3.292969-3.335938 8.617188-.101562 11.964844 3.289062 4.277344 5.253906 9.429687 5.640624 14.8125-10.425781 6.65625-16.734374 18.171875-16.734374 30.539062v8.9375c-2.824219-.421875-5.675782-.640625-8.535157-.648437-4.710937 0-8.53125 3.820312-8.53125 8.53125 0 4.714843 3.820313 8.535156 8.53125 8.535156 7.667969-.308594 15.207031 2.042969 21.335938 6.664063.980469.753906 2.121093 1.28125 3.335937 1.535156-2 7.433594-6.324218 14.03125-12.339844 18.832031-3.921874 2.617187-4.980468 7.914063-2.363281 11.835937 2.613281 3.921876 7.914063 4.980469 11.835938 2.363282 15.539062-10.367188 20.359375-29.644532 25.941406-51.964844 4.910156-24.765625 14.269531-48.4375 27.621094-69.863281l6.1875-9.269531c3.148437-5.132813 9.363281-7.496094 15.128906-5.757813 3.15625 1.140625 5.71875 3.5 7.109375 6.554687 1.367188 2.957032 1.480469 6.34375.316406 9.386719-3.480468 8.921875-6.226562 18.109375-8.21875 27.476563-.757812 3.695312-1.621094 7.355468-2.558594 11-1.980468 7.949218-4.566406 15.734375-7.742187 23.285156-11.492187 26.777344-17.320313 47.171875-17.320313 60.585938zm115.8125-87.816407c.308594-.117187.570313-.296875.855469-.433593.726563-.3125 1.433594-.675782 2.113281-1.082032.308594-.199218.554688-.453125.855469-.667968.613281-.421876 1.203125-.882813 1.757813-1.382813.554687-.566406 1.074218-1.171875 1.550781-1.808594.1875-.238281.417969-.433593.597656-.691406.070313-.09375.101563-.203125.171875-.304687 1.105469-1.566407 1.898438-3.328126 2.347656-5.191407.042969-.167969.117188-.324219.160157-.492187.1875-.871094.300781-1.757813.34375-2.648438 0-.238281.082031-.460937.082031-.691406.039062-1.140625-.042969-2.285156-.246094-3.410156l-17.175781-98.917969 4.921875-19.140625 99.183594 25.546875 2.132812-8.269531-5.855468 22.734375-31.914063 123.859375c-.441406.085937-.851563.285156-1.289063.386718-1.671874.363282-3.3125.855469-4.90625 1.476563-.851562.339844-1.621093.800781-2.429687 1.210937-1.277344.597657-2.515625 1.273438-3.703125 2.03125-1.125.808594-2.195312 1.6875-3.203125 2.636719-.730469.648438-1.535156 1.203125-2.207031 1.910157-1.699219 1.773437-3.199219 3.726562-4.464844 5.828124-1.210938 2.082032-2.195312 4.289063-2.933594 6.578126-.164062.496093-.324218.984374-.460937 1.476562-.675781 2.285156-1.105469 4.632812-1.28125 7.007812v.066407l-76.132813-19.625h-.050781l-5.121094-1.332031 7.621094-29.585938 35.445313-6.160156c1.105468-.195313 2.1875-.503906 3.234374-.914063zm9.300782 68.636719 30.082031 7.746094.125.1875c.9375 1.605468 2 3.128906 3.183594 4.558594 1.042969 1.234374 1.964843 2.378906 2.972656 3.589843l-2.816406 4.585938zm33.179687 49.003906-25.601562-24.308594 17.066406 10.511719c1.230469.734375 2.550781 1.308594 3.925781 1.707031.351563.109376.683594.1875 1.03125.273438 1.144532.273438 2.308594.429688 3.484375.46875.160157 0 .3125.066406.476563.066406h.1875c1.3125-.015625 2.617187-.179687 3.890625-.484375.222656-.050781.425781-.144531.640625-.214843 1.035156-.289063 2.035156-.683594 2.996094-1.167969.324218-.171875.648437-.339844.964843-.539063.886719-.523437 1.722657-1.128906 2.5-1.808594.230469-.195312.484375-.367187.707031-.585937.898438-.855469 1.699219-1.808594 2.382813-2.84375.527344.648437 1.023437 1.28125 1.535156 1.921875zm180.957031 163.5c-1.613281 1.882813-3.972656 2.960938-6.453124 2.945313h-77.089844c-2.867188.003906-5.546875-1.429688-7.132813-3.824219-6.121093-8.9375-9.472656-19.480469-9.640625-30.308594 0-26.054687 0-69.652344-8.980468-96.566406-5.613282-16.84375-29.695313-48.476562-51.378907-74.808594-.289062-.359375-.527343-.632812-.851562-.984375-1.476563-1.789062-2.945313-3.558593-4.386719-5.289062-.570312-.675781-1.230469-1.476563-1.765625-2.117188-.527344-.734375-.996094-1.511719-1.398437-2.320312-.445313-.632813-.839844-1.296875-1.1875-1.988281-.058594-.128907-.070313-.273438-.121094-.402344-.46875-1.277344-.78125-2.613282-.929688-3.96875-.050781-.476563-.042968-.945313-.050781-1.421875-.027344-1.066407.054687-2.128907.238281-3.175781.066406-.46875.15625-.933594.273438-1.390626.359375-1.496093.9375-2.933593 1.707031-4.265624.695313-1.160157 1.539063-2.222657 2.507813-3.167969.171874-.167969.375-.296875.554687-.460938.847656-.777343 1.773437-1.460937 2.765625-2.039062.09375-.058594.207031-.09375.300781-.152344 2.4375-1.300781 5.160157-1.976563 7.925781-1.972656h.246094c3.433594.070312 6.757813 1.226562 9.492188 3.304687l.851562.648438c.324219.207031.632813.441406.921875.699218l20.480469 20.480469c13.738281 13.738281 50.816406 53.664063 57.292969 73.078125.960937 2.894532 3.398437 5.058594 6.386719 5.671875 2.992187.613281 6.082031-.414062 8.109374-2.695312 2.023438-2.285157 2.679688-5.472657 1.714844-8.371094-3.273437-8.457031-7.679687-16.433594-13.089844-23.710937.105469 0 .214844 0 .316407-.070313 6.832031-3.632813 14.179687-6.199219 21.785156-7.613281 4.714844 0 8.535156-3.820313 8.535156-8.53125 0-4.714844-3.820312-8.535156-8.535156-8.535156-10.285156 1.355468-20.246094 4.53125-29.414063 9.386718-1.007812.511719-1.90625 1.214844-2.644531 2.066406-11.808593-14.882812-24.941406-28.953124-32.503906-36.804687l34.21875-36.078125 63.019531 58.539062c7.265625 7.246094 10.875 17.386719 9.8125 27.597657l-1.132812 11.09375c-4.265625 36.273437-6.675782 72.746093-7.222656 109.265625.003906.574218.0625 1.148437.179687 1.707031l8.261719 39.722656c.375 2.457031-.351563 4.957031-1.988282 6.828125zm0 0"></path> <path d="m167.730469 114.894531c13.652343 7.585938 27.070312 18.160157 28.21875 22.1875.878906 3.886719 4.328125 6.648438 8.3125 6.65625.625-.003906 1.25-.070312 1.859375-.195312 4.601562-1.019531 7.503906-5.574219 6.488281-10.171875-.640625-4.148438 7.054687-19.414063 16.167969-32.054688 1.425781-1.976562 1.941406-4.46875 1.410156-6.847656s-2.050781-4.414062-4.183594-5.601562c-13.601562-7.566407-27.058594-18.148438-28.160156-22.1875-1.089844-4.53125-5.617188-7.351563-10.167969-6.328126-4.550781 1.023438-7.433593 5.511719-6.480469 10.074219.640626 4.15625-7.074218 19.421875-16.210937 32.054688-1.425781 1.972656-1.941406 4.464843-1.414063 6.84375.527344 2.378906 2.050782 4.417969 4.179688 5.605469zm25.976562-27.476562c5.039063 4.261719 10.386719 8.136719 16.007813 11.597656-3.625 5.511719-6.832032 11.285156-9.589844 17.277344-5.039062-4.257813-10.390625-8.132813-16.011719-11.585938 3.632813-5.511719 6.839844-11.292969 9.59375-17.289062zm0 0"></path> </svg> 