<?xml version="1.0" encoding="UTF-8" standalone="no"?>
<svg
   xmlns:dc="http://purl.org/dc/elements/1.1/"
   xmlns:cc="http://creativecommons.org/ns#"
   xmlns:rdf="http://www.w3.org/1999/02/22-rdf-syntax-ns#"
   xmlns:svg="http://www.w3.org/2000/svg"
   xmlns="http://www.w3.org/2000/svg"
   xmlns:xlink="http://www.w3.org/1999/xlink"
   xmlns:sodipodi="http://sodipodi.sourceforge.net/DTD/sodipodi-0.dtd"
   xmlns:inkscape="http://www.inkscape.org/namespaces/inkscape"
   id="Capa_1"
   height="429.49472"
   viewBox="0 0 510.00097 427.81701"
   width="512.00098"
   version="1.1"
   sodipodi:docname="youtube.svg"
   inkscape:version="1.0.2 (e86c8708, 2021-01-15)">
  <metadata
     id="metadata871">
    <rdf:RDF>
      <cc:Work
         rdf:about="">
        <dc:format>image/svg+xml</dc:format>
        <dc:type
           rdf:resource="http://purl.org/dc/dcmitype/StillImage" />
      </cc:Work>
    </rdf:RDF>
  </metadata>
  <defs
     id="defs869" />
  <sodipodi:namedview
     pagecolor="#ffffff"
     bordercolor="#666666"
     borderopacity="1"
     objecttolerance="10"
     gridtolerance="10"
     guidetolerance="10"
     inkscape:pageopacity="0"
     inkscape:pageshadow="2"
     inkscape:window-width="776"
     inkscape:window-height="480"
     id="namedview867"
     showgrid="false"
     inkscape:zoom="0.28633494"
     inkscape:cx="133.26059"
     inkscape:cy="170.98936"
     inkscape:window-x="0"
     inkscape:window-y="23"
     inkscape:window-maximized="0"
     inkscape:current-layer="Capa_1" />
  <linearGradient
     id="SVGID_1_"
     gradientUnits="userSpaceOnUse"
     x1="125.695"
     x2="392.30301"
     y1="125.695"
     y2="392.30301">
    <stop
       offset="0"
       stop-color="#ff637b"
       id="stop833" />
    <stop
       offset="1"
       stop-color="#f90217"
       id="stop835" />
  </linearGradient>
  <linearGradient
     id="lg1">
    <stop
       offset="0"
       stop-color="#f90217"
       stop-opacity="0"
       id="stop838" />
    <stop
       offset=".2669"
       stop-color="#e7010f"
       stop-opacity=".267"
       id="stop840" />
    <stop
       offset=".7232"
       stop-color="#ce0004"
       stop-opacity=".723"
       id="stop842" />
    <stop
       offset="1"
       stop-color="#c50000"
       id="stop844" />
  </linearGradient>
  <linearGradient
     id="SVGID_2_"
     gradientUnits="userSpaceOnUse"
     x1="255"
     x2="255"
     xlink:href="#lg1"
     y1="362"
     y2="465.078" />
  <linearGradient
     id="SVGID_3_"
     gradientUnits="userSpaceOnUse"
     x1="389.216"
     x2="291.556"
     xlink:href="#lg1"
     y1="425.82599"
     y2="289.302" />
  <linearGradient
     id="SVGID_4_"
     gradientUnits="userSpaceOnUse"
     x1="225.813"
     x2="284.82199"
     y1="244.32201"
     y2="303.33099">
    <stop
       offset="0"
       stop-color="#ebeff0"
       id="stop849" />
    <stop
       offset="1"
       stop-color="#e3e5e4"
       id="stop851" />
  </linearGradient>
  <g
     id="g864"
     transform="translate(0.00100005,-41.092)">
    <g
       id="g858">
      <path
         d="M 486.851,106.657 C 479.878,84.393 461.716,67.418 438.98,62.185 316.795,34.061 193.201,34.061 71.018,62.185 48.282,67.418 30.121,84.393 23.148,106.657 -7.72,205.213 -7.715,304.799 23.149,403.344 c 6.973,22.264 25.135,39.239 47.87,44.472 122.183,28.124 245.776,28.124 367.961,0 22.735,-5.233 40.897,-22.208 47.87,-44.472 30.865,-98.546 30.868,-198.13 10e-4,-296.687 z"
         fill="url(#SVGID_1_)"
         id="path854"
         style="fill:url(#SVGID_1_)" />
      <path
         d="m 2.508,303.736 c 3.402,33.267 10.271,66.496 20.641,99.607 6.973,22.263 25.135,39.239 47.87,44.472 122.183,28.124 245.776,28.124 367.961,0 22.735,-5.233 40.897,-22.208 47.87,-44.472 10.37,-33.111 17.239,-66.34 20.641,-99.607 z"
         fill="url(#SVGID_2_)"
         id="path856"
         style="fill:url(#SVGID_2_)" />
    </g>
    <path
       d="m 438.981,447.815 c 22.735,-5.233 40.897,-22.208 47.87,-44.472 3.744,-11.956 7.025,-23.927 9.861,-35.91 L 369.254,239.975 c -1.995,-2.934 -4.63,-5.547 -7.927,-7.614 L 225.341,149.073 C 207.544,137.911 186.42,148.702 186.42,169.71 v 170.579 c 0,9.496 2.731,17.303 9.554,21.988 l 105.3,105.3 c 46.001,-2.643 91.953,-9.23 137.707,-19.762 z"
       fill="url(#SVGID_3_)"
       id="path860"
       style="fill:url(#SVGID_3_)" />
    <path
       d="M 361.327,232.361 225.341,147.072 c -17.797,-11.162 -40.922,1.631 -40.922,22.639 V 340.29 c 0,21.008 23.125,33.801 40.922,22.639 L 361.327,277.64 c 16.699,-10.475 16.699,-34.805 0,-45.279 z"
       fill="url(#SVGID_4_)"
       id="path862"
       style="fill:url(#SVGID_4_)" />
  </g>
</svg>
